<svg width="179" height="248" viewBox="0 0 179 248" fill="none" xmlns="http://www.w3.org/2000/svg">
<rect width="178.5" height="248" rx="8" fill="white"/>
<path d="M20.0205 22.5131H18.0117L18.001 21.3422H19.6606C19.9543 21.3422 20.1924 21.3064 20.375 21.2347C20.5612 21.1631 20.6973 21.0593 20.7832 20.9232C20.8691 20.7836 20.9121 20.6117 20.9121 20.4076C20.9121 20.1748 20.8691 19.9869 20.7832 19.8436C20.6973 19.7004 20.5612 19.5966 20.375 19.5321C20.1924 19.4641 19.9561 19.4301 19.666 19.4301H18.6455V25.8915H16.8945V18.0712H19.666C20.1351 18.0712 20.554 18.1141 20.9229 18.2001C21.2917 18.286 21.605 18.4185 21.8628 18.5975C22.1242 18.7766 22.3229 19.0004 22.459 19.2689C22.5951 19.5375 22.6631 19.8544 22.6631 20.2196C22.6631 20.5383 22.5915 20.8355 22.4482 21.1112C22.3086 21.3869 22.083 21.6107 21.7715 21.7826C21.46 21.9545 21.0428 22.0476 20.52 22.0619L20.0205 22.5131ZM19.9507 25.8915H17.5659L18.1997 24.538H19.9507C20.2192 24.538 20.4377 24.495 20.606 24.4091C20.7743 24.3231 20.8978 24.2067 20.9766 24.0599C21.0553 23.9131 21.0947 23.7484 21.0947 23.5658C21.0947 23.351 21.0571 23.1648 20.9819 23.0072C20.9103 22.8497 20.7957 22.7279 20.6382 22.642C20.4842 22.556 20.2783 22.5131 20.0205 22.5131H18.4521L18.4629 21.3422H20.3804L20.7886 21.8041C21.2863 21.7933 21.6838 21.8739 21.981 22.0458C22.2817 22.2141 22.4984 22.4361 22.6309 22.7118C22.7633 22.9875 22.8296 23.2793 22.8296 23.5873C22.8296 24.0957 22.7204 24.5219 22.502 24.8656C22.2835 25.2058 21.9595 25.4618 21.5298 25.6337C21.1037 25.8055 20.5773 25.8915 19.9507 25.8915ZM26.6162 25.9989C26.1543 25.9989 25.7407 25.9255 25.3755 25.7787C25.0103 25.6319 24.7005 25.4296 24.4463 25.1718C24.1956 24.9104 24.0041 24.6096 23.8716 24.2694C23.7391 23.9292 23.6729 23.5658 23.6729 23.1791V22.975C23.6729 22.5417 23.7337 22.1425 23.8555 21.7772C23.9772 21.412 24.1545 21.0951 24.3872 20.8265C24.6235 20.5544 24.9136 20.3449 25.2573 20.1981C25.6011 20.0477 25.9932 19.9725 26.4336 19.9725C26.8454 19.9725 27.2124 20.0406 27.5347 20.1766C27.8569 20.3091 28.1291 20.5007 28.3511 20.7513C28.5731 20.9984 28.7414 21.2974 28.856 21.6483C28.9741 21.9956 29.0332 22.3859 29.0332 22.8192V23.5067H24.3496V22.4271H27.3896V22.2982C27.3896 22.0941 27.3521 21.9151 27.2769 21.7611C27.2052 21.6071 27.0978 21.489 26.9546 21.4066C26.8149 21.3207 26.6377 21.2777 26.4229 21.2777C26.2188 21.2777 26.0487 21.3207 25.9126 21.4066C25.7765 21.4926 25.6673 21.6143 25.585 21.7719C25.5062 21.9258 25.4489 22.1066 25.4131 22.3143C25.3773 22.5184 25.3594 22.7386 25.3594 22.975V23.1791C25.3594 23.4047 25.3898 23.6106 25.4507 23.7968C25.5116 23.983 25.6011 24.1423 25.7192 24.2748C25.8374 24.4073 25.9806 24.5111 26.1489 24.5863C26.3172 24.6615 26.5088 24.6991 26.7236 24.6991C26.9886 24.6991 27.241 24.649 27.481 24.5487C27.7209 24.4449 27.9285 24.2837 28.104 24.0653L28.8882 24.9623C28.77 25.1342 28.6035 25.3007 28.3887 25.4618C28.1774 25.6193 27.9232 25.7483 27.626 25.8485C27.3288 25.9488 26.9922 25.9989 26.6162 25.9989ZM32.9434 24.2748C32.9434 24.1674 32.9093 24.0725 32.8413 23.9901C32.7769 23.9078 32.6587 23.8326 32.4868 23.7645C32.3185 23.6965 32.0804 23.6285 31.7725 23.5604C31.4824 23.4996 31.2121 23.4208 30.9614 23.3241C30.7108 23.2238 30.4924 23.1039 30.3062 22.9642C30.12 22.821 29.9749 22.6527 29.8711 22.4594C29.7673 22.2624 29.7153 22.0386 29.7153 21.788C29.7153 21.5445 29.7673 21.3135 29.8711 21.0951C29.9785 20.8767 30.1325 20.6833 30.333 20.515C30.5371 20.3467 30.7842 20.2142 31.0742 20.1176C31.3678 20.0209 31.7008 19.9725 32.0732 19.9725C32.5853 19.9725 33.0275 20.0531 33.3999 20.2142C33.7723 20.3718 34.0588 20.5938 34.2593 20.8802C34.4598 21.1631 34.5601 21.4872 34.5601 21.8524H32.8843C32.8843 21.702 32.8556 21.5713 32.7983 21.4603C32.741 21.3493 32.6533 21.2634 32.5352 21.2025C32.417 21.1381 32.2612 21.1058 32.0679 21.1058C31.9175 21.1058 31.785 21.1327 31.6704 21.1864C31.5594 21.2365 31.4717 21.3064 31.4072 21.3959C31.3464 21.4854 31.3159 21.5892 31.3159 21.7074C31.3159 21.7898 31.3338 21.8649 31.3696 21.933C31.409 21.9974 31.4681 22.0583 31.5469 22.1156C31.6292 22.1693 31.7349 22.2177 31.8638 22.2606C31.9963 22.3036 32.1574 22.3448 32.3472 22.3842C32.7518 22.4594 33.1206 22.565 33.4536 22.701C33.7902 22.8371 34.0588 23.0251 34.2593 23.265C34.4634 23.5049 34.5654 23.8218 34.5654 24.2157C34.5654 24.4735 34.5063 24.7098 34.3882 24.9247C34.2736 25.1395 34.1071 25.3275 33.8887 25.4886C33.6702 25.6498 33.4089 25.7751 33.1045 25.8646C32.8001 25.9541 32.4564 25.9989 32.0732 25.9989C31.5254 25.9989 31.0617 25.9004 30.6821 25.7035C30.3026 25.5066 30.0161 25.2595 29.8228 24.9623C29.633 24.6615 29.5381 24.3536 29.5381 24.0385H31.1118C31.119 24.2318 31.1673 24.3894 31.2568 24.5111C31.3499 24.6329 31.4699 24.7224 31.6167 24.7797C31.7635 24.8334 31.9282 24.8602 32.1108 24.8602C32.2935 24.8602 32.4456 24.8352 32.5674 24.785C32.6891 24.7349 32.7822 24.6669 32.8467 24.5809C32.9111 24.4914 32.9434 24.3894 32.9434 24.2748ZM38.4541 20.08V21.2562H35.0059V20.08H38.4541ZM35.7954 18.6405H37.4766V24.0707C37.4766 24.2318 37.4963 24.3553 37.5356 24.4413C37.575 24.5272 37.6395 24.5881 37.729 24.6239C37.8185 24.6561 37.9331 24.6722 38.0728 24.6722C38.173 24.6722 38.259 24.6687 38.3306 24.6615C38.4022 24.6543 38.4684 24.6454 38.5293 24.6346V25.8485C38.3861 25.8951 38.2339 25.9309 38.0728 25.9559C37.9116 25.9846 37.7362 25.9989 37.5464 25.9989C37.1847 25.9989 36.8714 25.9398 36.6064 25.8217C36.3451 25.7035 36.1445 25.5173 36.0049 25.2631C35.8652 25.0052 35.7954 24.6705 35.7954 24.2587V18.6405ZM46.1401 23.829C46.1401 23.6965 46.1204 23.5783 46.0811 23.4745C46.0417 23.3671 45.9701 23.2686 45.8662 23.1791C45.7624 23.0896 45.6156 23 45.4258 22.9105C45.236 22.8174 44.9871 22.7225 44.6792 22.6259C44.3283 22.5113 43.9935 22.3824 43.6748 22.2391C43.3597 22.0923 43.0786 21.9222 42.8315 21.7289C42.5845 21.5355 42.3893 21.3099 42.2461 21.0521C42.1064 20.7943 42.0366 20.4935 42.0366 20.1498C42.0366 19.8168 42.11 19.516 42.2568 19.2474C42.4036 18.9789 42.6095 18.7497 42.8745 18.5599C43.1395 18.3666 43.451 18.2198 43.8091 18.1195C44.1672 18.0157 44.561 17.9637 44.9907 17.9637C45.5636 17.9637 46.0667 18.0658 46.5 18.2699C46.9368 18.4704 47.277 18.7533 47.5205 19.1185C47.764 19.4802 47.8857 19.9009 47.8857 20.3807H46.1455C46.1455 20.1695 46.1007 19.9833 46.0112 19.8221C45.9253 19.6574 45.7928 19.5285 45.6138 19.4354C45.4383 19.3423 45.2181 19.2958 44.9531 19.2958C44.6953 19.2958 44.4787 19.3352 44.3032 19.4139C44.1313 19.4891 44.0007 19.593 43.9111 19.7255C43.8252 19.858 43.7822 20.003 43.7822 20.1605C43.7822 20.2858 43.8145 20.4004 43.8789 20.5043C43.9469 20.6045 44.0436 20.6994 44.1689 20.7889C44.2979 20.8749 44.4554 20.9572 44.6416 21.036C44.8278 21.1148 45.0409 21.19 45.2808 21.2616C45.6997 21.3941 46.0703 21.5409 46.3926 21.702C46.7184 21.8632 46.9924 22.0458 47.2144 22.2499C47.4364 22.454 47.6029 22.6849 47.7139 22.9427C47.8285 23.2006 47.8857 23.4924 47.8857 23.8182C47.8857 24.1656 47.8177 24.4735 47.6816 24.7421C47.5492 25.0106 47.3558 25.2398 47.1016 25.4296C46.8509 25.6158 46.5501 25.7572 46.1992 25.8539C45.8483 25.9506 45.4562 25.9989 45.0229 25.9989C44.6291 25.9989 44.2406 25.9488 43.8574 25.8485C43.4743 25.7447 43.127 25.5871 42.8154 25.3759C42.5075 25.1646 42.2604 24.896 42.0742 24.5702C41.8916 24.2408 41.8003 23.8505 41.8003 23.3993H43.5513C43.5513 23.6356 43.5853 23.8361 43.6533 24.0009C43.7214 24.162 43.818 24.2927 43.9434 24.3929C44.0723 24.4932 44.228 24.5648 44.4106 24.6078C44.5933 24.6508 44.7974 24.6722 45.0229 24.6722C45.2843 24.6722 45.4956 24.6364 45.6567 24.5648C45.8215 24.4896 45.9432 24.3876 46.022 24.2587C46.1007 24.1298 46.1401 23.9865 46.1401 23.829ZM51.5703 25.9989C51.1084 25.9989 50.6948 25.9255 50.3296 25.7787C49.9644 25.6319 49.6546 25.4296 49.4004 25.1718C49.1497 24.9104 48.9582 24.6096 48.8257 24.2694C48.6932 23.9292 48.627 23.5658 48.627 23.1791V22.975C48.627 22.5417 48.6878 22.1425 48.8096 21.7772C48.9313 21.412 49.1086 21.0951 49.3413 20.8265C49.5776 20.5544 49.8677 20.3449 50.2114 20.1981C50.5552 20.0477 50.9473 19.9725 51.3877 19.9725C51.7995 19.9725 52.1665 20.0406 52.4888 20.1766C52.811 20.3091 53.0832 20.5007 53.3052 20.7513C53.5272 20.9984 53.6955 21.2974 53.8101 21.6483C53.9282 21.9956 53.9873 22.3859 53.9873 22.8192V23.5067H49.3037V22.4271H52.3438V22.2982C52.3438 22.0941 52.3062 21.9151 52.231 21.7611C52.1593 21.6071 52.0519 21.489 51.9087 21.4066C51.769 21.3207 51.5918 21.2777 51.377 21.2777C51.1729 21.2777 51.0028 21.3207 50.8667 21.4066C50.7306 21.4926 50.6214 21.6143 50.5391 21.7719C50.4603 21.9258 50.403 22.1066 50.3672 22.3143C50.3314 22.5184 50.3135 22.7386 50.3135 22.975V23.1791C50.3135 23.4047 50.3439 23.6106 50.4048 23.7968C50.4657 23.983 50.5552 24.1423 50.6733 24.2748C50.7915 24.4073 50.9347 24.5111 51.103 24.5863C51.2713 24.6615 51.4629 24.6991 51.6777 24.6991C51.9427 24.6991 52.1951 24.649 52.4351 24.5487C52.675 24.4449 52.8826 24.2837 53.0581 24.0653L53.8423 24.9623C53.7241 25.1342 53.5576 25.3007 53.3428 25.4618C53.1315 25.6193 52.8773 25.7483 52.5801 25.8485C52.2829 25.9488 51.9463 25.9989 51.5703 25.9989ZM56.5708 17.6415V25.8915H54.8896V17.6415H56.5708ZM59.5464 17.6415V25.8915H57.8652V17.6415H59.5464ZM62.522 20.08V25.8915H60.8408V20.08H62.522ZM60.7388 18.576C60.7388 18.3326 60.8247 18.1338 60.9966 17.9799C61.1685 17.8223 61.394 17.7435 61.6733 17.7435C61.9526 17.7435 62.1782 17.8223 62.3501 17.9799C62.5256 18.1338 62.6133 18.3326 62.6133 18.576C62.6133 18.816 62.5256 19.0147 62.3501 19.1722C62.1782 19.3262 61.9526 19.4032 61.6733 19.4032C61.394 19.4032 61.1685 19.3262 60.9966 19.1722C60.8247 19.0147 60.7388 18.816 60.7388 18.576ZM65.374 21.3207V25.8915H63.6929V20.08H65.272L65.374 21.3207ZM65.1538 22.7816L64.7349 22.7924C64.7349 22.3555 64.7886 21.9634 64.896 21.6161C65.0034 21.2688 65.1556 20.9733 65.3525 20.7299C65.5531 20.4828 65.7912 20.2948 66.0669 20.1659C66.3462 20.037 66.6541 19.9725 66.9907 19.9725C67.2629 19.9725 67.5117 20.0119 67.7373 20.0907C67.9629 20.1695 68.1562 20.2966 68.3174 20.472C68.4821 20.6439 68.6074 20.8731 68.6934 21.1595C68.7793 21.4424 68.8223 21.7915 68.8223 22.2069V25.8915H67.1357V22.2015C67.1357 21.958 67.1017 21.7701 67.0337 21.6376C66.9657 21.5051 66.8654 21.412 66.7329 21.3583C66.604 21.3046 66.4465 21.2777 66.2603 21.2777C66.0633 21.2777 65.895 21.3171 65.7554 21.3959C65.6157 21.4711 65.5011 21.5767 65.4116 21.7128C65.3221 21.8488 65.2559 22.0082 65.2129 22.1908C65.1735 22.3734 65.1538 22.5704 65.1538 22.7816ZM73.5811 20.08H75.1064V25.682C75.1064 26.2155 74.9847 26.6685 74.7412 27.0409C74.5013 27.4133 74.1665 27.6962 73.7368 27.8895C73.3071 28.0829 72.804 28.1796 72.2275 28.1796C71.9769 28.1796 71.7155 28.1455 71.4434 28.0775C71.1712 28.0131 70.9152 27.9146 70.6753 27.7821C70.4354 27.6532 70.2349 27.4885 70.0737 27.288L70.7881 26.2997C70.9528 26.4859 71.1497 26.6363 71.3789 26.7509C71.6081 26.869 71.8695 26.9281 72.1631 26.9281C72.4316 26.9281 72.659 26.8798 72.8452 26.7831C73.0314 26.6864 73.1729 26.545 73.2695 26.3588C73.3698 26.1726 73.4199 25.947 73.4199 25.682V21.4388L73.5811 20.08ZM69.6978 23.0555V22.9427C69.6978 22.5023 69.7515 22.1013 69.8589 21.7396C69.9663 21.3744 70.1221 21.0611 70.3262 20.7997C70.5339 20.5347 70.7827 20.3306 71.0728 20.1874C71.3664 20.0441 71.6958 19.9725 72.061 19.9725C72.4549 19.9725 72.7808 20.0477 73.0386 20.1981C73.2964 20.3449 73.5059 20.5526 73.667 20.8212C73.8281 21.0861 73.9552 21.3995 74.0483 21.7611C74.1414 22.1192 74.2166 22.5077 74.2739 22.9266V23.12C74.2166 23.521 74.1343 23.8952 74.0269 24.2426C73.9194 24.5899 73.7798 24.896 73.6079 25.161C73.436 25.4224 73.2212 25.6283 72.9634 25.7787C72.7091 25.9255 72.4048 25.9989 72.0503 25.9989C71.6886 25.9989 71.3628 25.9255 71.0728 25.7787C70.7827 25.6319 70.5339 25.426 70.3262 25.161C70.1221 24.896 69.9663 24.5845 69.8589 24.2264C69.7515 23.8684 69.6978 23.4781 69.6978 23.0555ZM71.3735 22.9427V23.0555C71.3735 23.2847 71.395 23.4978 71.438 23.6947C71.4845 23.8916 71.5526 24.0653 71.6421 24.2157C71.7352 24.3661 71.8498 24.4843 71.9858 24.5702C72.1255 24.6525 72.2884 24.6937 72.4746 24.6937C72.7467 24.6937 72.967 24.6364 73.1353 24.5219C73.3071 24.4037 73.4325 24.2408 73.5112 24.0331C73.5936 23.8254 73.6366 23.5837 73.6401 23.308V22.744C73.6401 22.5149 73.6169 22.309 73.5703 22.1263C73.5238 21.9437 73.4539 21.7898 73.3608 21.6644C73.2713 21.5391 73.1532 21.4442 73.0063 21.3798C72.8631 21.3117 72.6895 21.2777 72.4854 21.2777C72.3027 21.2777 72.1416 21.3207 72.002 21.4066C71.8623 21.489 71.7459 21.6053 71.6528 21.7557C71.5597 21.9061 71.4899 22.0834 71.4434 22.2875C71.3968 22.488 71.3735 22.7064 71.3735 22.9427ZM82.1318 23.1737H80.166V21.8148H82.1318C82.4219 21.8148 82.6546 21.7665 82.8301 21.6698C83.0091 21.5731 83.1398 21.4406 83.2222 21.2723C83.3081 21.1005 83.3511 20.9071 83.3511 20.6923C83.3511 20.4703 83.3081 20.2644 83.2222 20.0746C83.1398 19.8812 83.0091 19.7255 82.8301 19.6073C82.6546 19.4891 82.4219 19.4301 82.1318 19.4301H80.7998V25.8915H79.0488V18.0712H82.1318C82.7549 18.0712 83.2884 18.184 83.7324 18.4095C84.18 18.6351 84.522 18.9449 84.7583 19.3387C84.9982 19.729 85.1182 20.1766 85.1182 20.6815C85.1182 21.1864 84.9982 21.625 84.7583 21.9974C84.522 22.3698 84.18 22.6599 83.7324 22.8676C83.2884 23.0717 82.7549 23.1737 82.1318 23.1737ZM87.7769 21.4335V25.8915H86.1011V20.08H87.6748L87.7769 21.4335ZM89.5117 20.037L89.4849 21.6C89.4132 21.5892 89.3201 21.5803 89.2056 21.5731C89.091 21.5624 88.9925 21.557 88.9102 21.557C88.6953 21.557 88.5091 21.5839 88.3516 21.6376C88.1976 21.6877 88.0687 21.7629 87.9648 21.8632C87.8646 21.9634 87.7894 22.0887 87.7393 22.2391C87.6891 22.3859 87.6641 22.556 87.6641 22.7494L87.3472 22.5936C87.3472 22.2105 87.3848 21.8596 87.46 21.5409C87.5352 21.2222 87.6444 20.9465 87.7876 20.7137C87.9308 20.4774 88.1063 20.2948 88.314 20.1659C88.5216 20.037 88.758 19.9725 89.0229 19.9725C89.1089 19.9725 89.1966 19.9779 89.2861 19.9886C89.3757 19.9994 89.4508 20.0155 89.5117 20.037ZM89.7749 23.0448V22.932C89.7749 22.5059 89.8358 22.1138 89.9575 21.7557C90.0793 21.3941 90.2583 21.0808 90.4946 20.8158C90.731 20.5508 91.021 20.3449 91.3647 20.1981C91.7085 20.0477 92.1024 19.9725 92.5464 19.9725C92.9976 19.9725 93.395 20.0477 93.7388 20.1981C94.0861 20.3449 94.3779 20.5508 94.6143 20.8158C94.8506 21.0808 95.0296 21.3941 95.1514 21.7557C95.2731 22.1138 95.334 22.5059 95.334 22.932V23.0448C95.334 23.4673 95.2731 23.8594 95.1514 24.2211C95.0296 24.5791 94.8506 24.8925 94.6143 25.161C94.3779 25.426 94.0879 25.6319 93.7441 25.7787C93.4004 25.9255 93.0047 25.9989 92.5571 25.9989C92.1131 25.9989 91.7174 25.9255 91.3701 25.7787C91.0228 25.6319 90.731 25.426 90.4946 25.161C90.2583 24.8925 90.0793 24.5791 89.9575 24.2211C89.8358 23.8594 89.7749 23.4673 89.7749 23.0448ZM91.4561 22.932V23.0448C91.4561 23.274 91.474 23.4888 91.5098 23.6893C91.5492 23.8899 91.6118 24.0653 91.6978 24.2157C91.7837 24.3661 91.8965 24.4843 92.0361 24.5702C92.1794 24.6525 92.353 24.6937 92.5571 24.6937C92.7612 24.6937 92.9331 24.6525 93.0728 24.5702C93.2124 24.4843 93.3252 24.3661 93.4111 24.2157C93.4971 24.0653 93.5579 23.8899 93.5938 23.6893C93.6331 23.4888 93.6528 23.274 93.6528 23.0448V22.932C93.6528 22.7064 93.6331 22.4952 93.5938 22.2982C93.5579 22.0977 93.4971 21.9205 93.4111 21.7665C93.3252 21.6125 93.2106 21.4926 93.0674 21.4066C92.9277 21.3207 92.7541 21.2777 92.5464 21.2777C92.3459 21.2777 92.1758 21.3207 92.0361 21.4066C91.8965 21.4926 91.7837 21.6125 91.6978 21.7665C91.6118 21.9205 91.5492 22.0977 91.5098 22.2982C91.474 22.4952 91.4561 22.7064 91.4561 22.932ZM99.5986 24.5917V17.6415H101.285V25.8915H99.7705L99.5986 24.5917ZM95.9785 23.0555V22.9427C95.9785 22.5023 96.0269 22.1013 96.1235 21.7396C96.2238 21.3744 96.3688 21.0611 96.5586 20.7997C96.752 20.5347 96.9901 20.3306 97.2729 20.1874C97.5558 20.0441 97.8799 19.9725 98.2451 19.9725C98.5817 19.9725 98.8753 20.0477 99.126 20.1981C99.3766 20.3449 99.5897 20.5526 99.7651 20.8212C99.9442 21.0861 100.089 21.3995 100.2 21.7611C100.311 22.1192 100.395 22.5077 100.453 22.9266V23.12C100.399 23.521 100.315 23.8952 100.2 24.2426C100.089 24.5899 99.9442 24.896 99.7651 25.161C99.5897 25.4224 99.3748 25.6283 99.1206 25.7787C98.87 25.9255 98.5745 25.9989 98.2344 25.9989C97.8691 25.9989 97.5451 25.9255 97.2622 25.7787C96.9829 25.6319 96.7484 25.426 96.5586 25.161C96.3688 24.896 96.2238 24.5845 96.1235 24.2264C96.0269 23.8684 95.9785 23.4781 95.9785 23.0555ZM97.6543 22.9427V23.0555C97.6543 23.2847 97.6704 23.4978 97.7026 23.6947C97.7384 23.8916 97.7957 24.0653 97.8745 24.2157C97.9533 24.3661 98.0571 24.4843 98.186 24.5702C98.3149 24.6525 98.4725 24.6937 98.6587 24.6937C98.9093 24.6937 99.1152 24.6364 99.2764 24.5219C99.4375 24.4037 99.5592 24.2408 99.6416 24.0331C99.724 23.8254 99.7669 23.5837 99.7705 23.308V22.744C99.7705 22.5149 99.7472 22.309 99.7007 22.1263C99.6541 21.9437 99.5843 21.7898 99.4912 21.6644C99.4017 21.5391 99.2889 21.4442 99.1528 21.3798C99.0168 21.3117 98.8556 21.2777 98.6694 21.2777C98.4868 21.2777 98.3311 21.3207 98.2021 21.4066C98.0732 21.489 97.9676 21.6053 97.8853 21.7557C97.8065 21.9061 97.7474 22.0834 97.708 22.2875C97.6722 22.488 97.6543 22.7064 97.6543 22.9427ZM105.813 24.4896V20.08H107.5V25.8915H105.92L105.813 24.4896ZM105.99 23.3026L106.452 23.2919C106.452 23.6822 106.406 24.042 106.312 24.3715C106.223 24.7009 106.087 24.9873 105.904 25.2308C105.725 25.4743 105.501 25.6641 105.233 25.8002C104.968 25.9327 104.658 25.9989 104.304 25.9989C104.017 25.9989 103.754 25.9595 103.514 25.8807C103.278 25.7984 103.074 25.6713 102.902 25.4994C102.73 25.3239 102.597 25.1001 102.504 24.828C102.411 24.5523 102.365 24.2229 102.365 23.8397V20.08H104.041V23.8505C104.041 24.0009 104.058 24.1298 104.094 24.2372C104.134 24.341 104.186 24.427 104.25 24.495C104.318 24.563 104.4 24.6132 104.497 24.6454C104.597 24.6776 104.707 24.6937 104.825 24.6937C105.122 24.6937 105.355 24.6329 105.523 24.5111C105.695 24.3858 105.815 24.2193 105.883 24.0116C105.954 23.8003 105.99 23.564 105.99 23.3026ZM111.018 24.6937C111.197 24.6937 111.352 24.6597 111.485 24.5917C111.617 24.5236 111.719 24.4288 111.791 24.307C111.866 24.1817 111.904 24.0313 111.904 23.8558H113.483C113.483 24.2784 113.374 24.6508 113.155 24.973C112.94 25.2953 112.65 25.5477 112.285 25.7303C111.92 25.9094 111.508 25.9989 111.05 25.9989C110.599 25.9989 110.205 25.9255 109.868 25.7787C109.532 25.6283 109.25 25.4188 109.025 25.1503C108.799 24.8817 108.629 24.5702 108.515 24.2157C108.404 23.8576 108.348 23.4709 108.348 23.0555V22.9159C108.348 22.5041 108.404 22.1192 108.515 21.7611C108.629 21.403 108.799 21.0897 109.025 20.8212C109.25 20.5526 109.53 20.3449 109.863 20.1981C110.199 20.0477 110.593 19.9725 111.044 19.9725C111.521 19.9725 111.941 20.0638 112.307 20.2465C112.675 20.4291 112.964 20.6923 113.171 21.036C113.379 21.3762 113.483 21.7862 113.483 22.266H111.904C111.904 22.0798 111.87 21.9133 111.802 21.7665C111.737 21.6161 111.637 21.4979 111.501 21.412C111.368 21.3225 111.204 21.2777 111.007 21.2777C110.803 21.2777 110.634 21.3225 110.502 21.412C110.373 21.4979 110.275 21.6179 110.207 21.7719C110.139 21.9258 110.092 22.1013 110.067 22.2982C110.042 22.4916 110.029 22.6975 110.029 22.9159V23.0555C110.029 23.2775 110.042 23.4888 110.067 23.6893C110.092 23.8863 110.139 24.0599 110.207 24.2103C110.278 24.3607 110.378 24.4789 110.507 24.5648C110.636 24.6508 110.806 24.6937 111.018 24.6937ZM117.27 20.08V21.2562H113.821V20.08H117.27ZM114.611 18.6405H116.292V24.0707C116.292 24.2318 116.312 24.3553 116.351 24.4413C116.39 24.5272 116.455 24.5881 116.544 24.6239C116.634 24.6561 116.749 24.6722 116.888 24.6722C116.988 24.6722 117.074 24.6687 117.146 24.6615C117.218 24.6543 117.284 24.6454 117.345 24.6346V25.8485C117.201 25.8951 117.049 25.9309 116.888 25.9559C116.727 25.9846 116.552 25.9989 116.362 25.9989C116 25.9989 115.687 25.9398 115.422 25.8217C115.16 25.7035 114.96 25.5173 114.82 25.2631C114.681 25.0052 114.611 24.6705 114.611 24.2587V18.6405ZM19.9023 38.2748C19.9023 38.1674 19.8683 38.0725 19.8003 37.9901C19.7358 37.9078 19.6177 37.8326 19.4458 37.7645C19.2775 37.6965 19.0394 37.6285 18.7314 37.5604C18.4414 37.4996 18.1711 37.4208 17.9204 37.3241C17.6698 37.2238 17.4513 37.1039 17.2651 36.9642C17.0789 36.821 16.9339 36.6527 16.8301 36.4594C16.7262 36.2624 16.6743 36.0386 16.6743 35.788C16.6743 35.5445 16.7262 35.3135 16.8301 35.0951C16.9375 34.8767 17.0915 34.6833 17.292 34.515C17.4961 34.3467 17.7432 34.2142 18.0332 34.1176C18.3268 34.0209 18.6598 33.9725 19.0322 33.9725C19.5443 33.9725 19.9865 34.0531 20.3589 34.2142C20.7313 34.3718 21.0177 34.5938 21.2183 34.8802C21.4188 35.1631 21.519 35.4872 21.519 35.8524H19.8433C19.8433 35.702 19.8146 35.5713 19.7573 35.4603C19.7 35.3493 19.6123 35.2634 19.4941 35.2025C19.376 35.1381 19.2202 35.1058 19.0269 35.1058C18.8765 35.1058 18.744 35.1327 18.6294 35.1864C18.5184 35.2365 18.4307 35.3064 18.3662 35.3959C18.3053 35.4854 18.2749 35.5892 18.2749 35.7074C18.2749 35.7898 18.2928 35.8649 18.3286 35.933C18.368 35.9974 18.4271 36.0583 18.5059 36.1156C18.5882 36.1693 18.6938 36.2177 18.8228 36.2606C18.9552 36.3036 19.1164 36.3448 19.3062 36.3842C19.7108 36.4594 20.0796 36.565 20.4126 36.701C20.7492 36.8371 21.0177 37.0251 21.2183 37.265C21.4224 37.5049 21.5244 37.8218 21.5244 38.2157C21.5244 38.4735 21.4653 38.7098 21.3472 38.9247C21.2326 39.1395 21.0661 39.3275 20.8477 39.4886C20.6292 39.6498 20.3678 39.7751 20.0635 39.8646C19.7591 39.9541 19.4154 39.9989 19.0322 39.9989C18.4844 39.9989 18.0207 39.9004 17.6411 39.7035C17.2616 39.5066 16.9751 39.2595 16.7817 38.9623C16.592 38.6615 16.4971 38.3536 16.4971 38.0385H18.0708C18.078 38.2318 18.1263 38.3894 18.2158 38.5111C18.3089 38.6329 18.4289 38.7224 18.5757 38.7797C18.7225 38.8334 18.8872 38.8602 19.0698 38.8602C19.2524 38.8602 19.4046 38.8352 19.5264 38.785C19.6481 38.7349 19.7412 38.6669 19.8057 38.5809C19.8701 38.4914 19.9023 38.3894 19.9023 38.2748ZM25.5366 38.5057V36.0135C25.5366 35.8381 25.5098 35.6877 25.4561 35.5624C25.4023 35.4371 25.3182 35.3386 25.2036 35.267C25.089 35.1954 24.9404 35.1595 24.7578 35.1595C24.6038 35.1595 24.4696 35.1864 24.355 35.2401C24.244 35.2938 24.158 35.3708 24.0972 35.4711C24.0399 35.5713 24.0112 35.6949 24.0112 35.8417H22.3354C22.3354 35.5803 22.3945 35.3368 22.5127 35.1112C22.6309 34.8856 22.7992 34.6869 23.0176 34.515C23.2396 34.3431 23.5046 34.2107 23.8125 34.1176C24.1204 34.0209 24.466 33.9725 24.8491 33.9725C25.3039 33.9725 25.7085 34.0495 26.063 34.2035C26.4211 34.3539 26.7039 34.5813 26.9116 34.8856C27.1193 35.1864 27.2231 35.566 27.2231 36.0243V38.4574C27.2231 38.8083 27.2428 39.084 27.2822 39.2845C27.3252 39.4815 27.3861 39.6534 27.4648 39.8002V39.8915H25.7729C25.6942 39.7232 25.6351 39.5155 25.5957 39.2684C25.5563 39.0178 25.5366 38.7635 25.5366 38.5057ZM25.7461 36.3466L25.7568 37.2704H24.9243C24.7381 37.2704 24.577 37.2937 24.4409 37.3402C24.3084 37.3868 24.201 37.4512 24.1187 37.5336C24.0363 37.6123 23.9754 37.7054 23.936 37.8129C23.9002 37.9167 23.8823 38.0313 23.8823 38.1566C23.8823 38.2748 23.911 38.3822 23.9683 38.4789C24.0256 38.572 24.1043 38.6454 24.2046 38.6991C24.3049 38.7528 24.4212 38.7797 24.5537 38.7797C24.7721 38.7797 24.9583 38.7367 25.1123 38.6508C25.2699 38.5648 25.3916 38.461 25.4775 38.3392C25.5635 38.2139 25.6064 38.0975 25.6064 37.9901L26.0093 38.6884C25.9448 38.8316 25.866 38.9802 25.7729 39.1342C25.6799 39.2845 25.5617 39.426 25.4185 39.5585C25.2752 39.6874 25.1016 39.793 24.8975 39.8754C24.6969 39.9577 24.4552 39.9989 24.1724 39.9989C23.8071 39.9989 23.4759 39.9255 23.1787 39.7787C22.8815 39.6283 22.6434 39.4224 22.4644 39.161C22.2889 38.8996 22.2012 38.5988 22.2012 38.2587C22.2012 37.9543 22.2567 37.684 22.3677 37.4476C22.4787 37.2113 22.6452 37.0108 22.8672 36.8461C23.0928 36.6814 23.3757 36.5578 23.7158 36.4755C24.056 36.3895 24.4535 36.3466 24.9082 36.3466H25.7461ZM30.0913 31.6415V39.8915H28.4102V31.6415H30.0913ZM34.0391 39.9989C33.5771 39.9989 33.1636 39.9255 32.7983 39.7787C32.4331 39.6319 32.1234 39.4296 31.8691 39.1718C31.6185 38.9104 31.4269 38.6096 31.2944 38.2694C31.1619 37.9292 31.0957 37.5658 31.0957 37.1791V36.975C31.0957 36.5417 31.1566 36.1425 31.2783 35.7772C31.4001 35.412 31.5773 35.0951 31.8101 34.8265C32.0464 34.5544 32.3364 34.3449 32.6802 34.1981C33.0239 34.0477 33.416 33.9725 33.8564 33.9725C34.2682 33.9725 34.6353 34.0406 34.9575 34.1766C35.2798 34.3091 35.5519 34.5007 35.7739 34.7513C35.9959 34.9984 36.1642 35.2974 36.2788 35.6483C36.397 35.9956 36.4561 36.3859 36.4561 36.8192V37.5067H31.7725V36.4271H34.8125V36.2982C34.8125 36.0941 34.7749 35.9151 34.6997 35.7611C34.6281 35.6071 34.5207 35.489 34.3774 35.4066C34.2378 35.3207 34.0605 35.2777 33.8457 35.2777C33.6416 35.2777 33.4715 35.3207 33.3354 35.4066C33.1994 35.4926 33.0902 35.6143 33.0078 35.7719C32.929 35.9258 32.8717 36.1066 32.8359 36.3143C32.8001 36.5184 32.7822 36.7386 32.7822 36.975V37.1791C32.7822 37.4047 32.8127 37.6106 32.8735 37.7968C32.9344 37.983 33.0239 38.1423 33.1421 38.2748C33.2603 38.4073 33.4035 38.5111 33.5718 38.5863C33.7401 38.6615 33.9316 38.6991 34.1465 38.6991C34.4115 38.6991 34.6639 38.649 34.9038 38.5487C35.1437 38.4449 35.3514 38.2837 35.5269 38.0653L36.311 38.9623C36.1929 39.1342 36.0264 39.3007 35.8115 39.4618C35.6003 39.6193 35.346 39.7483 35.0488 39.8485C34.7516 39.9488 34.415 39.9989 34.0391 39.9989ZM40.3662 38.2748C40.3662 38.1674 40.3322 38.0725 40.2642 37.9901C40.1997 37.9078 40.0815 37.8326 39.9097 37.7645C39.7414 37.6965 39.5033 37.6285 39.1953 37.5604C38.9053 37.4996 38.6349 37.4208 38.3843 37.3241C38.1336 37.2238 37.9152 37.1039 37.729 36.9642C37.5428 36.821 37.3978 36.6527 37.2939 36.4594C37.1901 36.2624 37.1382 36.0386 37.1382 35.788C37.1382 35.5445 37.1901 35.3135 37.2939 35.0951C37.4014 34.8767 37.5553 34.6833 37.7559 34.515C37.96 34.3467 38.207 34.2142 38.4971 34.1176C38.7907 34.0209 39.1237 33.9725 39.4961 33.9725C40.0081 33.9725 40.4504 34.0531 40.8228 34.2142C41.1951 34.3718 41.4816 34.5938 41.6821 34.8802C41.8826 35.1631 41.9829 35.4872 41.9829 35.8524H40.3071C40.3071 35.702 40.2785 35.5713 40.2212 35.4603C40.1639 35.3493 40.0762 35.2634 39.958 35.2025C39.8398 35.1381 39.6841 35.1058 39.4907 35.1058C39.3403 35.1058 39.2078 35.1327 39.0933 35.1864C38.9823 35.2365 38.8945 35.3064 38.8301 35.3959C38.7692 35.4854 38.7388 35.5892 38.7388 35.7074C38.7388 35.7898 38.7567 35.8649 38.7925 35.933C38.8319 35.9974 38.891 36.0583 38.9697 36.1156C39.0521 36.1693 39.1577 36.2177 39.2866 36.2606C39.4191 36.3036 39.5802 36.3448 39.77 36.3842C40.1746 36.4594 40.5435 36.565 40.8765 36.701C41.2131 36.8371 41.4816 37.0251 41.6821 37.265C41.8862 37.5049 41.9883 37.8218 41.9883 38.2157C41.9883 38.4735 41.9292 38.7098 41.811 38.9247C41.6965 39.1395 41.5299 39.3275 41.3115 39.4886C41.0931 39.6498 40.8317 39.7751 40.5273 39.8646C40.223 39.9541 39.8792 39.9989 39.4961 39.9989C38.9482 39.9989 38.4845 39.9004 38.105 39.7035C37.7254 39.5066 37.439 39.2595 37.2456 38.9623C37.0558 38.6615 36.9609 38.3536 36.9609 38.0385H38.5347C38.5418 38.2318 38.5902 38.3894 38.6797 38.5111C38.7728 38.6329 38.8927 38.7224 39.0396 38.7797C39.1864 38.8334 39.3511 38.8602 39.5337 38.8602C39.7163 38.8602 39.8685 38.8352 39.9902 38.785C40.112 38.7349 40.2051 38.6669 40.2695 38.5809C40.334 38.4914 40.3662 38.3894 40.3662 38.2748ZM50.2437 37.2704H51.9839C51.9552 37.8075 51.8084 38.2819 51.5435 38.6937C51.2821 39.1019 50.9186 39.4224 50.4531 39.6552C49.9876 39.8843 49.4344 39.9989 48.7935 39.9989C48.2814 39.9989 47.8231 39.9112 47.4185 39.7357C47.0138 39.5603 46.6701 39.3096 46.3872 38.9838C46.1079 38.6543 45.8931 38.2587 45.7427 37.7968C45.5959 37.3313 45.5225 36.8067 45.5225 36.223V35.745C45.5225 35.1613 45.5994 34.6368 45.7534 34.1713C45.9074 33.7058 46.1276 33.3083 46.4141 32.9789C46.7005 32.6495 47.0443 32.397 47.4453 32.2216C47.8464 32.0461 48.2939 31.9584 48.7881 31.9584C49.4541 31.9584 50.0163 32.0783 50.4746 32.3182C50.9329 32.5581 51.2874 32.8876 51.5381 33.3065C51.7923 33.7255 51.9445 34.2035 51.9946 34.7406H50.249C50.2347 34.4362 50.1774 34.1802 50.0771 33.9725C49.9769 33.7613 49.8229 33.6019 49.6152 33.4945C49.4076 33.3871 49.1318 33.3334 48.7881 33.3334C48.5374 33.3334 48.3172 33.3799 48.1274 33.473C47.9412 33.5661 47.7855 33.7111 47.6602 33.9081C47.5384 34.105 47.4471 34.3557 47.3862 34.66C47.3254 34.9608 47.2949 35.3189 47.2949 35.7343V36.223C47.2949 36.6348 47.3218 36.9911 47.3755 37.2919C47.4292 37.5927 47.5151 37.8415 47.6333 38.0385C47.755 38.2354 47.9108 38.3822 48.1006 38.4789C48.2904 38.5756 48.5213 38.6239 48.7935 38.6239C49.105 38.6239 49.3646 38.5756 49.5723 38.4789C49.7799 38.3786 49.9393 38.2282 50.0503 38.0277C50.1613 37.8272 50.2257 37.5747 50.2437 37.2704ZM52.6284 37.0448V36.932C52.6284 36.5059 52.6893 36.1138 52.811 35.7557C52.9328 35.3941 53.1118 35.0808 53.3481 34.8158C53.5845 34.5508 53.8745 34.3449 54.2183 34.1981C54.562 34.0477 54.9559 33.9725 55.3999 33.9725C55.8511 33.9725 56.2485 34.0477 56.5923 34.1981C56.9396 34.3449 57.2314 34.5508 57.4678 34.8158C57.7041 35.0808 57.8831 35.3941 58.0049 35.7557C58.1266 36.1138 58.1875 36.5059 58.1875 36.932V37.0448C58.1875 37.4673 58.1266 37.8594 58.0049 38.2211C57.8831 38.5791 57.7041 38.8925 57.4678 39.161C57.2314 39.426 56.9414 39.6319 56.5977 39.7787C56.2539 39.9255 55.8582 39.9989 55.4106 39.9989C54.9666 39.9989 54.571 39.9255 54.2236 39.7787C53.8763 39.6319 53.5845 39.426 53.3481 39.161C53.1118 38.8925 52.9328 38.5791 52.811 38.2211C52.6893 37.8594 52.6284 37.4673 52.6284 37.0448ZM54.3096 36.932V37.0448C54.3096 37.274 54.3275 37.4888 54.3633 37.6893C54.4027 37.8899 54.4653 38.0653 54.5513 38.2157C54.6372 38.3661 54.75 38.4843 54.8896 38.5702C55.0329 38.6525 55.2065 38.6937 55.4106 38.6937C55.6147 38.6937 55.7866 38.6525 55.9263 38.5702C56.0659 38.4843 56.1787 38.3661 56.2646 38.2157C56.3506 38.0653 56.4115 37.8899 56.4473 37.6893C56.4867 37.4888 56.5063 37.274 56.5063 37.0448V36.932C56.5063 36.7064 56.4867 36.4952 56.4473 36.2982C56.4115 36.0977 56.3506 35.9205 56.2646 35.7665C56.1787 35.6125 56.0641 35.4926 55.9209 35.4066C55.7812 35.3207 55.6076 35.2777 55.3999 35.2777C55.1994 35.2777 55.0293 35.3207 54.8896 35.4066C54.75 35.4926 54.6372 35.6125 54.5513 35.7665C54.4653 35.9205 54.4027 36.0977 54.3633 36.2982C54.3275 36.4952 54.3096 36.7064 54.3096 36.932ZM60.7119 35.3207V39.8915H59.0308V34.08H60.6099L60.7119 35.3207ZM60.4917 36.7816L60.0728 36.7924C60.0728 36.3555 60.1265 35.9634 60.2339 35.6161C60.3413 35.2688 60.4935 34.9733 60.6904 34.7299C60.891 34.4828 61.1291 34.2948 61.4048 34.1659C61.6841 34.037 61.992 33.9725 62.3286 33.9725C62.6007 33.9725 62.8496 34.0119 63.0752 34.0907C63.3008 34.1695 63.4941 34.2966 63.6553 34.472C63.82 34.6439 63.9453 34.8731 64.0312 35.1595C64.1172 35.4424 64.1602 35.7915 64.1602 36.2069V39.8915H62.4736V36.2015C62.4736 35.958 62.4396 35.7701 62.3716 35.6376C62.3035 35.5051 62.2033 35.412 62.0708 35.3583C61.9419 35.3046 61.7843 35.2777 61.5981 35.2777C61.4012 35.2777 61.2329 35.3171 61.0933 35.3959C60.9536 35.4711 60.839 35.5767 60.7495 35.7128C60.66 35.8488 60.5938 36.0082 60.5508 36.1908C60.5114 36.3734 60.4917 36.5704 60.4917 36.7816ZM68.21 34.08V35.2562H64.7617V34.08H68.21ZM65.5513 32.6405H67.2324V38.0707C67.2324 38.2318 67.2521 38.3553 67.2915 38.4413C67.3309 38.5272 67.3953 38.5881 67.4849 38.6239C67.5744 38.6561 67.689 38.6722 67.8286 38.6722C67.9289 38.6722 68.0148 38.6687 68.0864 38.6615C68.158 38.6543 68.2243 38.6454 68.2852 38.6346V39.8485C68.1419 39.8951 67.9897 39.9309 67.8286 39.9559C67.6675 39.9846 67.492 39.9989 67.3022 39.9989C66.9406 39.9989 66.6273 39.9398 66.3623 39.8217C66.1009 39.7035 65.9004 39.5173 65.7607 39.2631C65.6211 39.0052 65.5513 38.6705 65.5513 38.2587V32.6405ZM70.6968 35.4335V39.8915H69.021V34.08H70.5947L70.6968 35.4335ZM72.4316 34.037L72.4048 35.6C72.3332 35.5892 72.2401 35.5803 72.1255 35.5731C72.0109 35.5624 71.9124 35.557 71.8301 35.557C71.6152 35.557 71.429 35.5839 71.2715 35.6376C71.1175 35.6877 70.9886 35.7629 70.8848 35.8632C70.7845 35.9634 70.7093 36.0887 70.6592 36.2391C70.609 36.3859 70.584 36.556 70.584 36.7494L70.2671 36.5936C70.2671 36.2105 70.3047 35.8596 70.3799 35.5409C70.4551 35.2222 70.5643 34.9465 70.7075 34.7137C70.8507 34.4774 71.0262 34.2948 71.2339 34.1659C71.4416 34.037 71.6779 33.9725 71.9429 33.9725C72.0288 33.9725 72.1165 33.9779 72.2061 33.9886C72.2956 33.9994 72.3708 34.0155 72.4316 34.037ZM74.8862 34.08V39.8915H73.2051V34.08H74.8862ZM73.103 32.576C73.103 32.3326 73.189 32.1338 73.3608 31.9799C73.5327 31.8223 73.7583 31.7435 74.0376 31.7435C74.3169 31.7435 74.5425 31.8223 74.7144 31.9799C74.8898 32.1338 74.9775 32.3326 74.9775 32.576C74.9775 32.816 74.8898 33.0147 74.7144 33.1722C74.5425 33.3262 74.3169 33.4032 74.0376 33.4032C73.7583 33.4032 73.5327 33.3262 73.3608 33.1722C73.189 33.0147 73.103 32.816 73.103 32.576ZM76.1001 31.6415H77.7759V38.5111L77.604 39.8915H76.1001V31.6415ZM81.4014 36.9213V37.0341C81.4014 37.4745 81.3548 37.8755 81.2617 38.2372C81.1722 38.5988 81.0343 38.9122 80.8481 39.1771C80.6619 39.4385 80.4274 39.6408 80.1445 39.7841C79.8617 39.9273 79.5286 39.9989 79.1455 39.9989C78.791 39.9989 78.4867 39.9255 78.2324 39.7787C77.9782 39.6283 77.7651 39.4206 77.5933 39.1556C77.4214 38.8907 77.2817 38.5809 77.1743 38.2264C77.0705 37.8719 76.9899 37.4906 76.9326 37.0824V36.889C76.9899 36.4808 77.0705 36.0995 77.1743 35.745C77.2817 35.3905 77.4214 35.0808 77.5933 34.8158C77.7651 34.5508 77.9764 34.3449 78.2271 34.1981C78.4813 34.0477 78.7839 33.9725 79.1348 33.9725C79.5215 33.9725 79.8563 34.0459 80.1392 34.1927C80.4256 34.3396 80.6619 34.5455 80.8481 34.8104C81.0343 35.0718 81.1722 35.3833 81.2617 35.745C81.3548 36.1031 81.4014 36.4952 81.4014 36.9213ZM79.7256 37.0341V36.9213C79.7256 36.6993 79.7095 36.4898 79.6772 36.2928C79.6486 36.0959 79.5967 35.9222 79.5215 35.7719C79.4499 35.6179 79.3478 35.4979 79.2153 35.412C79.0864 35.3225 78.9199 35.2777 78.7158 35.2777C78.5153 35.2777 78.3452 35.3117 78.2056 35.3798C78.0659 35.4478 77.9531 35.5445 77.8672 35.6698C77.7812 35.7915 77.7186 35.9401 77.6792 36.1156C77.6398 36.2911 77.6183 36.4862 77.6147 36.701V37.2704C77.6183 37.5568 77.6559 37.8075 77.7275 38.0223C77.7992 38.2372 77.9155 38.4037 78.0767 38.5219C78.2378 38.6364 78.4544 38.6937 78.7266 38.6937C78.9342 38.6937 79.1025 38.6543 79.2314 38.5756C79.3639 38.4932 79.4642 38.3786 79.5322 38.2318C79.6038 38.085 79.654 37.9095 79.6826 37.7054C79.7113 37.5013 79.7256 37.2775 79.7256 37.0341ZM85.7036 38.4896V34.08H87.3901V39.8915H85.811L85.7036 38.4896ZM85.8809 37.3026L86.3428 37.2919C86.3428 37.6822 86.2962 38.042 86.2031 38.3715C86.1136 38.7009 85.9775 38.9873 85.7949 39.2308C85.6159 39.4743 85.3921 39.6641 85.1235 39.8002C84.8586 39.9327 84.5488 39.9989 84.1943 39.9989C83.9079 39.9989 83.6447 39.9595 83.4048 39.8807C83.1685 39.7984 82.9644 39.6713 82.7925 39.4994C82.6206 39.3239 82.4881 39.1001 82.395 38.828C82.3019 38.5523 82.2554 38.2229 82.2554 37.8397V34.08H83.9312V37.8505C83.9312 38.0009 83.9491 38.1298 83.9849 38.2372C84.0243 38.341 84.0762 38.427 84.1406 38.495C84.2087 38.563 84.291 38.6132 84.3877 38.6454C84.488 38.6776 84.5972 38.6937 84.7153 38.6937C85.0125 38.6937 85.2453 38.6329 85.4136 38.5111C85.5854 38.3858 85.7054 38.2193 85.7734 38.0116C85.8451 37.8003 85.8809 37.564 85.8809 37.3026ZM91.4346 34.08V35.2562H87.9863V34.08H91.4346ZM88.7759 32.6405H90.457V38.0707C90.457 38.2318 90.4767 38.3553 90.5161 38.4413C90.5555 38.5272 90.62 38.5881 90.7095 38.6239C90.799 38.6561 90.9136 38.6722 91.0532 38.6722C91.1535 38.6722 91.2394 38.6687 91.311 38.6615C91.3826 38.6543 91.4489 38.6454 91.5098 38.6346V39.8485C91.3665 39.8951 91.2144 39.9309 91.0532 39.9559C90.8921 39.9846 90.7166 39.9989 90.5269 39.9989C90.1652 39.9989 89.8519 39.9398 89.5869 39.8217C89.3255 39.7035 89.125 39.5173 88.9854 39.2631C88.8457 39.0052 88.7759 38.6705 88.7759 38.2587V32.6405ZM94.0073 34.08V39.8915H92.3262V34.08H94.0073ZM92.2241 32.576C92.2241 32.3326 92.3101 32.1338 92.4819 31.9799C92.6538 31.8223 92.8794 31.7435 93.1587 31.7435C93.438 31.7435 93.6636 31.8223 93.8354 31.9799C94.0109 32.1338 94.0986 32.3326 94.0986 32.576C94.0986 32.816 94.0109 33.0147 93.8354 33.1722C93.6636 33.3262 93.438 33.4032 93.1587 33.4032C92.8794 33.4032 92.6538 33.3262 92.4819 33.1722C92.3101 33.0147 92.2241 32.816 92.2241 32.576ZM94.9741 37.0448V36.932C94.9741 36.5059 95.035 36.1138 95.1567 35.7557C95.2785 35.3941 95.4575 35.0808 95.6938 34.8158C95.9302 34.5508 96.2202 34.3449 96.564 34.1981C96.9077 34.0477 97.3016 33.9725 97.7456 33.9725C98.1968 33.9725 98.5942 34.0477 98.938 34.1981C99.2853 34.3449 99.5771 34.5508 99.8135 34.8158C100.05 35.0808 100.229 35.3941 100.351 35.7557C100.472 36.1138 100.533 36.5059 100.533 36.932V37.0448C100.533 37.4673 100.472 37.8594 100.351 38.2211C100.229 38.5791 100.05 38.8925 99.8135 39.161C99.5771 39.426 99.2871 39.6319 98.9434 39.7787C98.5996 39.9255 98.2039 39.9989 97.7563 39.9989C97.3123 39.9989 96.9167 39.9255 96.5693 39.7787C96.222 39.6319 95.9302 39.426 95.6938 39.161C95.4575 38.8925 95.2785 38.5791 95.1567 38.2211C95.035 37.8594 94.9741 37.4673 94.9741 37.0448ZM96.6553 36.932V37.0448C96.6553 37.274 96.6732 37.4888 96.709 37.6893C96.7484 37.8899 96.811 38.0653 96.897 38.2157C96.9829 38.3661 97.0957 38.4843 97.2354 38.5702C97.3786 38.6525 97.5522 38.6937 97.7563 38.6937C97.9604 38.6937 98.1323 38.6525 98.272 38.5702C98.4116 38.4843 98.5244 38.3661 98.6104 38.2157C98.6963 38.0653 98.7572 37.8899 98.793 37.6893C98.8324 37.4888 98.8521 37.274 98.8521 37.0448V36.932C98.8521 36.7064 98.8324 36.4952 98.793 36.2982C98.7572 36.0977 98.6963 35.9205 98.6104 35.7665C98.5244 35.6125 98.4098 35.4926 98.2666 35.4066C98.127 35.3207 97.9533 35.2777 97.7456 35.2777C97.5451 35.2777 97.375 35.3207 97.2354 35.4066C97.0957 35.4926 96.9829 35.6125 96.897 35.7665C96.811 35.9205 96.7484 36.0977 96.709 36.2982C96.6732 36.4952 96.6553 36.7064 96.6553 36.932ZM103.058 35.3207V39.8915H101.376V34.08H102.956L103.058 35.3207ZM102.837 36.7816L102.418 36.7924C102.418 36.3555 102.472 35.9634 102.58 35.6161C102.687 35.2688 102.839 34.9733 103.036 34.7299C103.237 34.4828 103.475 34.2948 103.75 34.1659C104.03 34.037 104.338 33.9725 104.674 33.9725C104.946 33.9725 105.195 34.0119 105.421 34.0907C105.646 34.1695 105.84 34.2966 106.001 34.472C106.166 34.6439 106.291 34.8731 106.377 35.1595C106.463 35.4424 106.506 35.7915 106.506 36.2069V39.8915H104.819V36.2015C104.819 35.958 104.785 35.7701 104.717 35.6376C104.649 35.5051 104.549 35.412 104.417 35.3583C104.288 35.3046 104.13 35.2777 103.944 35.2777C103.747 35.2777 103.579 35.3171 103.439 35.3959C103.299 35.4711 103.185 35.5767 103.095 35.7128C103.006 35.8488 102.939 36.0082 102.896 36.1908C102.857 36.3734 102.837 36.5704 102.837 36.7816Z" fill="#4B465C"/>
<path d="M139.568 20.2274V21.3627L135.445 30.8915H133.218L137.342 21.8754H132.032V20.2274H139.568ZM146.08 20.2054V30.8915H143.97V22.6371L141.436 23.4427V21.7802L145.853 20.2054H146.08ZM149.522 22.8422V22.2782C149.522 21.8729 149.61 21.5043 149.786 21.1722C149.961 20.8402 150.22 20.5741 150.562 20.3739C150.904 20.1737 151.324 20.0736 151.822 20.0736C152.334 20.0736 152.762 20.1737 153.104 20.3739C153.45 20.5741 153.709 20.8402 153.88 21.1722C154.056 21.5043 154.144 21.8729 154.144 22.2782V22.8422C154.144 23.2377 154.056 23.6014 153.88 23.9335C153.709 24.2655 153.453 24.5316 153.111 24.7318C152.769 24.932 152.347 25.0321 151.844 25.0321C151.336 25.0321 150.909 24.932 150.562 24.7318C150.22 24.5316 149.961 24.2655 149.786 23.9335C149.61 23.6014 149.522 23.2377 149.522 22.8422ZM150.921 22.2782V22.8422C150.921 23.0131 150.953 23.1766 151.016 23.3329C151.084 23.4843 151.187 23.6088 151.324 23.7064C151.465 23.7992 151.636 23.8456 151.836 23.8456C152.046 23.8456 152.217 23.7992 152.349 23.7064C152.481 23.6088 152.579 23.4843 152.642 23.3329C152.706 23.1766 152.737 23.0131 152.737 22.8422V22.2782C152.737 22.0975 152.703 21.9315 152.635 21.7802C152.571 21.6239 152.471 21.4994 152.334 21.4066C152.203 21.309 152.032 21.2601 151.822 21.2601C151.626 21.2601 151.46 21.309 151.324 21.4066C151.187 21.4994 151.084 21.6239 151.016 21.7802C150.953 21.9315 150.921 22.0975 150.921 22.2782ZM154.62 28.8407V28.2767C154.62 27.8763 154.708 27.5101 154.883 27.1781C155.064 26.8461 155.325 26.58 155.667 26.3798C156.014 26.1796 156.438 26.0795 156.941 26.0795C157.449 26.0795 157.874 26.1796 158.216 26.3798C158.558 26.58 158.816 26.8461 158.992 27.1781C159.168 27.5101 159.256 27.8763 159.256 28.2767V28.8407C159.256 29.2411 159.168 29.6073 158.992 29.9393C158.821 30.2714 158.565 30.5375 158.223 30.7377C157.881 30.9379 157.459 31.038 156.956 31.038C156.448 31.038 156.021 30.9379 155.674 30.7377C155.328 30.5375 155.064 30.2714 154.883 29.9393C154.708 29.6073 154.62 29.2411 154.62 28.8407ZM156.026 28.2767V28.8407C156.026 29.0165 156.065 29.1825 156.143 29.3387C156.221 29.495 156.329 29.6195 156.465 29.7123C156.607 29.8051 156.771 29.8514 156.956 29.8514C157.19 29.8514 157.374 29.8051 157.505 29.7123C157.637 29.6195 157.728 29.495 157.776 29.3387C157.83 29.1825 157.857 29.0165 157.857 28.8407V28.2767C157.857 28.101 157.823 27.9374 157.754 27.786C157.686 27.6298 157.583 27.5052 157.447 27.4125C157.315 27.3148 157.146 27.266 156.941 27.266C156.736 27.266 156.565 27.3148 156.429 27.4125C156.297 27.5052 156.197 27.6298 156.128 27.786C156.06 27.9374 156.026 28.101 156.026 28.2767ZM157.461 21.7509L152.254 30.0858L151.229 29.5438L156.436 21.2089L157.461 21.7509Z" fill="#4B465C"/>
<path opacity="0.4" d="M89.6214 64.9617C98.059 65.0384 106.267 67.7209 113.121 72.6419C119.975 77.563 125.141 84.4822 127.912 92.4524C130.682 100.423 130.922 109.054 128.598 117.166C126.273 125.277 121.499 132.472 114.928 137.766L107.225 128.204C111.824 124.498 115.166 119.462 116.793 113.784C118.42 108.105 118.252 102.063 116.313 96.4841C114.374 90.905 110.758 86.0616 105.96 82.6168C101.162 79.172 95.4162 77.2943 89.5098 77.2407L89.6214 64.9617Z" fill="#7367F0"/>
<path opacity="0.8" d="M61.4337 135.919C68.6286 142.584 77.9775 146.444 87.7788 146.796C97.5801 147.149 107.182 143.97 114.837 137.839L107.161 128.255C101.802 132.547 95.0809 134.772 88.22 134.525C81.3591 134.278 74.8149 131.576 69.7784 126.911L61.4337 135.919Z" fill="#7367F0"/>
<path d="M55.8511 82.2287C50.0914 90.3583 47.4945 100.309 48.5473 110.217C49.6002 120.124 54.2304 129.307 61.5701 136.045L69.8739 126.999C64.7362 122.283 61.495 115.854 60.758 108.919C60.021 101.984 61.8388 95.0182 65.8707 89.3276L55.8511 82.2287Z" fill="#7367F0"/>
<path d="M82.9856 98.6303V99.744L78.5616 109.892H76.4037L80.8278 100.239H75.1043V98.6303H82.9856ZM89.73 98.5994V109.892H87.6804V100.989L84.9656 101.886V100.231L89.498 98.5994H89.73ZM93.4657 101.391V100.796C93.4657 100.368 93.5585 99.9787 93.7442 99.628C93.9298 99.2774 94.2005 98.9964 94.5563 98.785C94.9172 98.5736 95.3555 98.4679 95.8711 98.4679C96.3971 98.4679 96.8379 98.5736 97.1937 98.785C97.5546 98.9964 97.8253 99.2774 98.0058 99.628C98.1914 99.9787 98.2842 100.368 98.2842 100.796V101.391C98.2842 101.809 98.1914 102.193 98.0058 102.544C97.8253 102.895 97.5572 103.176 97.2014 103.387C96.8456 103.598 96.4074 103.704 95.8866 103.704C95.3658 103.704 94.9249 103.598 94.564 103.387C94.2031 103.176 93.9298 102.895 93.7442 102.544C93.5585 102.193 93.4657 101.809 93.4657 101.391ZM94.8502 100.796V101.391C94.8502 101.587 94.8863 101.773 94.9585 101.948C95.0358 102.118 95.1518 102.258 95.3065 102.366C95.4612 102.474 95.6546 102.528 95.8866 102.528C96.1186 102.528 96.3068 102.474 96.4512 102.366C96.6007 102.258 96.7116 102.118 96.7838 101.948C96.8611 101.773 96.8998 101.587 96.8998 101.391V100.796C96.8998 100.595 96.8611 100.407 96.7838 100.231C96.7116 100.056 96.5981 99.9142 96.4435 99.8059C96.2939 99.6976 96.1031 99.6435 95.8711 99.6435C95.6442 99.6435 95.4535 99.6976 95.2988 99.8059C95.1492 99.9142 95.0358 100.056 94.9585 100.231C94.8863 100.407 94.8502 100.595 94.8502 100.796ZM98.872 107.726V107.13C98.872 106.708 98.9649 106.321 99.1505 105.97C99.3413 105.62 99.6171 105.339 99.9781 105.127C100.339 104.916 100.775 104.81 101.285 104.81C101.816 104.81 102.26 104.916 102.615 105.127C102.971 105.339 103.239 105.62 103.42 105.97C103.605 106.321 103.698 106.708 103.698 107.13V107.726C103.698 108.149 103.605 108.535 103.42 108.886C103.239 109.237 102.971 109.518 102.615 109.729C102.265 109.941 101.829 110.046 101.308 110.046C100.788 110.046 100.344 109.941 99.9781 109.729C99.6171 109.518 99.3413 109.237 99.1505 108.886C98.9649 108.535 98.872 108.149 98.872 107.726ZM100.264 107.13V107.726C100.264 107.927 100.305 108.115 100.388 108.291C100.47 108.461 100.589 108.6 100.744 108.708C100.904 108.816 101.089 108.871 101.301 108.871C101.558 108.871 101.762 108.816 101.912 108.708C102.061 108.6 102.167 108.461 102.229 108.291C102.291 108.115 102.322 107.927 102.322 107.726V107.13C102.322 106.929 102.283 106.744 102.206 106.573C102.128 106.398 102.012 106.256 101.858 106.148C101.708 106.04 101.517 105.986 101.285 105.986C101.058 105.986 100.868 106.04 100.713 106.148C100.563 106.256 100.45 106.398 100.373 106.573C100.3 106.744 100.264 106.929 100.264 107.13ZM101.796 100.239L96.2965 109.041L95.2833 108.476L100.782 99.6744L101.796 100.239Z" fill="#4A4B53"/>
<mask id="path-8-inside-1_2_947" fill="white">
<path d="M19.75 180.672H155.75V209.672H19.75V180.672Z"/>
</mask>
<path d="M155.75 208.672H19.75V210.672H155.75V208.672Z" fill="#979797" mask="url(#path-8-inside-1_2_947)"/>
<path d="M22.7734 186.679H21.1519L21.1431 185.998H22.6152C22.8584 185.998 23.0708 185.957 23.2524 185.875C23.4341 185.793 23.5747 185.676 23.6743 185.524C23.7769 185.368 23.8281 185.184 23.8281 184.97C23.8281 184.735 23.7827 184.545 23.6919 184.399C23.604 184.249 23.4678 184.141 23.2832 184.073C23.1016 184.003 22.8701 183.968 22.5889 183.968H21.3408V189.672H20.4927V183.274H22.5889C22.917 183.274 23.21 183.307 23.4678 183.375C23.7256 183.439 23.9438 183.542 24.1226 183.682C24.3042 183.82 24.4419 183.996 24.5356 184.21C24.6294 184.423 24.6763 184.68 24.6763 184.979C24.6763 185.242 24.6089 185.481 24.4741 185.695C24.3394 185.906 24.1519 186.079 23.9116 186.214C23.6743 186.348 23.396 186.435 23.0767 186.473L22.7734 186.679ZM22.7339 189.672H20.8179L21.2969 188.982H22.7339C23.0034 188.982 23.2319 188.935 23.4194 188.841C23.6099 188.748 23.7549 188.616 23.8545 188.446C23.9541 188.273 24.0039 188.069 24.0039 187.835C24.0039 187.598 23.9614 187.393 23.8765 187.22C23.7915 187.047 23.6582 186.914 23.4766 186.82C23.2949 186.726 23.0605 186.679 22.7734 186.679H21.5649L21.5737 185.998H23.2261L23.4062 186.244C23.7139 186.271 23.9746 186.359 24.1885 186.508C24.4023 186.654 24.5649 186.842 24.6763 187.07C24.7905 187.299 24.8477 187.551 24.8477 187.826C24.8477 188.225 24.7598 188.562 24.584 188.837C24.4111 189.109 24.1665 189.318 23.8501 189.461C23.5337 189.602 23.1616 189.672 22.7339 189.672ZM27.9502 189.76C27.6191 189.76 27.3188 189.704 27.0493 189.593C26.7827 189.479 26.5527 189.319 26.3594 189.114C26.1689 188.909 26.0225 188.666 25.9199 188.384C25.8174 188.103 25.7661 187.796 25.7661 187.462V187.277C25.7661 186.89 25.8232 186.546 25.9375 186.244C26.0518 185.94 26.207 185.682 26.4033 185.471C26.5996 185.26 26.8223 185.1 27.0713 184.992C27.3203 184.883 27.5781 184.829 27.8447 184.829C28.1846 184.829 28.4775 184.888 28.7236 185.005C28.9727 185.122 29.1763 185.286 29.3345 185.497C29.4927 185.705 29.6099 185.951 29.686 186.235C29.7622 186.517 29.8003 186.824 29.8003 187.158V187.523H26.2495V186.859H28.9873V186.798C28.9756 186.587 28.9316 186.382 28.8555 186.183C28.7822 185.984 28.665 185.819 28.5039 185.691C28.3428 185.562 28.123 185.497 27.8447 185.497C27.6602 185.497 27.4902 185.537 27.335 185.616C27.1797 185.692 27.0464 185.806 26.9351 185.959C26.8237 186.111 26.7373 186.297 26.6758 186.517C26.6143 186.736 26.5835 186.99 26.5835 187.277V187.462C26.5835 187.687 26.6143 187.9 26.6758 188.099C26.7402 188.295 26.8325 188.468 26.9526 188.617C27.0757 188.767 27.2236 188.884 27.3965 188.969C27.5723 189.054 27.7715 189.096 27.9941 189.096C28.2812 189.096 28.5244 189.038 28.7236 188.921C28.9229 188.803 29.0972 188.647 29.2466 188.45L29.7388 188.841C29.6362 188.997 29.5059 189.145 29.3477 189.285C29.1895 189.426 28.9946 189.54 28.7632 189.628C28.5347 189.716 28.2637 189.76 27.9502 189.76ZM33.5181 188.411C33.5181 188.294 33.4917 188.185 33.439 188.086C33.3892 187.983 33.2852 187.891 33.127 187.809C32.9717 187.724 32.7373 187.651 32.4238 187.589C32.1602 187.533 31.9214 187.467 31.7075 187.391C31.4966 187.315 31.3164 187.223 31.167 187.114C31.0205 187.006 30.9077 186.879 30.8286 186.732C30.7495 186.586 30.71 186.414 30.71 186.218C30.71 186.03 30.751 185.853 30.833 185.686C30.918 185.519 31.0366 185.371 31.189 185.242C31.3442 185.113 31.5303 185.012 31.7471 184.939C31.9639 184.866 32.2056 184.829 32.4722 184.829C32.853 184.829 33.1782 184.897 33.4478 185.031C33.7173 185.166 33.9238 185.346 34.0674 185.572C34.2109 185.795 34.2827 186.042 34.2827 186.315H33.4697C33.4697 186.183 33.4302 186.055 33.3511 185.932C33.2749 185.806 33.1621 185.702 33.0127 185.62C32.8662 185.538 32.686 185.497 32.4722 185.497C32.2466 185.497 32.0635 185.532 31.9229 185.603C31.7852 185.67 31.6841 185.756 31.6196 185.862C31.5581 185.967 31.5273 186.079 31.5273 186.196C31.5273 186.284 31.542 186.363 31.5713 186.433C31.6035 186.501 31.6592 186.564 31.7383 186.622C31.8174 186.678 31.9287 186.731 32.0723 186.78C32.2158 186.83 32.3989 186.88 32.6216 186.93C33.0112 187.018 33.332 187.123 33.584 187.246C33.8359 187.369 34.0234 187.52 34.1465 187.699C34.2695 187.878 34.3311 188.094 34.3311 188.349C34.3311 188.557 34.2871 188.748 34.1992 188.921C34.1143 189.093 33.9897 189.243 33.8257 189.369C33.6646 189.492 33.4712 189.589 33.2456 189.659C33.0229 189.726 32.7725 189.76 32.4941 189.76C32.0752 189.76 31.7207 189.685 31.4307 189.536C31.1406 189.386 30.9209 189.193 30.7715 188.956C30.6221 188.718 30.5474 188.468 30.5474 188.204H31.3647C31.3765 188.427 31.4409 188.604 31.5581 188.736C31.6753 188.865 31.8188 188.957 31.9888 189.013C32.1587 189.066 32.3271 189.092 32.4941 189.092C32.7168 189.092 32.9028 189.063 33.0522 189.004C33.2046 188.945 33.3203 188.865 33.3994 188.762C33.4785 188.66 33.5181 188.543 33.5181 188.411ZM37.3896 184.917V185.541H34.8188V184.917H37.3896ZM35.689 183.761H36.502V188.494C36.502 188.655 36.5269 188.777 36.5767 188.859C36.6265 188.941 36.6909 188.995 36.77 189.022C36.8491 189.048 36.9341 189.061 37.0249 189.061C37.0923 189.061 37.1626 189.055 37.2358 189.044C37.312 189.029 37.3691 189.017 37.4072 189.008L37.4116 189.672C37.3472 189.693 37.2622 189.712 37.1567 189.729C37.0542 189.75 36.9297 189.76 36.7832 189.76C36.584 189.76 36.4009 189.72 36.2339 189.641C36.0669 189.562 35.9336 189.43 35.834 189.246C35.7373 189.058 35.689 188.806 35.689 188.49V183.761ZM43.3442 188.411C43.3442 188.294 43.3179 188.185 43.2651 188.086C43.2153 187.983 43.1113 187.891 42.9531 187.809C42.7979 187.724 42.5635 187.651 42.25 187.589C41.9863 187.533 41.7476 187.467 41.5337 187.391C41.3228 187.315 41.1426 187.223 40.9932 187.114C40.8467 187.006 40.7339 186.879 40.6548 186.732C40.5757 186.586 40.5361 186.414 40.5361 186.218C40.5361 186.03 40.5771 185.853 40.6592 185.686C40.7441 185.519 40.8628 185.371 41.0151 185.242C41.1704 185.113 41.3564 185.012 41.5732 184.939C41.79 184.866 42.0317 184.829 42.2983 184.829C42.6792 184.829 43.0044 184.897 43.2739 185.031C43.5435 185.166 43.75 185.346 43.8936 185.572C44.0371 185.795 44.1089 186.042 44.1089 186.315H43.2959C43.2959 186.183 43.2563 186.055 43.1772 185.932C43.1011 185.806 42.9883 185.702 42.8389 185.62C42.6924 185.538 42.5122 185.497 42.2983 185.497C42.0728 185.497 41.8896 185.532 41.749 185.603C41.6113 185.67 41.5103 185.756 41.4458 185.862C41.3843 185.967 41.3535 186.079 41.3535 186.196C41.3535 186.284 41.3682 186.363 41.3975 186.433C41.4297 186.501 41.4854 186.564 41.5645 186.622C41.6436 186.678 41.7549 186.731 41.8984 186.78C42.042 186.83 42.2251 186.88 42.4478 186.93C42.8374 187.018 43.1582 187.123 43.4102 187.246C43.6621 187.369 43.8496 187.52 43.9727 187.699C44.0957 187.878 44.1572 188.094 44.1572 188.349C44.1572 188.557 44.1133 188.748 44.0254 188.921C43.9404 189.093 43.8159 189.243 43.6519 189.369C43.4907 189.492 43.2974 189.589 43.0718 189.659C42.8491 189.726 42.5986 189.76 42.3203 189.76C41.9014 189.76 41.5469 189.685 41.2568 189.536C40.9668 189.386 40.7471 189.193 40.5977 188.956C40.4482 188.718 40.3735 188.468 40.3735 188.204H41.1909C41.2026 188.427 41.2671 188.604 41.3843 188.736C41.5015 188.865 41.645 188.957 41.8149 189.013C41.9849 189.066 42.1533 189.092 42.3203 189.092C42.543 189.092 42.729 189.063 42.8784 189.004C43.0308 188.945 43.1465 188.865 43.2256 188.762C43.3047 188.66 43.3442 188.543 43.3442 188.411ZM47.1982 189.76C46.8672 189.76 46.5669 189.704 46.2974 189.593C46.0308 189.479 45.8008 189.319 45.6074 189.114C45.417 188.909 45.2705 188.666 45.168 188.384C45.0654 188.103 45.0142 187.796 45.0142 187.462V187.277C45.0142 186.89 45.0713 186.546 45.1855 186.244C45.2998 185.94 45.4551 185.682 45.6514 185.471C45.8477 185.26 46.0703 185.1 46.3193 184.992C46.5684 184.883 46.8262 184.829 47.0928 184.829C47.4326 184.829 47.7256 184.888 47.9717 185.005C48.2207 185.122 48.4243 185.286 48.5825 185.497C48.7407 185.705 48.8579 185.951 48.9341 186.235C49.0103 186.517 49.0483 186.824 49.0483 187.158V187.523H45.4976V186.859H48.2354V186.798C48.2236 186.587 48.1797 186.382 48.1035 186.183C48.0303 185.984 47.9131 185.819 47.752 185.691C47.5908 185.562 47.3711 185.497 47.0928 185.497C46.9082 185.497 46.7383 185.537 46.583 185.616C46.4277 185.692 46.2944 185.806 46.1831 185.959C46.0718 186.111 45.9854 186.297 45.9238 186.517C45.8623 186.736 45.8315 186.99 45.8315 187.277V187.462C45.8315 187.687 45.8623 187.9 45.9238 188.099C45.9883 188.295 46.0806 188.468 46.2007 188.617C46.3237 188.767 46.4717 188.884 46.6445 188.969C46.8203 189.054 47.0195 189.096 47.2422 189.096C47.5293 189.096 47.7725 189.038 47.9717 188.921C48.1709 188.803 48.3452 188.647 48.4946 188.45L48.9868 188.841C48.8843 188.997 48.7539 189.145 48.5957 189.285C48.4375 189.426 48.2427 189.54 48.0112 189.628C47.7827 189.716 47.5117 189.76 47.1982 189.76ZM50.8809 182.922V189.672H50.0635V182.922H50.8809ZM53.0693 182.922V189.672H52.252V182.922H53.0693ZM55.2578 184.917V189.672H54.4404V184.917H55.2578ZM54.3789 183.656C54.3789 183.524 54.4185 183.413 54.4976 183.322C54.5796 183.231 54.6997 183.186 54.8579 183.186C55.0132 183.186 55.1318 183.231 55.2139 183.322C55.2988 183.413 55.3413 183.524 55.3413 183.656C55.3413 183.782 55.2988 183.89 55.2139 183.981C55.1318 184.069 55.0132 184.113 54.8579 184.113C54.6997 184.113 54.5796 184.069 54.4976 183.981C54.4185 183.89 54.3789 183.782 54.3789 183.656ZM57.376 185.932V189.672H56.563V184.917H57.332L57.376 185.932ZM57.1826 187.114L56.8442 187.101C56.8472 186.776 56.8955 186.476 56.9893 186.2C57.083 185.922 57.2148 185.68 57.3848 185.475C57.5547 185.27 57.7568 185.112 57.9912 185.001C58.2285 184.886 58.4907 184.829 58.7778 184.829C59.0122 184.829 59.2231 184.861 59.4106 184.926C59.5981 184.987 59.7578 185.087 59.8896 185.225C60.0244 185.362 60.127 185.541 60.1973 185.761C60.2676 185.978 60.3027 186.243 60.3027 186.556V189.672H59.4854V186.547C59.4854 186.298 59.4487 186.099 59.3755 185.95C59.3022 185.797 59.1953 185.688 59.0547 185.62C58.9141 185.55 58.7412 185.515 58.5361 185.515C58.334 185.515 58.1494 185.557 57.9824 185.642C57.8184 185.727 57.6763 185.844 57.5562 185.994C57.439 186.143 57.3467 186.315 57.2793 186.508C57.2148 186.698 57.1826 186.901 57.1826 187.114ZM64.6182 184.917H65.3564V189.571C65.3564 189.99 65.2715 190.347 65.1016 190.643C64.9316 190.939 64.6943 191.163 64.3896 191.316C64.0879 191.471 63.7393 191.548 63.3438 191.548C63.1797 191.548 62.9863 191.522 62.7637 191.469C62.5439 191.42 62.3271 191.333 62.1133 191.21C61.9023 191.09 61.7251 190.927 61.5815 190.722L62.0078 190.239C62.207 190.479 62.415 190.646 62.6318 190.74C62.8516 190.834 63.0684 190.88 63.2822 190.88C63.54 190.88 63.7627 190.832 63.9502 190.735C64.1377 190.639 64.2827 190.495 64.3853 190.305C64.4907 190.117 64.5435 189.886 64.5435 189.61V185.963L64.6182 184.917ZM61.3442 187.347V187.255C61.3442 186.892 61.3867 186.562 61.4717 186.266C61.5596 185.967 61.6841 185.711 61.8452 185.497C62.0093 185.283 62.207 185.119 62.4385 185.005C62.6699 184.888 62.9307 184.829 63.2207 184.829C63.5195 184.829 63.7803 184.882 64.0029 184.987C64.2285 185.09 64.4189 185.241 64.5742 185.44C64.7324 185.636 64.8569 185.874 64.9478 186.152C65.0386 186.43 65.1016 186.745 65.1367 187.097V187.501C65.1045 187.85 65.0415 188.163 64.9478 188.442C64.8569 188.72 64.7324 188.957 64.5742 189.153C64.4189 189.35 64.2285 189.501 64.0029 189.606C63.7773 189.709 63.5137 189.76 63.2119 189.76C62.9277 189.76 62.6699 189.7 62.4385 189.58C62.21 189.46 62.0137 189.291 61.8496 189.074C61.6855 188.858 61.5596 188.603 61.4717 188.31C61.3867 188.014 61.3442 187.693 61.3442 187.347ZM62.1572 187.255V187.347C62.1572 187.585 62.1807 187.807 62.2275 188.015C62.2773 188.223 62.3521 188.406 62.4517 188.565C62.5542 188.723 62.6846 188.847 62.8428 188.938C63.001 189.026 63.1899 189.07 63.4097 189.07C63.6792 189.07 63.9019 189.013 64.0776 188.899C64.2534 188.784 64.3926 188.633 64.4951 188.446C64.6006 188.258 64.6826 188.055 64.7412 187.835V186.776C64.709 186.615 64.6592 186.46 64.5918 186.31C64.5273 186.158 64.4424 186.023 64.3369 185.906C64.2344 185.786 64.1069 185.691 63.9546 185.62C63.8022 185.55 63.6235 185.515 63.4185 185.515C63.1958 185.515 63.0039 185.562 62.8428 185.655C62.6846 185.746 62.5542 185.872 62.4517 186.033C62.3521 186.192 62.2773 186.376 62.2275 186.587C62.1807 186.795 62.1572 187.018 62.1572 187.255ZM71.3066 187.163H69.5972V186.473H71.3066C71.6377 186.473 71.9058 186.42 72.1108 186.315C72.3159 186.209 72.4653 186.063 72.5591 185.875C72.6558 185.688 72.7041 185.474 72.7041 185.234C72.7041 185.014 72.6558 184.807 72.5591 184.614C72.4653 184.421 72.3159 184.265 72.1108 184.148C71.9058 184.028 71.6377 183.968 71.3066 183.968H69.7949V189.672H68.9468V183.274H71.3066C71.79 183.274 72.1987 183.357 72.5327 183.524C72.8667 183.691 73.1201 183.922 73.293 184.218C73.4658 184.511 73.5522 184.847 73.5522 185.225C73.5522 185.635 73.4658 185.985 73.293 186.275C73.1201 186.565 72.8667 186.786 72.5327 186.939C72.1987 187.088 71.79 187.163 71.3066 187.163ZM75.3145 185.664V189.672H74.5015V184.917H75.2925L75.3145 185.664ZM76.7998 184.891L76.7954 185.647C76.728 185.632 76.6636 185.623 76.6021 185.62C76.5435 185.614 76.4761 185.611 76.3999 185.611C76.2124 185.611 76.0469 185.641 75.9033 185.699C75.7598 185.758 75.6382 185.84 75.5386 185.945C75.439 186.051 75.3599 186.177 75.3013 186.323C75.2456 186.467 75.209 186.625 75.1914 186.798L74.9629 186.93C74.9629 186.643 74.9907 186.373 75.0464 186.121C75.105 185.869 75.1943 185.647 75.3145 185.453C75.4346 185.257 75.5869 185.105 75.7715 184.996C75.959 184.885 76.1816 184.829 76.4395 184.829C76.498 184.829 76.5654 184.837 76.6416 184.851C76.7178 184.863 76.7705 184.876 76.7998 184.891ZM77.248 187.347V187.246C77.248 186.903 77.2979 186.586 77.3975 186.293C77.4971 185.997 77.6406 185.74 77.8281 185.524C78.0156 185.304 78.2427 185.134 78.5093 185.014C78.7759 184.891 79.0747 184.829 79.4058 184.829C79.7397 184.829 80.04 184.891 80.3066 185.014C80.5762 185.134 80.8047 185.304 80.9922 185.524C81.1826 185.74 81.3276 185.997 81.4272 186.293C81.5269 186.586 81.5767 186.903 81.5767 187.246V187.347C81.5767 187.69 81.5269 188.008 81.4272 188.301C81.3276 188.594 81.1826 188.85 80.9922 189.07C80.8047 189.287 80.5776 189.457 80.311 189.58C80.0474 189.7 79.7485 189.76 79.4146 189.76C79.0806 189.76 78.7803 189.7 78.5137 189.58C78.2471 189.457 78.0186 189.287 77.8281 189.07C77.6406 188.85 77.4971 188.594 77.3975 188.301C77.2979 188.008 77.248 187.69 77.248 187.347ZM78.061 187.246V187.347C78.061 187.585 78.0889 187.809 78.1445 188.02C78.2002 188.228 78.2837 188.412 78.395 188.573C78.5093 188.734 78.6514 188.862 78.8213 188.956C78.9912 189.047 79.189 189.092 79.4146 189.092C79.6372 189.092 79.832 189.047 79.999 188.956C80.1689 188.862 80.3096 188.734 80.4209 188.573C80.5322 188.412 80.6157 188.228 80.6714 188.02C80.73 187.809 80.7593 187.585 80.7593 187.347V187.246C80.7593 187.012 80.73 186.791 80.6714 186.583C80.6157 186.372 80.5308 186.186 80.4165 186.025C80.3052 185.86 80.1646 185.732 79.9946 185.638C79.8276 185.544 79.6313 185.497 79.4058 185.497C79.1831 185.497 78.9868 185.544 78.8169 185.638C78.6499 185.732 78.5093 185.86 78.395 186.025C78.2837 186.186 78.2002 186.372 78.1445 186.583C78.0889 186.791 78.061 187.012 78.061 187.246ZM85.5933 188.749V182.922H86.4106V189.672H85.6636L85.5933 188.749ZM82.394 187.347V187.255C82.394 186.892 82.438 186.562 82.5259 186.266C82.6167 185.967 82.7441 185.711 82.9082 185.497C83.0752 185.283 83.2729 185.119 83.5015 185.005C83.7329 184.888 83.9907 184.829 84.2749 184.829C84.5737 184.829 84.8345 184.882 85.0571 184.987C85.2827 185.09 85.4731 185.241 85.6284 185.44C85.7866 185.636 85.9111 185.874 86.002 186.152C86.0928 186.43 86.1558 186.745 86.1909 187.097V187.501C86.1587 187.85 86.0957 188.163 86.002 188.442C85.9111 188.72 85.7866 188.957 85.6284 189.153C85.4731 189.35 85.2827 189.501 85.0571 189.606C84.8315 189.709 84.5679 189.76 84.2661 189.76C83.9878 189.76 83.7329 189.7 83.5015 189.58C83.2729 189.46 83.0752 189.291 82.9082 189.074C82.7441 188.858 82.6167 188.603 82.5259 188.31C82.438 188.014 82.394 187.693 82.394 187.347ZM83.2114 187.255V187.347C83.2114 187.585 83.2349 187.807 83.2817 188.015C83.3315 188.223 83.4077 188.406 83.5103 188.565C83.6128 188.723 83.7432 188.847 83.9014 188.938C84.0596 189.026 84.2485 189.07 84.4683 189.07C84.7378 189.07 84.959 189.013 85.1318 188.899C85.3076 188.784 85.4482 188.633 85.5537 188.446C85.6592 188.258 85.7412 188.055 85.7998 187.835V186.776C85.7646 186.615 85.7134 186.46 85.646 186.31C85.5815 186.158 85.4966 186.023 85.3911 185.906C85.2886 185.786 85.1611 185.691 85.0088 185.62C84.8594 185.55 84.6821 185.515 84.4771 185.515C84.2544 185.515 84.0625 185.562 83.9014 185.655C83.7432 185.746 83.6128 185.872 83.5103 186.033C83.4077 186.192 83.3315 186.376 83.2817 186.587C83.2349 186.795 83.2114 187.018 83.2114 187.255ZM90.5854 188.573V184.917H91.4028V189.672H90.625L90.5854 188.573ZM90.7393 187.571L91.0776 187.563C91.0776 187.879 91.0439 188.172 90.9766 188.442C90.9121 188.708 90.8066 188.94 90.6602 189.136C90.5137 189.332 90.3218 189.486 90.0845 189.597C89.8472 189.706 89.5586 189.76 89.2188 189.76C88.9873 189.76 88.7749 189.726 88.5815 189.659C88.3911 189.591 88.2271 189.487 88.0894 189.347C87.9517 189.206 87.8447 189.023 87.7686 188.797C87.6953 188.572 87.6587 188.301 87.6587 187.984V184.917H88.4717V187.993C88.4717 188.207 88.4951 188.384 88.542 188.525C88.5918 188.663 88.6577 188.773 88.7397 188.855C88.8247 188.934 88.9185 188.989 89.021 189.022C89.1265 189.054 89.2349 189.07 89.3462 189.07C89.6919 189.07 89.9658 189.004 90.168 188.872C90.3701 188.737 90.5151 188.557 90.603 188.332C90.6938 188.103 90.7393 187.85 90.7393 187.571ZM94.5449 189.092C94.7383 189.092 94.917 189.052 95.0811 188.973C95.2451 188.894 95.3799 188.786 95.4854 188.648C95.5908 188.507 95.6509 188.348 95.6655 188.169H96.439C96.4243 188.45 96.3291 188.713 96.1533 188.956C95.9805 189.196 95.7534 189.391 95.4722 189.54C95.1909 189.687 94.8818 189.76 94.5449 189.76C94.1875 189.76 93.8755 189.697 93.6089 189.571C93.3452 189.445 93.1255 189.272 92.9497 189.052C92.7769 188.833 92.6465 188.581 92.5586 188.297C92.4736 188.009 92.4312 187.706 92.4312 187.387V187.202C92.4312 186.883 92.4736 186.581 92.5586 186.297C92.6465 186.01 92.7769 185.756 92.9497 185.537C93.1255 185.317 93.3452 185.144 93.6089 185.018C93.8755 184.892 94.1875 184.829 94.5449 184.829C94.917 184.829 95.2422 184.905 95.5205 185.058C95.7988 185.207 96.0171 185.412 96.1753 185.673C96.3364 185.931 96.4243 186.224 96.439 186.552H95.6655C95.6509 186.356 95.5952 186.178 95.4985 186.02C95.4048 185.862 95.2759 185.736 95.1118 185.642C94.9507 185.546 94.7617 185.497 94.5449 185.497C94.2959 185.497 94.0864 185.547 93.9165 185.647C93.7495 185.743 93.6162 185.875 93.5166 186.042C93.4199 186.206 93.3496 186.389 93.3057 186.591C93.2646 186.791 93.2441 186.994 93.2441 187.202V187.387C93.2441 187.595 93.2646 187.8 93.3057 188.002C93.3467 188.204 93.4155 188.387 93.5122 188.551C93.6118 188.715 93.7451 188.847 93.9121 188.947C94.082 189.044 94.293 189.092 94.5449 189.092ZM99.3438 184.917V185.541H96.7729V184.917H99.3438ZM97.6431 183.761H98.4561V188.494C98.4561 188.655 98.481 188.777 98.5308 188.859C98.5806 188.941 98.645 188.995 98.7241 189.022C98.8032 189.048 98.8882 189.061 98.979 189.061C99.0464 189.061 99.1167 189.055 99.1899 189.044C99.2661 189.029 99.3232 189.017 99.3613 189.008L99.3657 189.672C99.3013 189.693 99.2163 189.712 99.1108 189.729C99.0083 189.75 98.8838 189.76 98.7373 189.76C98.5381 189.76 98.355 189.72 98.188 189.641C98.021 189.562 97.8877 189.43 97.7881 189.246C97.6914 189.058 97.6431 188.806 97.6431 188.49V183.761ZM103.066 188.411C103.066 188.294 103.04 188.185 102.987 188.086C102.937 187.983 102.833 187.891 102.675 187.809C102.52 187.724 102.285 187.651 101.972 187.589C101.708 187.533 101.469 187.467 101.255 187.391C101.044 187.315 100.864 187.223 100.715 187.114C100.568 187.006 100.456 186.879 100.376 186.732C100.297 186.586 100.258 186.414 100.258 186.218C100.258 186.03 100.299 185.853 100.381 185.686C100.466 185.519 100.584 185.371 100.737 185.242C100.892 185.113 101.078 185.012 101.295 184.939C101.512 184.866 101.753 184.829 102.02 184.829C102.401 184.829 102.726 184.897 102.996 185.031C103.265 185.166 103.472 185.346 103.615 185.572C103.759 185.795 103.831 186.042 103.831 186.315H103.018C103.018 186.183 102.978 186.055 102.899 185.932C102.823 185.806 102.71 185.702 102.561 185.62C102.414 185.538 102.234 185.497 102.02 185.497C101.794 185.497 101.611 185.532 101.471 185.603C101.333 185.67 101.232 185.756 101.167 185.862C101.106 185.967 101.075 186.079 101.075 186.196C101.075 186.284 101.09 186.363 101.119 186.433C101.151 186.501 101.207 186.564 101.286 186.622C101.365 186.678 101.477 186.731 101.62 186.78C101.764 186.83 101.947 186.88 102.169 186.93C102.559 187.018 102.88 187.123 103.132 187.246C103.384 187.369 103.571 187.52 103.694 187.699C103.817 187.878 103.879 188.094 103.879 188.349C103.879 188.557 103.835 188.748 103.747 188.921C103.662 189.093 103.538 189.243 103.374 189.369C103.212 189.492 103.019 189.589 102.793 189.659C102.571 189.726 102.32 189.76 102.042 189.76C101.623 189.76 101.269 189.685 100.979 189.536C100.688 189.386 100.469 189.193 100.319 188.956C100.17 188.718 100.095 188.468 100.095 188.204H100.913C100.924 188.427 100.989 188.604 101.106 188.736C101.223 188.865 101.367 188.957 101.537 189.013C101.707 189.066 101.875 189.092 102.042 189.092C102.265 189.092 102.451 189.063 102.6 189.004C102.752 188.945 102.868 188.865 102.947 188.762C103.026 188.66 103.066 188.543 103.066 188.411ZM24.373 200.982V201.672H21.1738V200.982H24.373ZM21.3408 195.274V201.672H20.4927V195.274H21.3408ZM25.0059 199.347V199.246C25.0059 198.903 25.0557 198.586 25.1553 198.293C25.2549 197.997 25.3984 197.74 25.5859 197.524C25.7734 197.304 26.0005 197.134 26.2671 197.014C26.5337 196.891 26.8325 196.829 27.1636 196.829C27.4976 196.829 27.7979 196.891 28.0645 197.014C28.334 197.134 28.5625 197.304 28.75 197.524C28.9404 197.74 29.0854 197.997 29.1851 198.293C29.2847 198.586 29.3345 198.903 29.3345 199.246V199.347C29.3345 199.69 29.2847 200.008 29.1851 200.301C29.0854 200.594 28.9404 200.85 28.75 201.07C28.5625 201.287 28.3354 201.457 28.0688 201.58C27.8052 201.7 27.5063 201.76 27.1724 201.76C26.8384 201.76 26.5381 201.7 26.2715 201.58C26.0049 201.457 25.7764 201.287 25.5859 201.07C25.3984 200.85 25.2549 200.594 25.1553 200.301C25.0557 200.008 25.0059 199.69 25.0059 199.347ZM25.8188 199.246V199.347C25.8188 199.585 25.8467 199.809 25.9023 200.02C25.958 200.228 26.0415 200.412 26.1528 200.573C26.2671 200.734 26.4092 200.862 26.5791 200.956C26.749 201.047 26.9468 201.092 27.1724 201.092C27.395 201.092 27.5898 201.047 27.7568 200.956C27.9268 200.862 28.0674 200.734 28.1787 200.573C28.29 200.412 28.3735 200.228 28.4292 200.02C28.4878 199.809 28.5171 199.585 28.5171 199.347V199.246C28.5171 199.012 28.4878 198.791 28.4292 198.583C28.3735 198.372 28.2886 198.186 28.1743 198.025C28.063 197.86 27.9224 197.732 27.7524 197.638C27.5854 197.544 27.3892 197.497 27.1636 197.497C26.9409 197.497 26.7446 197.544 26.5747 197.638C26.4077 197.732 26.2671 197.86 26.1528 198.025C26.0415 198.186 25.958 198.372 25.9023 198.583C25.8467 198.791 25.8188 199.012 25.8188 199.246ZM31.5581 200.828L32.7798 196.917H33.3159L33.2104 197.695L31.9668 201.672H31.4438L31.5581 200.828ZM30.7363 196.917L31.7778 200.872L31.8525 201.672H31.3032L29.9233 196.917H30.7363ZM34.4849 200.841L35.478 196.917H36.2866L34.9067 201.672H34.3618L34.4849 200.841ZM33.4346 196.917L34.6299 200.762L34.7661 201.672H34.2476L32.9688 197.686L32.8633 196.917H33.4346ZM42.8872 200.055C42.8872 199.905 42.8638 199.774 42.8169 199.659C42.7729 199.542 42.6938 199.437 42.5796 199.343C42.4683 199.249 42.313 199.16 42.1138 199.075C41.9175 198.99 41.6685 198.903 41.3667 198.816C41.0503 198.722 40.7646 198.618 40.5098 198.504C40.2549 198.386 40.0366 198.253 39.855 198.104C39.6733 197.954 39.5342 197.783 39.4375 197.589C39.3408 197.396 39.2925 197.175 39.2925 196.926C39.2925 196.677 39.3438 196.447 39.4463 196.236C39.5488 196.025 39.6953 195.842 39.8857 195.687C40.0791 195.528 40.3091 195.405 40.5757 195.318C40.8423 195.23 41.1396 195.186 41.4678 195.186C41.9482 195.186 42.3555 195.278 42.6895 195.463C43.0264 195.644 43.2827 195.883 43.4585 196.179C43.6343 196.472 43.7222 196.785 43.7222 197.119H42.8784C42.8784 196.879 42.8271 196.667 42.7246 196.482C42.6221 196.295 42.4668 196.148 42.2588 196.043C42.0508 195.934 41.7871 195.88 41.4678 195.88C41.166 195.88 40.917 195.925 40.7207 196.016C40.5244 196.107 40.3779 196.23 40.2812 196.385C40.1875 196.541 40.1406 196.718 40.1406 196.917C40.1406 197.052 40.1685 197.175 40.2241 197.286C40.2827 197.395 40.3721 197.496 40.4922 197.589C40.6152 197.683 40.7705 197.77 40.958 197.849C41.1484 197.928 41.3755 198.004 41.6392 198.077C42.0024 198.18 42.3159 198.294 42.5796 198.42C42.8433 198.546 43.0601 198.688 43.23 198.846C43.4028 199.002 43.5303 199.179 43.6123 199.378C43.6973 199.574 43.7397 199.797 43.7397 200.046C43.7397 200.307 43.687 200.543 43.5815 200.754C43.4761 200.964 43.3252 201.145 43.1289 201.294C42.9326 201.443 42.6968 201.559 42.4214 201.641C42.1489 201.72 41.8442 201.76 41.5073 201.76C41.2114 201.76 40.9199 201.719 40.6328 201.637C40.3486 201.555 40.0894 201.432 39.855 201.268C39.6235 201.104 39.4375 200.901 39.2969 200.661C39.1592 200.418 39.0903 200.137 39.0903 199.818H39.9341C39.9341 200.037 39.9766 200.226 40.0615 200.384C40.1465 200.54 40.2622 200.669 40.4087 200.771C40.5581 200.874 40.7266 200.95 40.9141 201C41.1045 201.047 41.3022 201.07 41.5073 201.07C41.8032 201.07 42.0537 201.029 42.2588 200.947C42.4639 200.865 42.6191 200.748 42.7246 200.595C42.833 200.443 42.8872 200.263 42.8872 200.055ZM46.6885 196.917V197.541H44.1177V196.917H46.6885ZM44.9878 195.761H45.8008V200.494C45.8008 200.655 45.8257 200.777 45.8755 200.859C45.9253 200.941 45.9897 200.995 46.0688 201.022C46.1479 201.048 46.2329 201.061 46.3237 201.061C46.3911 201.061 46.4614 201.055 46.5347 201.044C46.6108 201.029 46.668 201.017 46.7061 201.008L46.7104 201.672C46.646 201.693 46.561 201.712 46.4556 201.729C46.353 201.75 46.2285 201.76 46.082 201.76C45.8828 201.76 45.6997 201.72 45.5327 201.641C45.3657 201.562 45.2324 201.43 45.1328 201.246C45.0361 201.058 44.9878 200.806 44.9878 200.49V195.761ZM47.3389 199.347V199.246C47.3389 198.903 47.3887 198.586 47.4883 198.293C47.5879 197.997 47.7314 197.74 47.9189 197.524C48.1064 197.304 48.3335 197.134 48.6001 197.014C48.8667 196.891 49.1655 196.829 49.4966 196.829C49.8306 196.829 50.1309 196.891 50.3975 197.014C50.667 197.134 50.8955 197.304 51.083 197.524C51.2734 197.74 51.4185 197.997 51.5181 198.293C51.6177 198.586 51.6675 198.903 51.6675 199.246V199.347C51.6675 199.69 51.6177 200.008 51.5181 200.301C51.4185 200.594 51.2734 200.85 51.083 201.07C50.8955 201.287 50.6685 201.457 50.4019 201.58C50.1382 201.7 49.8394 201.76 49.5054 201.76C49.1714 201.76 48.8711 201.7 48.6045 201.58C48.3379 201.457 48.1094 201.287 47.9189 201.07C47.7314 200.85 47.5879 200.594 47.4883 200.301C47.3887 200.008 47.3389 199.69 47.3389 199.347ZM48.1519 199.246V199.347C48.1519 199.585 48.1797 199.809 48.2354 200.02C48.291 200.228 48.3745 200.412 48.4858 200.573C48.6001 200.734 48.7422 200.862 48.9121 200.956C49.082 201.047 49.2798 201.092 49.5054 201.092C49.728 201.092 49.9229 201.047 50.0898 200.956C50.2598 200.862 50.4004 200.734 50.5117 200.573C50.623 200.412 50.7065 200.228 50.7622 200.02C50.8208 199.809 50.8501 199.585 50.8501 199.347V199.246C50.8501 199.012 50.8208 198.791 50.7622 198.583C50.7065 198.372 50.6216 198.186 50.5073 198.025C50.396 197.86 50.2554 197.732 50.0854 197.638C49.9185 197.544 49.7222 197.497 49.4966 197.497C49.2739 197.497 49.0776 197.544 48.9077 197.638C48.7407 197.732 48.6001 197.86 48.4858 198.025C48.3745 198.186 48.291 198.372 48.2354 198.583C48.1797 198.791 48.1519 199.012 48.1519 199.246ZM54.5898 201.092C54.7832 201.092 54.9619 201.052 55.126 200.973C55.29 200.894 55.4248 200.786 55.5303 200.648C55.6357 200.507 55.6958 200.348 55.7104 200.169H56.4839C56.4692 200.45 56.374 200.713 56.1982 200.956C56.0254 201.196 55.7983 201.391 55.5171 201.54C55.2358 201.687 54.9268 201.76 54.5898 201.76C54.2324 201.76 53.9204 201.697 53.6538 201.571C53.3901 201.445 53.1704 201.272 52.9946 201.052C52.8218 200.833 52.6914 200.581 52.6035 200.297C52.5186 200.009 52.4761 199.706 52.4761 199.387V199.202C52.4761 198.883 52.5186 198.581 52.6035 198.297C52.6914 198.01 52.8218 197.756 52.9946 197.537C53.1704 197.317 53.3901 197.144 53.6538 197.018C53.9204 196.892 54.2324 196.829 54.5898 196.829C54.9619 196.829 55.2871 196.905 55.5654 197.058C55.8438 197.207 56.062 197.412 56.2202 197.673C56.3813 197.931 56.4692 198.224 56.4839 198.552H55.7104C55.6958 198.356 55.6401 198.178 55.5435 198.02C55.4497 197.862 55.3208 197.736 55.1567 197.642C54.9956 197.546 54.8066 197.497 54.5898 197.497C54.3408 197.497 54.1313 197.547 53.9614 197.647C53.7944 197.743 53.6611 197.875 53.5615 198.042C53.4648 198.206 53.3945 198.389 53.3506 198.591C53.3096 198.791 53.2891 198.994 53.2891 199.202V199.387C53.2891 199.595 53.3096 199.8 53.3506 200.002C53.3916 200.204 53.4604 200.387 53.5571 200.551C53.6567 200.715 53.79 200.847 53.957 200.947C54.127 201.044 54.3379 201.092 54.5898 201.092ZM58.2153 194.922V201.672H57.3979V194.922H58.2153ZM61.1201 196.917L59.0459 199.136L57.8857 200.34L57.8198 199.475L58.6504 198.482L60.127 196.917H61.1201ZM60.3774 201.672L58.6812 199.404L59.103 198.679L61.3354 201.672H60.3774ZM68.1953 200.982V201.672H64.9961V200.982H68.1953ZM65.1631 195.274V201.672H64.3149V195.274H65.1631ZM71.0166 201.76C70.6855 201.76 70.3853 201.704 70.1157 201.593C69.8491 201.479 69.6191 201.319 69.4258 201.114C69.2354 200.909 69.0889 200.666 68.9863 200.384C68.8838 200.103 68.8325 199.796 68.8325 199.462V199.277C68.8325 198.89 68.8896 198.546 69.0039 198.244C69.1182 197.94 69.2734 197.682 69.4697 197.471C69.666 197.26 69.8887 197.1 70.1377 196.992C70.3867 196.883 70.6445 196.829 70.9111 196.829C71.251 196.829 71.5439 196.888 71.79 197.005C72.0391 197.122 72.2427 197.286 72.4009 197.497C72.5591 197.705 72.6763 197.951 72.7524 198.235C72.8286 198.517 72.8667 198.824 72.8667 199.158V199.523H69.3159V198.859H72.0537V198.798C72.042 198.587 71.998 198.382 71.9219 198.183C71.8486 197.984 71.7314 197.819 71.5703 197.691C71.4092 197.562 71.1895 197.497 70.9111 197.497C70.7266 197.497 70.5566 197.537 70.4014 197.616C70.2461 197.692 70.1128 197.806 70.0015 197.959C69.8901 198.111 69.8037 198.297 69.7422 198.517C69.6807 198.736 69.6499 198.99 69.6499 199.277V199.462C69.6499 199.687 69.6807 199.9 69.7422 200.099C69.8066 200.295 69.8989 200.468 70.019 200.617C70.1421 200.767 70.29 200.884 70.4629 200.969C70.6387 201.054 70.8379 201.096 71.0605 201.096C71.3477 201.096 71.5908 201.038 71.79 200.921C71.9893 200.803 72.1636 200.647 72.313 200.45L72.8052 200.841C72.7026 200.997 72.5723 201.145 72.4141 201.285C72.2559 201.426 72.061 201.54 71.8296 201.628C71.6011 201.716 71.3301 201.76 71.0166 201.76ZM75.2002 200.938L76.501 196.917H77.3315L75.6221 201.672H75.0771L75.2002 200.938ZM74.1147 196.917L75.4551 200.96L75.5474 201.672H75.0024L73.2798 196.917H74.1147ZM80.0254 201.76C79.6943 201.76 79.394 201.704 79.1245 201.593C78.8579 201.479 78.6279 201.319 78.4346 201.114C78.2441 200.909 78.0977 200.666 77.9951 200.384C77.8926 200.103 77.8413 199.796 77.8413 199.462V199.277C77.8413 198.89 77.8984 198.546 78.0127 198.244C78.127 197.94 78.2822 197.682 78.4785 197.471C78.6748 197.26 78.8975 197.1 79.1465 196.992C79.3955 196.883 79.6533 196.829 79.9199 196.829C80.2598 196.829 80.5527 196.888 80.7988 197.005C81.0479 197.122 81.2515 197.286 81.4097 197.497C81.5679 197.705 81.6851 197.951 81.7612 198.235C81.8374 198.517 81.8755 198.824 81.8755 199.158V199.523H78.3247V198.859H81.0625V198.798C81.0508 198.587 81.0068 198.382 80.9307 198.183C80.8574 197.984 80.7402 197.819 80.5791 197.691C80.418 197.562 80.1982 197.497 79.9199 197.497C79.7354 197.497 79.5654 197.537 79.4102 197.616C79.2549 197.692 79.1216 197.806 79.0103 197.959C78.8989 198.111 78.8125 198.297 78.751 198.517C78.6895 198.736 78.6587 198.99 78.6587 199.277V199.462C78.6587 199.687 78.6895 199.9 78.751 200.099C78.8154 200.295 78.9077 200.468 79.0278 200.617C79.1509 200.767 79.2988 200.884 79.4717 200.969C79.6475 201.054 79.8467 201.096 80.0693 201.096C80.3564 201.096 80.5996 201.038 80.7988 200.921C80.998 200.803 81.1724 200.647 81.3218 200.45L81.814 200.841C81.7114 200.997 81.5811 201.145 81.4229 201.285C81.2646 201.426 81.0698 201.54 80.8384 201.628C80.6099 201.716 80.3389 201.76 80.0254 201.76ZM83.708 194.922V201.672H82.8906V194.922H83.708Z" fill="#4B465C"/>
<path d="M153.795 189.048V196.172H152.389V190.669L150.699 191.206V190.098L153.644 189.048H153.795Z" fill="#4B465C"/>
<path d="M22.8569 214.492V220.89H22.022V214.492H22.8569ZM24.9136 214.492V215.186H19.9697V214.492H24.9136ZM25.085 218.566V218.464C25.085 218.122 25.1348 217.804 25.2344 217.511C25.334 217.215 25.4775 216.959 25.665 216.742C25.8525 216.522 26.0796 216.352 26.3462 216.232C26.6128 216.109 26.9116 216.047 27.2427 216.047C27.5767 216.047 27.877 216.109 28.1436 216.232C28.4131 216.352 28.6416 216.522 28.8291 216.742C29.0195 216.959 29.1646 217.215 29.2642 217.511C29.3638 217.804 29.4136 218.122 29.4136 218.464V218.566C29.4136 218.908 29.3638 219.226 29.2642 219.519C29.1646 219.812 29.0195 220.068 28.8291 220.288C28.6416 220.505 28.4146 220.675 28.1479 220.798C27.8843 220.918 27.5854 220.978 27.2515 220.978C26.9175 220.978 26.6172 220.918 26.3506 220.798C26.084 220.675 25.8555 220.505 25.665 220.288C25.4775 220.068 25.334 219.812 25.2344 219.519C25.1348 219.226 25.085 218.908 25.085 218.566ZM25.8979 218.464V218.566C25.8979 218.803 25.9258 219.027 25.9814 219.238C26.0371 219.446 26.1206 219.63 26.2319 219.792C26.3462 219.953 26.4883 220.08 26.6582 220.174C26.8281 220.265 27.0259 220.31 27.2515 220.31C27.4741 220.31 27.6689 220.265 27.8359 220.174C28.0059 220.08 28.1465 219.953 28.2578 219.792C28.3691 219.63 28.4526 219.446 28.5083 219.238C28.5669 219.027 28.5962 218.803 28.5962 218.566V218.464C28.5962 218.23 28.5669 218.009 28.5083 217.801C28.4526 217.59 28.3677 217.404 28.2534 217.243C28.1421 217.079 28.0015 216.95 27.8315 216.856C27.6646 216.762 27.4683 216.715 27.2427 216.715C27.02 216.715 26.8237 216.762 26.6538 216.856C26.4868 216.95 26.3462 217.079 26.2319 217.243C26.1206 217.404 26.0371 217.59 25.9814 217.801C25.9258 218.009 25.8979 218.23 25.8979 218.464ZM32.4238 216.135V216.759H29.853V216.135H32.4238ZM30.7231 214.98H31.5361V219.713C31.5361 219.874 31.561 219.995 31.6108 220.077C31.6606 220.159 31.7251 220.214 31.8042 220.24C31.8833 220.266 31.9683 220.279 32.0591 220.279C32.1265 220.279 32.1968 220.274 32.27 220.262C32.3462 220.247 32.4033 220.235 32.4414 220.227L32.4458 220.89C32.3813 220.911 32.2964 220.93 32.1909 220.947C32.0884 220.968 31.9639 220.978 31.8174 220.978C31.6182 220.978 31.4351 220.939 31.2681 220.859C31.1011 220.78 30.9678 220.649 30.8682 220.464C30.7715 220.276 30.7231 220.025 30.7231 219.708V214.98ZM36.1812 220.077V217.63C36.1812 217.442 36.1431 217.279 36.0669 217.142C35.9937 217.001 35.8823 216.893 35.7329 216.817C35.5835 216.74 35.3989 216.702 35.1792 216.702C34.9741 216.702 34.7939 216.737 34.6387 216.808C34.4863 216.878 34.3662 216.97 34.2783 217.085C34.1934 217.199 34.1509 217.322 34.1509 217.454H33.3379C33.3379 217.284 33.3818 217.115 33.4697 216.948C33.5576 216.781 33.6836 216.63 33.8477 216.496C34.0146 216.358 34.2139 216.25 34.4453 216.171C34.6797 216.089 34.9404 216.047 35.2275 216.047C35.5732 216.047 35.8779 216.106 36.1416 216.223C36.4082 216.34 36.6162 216.518 36.7656 216.755C36.918 216.989 36.9941 217.284 36.9941 217.638V219.853C36.9941 220.011 37.0073 220.18 37.0337 220.359C37.063 220.537 37.1055 220.691 37.1611 220.82V220.89H36.313C36.272 220.797 36.2397 220.672 36.2163 220.517C36.1929 220.359 36.1812 220.212 36.1812 220.077ZM36.3218 218.007L36.3306 218.579H35.5088C35.2773 218.579 35.0708 218.598 34.8892 218.636C34.7075 218.671 34.5552 218.725 34.4321 218.798C34.3091 218.872 34.2153 218.964 34.1509 219.075C34.0864 219.184 34.0542 219.311 34.0542 219.458C34.0542 219.607 34.0879 219.743 34.1553 219.866C34.2227 219.989 34.3237 220.088 34.4585 220.161C34.5962 220.231 34.7646 220.266 34.9639 220.266C35.2129 220.266 35.4326 220.214 35.623 220.108C35.8135 220.003 35.9644 219.874 36.0757 219.721C36.1899 219.569 36.2515 219.421 36.2603 219.277L36.6074 219.669C36.5869 219.792 36.5312 219.928 36.4404 220.077C36.3496 220.227 36.228 220.37 36.0757 220.508C35.9263 220.643 35.7476 220.755 35.5396 220.846C35.3345 220.934 35.103 220.978 34.8452 220.978C34.5229 220.978 34.2402 220.915 33.9971 220.789C33.7568 220.663 33.5693 220.495 33.4346 220.284C33.3027 220.07 33.2368 219.831 33.2368 219.568C33.2368 219.313 33.2866 219.089 33.3862 218.895C33.4858 218.699 33.6294 218.536 33.8169 218.407C34.0044 218.276 34.23 218.176 34.4937 218.109C34.7573 218.041 35.0518 218.007 35.377 218.007H36.3218ZM39.1562 214.14V220.89H38.3389V214.14H39.1562ZM42.4785 218.566V218.464C42.4785 218.122 42.5283 217.804 42.6279 217.511C42.7275 217.215 42.8711 216.959 43.0586 216.742C43.2461 216.522 43.4731 216.352 43.7397 216.232C44.0063 216.109 44.3052 216.047 44.6362 216.047C44.9702 216.047 45.2705 216.109 45.5371 216.232C45.8066 216.352 46.0352 216.522 46.2227 216.742C46.4131 216.959 46.5581 217.215 46.6577 217.511C46.7573 217.804 46.8071 218.122 46.8071 218.464V218.566C46.8071 218.908 46.7573 219.226 46.6577 219.519C46.5581 219.812 46.4131 220.068 46.2227 220.288C46.0352 220.505 45.8081 220.675 45.5415 220.798C45.2778 220.918 44.979 220.978 44.645 220.978C44.311 220.978 44.0107 220.918 43.7441 220.798C43.4775 220.675 43.249 220.505 43.0586 220.288C42.8711 220.068 42.7275 219.812 42.6279 219.519C42.5283 219.226 42.4785 218.908 42.4785 218.566ZM43.2915 218.464V218.566C43.2915 218.803 43.3193 219.027 43.375 219.238C43.4307 219.446 43.5142 219.63 43.6255 219.792C43.7397 219.953 43.8818 220.08 44.0518 220.174C44.2217 220.265 44.4194 220.31 44.645 220.31C44.8677 220.31 45.0625 220.265 45.2295 220.174C45.3994 220.08 45.54 219.953 45.6514 219.792C45.7627 219.63 45.8462 219.446 45.9019 219.238C45.9604 219.027 45.9897 218.803 45.9897 218.566V218.464C45.9897 218.23 45.9604 218.009 45.9019 217.801C45.8462 217.59 45.7612 217.404 45.647 217.243C45.5356 217.079 45.395 216.95 45.2251 216.856C45.0581 216.762 44.8618 216.715 44.6362 216.715C44.4136 216.715 44.2173 216.762 44.0474 216.856C43.8804 216.95 43.7397 217.079 43.6255 217.243C43.5142 217.404 43.4307 217.59 43.375 217.801C43.3193 218.009 43.2915 218.23 43.2915 218.464ZM50.7358 219.792V216.135H51.5532V220.89H50.7754L50.7358 219.792ZM50.8896 218.79L51.228 218.781C51.228 219.097 51.1943 219.39 51.127 219.66C51.0625 219.926 50.957 220.158 50.8105 220.354C50.6641 220.55 50.4722 220.704 50.2349 220.816C49.9976 220.924 49.709 220.978 49.3691 220.978C49.1377 220.978 48.9253 220.944 48.7319 220.877C48.5415 220.81 48.3774 220.706 48.2397 220.565C48.1021 220.424 47.9951 220.241 47.9189 220.016C47.8457 219.79 47.8091 219.519 47.8091 219.203V216.135H48.6221V219.212C48.6221 219.425 48.6455 219.603 48.6924 219.743C48.7422 219.881 48.8081 219.991 48.8901 220.073C48.9751 220.152 49.0688 220.208 49.1714 220.24C49.2769 220.272 49.3853 220.288 49.4966 220.288C49.8423 220.288 50.1162 220.222 50.3184 220.09C50.5205 219.956 50.6655 219.776 50.7534 219.55C50.8442 219.321 50.8896 219.068 50.8896 218.79ZM54.7832 216.135V216.759H52.2124V216.135H54.7832ZM53.0825 214.98H53.8955V219.713C53.8955 219.874 53.9204 219.995 53.9702 220.077C54.02 220.159 54.0845 220.214 54.1636 220.24C54.2427 220.266 54.3276 220.279 54.4185 220.279C54.4858 220.279 54.5562 220.274 54.6294 220.262C54.7056 220.247 54.7627 220.235 54.8008 220.227L54.8052 220.89C54.7407 220.911 54.6558 220.93 54.5503 220.947C54.4478 220.968 54.3232 220.978 54.1768 220.978C53.9775 220.978 53.7944 220.939 53.6274 220.859C53.4604 220.78 53.3271 220.649 53.2275 220.464C53.1309 220.276 53.0825 220.025 53.0825 219.708V214.98ZM57.7539 218.566V218.464C57.7539 218.122 57.8037 217.804 57.9033 217.511C58.0029 217.215 58.1465 216.959 58.334 216.742C58.5215 216.522 58.7485 216.352 59.0151 216.232C59.2817 216.109 59.5806 216.047 59.9116 216.047C60.2456 216.047 60.5459 216.109 60.8125 216.232C61.082 216.352 61.3105 216.522 61.498 216.742C61.6885 216.959 61.8335 217.215 61.9331 217.511C62.0327 217.804 62.0825 218.122 62.0825 218.464V218.566C62.0825 218.908 62.0327 219.226 61.9331 219.519C61.8335 219.812 61.6885 220.068 61.498 220.288C61.3105 220.505 61.0835 220.675 60.8169 220.798C60.5532 220.918 60.2544 220.978 59.9204 220.978C59.5864 220.978 59.2861 220.918 59.0195 220.798C58.7529 220.675 58.5244 220.505 58.334 220.288C58.1465 220.068 58.0029 219.812 57.9033 219.519C57.8037 219.226 57.7539 218.908 57.7539 218.566ZM58.5669 218.464V218.566C58.5669 218.803 58.5947 219.027 58.6504 219.238C58.7061 219.446 58.7896 219.63 58.9009 219.792C59.0151 219.953 59.1572 220.08 59.3271 220.174C59.4971 220.265 59.6948 220.31 59.9204 220.31C60.1431 220.31 60.3379 220.265 60.5049 220.174C60.6748 220.08 60.8154 219.953 60.9268 219.792C61.0381 219.63 61.1216 219.446 61.1772 219.238C61.2358 219.027 61.2651 218.803 61.2651 218.566V218.464C61.2651 218.23 61.2358 218.009 61.1772 217.801C61.1216 217.59 61.0366 217.404 60.9224 217.243C60.811 217.079 60.6704 216.95 60.5005 216.856C60.3335 216.762 60.1372 216.715 59.9116 216.715C59.689 216.715 59.4927 216.762 59.3228 216.856C59.1558 216.95 59.0151 217.079 58.9009 217.243C58.7896 217.404 58.7061 217.59 58.6504 217.801C58.5947 218.009 58.5669 218.23 58.5669 218.464ZM64.3149 220.89H63.502V215.634C63.502 215.292 63.5635 215.003 63.6865 214.769C63.8125 214.531 63.9927 214.353 64.2271 214.233C64.4614 214.109 64.7397 214.048 65.062 214.048C65.1558 214.048 65.2495 214.054 65.3433 214.066C65.4399 214.077 65.5337 214.095 65.6245 214.118L65.5806 214.782C65.519 214.767 65.4487 214.757 65.3696 214.751C65.2935 214.745 65.2173 214.742 65.1411 214.742C64.9683 214.742 64.8188 214.777 64.6929 214.848C64.5698 214.915 64.4761 215.015 64.4116 215.147C64.3472 215.278 64.3149 215.441 64.3149 215.634V220.89ZM65.3257 216.135V216.759H62.7505V216.135H65.3257ZM71.9966 219.273C71.9966 219.124 71.9731 218.992 71.9263 218.878C71.8823 218.76 71.8032 218.655 71.689 218.561C71.5776 218.467 71.4224 218.378 71.2231 218.293C71.0269 218.208 70.7778 218.122 70.4761 218.034C70.1597 217.94 69.874 217.836 69.6191 217.722C69.3643 217.605 69.146 217.471 68.9644 217.322C68.7827 217.172 68.6436 217.001 68.5469 216.808C68.4502 216.614 68.4019 216.393 68.4019 216.144C68.4019 215.895 68.4531 215.665 68.5557 215.454C68.6582 215.243 68.8047 215.06 68.9951 214.905C69.1885 214.747 69.4185 214.624 69.6851 214.536C69.9517 214.448 70.249 214.404 70.5771 214.404C71.0576 214.404 71.4648 214.496 71.7988 214.681C72.1357 214.862 72.3921 215.101 72.5679 215.397C72.7437 215.69 72.8315 216.004 72.8315 216.338H71.9878C71.9878 216.097 71.9365 215.885 71.834 215.7C71.7314 215.513 71.5762 215.366 71.3682 215.261C71.1602 215.152 70.8965 215.098 70.5771 215.098C70.2754 215.098 70.0264 215.144 69.8301 215.234C69.6338 215.325 69.4873 215.448 69.3906 215.604C69.2969 215.759 69.25 215.936 69.25 216.135C69.25 216.27 69.2778 216.393 69.3335 216.505C69.3921 216.613 69.4814 216.714 69.6016 216.808C69.7246 216.901 69.8799 216.988 70.0674 217.067C70.2578 217.146 70.4849 217.222 70.7485 217.296C71.1118 217.398 71.4253 217.512 71.689 217.638C71.9526 217.764 72.1694 217.906 72.3394 218.065C72.5122 218.22 72.6396 218.397 72.7217 218.596C72.8066 218.793 72.8491 219.015 72.8491 219.264C72.8491 219.525 72.7964 219.761 72.6909 219.972C72.5854 220.183 72.4346 220.363 72.2383 220.512C72.042 220.662 71.8062 220.777 71.5308 220.859C71.2583 220.939 70.9536 220.978 70.6167 220.978C70.3208 220.978 70.0293 220.937 69.7422 220.855C69.458 220.773 69.1987 220.65 68.9644 220.486C68.7329 220.322 68.5469 220.12 68.4062 219.88C68.2686 219.636 68.1997 219.355 68.1997 219.036H69.0435C69.0435 219.255 69.0859 219.444 69.1709 219.603C69.2559 219.758 69.3716 219.887 69.5181 219.989C69.6675 220.092 69.8359 220.168 70.0234 220.218C70.2139 220.265 70.4116 220.288 70.6167 220.288C70.9126 220.288 71.1631 220.247 71.3682 220.165C71.5732 220.083 71.7285 219.966 71.834 219.814C71.9424 219.661 71.9966 219.481 71.9966 219.273ZM75.7979 216.135V216.759H73.2271V216.135H75.7979ZM74.0972 214.98H74.9102V219.713C74.9102 219.874 74.9351 219.995 74.9849 220.077C75.0347 220.159 75.0991 220.214 75.1782 220.24C75.2573 220.266 75.3423 220.279 75.4331 220.279C75.5005 220.279 75.5708 220.274 75.644 220.262C75.7202 220.247 75.7773 220.235 75.8154 220.227L75.8198 220.89C75.7554 220.911 75.6704 220.93 75.5649 220.947C75.4624 220.968 75.3379 220.978 75.1914 220.978C74.9922 220.978 74.8091 220.939 74.6421 220.859C74.4751 220.78 74.3418 220.649 74.2422 220.464C74.1455 220.276 74.0972 220.025 74.0972 219.708V214.98ZM76.4482 218.566V218.464C76.4482 218.122 76.498 217.804 76.5977 217.511C76.6973 217.215 76.8408 216.959 77.0283 216.742C77.2158 216.522 77.4429 216.352 77.7095 216.232C77.9761 216.109 78.2749 216.047 78.606 216.047C78.9399 216.047 79.2402 216.109 79.5068 216.232C79.7764 216.352 80.0049 216.522 80.1924 216.742C80.3828 216.959 80.5278 217.215 80.6274 217.511C80.7271 217.804 80.7769 218.122 80.7769 218.464V218.566C80.7769 218.908 80.7271 219.226 80.6274 219.519C80.5278 219.812 80.3828 220.068 80.1924 220.288C80.0049 220.505 79.7778 220.675 79.5112 220.798C79.2476 220.918 78.9487 220.978 78.6147 220.978C78.2808 220.978 77.9805 220.918 77.7139 220.798C77.4473 220.675 77.2188 220.505 77.0283 220.288C76.8408 220.068 76.6973 219.812 76.5977 219.519C76.498 219.226 76.4482 218.908 76.4482 218.566ZM77.2612 218.464V218.566C77.2612 218.803 77.2891 219.027 77.3447 219.238C77.4004 219.446 77.4839 219.63 77.5952 219.792C77.7095 219.953 77.8516 220.08 78.0215 220.174C78.1914 220.265 78.3892 220.31 78.6147 220.31C78.8374 220.31 79.0322 220.265 79.1992 220.174C79.3691 220.08 79.5098 219.953 79.6211 219.792C79.7324 219.63 79.8159 219.446 79.8716 219.238C79.9302 219.027 79.9595 218.803 79.9595 218.566V218.464C79.9595 218.23 79.9302 218.009 79.8716 217.801C79.8159 217.59 79.731 217.404 79.6167 217.243C79.5054 217.079 79.3647 216.95 79.1948 216.856C79.0278 216.762 78.8315 216.715 78.606 216.715C78.3833 216.715 78.187 216.762 78.0171 216.856C77.8501 216.95 77.7095 217.079 77.5952 217.243C77.4839 217.404 77.4004 217.59 77.3447 217.801C77.2891 218.009 77.2612 218.23 77.2612 218.464ZM83.6992 220.31C83.8926 220.31 84.0713 220.271 84.2354 220.192C84.3994 220.112 84.5342 220.004 84.6396 219.866C84.7451 219.726 84.8052 219.566 84.8198 219.387H85.5933C85.5786 219.669 85.4834 219.931 85.3076 220.174C85.1348 220.414 84.9077 220.609 84.6265 220.758C84.3452 220.905 84.0361 220.978 83.6992 220.978C83.3418 220.978 83.0298 220.915 82.7632 220.789C82.4995 220.663 82.2798 220.49 82.104 220.271C81.9312 220.051 81.8008 219.799 81.7129 219.515C81.6279 219.228 81.5854 218.924 81.5854 218.605V218.421C81.5854 218.101 81.6279 217.799 81.7129 217.515C81.8008 217.228 81.9312 216.975 82.104 216.755C82.2798 216.535 82.4995 216.362 82.7632 216.236C83.0298 216.11 83.3418 216.047 83.6992 216.047C84.0713 216.047 84.3965 216.124 84.6748 216.276C84.9531 216.425 85.1714 216.63 85.3296 216.891C85.4907 217.149 85.5786 217.442 85.5933 217.77H84.8198C84.8052 217.574 84.7495 217.397 84.6528 217.238C84.5591 217.08 84.4302 216.954 84.2661 216.86C84.105 216.764 83.916 216.715 83.6992 216.715C83.4502 216.715 83.2407 216.765 83.0708 216.865C82.9038 216.962 82.7705 217.093 82.6709 217.26C82.5742 217.424 82.5039 217.608 82.46 217.81C82.4189 218.009 82.3984 218.213 82.3984 218.421V218.605C82.3984 218.813 82.4189 219.018 82.46 219.22C82.501 219.422 82.5698 219.606 82.6665 219.77C82.7661 219.934 82.8994 220.066 83.0664 220.165C83.2363 220.262 83.4473 220.31 83.6992 220.31ZM87.3247 214.14V220.89H86.5073V214.14H87.3247ZM90.2295 216.135L88.1553 218.355L86.9951 219.559L86.9292 218.693L87.7598 217.7L89.2363 216.135H90.2295ZM89.4868 220.89L87.7905 218.623L88.2124 217.898L90.4448 220.89H89.4868Z" fill="#4B465C"/>
<path d="M139.682 213.766V220.89H138.275V215.387L136.586 215.924V214.816L139.53 213.766H139.682ZM143.437 216.725H144.188C144.429 216.725 144.628 216.685 144.784 216.603C144.94 216.519 145.056 216.401 145.131 216.252C145.209 216.099 145.248 215.921 145.248 215.719C145.248 215.537 145.212 215.376 145.141 215.236C145.072 215.093 144.966 214.982 144.823 214.904C144.68 214.823 144.499 214.782 144.281 214.782C144.109 214.782 143.949 214.816 143.803 214.884C143.656 214.953 143.539 215.049 143.451 215.172C143.363 215.296 143.319 215.446 143.319 215.622H141.908C141.908 215.231 142.012 214.891 142.221 214.601C142.432 214.311 142.715 214.085 143.07 213.922C143.425 213.76 143.816 213.678 144.242 213.678C144.724 213.678 145.146 213.756 145.507 213.913C145.868 214.066 146.15 214.292 146.352 214.591C146.553 214.891 146.654 215.262 146.654 215.705C146.654 215.929 146.602 216.147 146.498 216.359C146.394 216.567 146.244 216.756 146.049 216.925C145.857 217.091 145.622 217.225 145.346 217.326C145.069 217.423 144.758 217.472 144.413 217.472H143.437V216.725ZM143.437 217.795V217.067H144.413C144.8 217.067 145.141 217.111 145.434 217.199C145.727 217.287 145.972 217.414 146.171 217.58C146.369 217.742 146.519 217.936 146.62 218.161C146.721 218.382 146.771 218.628 146.771 218.898C146.771 219.23 146.708 219.526 146.581 219.787C146.454 220.044 146.275 220.262 146.044 220.441C145.816 220.62 145.549 220.757 145.243 220.851C144.937 220.942 144.604 220.988 144.242 220.988C143.943 220.988 143.648 220.947 143.358 220.866C143.072 220.781 142.812 220.656 142.577 220.49C142.346 220.321 142.16 220.109 142.021 219.855C141.884 219.598 141.815 219.294 141.815 218.942H143.227C143.227 219.124 143.272 219.287 143.363 219.43C143.454 219.574 143.58 219.686 143.739 219.767C143.902 219.849 144.083 219.889 144.281 219.889C144.506 219.889 144.698 219.849 144.857 219.767C145.02 219.683 145.144 219.565 145.229 219.416C145.316 219.263 145.36 219.085 145.36 218.883C145.36 218.623 145.313 218.415 145.219 218.258C145.124 218.099 144.989 217.982 144.813 217.907C144.638 217.832 144.429 217.795 144.188 217.795H143.437ZM149.062 217.653L147.938 217.384L148.344 213.781H152.338V214.919H149.501L149.325 216.496C149.42 216.44 149.563 216.382 149.755 216.32C149.947 216.255 150.162 216.222 150.399 216.222C150.744 216.222 151.05 216.276 151.317 216.383C151.584 216.491 151.811 216.647 151.996 216.852C152.185 217.057 152.328 217.308 152.426 217.604C152.523 217.9 152.572 218.236 152.572 218.61C152.572 218.926 152.523 219.227 152.426 219.513C152.328 219.797 152.18 220.05 151.981 220.275C151.783 220.496 151.534 220.671 151.234 220.797C150.935 220.924 150.58 220.988 150.17 220.988C149.864 220.988 149.568 220.942 149.281 220.851C148.998 220.76 148.743 220.625 148.515 220.446C148.29 220.267 148.109 220.05 147.973 219.797C147.839 219.539 147.769 219.246 147.763 218.918H149.159C149.179 219.119 149.231 219.294 149.315 219.44C149.403 219.583 149.519 219.694 149.662 219.772C149.805 219.85 149.973 219.889 150.165 219.889C150.344 219.889 150.497 219.855 150.624 219.787C150.751 219.718 150.854 219.624 150.932 219.504C151.01 219.38 151.067 219.237 151.103 219.074C151.142 218.908 151.161 218.729 151.161 218.537C151.161 218.345 151.138 218.171 151.093 218.014C151.047 217.858 150.977 217.723 150.883 217.609C150.788 217.495 150.668 217.407 150.521 217.345C150.378 217.283 150.211 217.253 150.019 217.253C149.758 217.253 149.556 217.293 149.413 217.375C149.273 217.456 149.156 217.549 149.062 217.653ZM156.908 213.766V220.89H155.502V215.387L153.812 215.924V214.816L156.757 213.766H156.908Z" fill="#4B465C"/>
</svg>
