<svg width="170" height="248" viewBox="0 0 170 248" fill="none" xmlns="http://www.w3.org/2000/svg">
<rect x="0.125" width="169.75" height="248" rx="8" fill="white"/>
<path d="M15.7705 22.5131H13.7617L13.751 21.3422H15.4106C15.7043 21.3422 15.9424 21.3064 16.125 21.2348C16.3112 21.1631 16.4473 21.0593 16.5332 20.9232C16.6191 20.7836 16.6621 20.6117 16.6621 20.4076C16.6621 20.1749 16.6191 19.9869 16.5332 19.8436C16.4473 19.7004 16.3112 19.5966 16.125 19.5321C15.9424 19.4641 15.7061 19.4301 15.416 19.4301H14.3955V25.8915H12.6445V18.0712H15.416C15.8851 18.0712 16.304 18.1142 16.6729 18.2001C17.0417 18.286 17.355 18.4185 17.6128 18.5976C17.8742 18.7766 18.0729 19.0004 18.209 19.2689C18.3451 19.5375 18.4131 19.8544 18.4131 20.2196C18.4131 20.5383 18.3415 20.8355 18.1982 21.1112C18.0586 21.3869 17.833 21.6107 17.5215 21.7826C17.21 21.9545 16.7928 22.0476 16.27 22.0619L15.7705 22.5131ZM15.7007 25.8915H13.3159L13.9497 24.538H15.7007C15.9692 24.538 16.1877 24.495 16.356 24.4091C16.5243 24.3231 16.6478 24.2068 16.7266 24.06C16.8053 23.9131 16.8447 23.7484 16.8447 23.5658C16.8447 23.351 16.8071 23.1648 16.7319 23.0072C16.6603 22.8497 16.5457 22.7279 16.3882 22.642C16.2342 22.556 16.0283 22.5131 15.7705 22.5131H14.2021L14.2129 21.3422H16.1304L16.5386 21.8041C17.0363 21.7934 17.4338 21.8739 17.731 22.0458C18.0317 22.2141 18.2484 22.4361 18.3809 22.7118C18.5133 22.9875 18.5796 23.2794 18.5796 23.5873C18.5796 24.0958 18.4704 24.5219 18.252 24.8656C18.0335 25.2058 17.7095 25.4618 17.2798 25.6337C16.8537 25.8056 16.3273 25.8915 15.7007 25.8915ZM22.3662 25.9989C21.9043 25.9989 21.4907 25.9255 21.1255 25.7787C20.7603 25.6319 20.4505 25.4296 20.1963 25.1718C19.9456 24.9104 19.7541 24.6096 19.6216 24.2694C19.4891 23.9293 19.4229 23.5658 19.4229 23.1791V22.975C19.4229 22.5417 19.4837 22.1425 19.6055 21.7772C19.7272 21.412 19.9045 21.0951 20.1372 20.8266C20.3735 20.5544 20.6636 20.3449 21.0073 20.1981C21.3511 20.0477 21.7432 19.9726 22.1836 19.9726C22.5954 19.9726 22.9624 20.0406 23.2847 20.1767C23.6069 20.3091 23.8791 20.5007 24.1011 20.7514C24.3231 20.9984 24.4914 21.2974 24.606 21.6483C24.7241 21.9957 24.7832 22.386 24.7832 22.8192V23.5067H20.0996V22.4271H23.1396V22.2982C23.1396 22.0941 23.1021 21.9151 23.0269 21.7611C22.9552 21.6072 22.8478 21.489 22.7046 21.4066C22.5649 21.3207 22.3877 21.2777 22.1729 21.2777C21.9688 21.2777 21.7987 21.3207 21.6626 21.4066C21.5265 21.4926 21.4173 21.6143 21.335 21.7719C21.2562 21.9258 21.1989 22.1067 21.1631 22.3144C21.1273 22.5185 21.1094 22.7387 21.1094 22.975V23.1791C21.1094 23.4047 21.1398 23.6106 21.2007 23.7968C21.2616 23.983 21.3511 24.1423 21.4692 24.2748C21.5874 24.4073 21.7306 24.5111 21.8989 24.5863C22.0672 24.6615 22.2588 24.6991 22.4736 24.6991C22.7386 24.6991 22.991 24.649 23.231 24.5487C23.4709 24.4449 23.6785 24.2838 23.854 24.0653L24.6382 24.9623C24.52 25.1342 24.3535 25.3007 24.1387 25.4618C23.9274 25.6194 23.6732 25.7483 23.376 25.8485C23.0788 25.9488 22.7422 25.9989 22.3662 25.9989ZM28.6934 24.2748C28.6934 24.1674 28.6593 24.0725 28.5913 23.9901C28.5269 23.9078 28.4087 23.8326 28.2368 23.7645C28.0685 23.6965 27.8304 23.6285 27.5225 23.5604C27.2324 23.4996 26.9621 23.4208 26.7114 23.3241C26.4608 23.2239 26.2424 23.1039 26.0562 22.9643C25.87 22.821 25.7249 22.6527 25.6211 22.4594C25.5173 22.2624 25.4653 22.0386 25.4653 21.788C25.4653 21.5445 25.5173 21.3135 25.6211 21.0951C25.7285 20.8767 25.8825 20.6833 26.083 20.515C26.2871 20.3467 26.5342 20.2143 26.8242 20.1176C27.1178 20.0209 27.4508 19.9726 27.8232 19.9726C28.3353 19.9726 28.7775 20.0531 29.1499 20.2143C29.5223 20.3718 29.8088 20.5938 30.0093 20.8803C30.2098 21.1631 30.3101 21.4872 30.3101 21.8524H28.6343C28.6343 21.702 28.6056 21.5713 28.5483 21.4603C28.491 21.3493 28.4033 21.2634 28.2852 21.2025C28.167 21.1381 28.0112 21.1059 27.8179 21.1059C27.6675 21.1059 27.535 21.1327 27.4204 21.1864C27.3094 21.2366 27.2217 21.3064 27.1572 21.3959C27.0964 21.4854 27.0659 21.5893 27.0659 21.7074C27.0659 21.7898 27.0838 21.865 27.1196 21.933C27.159 21.9975 27.2181 22.0583 27.2969 22.1156C27.3792 22.1693 27.4849 22.2177 27.6138 22.2606C27.7463 22.3036 27.9074 22.3448 28.0972 22.3842C28.5018 22.4594 28.8706 22.565 29.2036 22.7011C29.5402 22.8371 29.8088 23.0251 30.0093 23.265C30.2134 23.5049 30.3154 23.8218 30.3154 24.2157C30.3154 24.4735 30.2563 24.7099 30.1382 24.9247C30.0236 25.1395 29.8571 25.3275 29.6387 25.4887C29.4202 25.6498 29.1589 25.7751 28.8545 25.8646C28.5501 25.9542 28.2064 25.9989 27.8232 25.9989C27.2754 25.9989 26.8117 25.9005 26.4321 25.7035C26.0526 25.5066 25.7661 25.2595 25.5728 24.9623C25.383 24.6615 25.2881 24.3536 25.2881 24.0385H26.8618C26.869 24.2318 26.9173 24.3894 27.0068 24.5111C27.0999 24.6329 27.2199 24.7224 27.3667 24.7797C27.5135 24.8334 27.6782 24.8602 27.8608 24.8602C28.0435 24.8602 28.1956 24.8352 28.3174 24.7851C28.4391 24.7349 28.5322 24.6669 28.5967 24.581C28.6611 24.4914 28.6934 24.3894 28.6934 24.2748ZM34.2041 20.08V21.2562H30.7559V20.08H34.2041ZM31.5454 18.6405H33.2266V24.0707C33.2266 24.2318 33.2463 24.3554 33.2856 24.4413C33.325 24.5272 33.3895 24.5881 33.479 24.6239C33.5685 24.6561 33.6831 24.6723 33.8228 24.6723C33.923 24.6723 34.009 24.6687 34.0806 24.6615C34.1522 24.6544 34.2184 24.6454 34.2793 24.6347V25.8485C34.1361 25.8951 33.9839 25.9309 33.8228 25.956C33.6616 25.9846 33.4862 25.9989 33.2964 25.9989C32.9347 25.9989 32.6214 25.9398 32.3564 25.8217C32.0951 25.7035 31.8945 25.5173 31.7549 25.2631C31.6152 25.0053 31.5454 24.6705 31.5454 24.2587V18.6405ZM41.8901 23.829C41.8901 23.6965 41.8704 23.5783 41.8311 23.4745C41.7917 23.3671 41.7201 23.2686 41.6162 23.1791C41.5124 23.0896 41.3656 23.0001 41.1758 22.9105C40.986 22.8174 40.7371 22.7226 40.4292 22.6259C40.0783 22.5113 39.7435 22.3824 39.4248 22.2392C39.1097 22.0923 38.8286 21.9223 38.5815 21.7289C38.3345 21.5355 38.1393 21.31 37.9961 21.0521C37.8564 20.7943 37.7866 20.4935 37.7866 20.1498C37.7866 19.8168 37.86 19.516 38.0068 19.2475C38.1536 18.9789 38.3595 18.7497 38.6245 18.56C38.8895 18.3666 39.201 18.2198 39.5591 18.1195C39.9172 18.0157 40.311 17.9638 40.7407 17.9638C41.3136 17.9638 41.8167 18.0658 42.25 18.2699C42.6868 18.4704 43.027 18.7533 43.2705 19.1185C43.514 19.4802 43.6357 19.9009 43.6357 20.3808H41.8955C41.8955 20.1695 41.8507 19.9833 41.7612 19.8222C41.6753 19.6574 41.5428 19.5285 41.3638 19.4354C41.1883 19.3423 40.9681 19.2958 40.7031 19.2958C40.4453 19.2958 40.2287 19.3352 40.0532 19.414C39.8813 19.4892 39.7507 19.593 39.6611 19.7255C39.5752 19.858 39.5322 20.003 39.5322 20.1605C39.5322 20.2859 39.5645 20.4005 39.6289 20.5043C39.6969 20.6046 39.7936 20.6994 39.9189 20.789C40.0479 20.8749 40.2054 20.9573 40.3916 21.036C40.5778 21.1148 40.7909 21.19 41.0308 21.2616C41.4497 21.3941 41.8203 21.5409 42.1426 21.702C42.4684 21.8632 42.7424 22.0458 42.9644 22.2499C43.1864 22.454 43.3529 22.685 43.4639 22.9428C43.5785 23.2006 43.6357 23.4924 43.6357 23.8183C43.6357 24.1656 43.5677 24.4735 43.4316 24.7421C43.2992 25.0106 43.1058 25.2398 42.8516 25.4296C42.6009 25.6158 42.3001 25.7572 41.9492 25.8539C41.5983 25.9506 41.2062 25.9989 40.7729 25.9989C40.3791 25.9989 39.9906 25.9488 39.6074 25.8485C39.2243 25.7447 38.877 25.5871 38.5654 25.3759C38.2575 25.1646 38.0104 24.8961 37.8242 24.5702C37.6416 24.2408 37.5503 23.8505 37.5503 23.3993H39.3013C39.3013 23.6356 39.3353 23.8362 39.4033 24.0009C39.4714 24.162 39.568 24.2927 39.6934 24.393C39.8223 24.4932 39.978 24.5648 40.1606 24.6078C40.3433 24.6508 40.5474 24.6723 40.7729 24.6723C41.0343 24.6723 41.2456 24.6365 41.4067 24.5648C41.5715 24.4896 41.6932 24.3876 41.772 24.2587C41.8507 24.1298 41.8901 23.9866 41.8901 23.829ZM47.3203 25.9989C46.8584 25.9989 46.4448 25.9255 46.0796 25.7787C45.7144 25.6319 45.4046 25.4296 45.1504 25.1718C44.8997 24.9104 44.7082 24.6096 44.5757 24.2694C44.4432 23.9293 44.377 23.5658 44.377 23.1791V22.975C44.377 22.5417 44.4378 22.1425 44.5596 21.7772C44.6813 21.412 44.8586 21.0951 45.0913 20.8266C45.3276 20.5544 45.6177 20.3449 45.9614 20.1981C46.3052 20.0477 46.6973 19.9726 47.1377 19.9726C47.5495 19.9726 47.9165 20.0406 48.2388 20.1767C48.561 20.3091 48.8332 20.5007 49.0552 20.7514C49.2772 20.9984 49.4455 21.2974 49.5601 21.6483C49.6782 21.9957 49.7373 22.386 49.7373 22.8192V23.5067H45.0537V22.4271H48.0938V22.2982C48.0938 22.0941 48.0562 21.9151 47.981 21.7611C47.9093 21.6072 47.8019 21.489 47.6587 21.4066C47.519 21.3207 47.3418 21.2777 47.127 21.2777C46.9229 21.2777 46.7528 21.3207 46.6167 21.4066C46.4806 21.4926 46.3714 21.6143 46.2891 21.7719C46.2103 21.9258 46.153 22.1067 46.1172 22.3144C46.0814 22.5185 46.0635 22.7387 46.0635 22.975V23.1791C46.0635 23.4047 46.0939 23.6106 46.1548 23.7968C46.2157 23.983 46.3052 24.1423 46.4233 24.2748C46.5415 24.4073 46.6847 24.5111 46.853 24.5863C47.0213 24.6615 47.2129 24.6991 47.4277 24.6991C47.6927 24.6991 47.9451 24.649 48.1851 24.5487C48.425 24.4449 48.6326 24.2838 48.8081 24.0653L49.5923 24.9623C49.4741 25.1342 49.3076 25.3007 49.0928 25.4618C48.8815 25.6194 48.6273 25.7483 48.3301 25.8485C48.0329 25.9488 47.6963 25.9989 47.3203 25.9989ZM52.3208 17.6415V25.8915H50.6396V17.6415H52.3208ZM55.2964 17.6415V25.8915H53.6152V17.6415H55.2964ZM58.272 20.08V25.8915H56.5908V20.08H58.272ZM56.4888 18.5761C56.4888 18.3326 56.5747 18.1338 56.7466 17.9799C56.9185 17.8223 57.144 17.7435 57.4233 17.7435C57.7026 17.7435 57.9282 17.8223 58.1001 17.9799C58.2756 18.1338 58.3633 18.3326 58.3633 18.5761C58.3633 18.816 58.2756 19.0147 58.1001 19.1723C57.9282 19.3262 57.7026 19.4032 57.4233 19.4032C57.144 19.4032 56.9185 19.3262 56.7466 19.1723C56.5747 19.0147 56.4888 18.816 56.4888 18.5761ZM61.124 21.3207V25.8915H59.4429V20.08H61.022L61.124 21.3207ZM60.9038 22.7816L60.4849 22.7924C60.4849 22.3555 60.5386 21.9634 60.646 21.6161C60.7534 21.2688 60.9056 20.9734 61.1025 20.7299C61.3031 20.4828 61.5412 20.2948 61.8169 20.1659C62.0962 20.037 62.4041 19.9726 62.7407 19.9726C63.0129 19.9726 63.2617 20.0119 63.4873 20.0907C63.7129 20.1695 63.9062 20.2966 64.0674 20.4721C64.2321 20.6439 64.3574 20.8731 64.4434 21.1596C64.5293 21.4424 64.5723 21.7916 64.5723 22.2069V25.8915H62.8857V22.2016C62.8857 21.9581 62.8517 21.7701 62.7837 21.6376C62.7157 21.5051 62.6154 21.412 62.4829 21.3583C62.354 21.3046 62.1965 21.2777 62.0103 21.2777C61.8133 21.2777 61.645 21.3171 61.5054 21.3959C61.3657 21.4711 61.2511 21.5767 61.1616 21.7128C61.0721 21.8489 61.0059 22.0082 60.9629 22.1908C60.9235 22.3734 60.9038 22.5704 60.9038 22.7816ZM69.3311 20.08H70.8564V25.682C70.8564 26.2156 70.7347 26.6685 70.4912 27.0409C70.2513 27.4133 69.9165 27.6962 69.4868 27.8895C69.0571 28.0829 68.554 28.1796 67.9775 28.1796C67.7269 28.1796 67.4655 28.1456 67.1934 28.0775C66.9212 28.0131 66.6652 27.9146 66.4253 27.7821C66.1854 27.6532 65.9849 27.4885 65.8237 27.288L66.5381 26.2997C66.7028 26.4859 66.8997 26.6363 67.1289 26.7509C67.3581 26.869 67.6195 26.9281 67.9131 26.9281C68.1816 26.9281 68.409 26.8798 68.5952 26.7831C68.7814 26.6864 68.9229 26.545 69.0195 26.3588C69.1198 26.1726 69.1699 25.947 69.1699 25.682V21.4389L69.3311 20.08ZM65.4478 23.0556V22.9428C65.4478 22.5023 65.5015 22.1013 65.6089 21.7396C65.7163 21.3744 65.8721 21.0611 66.0762 20.7997C66.2839 20.5347 66.5327 20.3306 66.8228 20.1874C67.1164 20.0442 67.4458 19.9726 67.811 19.9726C68.2049 19.9726 68.5308 20.0477 68.7886 20.1981C69.0464 20.3449 69.2559 20.5526 69.417 20.8212C69.5781 21.0862 69.7052 21.3995 69.7983 21.7611C69.8914 22.1192 69.9666 22.5077 70.0239 22.9267V23.12C69.9666 23.5211 69.8843 23.8952 69.7769 24.2426C69.6694 24.5899 69.5298 24.8961 69.3579 25.161C69.186 25.4224 68.9712 25.6283 68.7134 25.7787C68.4591 25.9255 68.1548 25.9989 67.8003 25.9989C67.4386 25.9989 67.1128 25.9255 66.8228 25.7787C66.5327 25.6319 66.2839 25.426 66.0762 25.161C65.8721 24.8961 65.7163 24.5845 65.6089 24.2265C65.5015 23.8684 65.4478 23.4781 65.4478 23.0556ZM67.1235 22.9428V23.0556C67.1235 23.2847 67.145 23.4978 67.188 23.6947C67.2345 23.8917 67.3026 24.0653 67.3921 24.2157C67.4852 24.3661 67.5998 24.4843 67.7358 24.5702C67.8755 24.6526 68.0384 24.6937 68.2246 24.6937C68.4967 24.6937 68.717 24.6365 68.8853 24.5219C69.0571 24.4037 69.1825 24.2408 69.2612 24.0331C69.3436 23.8254 69.3866 23.5837 69.3901 23.308V22.744C69.3901 22.5149 69.3669 22.309 69.3203 22.1264C69.2738 21.9437 69.2039 21.7898 69.1108 21.6644C69.0213 21.5391 68.9032 21.4442 68.7563 21.3798C68.6131 21.3117 68.4395 21.2777 68.2354 21.2777C68.0527 21.2777 67.8916 21.3207 67.752 21.4066C67.6123 21.489 67.4959 21.6054 67.4028 21.7558C67.3097 21.9061 67.2399 22.0834 67.1934 22.2875C67.1468 22.488 67.1235 22.7064 67.1235 22.9428ZM77.8818 23.1737H75.916V21.8148H77.8818C78.1719 21.8148 78.4046 21.7665 78.5801 21.6698C78.7591 21.5731 78.8898 21.4407 78.9722 21.2724C79.0581 21.1005 79.1011 20.9071 79.1011 20.6923C79.1011 20.4703 79.0581 20.2644 78.9722 20.0746C78.8898 19.8812 78.7591 19.7255 78.5801 19.6073C78.4046 19.4892 78.1719 19.4301 77.8818 19.4301H76.5498V25.8915H74.7988V18.0712H77.8818C78.5049 18.0712 79.0384 18.184 79.4824 18.4096C79.93 18.6352 80.272 18.9449 80.5083 19.3388C80.7482 19.7291 80.8682 20.1767 80.8682 20.6815C80.8682 21.1864 80.7482 21.6251 80.5083 21.9975C80.272 22.3699 79.93 22.6599 79.4824 22.8676C79.0384 23.0717 78.5049 23.1737 77.8818 23.1737ZM83.5269 21.4335V25.8915H81.8511V20.08H83.4248L83.5269 21.4335ZM85.2617 20.037L85.2349 21.6C85.1632 21.5893 85.0701 21.5803 84.9556 21.5731C84.841 21.5624 84.7425 21.557 84.6602 21.557C84.4453 21.557 84.2591 21.5839 84.1016 21.6376C83.9476 21.6877 83.8187 21.7629 83.7148 21.8632C83.6146 21.9634 83.5394 22.0888 83.4893 22.2392C83.4391 22.386 83.4141 22.556 83.4141 22.7494L83.0972 22.5936C83.0972 22.2105 83.1348 21.8596 83.21 21.5409C83.2852 21.2222 83.3944 20.9465 83.5376 20.7138C83.6808 20.4774 83.8563 20.2948 84.064 20.1659C84.2716 20.037 84.508 19.9726 84.7729 19.9726C84.8589 19.9726 84.9466 19.9779 85.0361 19.9887C85.1257 19.9994 85.2008 20.0155 85.2617 20.037ZM85.5249 23.0448V22.932C85.5249 22.5059 85.5858 22.1138 85.7075 21.7558C85.8293 21.3941 86.0083 21.0808 86.2446 20.8158C86.481 20.5508 86.771 20.3449 87.1147 20.1981C87.4585 20.0477 87.8524 19.9726 88.2964 19.9726C88.7476 19.9726 89.145 20.0477 89.4888 20.1981C89.8361 20.3449 90.1279 20.5508 90.3643 20.8158C90.6006 21.0808 90.7796 21.3941 90.9014 21.7558C91.0231 22.1138 91.084 22.5059 91.084 22.932V23.0448C91.084 23.4673 91.0231 23.8594 90.9014 24.2211C90.7796 24.5792 90.6006 24.8925 90.3643 25.161C90.1279 25.426 89.8379 25.6319 89.4941 25.7787C89.1504 25.9255 88.7547 25.9989 88.3071 25.9989C87.8631 25.9989 87.4674 25.9255 87.1201 25.7787C86.7728 25.6319 86.481 25.426 86.2446 25.161C86.0083 24.8925 85.8293 24.5792 85.7075 24.2211C85.5858 23.8594 85.5249 23.4673 85.5249 23.0448ZM87.2061 22.932V23.0448C87.2061 23.274 87.224 23.4888 87.2598 23.6894C87.2992 23.8899 87.3618 24.0653 87.4478 24.2157C87.5337 24.3661 87.6465 24.4843 87.7861 24.5702C87.9294 24.6526 88.103 24.6937 88.3071 24.6937C88.5112 24.6937 88.6831 24.6526 88.8228 24.5702C88.9624 24.4843 89.0752 24.3661 89.1611 24.2157C89.2471 24.0653 89.3079 23.8899 89.3438 23.6894C89.3831 23.4888 89.4028 23.274 89.4028 23.0448V22.932C89.4028 22.7064 89.3831 22.4952 89.3438 22.2982C89.3079 22.0977 89.2471 21.9205 89.1611 21.7665C89.0752 21.6125 88.9606 21.4926 88.8174 21.4066C88.6777 21.3207 88.5041 21.2777 88.2964 21.2777C88.0959 21.2777 87.9258 21.3207 87.7861 21.4066C87.6465 21.4926 87.5337 21.6125 87.4478 21.7665C87.3618 21.9205 87.2992 22.0977 87.2598 22.2982C87.224 22.4952 87.2061 22.7064 87.2061 22.932ZM95.3486 24.5917V17.6415H97.0352V25.8915H95.5205L95.3486 24.5917ZM91.7285 23.0556V22.9428C91.7285 22.5023 91.7769 22.1013 91.8735 21.7396C91.9738 21.3744 92.1188 21.0611 92.3086 20.7997C92.502 20.5347 92.7401 20.3306 93.0229 20.1874C93.3058 20.0442 93.6299 19.9726 93.9951 19.9726C94.3317 19.9726 94.6253 20.0477 94.876 20.1981C95.1266 20.3449 95.3397 20.5526 95.5151 20.8212C95.6942 21.0862 95.8392 21.3995 95.9502 21.7611C96.0612 22.1192 96.1453 22.5077 96.2026 22.9267V23.12C96.1489 23.5211 96.0648 23.8952 95.9502 24.2426C95.8392 24.5899 95.6942 24.8961 95.5151 25.161C95.3397 25.4224 95.1248 25.6283 94.8706 25.7787C94.62 25.9255 94.3245 25.9989 93.9844 25.9989C93.6191 25.9989 93.2951 25.9255 93.0122 25.7787C92.7329 25.6319 92.4984 25.426 92.3086 25.161C92.1188 24.8961 91.9738 24.5845 91.8735 24.2265C91.7769 23.8684 91.7285 23.4781 91.7285 23.0556ZM93.4043 22.9428V23.0556C93.4043 23.2847 93.4204 23.4978 93.4526 23.6947C93.4884 23.8917 93.5457 24.0653 93.6245 24.2157C93.7033 24.3661 93.8071 24.4843 93.936 24.5702C94.0649 24.6526 94.2225 24.6937 94.4087 24.6937C94.6593 24.6937 94.8652 24.6365 95.0264 24.5219C95.1875 24.4037 95.3092 24.2408 95.3916 24.0331C95.474 23.8254 95.5169 23.5837 95.5205 23.308V22.744C95.5205 22.5149 95.4972 22.309 95.4507 22.1264C95.4041 21.9437 95.3343 21.7898 95.2412 21.6644C95.1517 21.5391 95.0389 21.4442 94.9028 21.3798C94.7668 21.3117 94.6056 21.2777 94.4194 21.2777C94.2368 21.2777 94.0811 21.3207 93.9521 21.4066C93.8232 21.489 93.7176 21.6054 93.6353 21.7558C93.5565 21.9061 93.4974 22.0834 93.458 22.2875C93.4222 22.488 93.4043 22.7064 93.4043 22.9428ZM101.563 24.4896V20.08H103.25V25.8915H101.67L101.563 24.4896ZM101.74 23.3026L102.202 23.2919C102.202 23.6822 102.156 24.0421 102.062 24.3715C101.973 24.7009 101.837 24.9874 101.654 25.2309C101.475 25.4743 101.251 25.6641 100.983 25.8002C100.718 25.9327 100.408 25.9989 100.054 25.9989C99.7673 25.9989 99.5041 25.9595 99.2642 25.8808C99.0278 25.7984 98.8237 25.6713 98.6519 25.4994C98.48 25.324 98.3475 25.1002 98.2544 24.828C98.1613 24.5523 98.1147 24.2229 98.1147 23.8397V20.08H99.7905V23.8505C99.7905 24.0009 99.8084 24.1298 99.8442 24.2372C99.8836 24.341 99.9355 24.427 100 24.495C100.068 24.563 100.15 24.6132 100.247 24.6454C100.347 24.6776 100.457 24.6937 100.575 24.6937C100.872 24.6937 101.105 24.6329 101.273 24.5111C101.445 24.3858 101.565 24.2193 101.633 24.0116C101.704 23.8004 101.74 23.564 101.74 23.3026ZM106.768 24.6937C106.947 24.6937 107.102 24.6597 107.235 24.5917C107.367 24.5237 107.469 24.4288 107.541 24.307C107.616 24.1817 107.654 24.0313 107.654 23.8559H109.233C109.233 24.2784 109.124 24.6508 108.905 24.973C108.69 25.2953 108.4 25.5477 108.035 25.7304C107.67 25.9094 107.258 25.9989 106.8 25.9989C106.349 25.9989 105.955 25.9255 105.618 25.7787C105.282 25.6283 105 25.4188 104.775 25.1503C104.549 24.8817 104.379 24.5702 104.265 24.2157C104.154 23.8576 104.098 23.4709 104.098 23.0556V22.9159C104.098 22.5041 104.154 22.1192 104.265 21.7611C104.379 21.4031 104.549 21.0897 104.775 20.8212C105 20.5526 105.28 20.3449 105.613 20.1981C105.949 20.0477 106.343 19.9726 106.794 19.9726C107.271 19.9726 107.691 20.0639 108.057 20.2465C108.425 20.4291 108.714 20.6923 108.921 21.036C109.129 21.3762 109.233 21.7862 109.233 22.266H107.654C107.654 22.0798 107.62 21.9133 107.552 21.7665C107.487 21.6161 107.387 21.4979 107.251 21.412C107.118 21.3225 106.954 21.2777 106.757 21.2777C106.553 21.2777 106.384 21.3225 106.252 21.412C106.123 21.4979 106.025 21.6179 105.957 21.7719C105.889 21.9258 105.842 22.1013 105.817 22.2982C105.792 22.4916 105.779 22.6975 105.779 22.9159V23.0556C105.779 23.2776 105.792 23.4888 105.817 23.6894C105.842 23.8863 105.889 24.06 105.957 24.2103C106.028 24.3607 106.128 24.4789 106.257 24.5648C106.386 24.6508 106.556 24.6937 106.768 24.6937ZM113.02 20.08V21.2562H109.571V20.08H113.02ZM110.361 18.6405H112.042V24.0707C112.042 24.2318 112.062 24.3554 112.101 24.4413C112.14 24.5272 112.205 24.5881 112.294 24.6239C112.384 24.6561 112.499 24.6723 112.638 24.6723C112.738 24.6723 112.824 24.6687 112.896 24.6615C112.968 24.6544 113.034 24.6454 113.095 24.6347V25.8485C112.951 25.8951 112.799 25.9309 112.638 25.956C112.477 25.9846 112.302 25.9989 112.112 25.9989C111.75 25.9989 111.437 25.9398 111.172 25.8217C110.91 25.7035 110.71 25.5173 110.57 25.2631C110.431 25.0053 110.361 24.6705 110.361 24.2587V18.6405ZM15.6523 38.2748C15.6523 38.1674 15.6183 38.0725 15.5503 37.9901C15.4858 37.9078 15.3677 37.8326 15.1958 37.7645C15.0275 37.6965 14.7894 37.6285 14.4814 37.5604C14.1914 37.4996 13.9211 37.4208 13.6704 37.3241C13.4198 37.2239 13.2013 37.1039 13.0151 36.9643C12.8289 36.821 12.6839 36.6527 12.5801 36.4594C12.4762 36.2624 12.4243 36.0386 12.4243 35.788C12.4243 35.5445 12.4762 35.3135 12.5801 35.0951C12.6875 34.8767 12.8415 34.6833 13.042 34.515C13.2461 34.3467 13.4932 34.2143 13.7832 34.1176C14.0768 34.0209 14.4098 33.9726 14.7822 33.9726C15.2943 33.9726 15.7365 34.0531 16.1089 34.2143C16.4813 34.3718 16.7677 34.5938 16.9683 34.8803C17.1688 35.1631 17.269 35.4872 17.269 35.8524H15.5933C15.5933 35.702 15.5646 35.5713 15.5073 35.4603C15.45 35.3493 15.3623 35.2634 15.2441 35.2025C15.126 35.1381 14.9702 35.1059 14.7769 35.1059C14.6265 35.1059 14.494 35.1327 14.3794 35.1864C14.2684 35.2366 14.1807 35.3064 14.1162 35.3959C14.0553 35.4854 14.0249 35.5893 14.0249 35.7074C14.0249 35.7898 14.0428 35.865 14.0786 35.933C14.118 35.9975 14.1771 36.0583 14.2559 36.1156C14.3382 36.1693 14.4438 36.2177 14.5728 36.2606C14.7052 36.3036 14.8664 36.3448 15.0562 36.3842C15.4608 36.4594 15.8296 36.565 16.1626 36.7011C16.4992 36.8371 16.7677 37.0251 16.9683 37.265C17.1724 37.5049 17.2744 37.8218 17.2744 38.2157C17.2744 38.4735 17.2153 38.7099 17.0972 38.9247C16.9826 39.1395 16.8161 39.3275 16.5977 39.4887C16.3792 39.6498 16.1178 39.7751 15.8135 39.8646C15.5091 39.9542 15.1654 39.9989 14.7822 39.9989C14.2344 39.9989 13.7707 39.9005 13.3911 39.7035C13.0116 39.5066 12.7251 39.2595 12.5317 38.9623C12.342 38.6615 12.2471 38.3536 12.2471 38.0385H13.8208C13.828 38.2318 13.8763 38.3894 13.9658 38.5111C14.0589 38.6329 14.1789 38.7224 14.3257 38.7797C14.4725 38.8334 14.6372 38.8602 14.8198 38.8602C15.0024 38.8602 15.1546 38.8352 15.2764 38.7851C15.3981 38.7349 15.4912 38.6669 15.5557 38.581C15.6201 38.4914 15.6523 38.3894 15.6523 38.2748ZM21.2866 38.5058V36.0136C21.2866 35.8381 21.2598 35.6877 21.2061 35.5624C21.1523 35.4371 21.0682 35.3386 20.9536 35.267C20.839 35.1954 20.6904 35.1596 20.5078 35.1596C20.3538 35.1596 20.2196 35.1864 20.105 35.2401C19.994 35.2938 19.908 35.3708 19.8472 35.4711C19.7899 35.5713 19.7612 35.6949 19.7612 35.8417H18.0854C18.0854 35.5803 18.1445 35.3368 18.2627 35.1112C18.3809 34.8856 18.5492 34.6869 18.7676 34.515C18.9896 34.3432 19.2546 34.2107 19.5625 34.1176C19.8704 34.0209 20.216 33.9726 20.5991 33.9726C21.0539 33.9726 21.4585 34.0495 21.813 34.2035C22.1711 34.3539 22.4539 34.5813 22.6616 34.8856C22.8693 35.1864 22.9731 35.566 22.9731 36.0243V38.4574C22.9731 38.8083 22.9928 39.084 23.0322 39.2846C23.0752 39.4815 23.1361 39.6534 23.2148 39.8002V39.8915H21.5229C21.4442 39.7232 21.3851 39.5155 21.3457 39.2685C21.3063 39.0178 21.2866 38.7636 21.2866 38.5058ZM21.4961 36.3466L21.5068 37.2704H20.6743C20.4881 37.2704 20.327 37.2937 20.1909 37.3402C20.0584 37.3868 19.951 37.4512 19.8687 37.5336C19.7863 37.6124 19.7254 37.7055 19.686 37.8129C19.6502 37.9167 19.6323 38.0313 19.6323 38.1566C19.6323 38.2748 19.661 38.3822 19.7183 38.4789C19.7756 38.572 19.8543 38.6454 19.9546 38.6991C20.0549 38.7528 20.1712 38.7797 20.3037 38.7797C20.5221 38.7797 20.7083 38.7367 20.8623 38.6508C21.0199 38.5648 21.1416 38.461 21.2275 38.3393C21.3135 38.2139 21.3564 38.0976 21.3564 37.9901L21.7593 38.6884C21.6948 38.8316 21.616 38.9802 21.5229 39.1342C21.4299 39.2846 21.3117 39.426 21.1685 39.5585C21.0252 39.6874 20.8516 39.793 20.6475 39.8754C20.4469 39.9577 20.2052 39.9989 19.9224 39.9989C19.5571 39.9989 19.2259 39.9255 18.9287 39.7787C18.6315 39.6283 18.3934 39.4224 18.2144 39.161C18.0389 38.8996 17.9512 38.5989 17.9512 38.2587C17.9512 37.9543 18.0067 37.684 18.1177 37.4477C18.2287 37.2113 18.3952 37.0108 18.6172 36.8461C18.8428 36.6814 19.1257 36.5578 19.4658 36.4755C19.806 36.3895 20.2035 36.3466 20.6582 36.3466H21.4961ZM25.8413 31.6415V39.8915H24.1602V31.6415H25.8413ZM29.7891 39.9989C29.3271 39.9989 28.9136 39.9255 28.5483 39.7787C28.1831 39.6319 27.8734 39.4296 27.6191 39.1718C27.3685 38.9104 27.1769 38.6096 27.0444 38.2694C26.9119 37.9293 26.8457 37.5658 26.8457 37.1791V36.975C26.8457 36.5417 26.9066 36.1425 27.0283 35.7772C27.1501 35.412 27.3273 35.0951 27.5601 34.8266C27.7964 34.5544 28.0864 34.3449 28.4302 34.1981C28.7739 34.0477 29.166 33.9726 29.6064 33.9726C30.0182 33.9726 30.3853 34.0406 30.7075 34.1767C31.0298 34.3091 31.3019 34.5007 31.5239 34.7514C31.7459 34.9984 31.9142 35.2974 32.0288 35.6483C32.147 35.9957 32.2061 36.386 32.2061 36.8192V37.5067H27.5225V36.4271H30.5625V36.2982C30.5625 36.0941 30.5249 35.9151 30.4497 35.7611C30.3781 35.6072 30.2707 35.489 30.1274 35.4066C29.9878 35.3207 29.8105 35.2777 29.5957 35.2777C29.3916 35.2777 29.2215 35.3207 29.0854 35.4066C28.9494 35.4926 28.8402 35.6143 28.7578 35.7719C28.679 35.9258 28.6217 36.1067 28.5859 36.3144C28.5501 36.5185 28.5322 36.7387 28.5322 36.975V37.1791C28.5322 37.4047 28.5627 37.6106 28.6235 37.7968C28.6844 37.983 28.7739 38.1423 28.8921 38.2748C29.0103 38.4073 29.1535 38.5111 29.3218 38.5863C29.4901 38.6615 29.6816 38.6991 29.8965 38.6991C30.1615 38.6991 30.4139 38.649 30.6538 38.5487C30.8937 38.4449 31.1014 38.2838 31.2769 38.0653L32.061 38.9623C31.9429 39.1342 31.7764 39.3007 31.5615 39.4618C31.3503 39.6194 31.096 39.7483 30.7988 39.8485C30.5016 39.9488 30.165 39.9989 29.7891 39.9989ZM36.1162 38.2748C36.1162 38.1674 36.0822 38.0725 36.0142 37.9901C35.9497 37.9078 35.8315 37.8326 35.6597 37.7645C35.4914 37.6965 35.2533 37.6285 34.9453 37.5604C34.6553 37.4996 34.3849 37.4208 34.1343 37.3241C33.8836 37.2239 33.6652 37.1039 33.479 36.9643C33.2928 36.821 33.1478 36.6527 33.0439 36.4594C32.9401 36.2624 32.8882 36.0386 32.8882 35.788C32.8882 35.5445 32.9401 35.3135 33.0439 35.0951C33.1514 34.8767 33.3053 34.6833 33.5059 34.515C33.71 34.3467 33.957 34.2143 34.2471 34.1176C34.5407 34.0209 34.8737 33.9726 35.2461 33.9726C35.7581 33.9726 36.2004 34.0531 36.5728 34.2143C36.9451 34.3718 37.2316 34.5938 37.4321 34.8803C37.6326 35.1631 37.7329 35.4872 37.7329 35.8524H36.0571C36.0571 35.702 36.0285 35.5713 35.9712 35.4603C35.9139 35.3493 35.8262 35.2634 35.708 35.2025C35.5898 35.1381 35.4341 35.1059 35.2407 35.1059C35.0903 35.1059 34.9578 35.1327 34.8433 35.1864C34.7323 35.2366 34.6445 35.3064 34.5801 35.3959C34.5192 35.4854 34.4888 35.5893 34.4888 35.7074C34.4888 35.7898 34.5067 35.865 34.5425 35.933C34.5819 35.9975 34.641 36.0583 34.7197 36.1156C34.8021 36.1693 34.9077 36.2177 35.0366 36.2606C35.1691 36.3036 35.3302 36.3448 35.52 36.3842C35.9246 36.4594 36.2935 36.565 36.6265 36.7011C36.9631 36.8371 37.2316 37.0251 37.4321 37.265C37.6362 37.5049 37.7383 37.8218 37.7383 38.2157C37.7383 38.4735 37.6792 38.7099 37.561 38.9247C37.4465 39.1395 37.2799 39.3275 37.0615 39.4887C36.8431 39.6498 36.5817 39.7751 36.2773 39.8646C35.973 39.9542 35.6292 39.9989 35.2461 39.9989C34.6982 39.9989 34.2345 39.9005 33.855 39.7035C33.4754 39.5066 33.189 39.2595 32.9956 38.9623C32.8058 38.6615 32.7109 38.3536 32.7109 38.0385H34.2847C34.2918 38.2318 34.3402 38.3894 34.4297 38.5111C34.5228 38.6329 34.6427 38.7224 34.7896 38.7797C34.9364 38.8334 35.1011 38.8602 35.2837 38.8602C35.4663 38.8602 35.6185 38.8352 35.7402 38.7851C35.862 38.7349 35.9551 38.6669 36.0195 38.581C36.084 38.4914 36.1162 38.3894 36.1162 38.2748ZM45.9937 37.2704H47.7339C47.7052 37.8075 47.5584 38.282 47.2935 38.6937C47.0321 39.1019 46.6686 39.4224 46.2031 39.6552C45.7376 39.8843 45.1844 39.9989 44.5435 39.9989C44.0314 39.9989 43.5731 39.9112 43.1685 39.7357C42.7638 39.5603 42.4201 39.3096 42.1372 38.9838C41.8579 38.6544 41.6431 38.2587 41.4927 37.7968C41.3459 37.3313 41.2725 36.8067 41.2725 36.223V35.745C41.2725 35.1614 41.3494 34.6368 41.5034 34.1713C41.6574 33.7058 41.8776 33.3083 42.1641 32.9789C42.4505 32.6495 42.7943 32.397 43.1953 32.2216C43.5964 32.0461 44.0439 31.9584 44.5381 31.9584C45.2041 31.9584 45.7663 32.0783 46.2246 32.3183C46.6829 32.5582 47.0374 32.8876 47.2881 33.3065C47.5423 33.7255 47.6945 34.2035 47.7446 34.7406H45.999C45.9847 34.4363 45.9274 34.1802 45.8271 33.9726C45.7269 33.7613 45.5729 33.6019 45.3652 33.4945C45.1576 33.3871 44.8818 33.3334 44.5381 33.3334C44.2874 33.3334 44.0672 33.3799 43.8774 33.473C43.6912 33.5661 43.5355 33.7112 43.4102 33.9081C43.2884 34.105 43.1971 34.3557 43.1362 34.6601C43.0754 34.9608 43.0449 35.3189 43.0449 35.7343V36.223C43.0449 36.6348 43.0718 36.9911 43.1255 37.2919C43.1792 37.5927 43.2651 37.8415 43.3833 38.0385C43.505 38.2354 43.6608 38.3822 43.8506 38.4789C44.0404 38.5756 44.2713 38.6239 44.5435 38.6239C44.855 38.6239 45.1146 38.5756 45.3223 38.4789C45.5299 38.3786 45.6893 38.2282 45.8003 38.0277C45.9113 37.8272 45.9757 37.5748 45.9937 37.2704ZM48.3784 37.0448V36.932C48.3784 36.5059 48.4393 36.1138 48.561 35.7558C48.6828 35.3941 48.8618 35.0808 49.0981 34.8158C49.3345 34.5508 49.6245 34.3449 49.9683 34.1981C50.312 34.0477 50.7059 33.9726 51.1499 33.9726C51.6011 33.9726 51.9985 34.0477 52.3423 34.1981C52.6896 34.3449 52.9814 34.5508 53.2178 34.8158C53.4541 35.0808 53.6331 35.3941 53.7549 35.7558C53.8766 36.1138 53.9375 36.5059 53.9375 36.932V37.0448C53.9375 37.4673 53.8766 37.8594 53.7549 38.2211C53.6331 38.5792 53.4541 38.8925 53.2178 39.161C52.9814 39.426 52.6914 39.6319 52.3477 39.7787C52.0039 39.9255 51.6082 39.9989 51.1606 39.9989C50.7166 39.9989 50.321 39.9255 49.9736 39.7787C49.6263 39.6319 49.3345 39.426 49.0981 39.161C48.8618 38.8925 48.6828 38.5792 48.561 38.2211C48.4393 37.8594 48.3784 37.4673 48.3784 37.0448ZM50.0596 36.932V37.0448C50.0596 37.274 50.0775 37.4888 50.1133 37.6894C50.1527 37.8899 50.2153 38.0653 50.3013 38.2157C50.3872 38.3661 50.5 38.4843 50.6396 38.5702C50.7829 38.6526 50.9565 38.6937 51.1606 38.6937C51.3647 38.6937 51.5366 38.6526 51.6763 38.5702C51.8159 38.4843 51.9287 38.3661 52.0146 38.2157C52.1006 38.0653 52.1615 37.8899 52.1973 37.6894C52.2367 37.4888 52.2563 37.274 52.2563 37.0448V36.932C52.2563 36.7064 52.2367 36.4952 52.1973 36.2982C52.1615 36.0977 52.1006 35.9205 52.0146 35.7665C51.9287 35.6125 51.8141 35.4926 51.6709 35.4066C51.5312 35.3207 51.3576 35.2777 51.1499 35.2777C50.9494 35.2777 50.7793 35.3207 50.6396 35.4066C50.5 35.4926 50.3872 35.6125 50.3013 35.7665C50.2153 35.9205 50.1527 36.0977 50.1133 36.2982C50.0775 36.4952 50.0596 36.7064 50.0596 36.932ZM56.4619 35.3207V39.8915H54.7808V34.08H56.3599L56.4619 35.3207ZM56.2417 36.7816L55.8228 36.7924C55.8228 36.3555 55.8765 35.9634 55.9839 35.6161C56.0913 35.2688 56.2435 34.9734 56.4404 34.7299C56.641 34.4828 56.8791 34.2948 57.1548 34.1659C57.4341 34.037 57.742 33.9726 58.0786 33.9726C58.3507 33.9726 58.5996 34.0119 58.8252 34.0907C59.0508 34.1695 59.2441 34.2966 59.4053 34.4721C59.57 34.6439 59.6953 34.8731 59.7812 35.1596C59.8672 35.4424 59.9102 35.7916 59.9102 36.2069V39.8915H58.2236V36.2016C58.2236 35.9581 58.1896 35.7701 58.1216 35.6376C58.0535 35.5051 57.9533 35.412 57.8208 35.3583C57.6919 35.3046 57.5343 35.2777 57.3481 35.2777C57.1512 35.2777 56.9829 35.3171 56.8433 35.3959C56.7036 35.4711 56.589 35.5767 56.4995 35.7128C56.41 35.8489 56.3438 36.0082 56.3008 36.1908C56.2614 36.3734 56.2417 36.5704 56.2417 36.7816ZM63.96 34.08V35.2562H60.5117V34.08H63.96ZM61.3013 32.6405H62.9824V38.0707C62.9824 38.2318 63.0021 38.3554 63.0415 38.4413C63.0809 38.5272 63.1453 38.5881 63.2349 38.6239C63.3244 38.6561 63.439 38.6723 63.5786 38.6723C63.6789 38.6723 63.7648 38.6687 63.8364 38.6615C63.908 38.6544 63.9743 38.6454 64.0352 38.6347V39.8485C63.8919 39.8951 63.7397 39.9309 63.5786 39.956C63.4175 39.9846 63.242 39.9989 63.0522 39.9989C62.6906 39.9989 62.3773 39.9398 62.1123 39.8217C61.8509 39.7035 61.6504 39.5173 61.5107 39.2631C61.3711 39.0053 61.3013 38.6705 61.3013 38.2587V32.6405ZM66.4468 35.4335V39.8915H64.771V34.08H66.3447L66.4468 35.4335ZM68.1816 34.037L68.1548 35.6C68.0832 35.5893 67.9901 35.5803 67.8755 35.5731C67.7609 35.5624 67.6624 35.557 67.5801 35.557C67.3652 35.557 67.179 35.5839 67.0215 35.6376C66.8675 35.6877 66.7386 35.7629 66.6348 35.8632C66.5345 35.9634 66.4593 36.0888 66.4092 36.2392C66.359 36.386 66.334 36.556 66.334 36.7494L66.0171 36.5936C66.0171 36.2105 66.0547 35.8596 66.1299 35.5409C66.2051 35.2222 66.3143 34.9465 66.4575 34.7138C66.6007 34.4774 66.7762 34.2948 66.9839 34.1659C67.1916 34.037 67.4279 33.9726 67.6929 33.9726C67.7788 33.9726 67.8665 33.9779 67.9561 33.9887C68.0456 33.9994 68.1208 34.0155 68.1816 34.037ZM70.6362 34.08V39.8915H68.9551V34.08H70.6362ZM68.853 32.5761C68.853 32.3326 68.939 32.1338 69.1108 31.9799C69.2827 31.8223 69.5083 31.7435 69.7876 31.7435C70.0669 31.7435 70.2925 31.8223 70.4644 31.9799C70.6398 32.1338 70.7275 32.3326 70.7275 32.5761C70.7275 32.816 70.6398 33.0147 70.4644 33.1723C70.2925 33.3262 70.0669 33.4032 69.7876 33.4032C69.5083 33.4032 69.2827 33.3262 69.1108 33.1723C68.939 33.0147 68.853 32.816 68.853 32.5761ZM71.8501 31.6415H73.5259V38.5111L73.354 39.8915H71.8501V31.6415ZM77.1514 36.9213V37.0341C77.1514 37.4745 77.1048 37.8755 77.0117 38.2372C76.9222 38.5989 76.7843 38.9122 76.5981 39.1771C76.4119 39.4385 76.1774 39.6408 75.8945 39.7841C75.6117 39.9273 75.2786 39.9989 74.8955 39.9989C74.541 39.9989 74.2367 39.9255 73.9824 39.7787C73.7282 39.6283 73.5151 39.4206 73.3433 39.1557C73.1714 38.8907 73.0317 38.581 72.9243 38.2265C72.8205 37.872 72.7399 37.4906 72.6826 37.0824V36.8891C72.7399 36.4809 72.8205 36.0995 72.9243 35.745C73.0317 35.3905 73.1714 35.0808 73.3433 34.8158C73.5151 34.5508 73.7264 34.3449 73.9771 34.1981C74.2313 34.0477 74.5339 33.9726 74.8848 33.9726C75.2715 33.9726 75.6063 34.046 75.8892 34.1928C76.1756 34.3396 76.4119 34.5455 76.5981 34.8104C76.7843 35.0718 76.9222 35.3834 77.0117 35.745C77.1048 36.1031 77.1514 36.4952 77.1514 36.9213ZM75.4756 37.0341V36.9213C75.4756 36.6993 75.4595 36.4898 75.4272 36.2929C75.3986 36.0959 75.3467 35.9223 75.2715 35.7719C75.1999 35.6179 75.0978 35.4979 74.9653 35.412C74.8364 35.3225 74.6699 35.2777 74.4658 35.2777C74.2653 35.2777 74.0952 35.3117 73.9556 35.3798C73.8159 35.4478 73.7031 35.5445 73.6172 35.6698C73.5312 35.7916 73.4686 35.9402 73.4292 36.1156C73.3898 36.2911 73.3683 36.4862 73.3647 36.7011V37.2704C73.3683 37.5569 73.4059 37.8075 73.4775 38.0224C73.5492 38.2372 73.6655 38.4037 73.8267 38.5219C73.9878 38.6365 74.2044 38.6937 74.4766 38.6937C74.6842 38.6937 74.8525 38.6544 74.9814 38.5756C75.1139 38.4932 75.2142 38.3786 75.2822 38.2318C75.3538 38.085 75.404 37.9096 75.4326 37.7055C75.4613 37.5014 75.4756 37.2776 75.4756 37.0341ZM81.4536 38.4896V34.08H83.1401V39.8915H81.561L81.4536 38.4896ZM81.6309 37.3026L82.0928 37.2919C82.0928 37.6822 82.0462 38.0421 81.9531 38.3715C81.8636 38.7009 81.7275 38.9874 81.5449 39.2309C81.3659 39.4743 81.1421 39.6641 80.8735 39.8002C80.6086 39.9327 80.2988 39.9989 79.9443 39.9989C79.6579 39.9989 79.3947 39.9595 79.1548 39.8808C78.9185 39.7984 78.7144 39.6713 78.5425 39.4994C78.3706 39.324 78.2381 39.1002 78.145 38.828C78.0519 38.5523 78.0054 38.2229 78.0054 37.8397V34.08H79.6812V37.8505C79.6812 38.0009 79.6991 38.1298 79.7349 38.2372C79.7743 38.341 79.8262 38.427 79.8906 38.495C79.9587 38.563 80.041 38.6132 80.1377 38.6454C80.238 38.6776 80.3472 38.6937 80.4653 38.6937C80.7625 38.6937 80.9953 38.6329 81.1636 38.5111C81.3354 38.3858 81.4554 38.2193 81.5234 38.0116C81.5951 37.8004 81.6309 37.564 81.6309 37.3026ZM87.1846 34.08V35.2562H83.7363V34.08H87.1846ZM84.5259 32.6405H86.207V38.0707C86.207 38.2318 86.2267 38.3554 86.2661 38.4413C86.3055 38.5272 86.37 38.5881 86.4595 38.6239C86.549 38.6561 86.6636 38.6723 86.8032 38.6723C86.9035 38.6723 86.9894 38.6687 87.061 38.6615C87.1326 38.6544 87.1989 38.6454 87.2598 38.6347V39.8485C87.1165 39.8951 86.9644 39.9309 86.8032 39.956C86.6421 39.9846 86.4666 39.9989 86.2769 39.9989C85.9152 39.9989 85.6019 39.9398 85.3369 39.8217C85.0755 39.7035 84.875 39.5173 84.7354 39.2631C84.5957 39.0053 84.5259 38.6705 84.5259 38.2587V32.6405ZM89.7573 34.08V39.8915H88.0762V34.08H89.7573ZM87.9741 32.5761C87.9741 32.3326 88.0601 32.1338 88.2319 31.9799C88.4038 31.8223 88.6294 31.7435 88.9087 31.7435C89.188 31.7435 89.4136 31.8223 89.5854 31.9799C89.7609 32.1338 89.8486 32.3326 89.8486 32.5761C89.8486 32.816 89.7609 33.0147 89.5854 33.1723C89.4136 33.3262 89.188 33.4032 88.9087 33.4032C88.6294 33.4032 88.4038 33.3262 88.2319 33.1723C88.0601 33.0147 87.9741 32.816 87.9741 32.5761ZM90.7241 37.0448V36.932C90.7241 36.5059 90.785 36.1138 90.9067 35.7558C91.0285 35.3941 91.2075 35.0808 91.4438 34.8158C91.6802 34.5508 91.9702 34.3449 92.314 34.1981C92.6577 34.0477 93.0516 33.9726 93.4956 33.9726C93.9468 33.9726 94.3442 34.0477 94.688 34.1981C95.0353 34.3449 95.3271 34.5508 95.5635 34.8158C95.7998 35.0808 95.9788 35.3941 96.1006 35.7558C96.2223 36.1138 96.2832 36.5059 96.2832 36.932V37.0448C96.2832 37.4673 96.2223 37.8594 96.1006 38.2211C95.9788 38.5792 95.7998 38.8925 95.5635 39.161C95.3271 39.426 95.0371 39.6319 94.6934 39.7787C94.3496 39.9255 93.9539 39.9989 93.5063 39.9989C93.0623 39.9989 92.6667 39.9255 92.3193 39.7787C91.972 39.6319 91.6802 39.426 91.4438 39.161C91.2075 38.8925 91.0285 38.5792 90.9067 38.2211C90.785 37.8594 90.7241 37.4673 90.7241 37.0448ZM92.4053 36.932V37.0448C92.4053 37.274 92.4232 37.4888 92.459 37.6894C92.4984 37.8899 92.561 38.0653 92.647 38.2157C92.7329 38.3661 92.8457 38.4843 92.9854 38.5702C93.1286 38.6526 93.3022 38.6937 93.5063 38.6937C93.7104 38.6937 93.8823 38.6526 94.022 38.5702C94.1616 38.4843 94.2744 38.3661 94.3604 38.2157C94.4463 38.0653 94.5072 37.8899 94.543 37.6894C94.5824 37.4888 94.6021 37.274 94.6021 37.0448V36.932C94.6021 36.7064 94.5824 36.4952 94.543 36.2982C94.5072 36.0977 94.4463 35.9205 94.3604 35.7665C94.2744 35.6125 94.1598 35.4926 94.0166 35.4066C93.877 35.3207 93.7033 35.2777 93.4956 35.2777C93.2951 35.2777 93.125 35.3207 92.9854 35.4066C92.8457 35.4926 92.7329 35.6125 92.647 35.7665C92.561 35.9205 92.4984 36.0977 92.459 36.2982C92.4232 36.4952 92.4053 36.7064 92.4053 36.932ZM98.8076 35.3207V39.8915H97.1265V34.08H98.7056L98.8076 35.3207ZM98.5874 36.7816L98.1685 36.7924C98.1685 36.3555 98.2222 35.9634 98.3296 35.6161C98.437 35.2688 98.5892 34.9734 98.7861 34.7299C98.9867 34.4828 99.2248 34.2948 99.5005 34.1659C99.7798 34.037 100.088 33.9726 100.424 33.9726C100.696 33.9726 100.945 34.0119 101.171 34.0907C101.396 34.1695 101.59 34.2966 101.751 34.4721C101.916 34.6439 102.041 34.8731 102.127 35.1596C102.213 35.4424 102.256 35.7916 102.256 36.2069V39.8915H100.569V36.2016C100.569 35.9581 100.535 35.7701 100.467 35.6376C100.399 35.5051 100.299 35.412 100.167 35.3583C100.038 35.3046 99.88 35.2777 99.6938 35.2777C99.4969 35.2777 99.3286 35.3171 99.189 35.3959C99.0493 35.4711 98.9347 35.5767 98.8452 35.7128C98.7557 35.8489 98.6895 36.0082 98.6465 36.1908C98.6071 36.3734 98.5874 36.5704 98.5874 36.7816Z" fill="#4B465C"/>
<path d="M135.318 20.2274V21.3627L131.195 30.8915H128.968L133.092 21.8754H127.782V20.2274H135.318ZM141.83 20.2055V30.8915H139.72V22.6371L137.186 23.4428V21.7802L141.603 20.2055H141.83ZM145.272 22.8422V22.2782C145.272 21.8729 145.36 21.5043 145.536 21.1723C145.711 20.8402 145.97 20.5741 146.312 20.3739C146.654 20.1737 147.074 20.0736 147.572 20.0736C148.084 20.0736 148.512 20.1737 148.854 20.3739C149.2 20.5741 149.459 20.8402 149.63 21.1723C149.806 21.5043 149.894 21.8729 149.894 22.2782V22.8422C149.894 23.2377 149.806 23.6015 149.63 23.9335C149.459 24.2655 149.203 24.5316 148.861 24.7318C148.519 24.932 148.097 25.0321 147.594 25.0321C147.086 25.0321 146.659 24.932 146.312 24.7318C145.97 24.5316 145.711 24.2655 145.536 23.9335C145.36 23.6015 145.272 23.2377 145.272 22.8422ZM146.671 22.2782V22.8422C146.671 23.0131 146.703 23.1767 146.766 23.3329C146.834 23.4843 146.937 23.6088 147.074 23.7064C147.215 23.7992 147.386 23.8456 147.586 23.8456C147.796 23.8456 147.967 23.7992 148.099 23.7064C148.231 23.6088 148.329 23.4843 148.392 23.3329C148.456 23.1767 148.487 23.0131 148.487 22.8422V22.2782C148.487 22.0976 148.453 21.9315 148.385 21.7802C148.321 21.6239 148.221 21.4994 148.084 21.4066C147.953 21.309 147.782 21.2602 147.572 21.2602C147.376 21.2602 147.21 21.309 147.074 21.4066C146.937 21.4994 146.834 21.6239 146.766 21.7802C146.703 21.9315 146.671 22.0976 146.671 22.2782ZM150.37 28.8407V28.2768C150.37 27.8764 150.458 27.5102 150.633 27.1781C150.814 26.8461 151.075 26.58 151.417 26.3798C151.764 26.1796 152.188 26.0795 152.691 26.0795C153.199 26.0795 153.624 26.1796 153.966 26.3798C154.308 26.58 154.566 26.8461 154.742 27.1781C154.918 27.5102 155.006 27.8764 155.006 28.2768V28.8407C155.006 29.2411 154.918 29.6073 154.742 29.9394C154.571 30.2714 154.315 30.5375 153.973 30.7377C153.631 30.9379 153.209 31.038 152.706 31.038C152.198 31.038 151.771 30.9379 151.424 30.7377C151.078 30.5375 150.814 30.2714 150.633 29.9394C150.458 29.6073 150.37 29.2411 150.37 28.8407ZM151.776 28.2768V28.8407C151.776 29.0165 151.815 29.1825 151.893 29.3388C151.971 29.495 152.079 29.6195 152.215 29.7123C152.357 29.8051 152.521 29.8515 152.706 29.8515C152.94 29.8515 153.124 29.8051 153.255 29.7123C153.387 29.6195 153.478 29.495 153.526 29.3388C153.58 29.1825 153.607 29.0165 153.607 28.8407V28.2768C153.607 28.101 153.573 27.9374 153.504 27.786C153.436 27.6298 153.333 27.5053 153.197 27.4125C153.065 27.3148 152.896 27.266 152.691 27.266C152.486 27.266 152.315 27.3148 152.179 27.4125C152.047 27.5053 151.947 27.6298 151.878 27.786C151.81 27.9374 151.776 28.101 151.776 28.2768ZM153.211 21.7509L148.004 30.0858L146.979 29.5438L152.186 21.2089L153.211 21.7509Z" fill="#4B465C"/>
<path opacity="0.4" d="M85.3714 64.9618C93.809 65.0384 102.017 67.7209 108.871 72.642C115.725 77.563 120.891 84.4822 123.662 92.4524C126.432 100.423 126.672 109.054 124.348 117.166C122.023 125.277 117.249 132.472 110.678 137.766L102.975 128.204C107.574 124.498 110.916 119.462 112.543 113.784C114.17 108.105 114.002 102.063 112.063 96.4842C110.124 90.905 106.508 86.0616 101.71 82.6168C96.9116 79.1721 91.1662 77.2943 85.2598 77.2407L85.3714 64.9618Z" fill="#7367F0"/>
<path opacity="0.8" d="M57.1837 135.919C64.3786 142.584 73.7275 146.444 83.5288 146.796C93.3301 147.149 102.932 143.97 110.587 137.839L102.911 128.255C97.5523 132.547 90.8309 134.772 83.97 134.525C77.1091 134.278 70.5649 131.576 65.5284 126.911L57.1837 135.919Z" fill="#7367F0"/>
<path d="M51.6011 82.2288C45.8414 90.3583 43.2445 100.31 44.2973 110.217C45.3502 120.124 49.9804 129.307 57.3201 136.045L65.6239 126.999C60.4862 122.283 57.245 115.854 56.508 108.919C55.771 101.984 57.5888 95.0182 61.6207 89.3276L51.6011 82.2288Z" fill="#7367F0"/>
<path d="M78.7356 98.6303V99.7441L74.3116 109.892H72.1537L76.5778 100.239H70.8543V98.6303H78.7356ZM85.48 98.5994V109.892H83.4304V100.989L80.7156 101.887V100.231L85.248 98.5994H85.48ZM89.2157 101.392V100.796C89.2157 100.368 89.3085 99.9787 89.4942 99.6281C89.6798 99.2774 89.9505 98.9964 90.3063 98.785C90.6672 98.5736 91.1055 98.4679 91.6211 98.4679C92.1471 98.4679 92.5879 98.5736 92.9437 98.785C93.3046 98.9964 93.5753 99.2774 93.7558 99.6281C93.9414 99.9787 94.0342 100.368 94.0342 100.796V101.392C94.0342 101.809 93.9414 102.193 93.7558 102.544C93.5753 102.895 93.3072 103.176 92.9514 103.387C92.5956 103.598 92.1574 103.704 91.6366 103.704C91.1158 103.704 90.6749 103.598 90.314 103.387C89.9531 103.176 89.6798 102.895 89.4942 102.544C89.3085 102.193 89.2157 101.809 89.2157 101.392ZM90.6002 100.796V101.392C90.6002 101.587 90.6363 101.773 90.7085 101.948C90.7858 102.119 90.9018 102.258 91.0565 102.366C91.2112 102.474 91.4046 102.528 91.6366 102.528C91.8686 102.528 92.0568 102.474 92.2012 102.366C92.3507 102.258 92.4616 102.119 92.5338 101.948C92.6111 101.773 92.6498 101.587 92.6498 101.392V100.796C92.6498 100.595 92.6111 100.407 92.5338 100.231C92.4616 100.056 92.3481 99.9142 92.1935 99.806C92.0439 99.6977 91.8531 99.6435 91.6211 99.6435C91.3942 99.6435 91.2035 99.6977 91.0488 99.806C90.8992 99.9142 90.7858 100.056 90.7085 100.231C90.6363 100.407 90.6002 100.595 90.6002 100.796ZM94.622 107.726V107.13C94.622 106.708 94.7149 106.321 94.9005 105.97C95.0913 105.62 95.3671 105.339 95.7281 105.127C96.089 104.916 96.5247 104.81 97.0352 104.81C97.5663 104.81 98.0097 104.916 98.3655 105.127C98.7213 105.339 98.9894 105.62 99.1699 105.97C99.3555 106.321 99.4483 106.708 99.4483 107.13V107.726C99.4483 108.149 99.3555 108.535 99.1699 108.886C98.9894 109.237 98.7213 109.518 98.3655 109.729C98.0149 109.941 97.5792 110.046 97.0584 110.046C96.5376 110.046 96.0942 109.941 95.7281 109.729C95.3671 109.518 95.0913 109.237 94.9005 108.886C94.7149 108.535 94.622 108.149 94.622 107.726ZM96.0142 107.13V107.726C96.0142 107.927 96.0555 108.115 96.138 108.291C96.2205 108.461 96.3391 108.6 96.4938 108.708C96.6536 108.817 96.8392 108.871 97.0506 108.871C97.3085 108.871 97.5121 108.817 97.6617 108.708C97.8112 108.6 97.9169 108.461 97.9788 108.291C98.0406 108.115 98.0716 107.927 98.0716 107.726V107.13C98.0716 106.929 98.0329 106.744 97.9556 106.574C97.8782 106.398 97.7622 106.256 97.6075 106.148C97.458 106.04 97.2672 105.986 97.0352 105.986C96.8083 105.986 96.6175 106.04 96.4628 106.148C96.3133 106.256 96.1999 106.398 96.1225 106.574C96.0503 106.744 96.0142 106.929 96.0142 107.13ZM97.5456 100.239L92.0465 109.041L91.0333 108.476L96.5324 99.6745L97.5456 100.239Z" fill="#4A4B53"/>
<mask id="path-8-inside-1_2_875" fill="white">
<path d="M15.5 180.672H151.5V209.672H15.5V180.672Z"/>
</mask>
<path d="M151.5 208.672H15.5V210.672H151.5V208.672Z" fill="#979797" mask="url(#path-8-inside-1_2_875)"/>
<path d="M18.5234 186.679H16.9019L16.8931 185.998H18.3652C18.6084 185.998 18.8208 185.957 19.0024 185.875C19.1841 185.793 19.3247 185.676 19.4243 185.524C19.5269 185.368 19.5781 185.184 19.5781 184.97C19.5781 184.735 19.5327 184.545 19.4419 184.399C19.354 184.249 19.2178 184.141 19.0332 184.073C18.8516 184.003 18.6201 183.968 18.3389 183.968H17.0908V189.672H16.2427V183.274H18.3389C18.667 183.274 18.96 183.307 19.2178 183.375C19.4756 183.439 19.6938 183.542 19.8726 183.682C20.0542 183.82 20.1919 183.996 20.2856 184.21C20.3794 184.423 20.4263 184.68 20.4263 184.979C20.4263 185.242 20.3589 185.481 20.2241 185.695C20.0894 185.906 19.9019 186.079 19.6616 186.213C19.4243 186.348 19.146 186.435 18.8267 186.473L18.5234 186.679ZM18.4839 189.672H16.5679L17.0469 188.982H18.4839C18.7534 188.982 18.9819 188.935 19.1694 188.841C19.3599 188.748 19.5049 188.616 19.6045 188.446C19.7041 188.273 19.7539 188.069 19.7539 187.835C19.7539 187.598 19.7114 187.393 19.6265 187.22C19.5415 187.047 19.4082 186.914 19.2266 186.82C19.0449 186.726 18.8105 186.679 18.5234 186.679H17.3149L17.3237 185.998H18.9761L19.1562 186.244C19.4639 186.271 19.7246 186.359 19.9385 186.508C20.1523 186.654 20.3149 186.842 20.4263 187.07C20.5405 187.299 20.5977 187.551 20.5977 187.826C20.5977 188.225 20.5098 188.562 20.334 188.837C20.1611 189.109 19.9165 189.317 19.6001 189.461C19.2837 189.602 18.9116 189.672 18.4839 189.672ZM23.7002 189.76C23.3691 189.76 23.0688 189.704 22.7993 189.593C22.5327 189.479 22.3027 189.319 22.1094 189.114C21.9189 188.909 21.7725 188.666 21.6699 188.384C21.5674 188.103 21.5161 187.796 21.5161 187.462V187.277C21.5161 186.89 21.5732 186.546 21.6875 186.244C21.8018 185.94 21.957 185.682 22.1533 185.471C22.3496 185.26 22.5723 185.1 22.8213 184.992C23.0703 184.883 23.3281 184.829 23.5947 184.829C23.9346 184.829 24.2275 184.888 24.4736 185.005C24.7227 185.122 24.9263 185.286 25.0845 185.497C25.2427 185.705 25.3599 185.951 25.436 186.235C25.5122 186.517 25.5503 186.824 25.5503 187.158V187.523H21.9995V186.859H24.7373V186.798C24.7256 186.587 24.6816 186.382 24.6055 186.183C24.5322 185.984 24.415 185.819 24.2539 185.691C24.0928 185.562 23.873 185.497 23.5947 185.497C23.4102 185.497 23.2402 185.537 23.085 185.616C22.9297 185.692 22.7964 185.806 22.6851 185.959C22.5737 186.111 22.4873 186.297 22.4258 186.517C22.3643 186.736 22.3335 186.99 22.3335 187.277V187.462C22.3335 187.687 22.3643 187.9 22.4258 188.099C22.4902 188.295 22.5825 188.468 22.7026 188.617C22.8257 188.767 22.9736 188.884 23.1465 188.969C23.3223 189.054 23.5215 189.096 23.7441 189.096C24.0312 189.096 24.2744 189.038 24.4736 188.921C24.6729 188.803 24.8472 188.647 24.9966 188.45L25.4888 188.841C25.3862 188.997 25.2559 189.145 25.0977 189.285C24.9395 189.426 24.7446 189.54 24.5132 189.628C24.2847 189.716 24.0137 189.76 23.7002 189.76ZM29.2681 188.411C29.2681 188.294 29.2417 188.185 29.189 188.086C29.1392 187.983 29.0352 187.891 28.877 187.809C28.7217 187.724 28.4873 187.65 28.1738 187.589C27.9102 187.533 27.6714 187.467 27.4575 187.391C27.2466 187.315 27.0664 187.223 26.917 187.114C26.7705 187.006 26.6577 186.879 26.5786 186.732C26.4995 186.586 26.46 186.414 26.46 186.218C26.46 186.03 26.501 185.853 26.583 185.686C26.668 185.519 26.7866 185.371 26.939 185.242C27.0942 185.113 27.2803 185.012 27.4971 184.939C27.7139 184.866 27.9556 184.829 28.2222 184.829C28.603 184.829 28.9282 184.897 29.1978 185.031C29.4673 185.166 29.6738 185.346 29.8174 185.572C29.9609 185.795 30.0327 186.042 30.0327 186.315H29.2197C29.2197 186.183 29.1802 186.055 29.1011 185.932C29.0249 185.806 28.9121 185.702 28.7627 185.62C28.6162 185.538 28.436 185.497 28.2222 185.497C27.9966 185.497 27.8135 185.532 27.6729 185.603C27.5352 185.67 27.4341 185.756 27.3696 185.862C27.3081 185.967 27.2773 186.079 27.2773 186.196C27.2773 186.284 27.292 186.363 27.3213 186.433C27.3535 186.501 27.4092 186.564 27.4883 186.622C27.5674 186.678 27.6787 186.731 27.8223 186.78C27.9658 186.83 28.1489 186.88 28.3716 186.93C28.7612 187.018 29.082 187.123 29.334 187.246C29.5859 187.369 29.7734 187.52 29.8965 187.699C30.0195 187.878 30.0811 188.094 30.0811 188.349C30.0811 188.557 30.0371 188.748 29.9492 188.921C29.8643 189.093 29.7397 189.243 29.5757 189.369C29.4146 189.492 29.2212 189.588 28.9956 189.659C28.7729 189.726 28.5225 189.76 28.2441 189.76C27.8252 189.76 27.4707 189.685 27.1807 189.536C26.8906 189.386 26.6709 189.193 26.5215 188.956C26.3721 188.718 26.2974 188.468 26.2974 188.204H27.1147C27.1265 188.427 27.1909 188.604 27.3081 188.736C27.4253 188.865 27.5688 188.957 27.7388 189.013C27.9087 189.066 28.0771 189.092 28.2441 189.092C28.4668 189.092 28.6528 189.063 28.8022 189.004C28.9546 188.945 29.0703 188.865 29.1494 188.762C29.2285 188.66 29.2681 188.543 29.2681 188.411ZM33.1396 184.917V185.541H30.5688V184.917H33.1396ZM31.439 183.761H32.252V188.494C32.252 188.655 32.2769 188.777 32.3267 188.859C32.3765 188.941 32.4409 188.995 32.52 189.022C32.5991 189.048 32.6841 189.061 32.7749 189.061C32.8423 189.061 32.9126 189.055 32.9858 189.044C33.062 189.029 33.1191 189.017 33.1572 189.008L33.1616 189.672C33.0972 189.692 33.0122 189.712 32.9067 189.729C32.8042 189.75 32.6797 189.76 32.5332 189.76C32.334 189.76 32.1509 189.72 31.9839 189.641C31.8169 189.562 31.6836 189.43 31.584 189.246C31.4873 189.058 31.439 188.806 31.439 188.49V183.761ZM39.0942 188.411C39.0942 188.294 39.0679 188.185 39.0151 188.086C38.9653 187.983 38.8613 187.891 38.7031 187.809C38.5479 187.724 38.3135 187.65 38 187.589C37.7363 187.533 37.4976 187.467 37.2837 187.391C37.0728 187.315 36.8926 187.223 36.7432 187.114C36.5967 187.006 36.4839 186.879 36.4048 186.732C36.3257 186.586 36.2861 186.414 36.2861 186.218C36.2861 186.03 36.3271 185.853 36.4092 185.686C36.4941 185.519 36.6128 185.371 36.7651 185.242C36.9204 185.113 37.1064 185.012 37.3232 184.939C37.54 184.866 37.7817 184.829 38.0483 184.829C38.4292 184.829 38.7544 184.897 39.0239 185.031C39.2935 185.166 39.5 185.346 39.6436 185.572C39.7871 185.795 39.8589 186.042 39.8589 186.315H39.0459C39.0459 186.183 39.0063 186.055 38.9272 185.932C38.8511 185.806 38.7383 185.702 38.5889 185.62C38.4424 185.538 38.2622 185.497 38.0483 185.497C37.8228 185.497 37.6396 185.532 37.499 185.603C37.3613 185.67 37.2603 185.756 37.1958 185.862C37.1343 185.967 37.1035 186.079 37.1035 186.196C37.1035 186.284 37.1182 186.363 37.1475 186.433C37.1797 186.501 37.2354 186.564 37.3145 186.622C37.3936 186.678 37.5049 186.731 37.6484 186.78C37.792 186.83 37.9751 186.88 38.1978 186.93C38.5874 187.018 38.9082 187.123 39.1602 187.246C39.4121 187.369 39.5996 187.52 39.7227 187.699C39.8457 187.878 39.9072 188.094 39.9072 188.349C39.9072 188.557 39.8633 188.748 39.7754 188.921C39.6904 189.093 39.5659 189.243 39.4019 189.369C39.2407 189.492 39.0474 189.588 38.8218 189.659C38.5991 189.726 38.3486 189.76 38.0703 189.76C37.6514 189.76 37.2969 189.685 37.0068 189.536C36.7168 189.386 36.4971 189.193 36.3477 188.956C36.1982 188.718 36.1235 188.468 36.1235 188.204H36.9409C36.9526 188.427 37.0171 188.604 37.1343 188.736C37.2515 188.865 37.395 188.957 37.5649 189.013C37.7349 189.066 37.9033 189.092 38.0703 189.092C38.293 189.092 38.479 189.063 38.6284 189.004C38.7808 188.945 38.8965 188.865 38.9756 188.762C39.0547 188.66 39.0942 188.543 39.0942 188.411ZM42.9482 189.76C42.6172 189.76 42.3169 189.704 42.0474 189.593C41.7808 189.479 41.5508 189.319 41.3574 189.114C41.167 188.909 41.0205 188.666 40.918 188.384C40.8154 188.103 40.7642 187.796 40.7642 187.462V187.277C40.7642 186.89 40.8213 186.546 40.9355 186.244C41.0498 185.94 41.2051 185.682 41.4014 185.471C41.5977 185.26 41.8203 185.1 42.0693 184.992C42.3184 184.883 42.5762 184.829 42.8428 184.829C43.1826 184.829 43.4756 184.888 43.7217 185.005C43.9707 185.122 44.1743 185.286 44.3325 185.497C44.4907 185.705 44.6079 185.951 44.6841 186.235C44.7603 186.517 44.7983 186.824 44.7983 187.158V187.523H41.2476V186.859H43.9854V186.798C43.9736 186.587 43.9297 186.382 43.8535 186.183C43.7803 185.984 43.6631 185.819 43.502 185.691C43.3408 185.562 43.1211 185.497 42.8428 185.497C42.6582 185.497 42.4883 185.537 42.333 185.616C42.1777 185.692 42.0444 185.806 41.9331 185.959C41.8218 186.111 41.7354 186.297 41.6738 186.517C41.6123 186.736 41.5815 186.99 41.5815 187.277V187.462C41.5815 187.687 41.6123 187.9 41.6738 188.099C41.7383 188.295 41.8306 188.468 41.9507 188.617C42.0737 188.767 42.2217 188.884 42.3945 188.969C42.5703 189.054 42.7695 189.096 42.9922 189.096C43.2793 189.096 43.5225 189.038 43.7217 188.921C43.9209 188.803 44.0952 188.647 44.2446 188.45L44.7368 188.841C44.6343 188.997 44.5039 189.145 44.3457 189.285C44.1875 189.426 43.9927 189.54 43.7612 189.628C43.5327 189.716 43.2617 189.76 42.9482 189.76ZM46.6309 182.922V189.672H45.8135V182.922H46.6309ZM48.8193 182.922V189.672H48.002V182.922H48.8193ZM51.0078 184.917V189.672H50.1904V184.917H51.0078ZM50.1289 183.656C50.1289 183.524 50.1685 183.413 50.2476 183.322C50.3296 183.231 50.4497 183.186 50.6079 183.186C50.7632 183.186 50.8818 183.231 50.9639 183.322C51.0488 183.413 51.0913 183.524 51.0913 183.656C51.0913 183.782 51.0488 183.89 50.9639 183.981C50.8818 184.069 50.7632 184.113 50.6079 184.113C50.4497 184.113 50.3296 184.069 50.2476 183.981C50.1685 183.89 50.1289 183.782 50.1289 183.656ZM53.126 185.932V189.672H52.313V184.917H53.082L53.126 185.932ZM52.9326 187.114L52.5942 187.101C52.5972 186.776 52.6455 186.476 52.7393 186.2C52.833 185.922 52.9648 185.68 53.1348 185.475C53.3047 185.27 53.5068 185.112 53.7412 185.001C53.9785 184.886 54.2407 184.829 54.5278 184.829C54.7622 184.829 54.9731 184.861 55.1606 184.926C55.3481 184.987 55.5078 185.087 55.6396 185.225C55.7744 185.362 55.877 185.541 55.9473 185.761C56.0176 185.978 56.0527 186.243 56.0527 186.556V189.672H55.2354V186.547C55.2354 186.298 55.1987 186.099 55.1255 185.95C55.0522 185.797 54.9453 185.688 54.8047 185.62C54.6641 185.55 54.4912 185.515 54.2861 185.515C54.084 185.515 53.8994 185.557 53.7324 185.642C53.5684 185.727 53.4263 185.844 53.3062 185.994C53.189 186.143 53.0967 186.315 53.0293 186.508C52.9648 186.698 52.9326 186.9 52.9326 187.114ZM60.3682 184.917H61.1064V189.571C61.1064 189.99 61.0215 190.347 60.8516 190.643C60.6816 190.939 60.4443 191.163 60.1396 191.316C59.8379 191.471 59.4893 191.548 59.0938 191.548C58.9297 191.548 58.7363 191.522 58.5137 191.469C58.2939 191.42 58.0771 191.333 57.8633 191.21C57.6523 191.09 57.4751 190.927 57.3315 190.722L57.7578 190.239C57.957 190.479 58.165 190.646 58.3818 190.74C58.6016 190.834 58.8184 190.88 59.0322 190.88C59.29 190.88 59.5127 190.832 59.7002 190.735C59.8877 190.639 60.0327 190.495 60.1353 190.305C60.2407 190.117 60.2935 189.886 60.2935 189.61V185.963L60.3682 184.917ZM57.0942 187.347V187.255C57.0942 186.892 57.1367 186.562 57.2217 186.266C57.3096 185.967 57.4341 185.711 57.5952 185.497C57.7593 185.283 57.957 185.119 58.1885 185.005C58.4199 184.888 58.6807 184.829 58.9707 184.829C59.2695 184.829 59.5303 184.882 59.7529 184.987C59.9785 185.09 60.1689 185.241 60.3242 185.44C60.4824 185.636 60.6069 185.874 60.6978 186.152C60.7886 186.43 60.8516 186.745 60.8867 187.097V187.501C60.8545 187.85 60.7915 188.163 60.6978 188.442C60.6069 188.72 60.4824 188.957 60.3242 189.153C60.1689 189.35 59.9785 189.501 59.7529 189.606C59.5273 189.709 59.2637 189.76 58.9619 189.76C58.6777 189.76 58.4199 189.7 58.1885 189.58C57.96 189.46 57.7637 189.291 57.5996 189.074C57.4355 188.858 57.3096 188.603 57.2217 188.31C57.1367 188.014 57.0942 187.693 57.0942 187.347ZM57.9072 187.255V187.347C57.9072 187.585 57.9307 187.807 57.9775 188.015C58.0273 188.223 58.1021 188.406 58.2017 188.565C58.3042 188.723 58.4346 188.847 58.5928 188.938C58.751 189.026 58.9399 189.07 59.1597 189.07C59.4292 189.07 59.6519 189.013 59.8276 188.899C60.0034 188.784 60.1426 188.633 60.2451 188.446C60.3506 188.258 60.4326 188.055 60.4912 187.835V186.776C60.459 186.615 60.4092 186.46 60.3418 186.31C60.2773 186.158 60.1924 186.023 60.0869 185.906C59.9844 185.786 59.8569 185.691 59.7046 185.62C59.5522 185.55 59.3735 185.515 59.1685 185.515C58.9458 185.515 58.7539 185.562 58.5928 185.655C58.4346 185.746 58.3042 185.872 58.2017 186.033C58.1021 186.192 58.0273 186.376 57.9775 186.587C57.9307 186.795 57.9072 187.018 57.9072 187.255ZM67.0566 187.163H65.3472V186.473H67.0566C67.3877 186.473 67.6558 186.42 67.8608 186.315C68.0659 186.209 68.2153 186.063 68.3091 185.875C68.4058 185.688 68.4541 185.474 68.4541 185.234C68.4541 185.014 68.4058 184.807 68.3091 184.614C68.2153 184.421 68.0659 184.265 67.8608 184.148C67.6558 184.028 67.3877 183.968 67.0566 183.968H65.5449V189.672H64.6968V183.274H67.0566C67.54 183.274 67.9487 183.357 68.2827 183.524C68.6167 183.691 68.8701 183.922 69.043 184.218C69.2158 184.511 69.3022 184.847 69.3022 185.225C69.3022 185.635 69.2158 185.985 69.043 186.275C68.8701 186.565 68.6167 186.786 68.2827 186.939C67.9487 187.088 67.54 187.163 67.0566 187.163ZM71.0645 185.664V189.672H70.2515V184.917H71.0425L71.0645 185.664ZM72.5498 184.891L72.5454 185.647C72.478 185.632 72.4136 185.623 72.3521 185.62C72.2935 185.614 72.2261 185.611 72.1499 185.611C71.9624 185.611 71.7969 185.641 71.6533 185.699C71.5098 185.758 71.3882 185.84 71.2886 185.945C71.189 186.051 71.1099 186.177 71.0513 186.323C70.9956 186.467 70.959 186.625 70.9414 186.798L70.7129 186.93C70.7129 186.643 70.7407 186.373 70.7964 186.121C70.855 185.869 70.9443 185.647 71.0645 185.453C71.1846 185.257 71.3369 185.105 71.5215 184.996C71.709 184.885 71.9316 184.829 72.1895 184.829C72.248 184.829 72.3154 184.837 72.3916 184.851C72.4678 184.863 72.5205 184.876 72.5498 184.891ZM72.998 187.347V187.246C72.998 186.903 73.0479 186.586 73.1475 186.293C73.2471 185.997 73.3906 185.74 73.5781 185.524C73.7656 185.304 73.9927 185.134 74.2593 185.014C74.5259 184.891 74.8247 184.829 75.1558 184.829C75.4897 184.829 75.79 184.891 76.0566 185.014C76.3262 185.134 76.5547 185.304 76.7422 185.524C76.9326 185.74 77.0776 185.997 77.1772 186.293C77.2769 186.586 77.3267 186.903 77.3267 187.246V187.347C77.3267 187.69 77.2769 188.008 77.1772 188.301C77.0776 188.594 76.9326 188.85 76.7422 189.07C76.5547 189.287 76.3276 189.457 76.061 189.58C75.7974 189.7 75.4985 189.76 75.1646 189.76C74.8306 189.76 74.5303 189.7 74.2637 189.58C73.9971 189.457 73.7686 189.287 73.5781 189.07C73.3906 188.85 73.2471 188.594 73.1475 188.301C73.0479 188.008 72.998 187.69 72.998 187.347ZM73.811 187.246V187.347C73.811 187.585 73.8389 187.809 73.8945 188.02C73.9502 188.228 74.0337 188.412 74.145 188.573C74.2593 188.734 74.4014 188.862 74.5713 188.956C74.7412 189.046 74.939 189.092 75.1646 189.092C75.3872 189.092 75.582 189.046 75.749 188.956C75.9189 188.862 76.0596 188.734 76.1709 188.573C76.2822 188.412 76.3657 188.228 76.4214 188.02C76.48 187.809 76.5093 187.585 76.5093 187.347V187.246C76.5093 187.012 76.48 186.791 76.4214 186.583C76.3657 186.372 76.2808 186.186 76.1665 186.025C76.0552 185.86 75.9146 185.732 75.7446 185.638C75.5776 185.544 75.3813 185.497 75.1558 185.497C74.9331 185.497 74.7368 185.544 74.5669 185.638C74.3999 185.732 74.2593 185.86 74.145 186.025C74.0337 186.186 73.9502 186.372 73.8945 186.583C73.8389 186.791 73.811 187.012 73.811 187.246ZM81.3433 188.749V182.922H82.1606V189.672H81.4136L81.3433 188.749ZM78.144 187.347V187.255C78.144 186.892 78.188 186.562 78.2759 186.266C78.3667 185.967 78.4941 185.711 78.6582 185.497C78.8252 185.283 79.0229 185.119 79.2515 185.005C79.4829 184.888 79.7407 184.829 80.0249 184.829C80.3237 184.829 80.5845 184.882 80.8071 184.987C81.0327 185.09 81.2231 185.241 81.3784 185.44C81.5366 185.636 81.6611 185.874 81.752 186.152C81.8428 186.43 81.9058 186.745 81.9409 187.097V187.501C81.9087 187.85 81.8457 188.163 81.752 188.442C81.6611 188.72 81.5366 188.957 81.3784 189.153C81.2231 189.35 81.0327 189.501 80.8071 189.606C80.5815 189.709 80.3179 189.76 80.0161 189.76C79.7378 189.76 79.4829 189.7 79.2515 189.58C79.0229 189.46 78.8252 189.291 78.6582 189.074C78.4941 188.858 78.3667 188.603 78.2759 188.31C78.188 188.014 78.144 187.693 78.144 187.347ZM78.9614 187.255V187.347C78.9614 187.585 78.9849 187.807 79.0317 188.015C79.0815 188.223 79.1577 188.406 79.2603 188.565C79.3628 188.723 79.4932 188.847 79.6514 188.938C79.8096 189.026 79.9985 189.07 80.2183 189.07C80.4878 189.07 80.709 189.013 80.8818 188.899C81.0576 188.784 81.1982 188.633 81.3037 188.446C81.4092 188.258 81.4912 188.055 81.5498 187.835V186.776C81.5146 186.615 81.4634 186.46 81.396 186.31C81.3315 186.158 81.2466 186.023 81.1411 185.906C81.0386 185.786 80.9111 185.691 80.7588 185.62C80.6094 185.55 80.4321 185.515 80.2271 185.515C80.0044 185.515 79.8125 185.562 79.6514 185.655C79.4932 185.746 79.3628 185.872 79.2603 186.033C79.1577 186.192 79.0815 186.376 79.0317 186.587C78.9849 186.795 78.9614 187.018 78.9614 187.255ZM86.3354 188.573V184.917H87.1528V189.672H86.375L86.3354 188.573ZM86.4893 187.571L86.8276 187.563C86.8276 187.879 86.7939 188.172 86.7266 188.442C86.6621 188.708 86.5566 188.94 86.4102 189.136C86.2637 189.332 86.0718 189.486 85.8345 189.597C85.5972 189.706 85.3086 189.76 84.9688 189.76C84.7373 189.76 84.5249 189.726 84.3315 189.659C84.1411 189.591 83.9771 189.487 83.8394 189.347C83.7017 189.206 83.5947 189.023 83.5186 188.797C83.4453 188.572 83.4087 188.301 83.4087 187.984V184.917H84.2217V187.993C84.2217 188.207 84.2451 188.384 84.292 188.525C84.3418 188.663 84.4077 188.773 84.4897 188.855C84.5747 188.934 84.6685 188.989 84.771 189.022C84.8765 189.054 84.9849 189.07 85.0962 189.07C85.4419 189.07 85.7158 189.004 85.918 188.872C86.1201 188.737 86.2651 188.557 86.353 188.332C86.4438 188.103 86.4893 187.85 86.4893 187.571ZM90.2949 189.092C90.4883 189.092 90.667 189.052 90.8311 188.973C90.9951 188.894 91.1299 188.786 91.2354 188.648C91.3408 188.507 91.4009 188.348 91.4155 188.169H92.189C92.1743 188.45 92.0791 188.713 91.9033 188.956C91.7305 189.196 91.5034 189.391 91.2222 189.54C90.9409 189.687 90.6318 189.76 90.2949 189.76C89.9375 189.76 89.6255 189.697 89.3589 189.571C89.0952 189.445 88.8755 189.272 88.6997 189.052C88.5269 188.833 88.3965 188.581 88.3086 188.296C88.2236 188.009 88.1812 187.706 88.1812 187.387V187.202C88.1812 186.883 88.2236 186.581 88.3086 186.297C88.3965 186.01 88.5269 185.756 88.6997 185.537C88.8755 185.317 89.0952 185.144 89.3589 185.018C89.6255 184.892 89.9375 184.829 90.2949 184.829C90.667 184.829 90.9922 184.905 91.2705 185.058C91.5488 185.207 91.7671 185.412 91.9253 185.673C92.0864 185.931 92.1743 186.224 92.189 186.552H91.4155C91.4009 186.356 91.3452 186.178 91.2485 186.02C91.1548 185.862 91.0259 185.736 90.8618 185.642C90.7007 185.546 90.5117 185.497 90.2949 185.497C90.0459 185.497 89.8364 185.547 89.6665 185.647C89.4995 185.743 89.3662 185.875 89.2666 186.042C89.1699 186.206 89.0996 186.389 89.0557 186.591C89.0146 186.791 88.9941 186.994 88.9941 187.202V187.387C88.9941 187.595 89.0146 187.8 89.0557 188.002C89.0967 188.204 89.1655 188.387 89.2622 188.551C89.3618 188.715 89.4951 188.847 89.6621 188.947C89.832 189.044 90.043 189.092 90.2949 189.092ZM95.0938 184.917V185.541H92.5229V184.917H95.0938ZM93.3931 183.761H94.2061V188.494C94.2061 188.655 94.231 188.777 94.2808 188.859C94.3306 188.941 94.395 188.995 94.4741 189.022C94.5532 189.048 94.6382 189.061 94.729 189.061C94.7964 189.061 94.8667 189.055 94.9399 189.044C95.0161 189.029 95.0732 189.017 95.1113 189.008L95.1157 189.672C95.0513 189.692 94.9663 189.712 94.8608 189.729C94.7583 189.75 94.6338 189.76 94.4873 189.76C94.2881 189.76 94.105 189.72 93.938 189.641C93.771 189.562 93.6377 189.43 93.5381 189.246C93.4414 189.058 93.3931 188.806 93.3931 188.49V183.761ZM98.8159 188.411C98.8159 188.294 98.7896 188.185 98.7368 188.086C98.687 187.983 98.583 187.891 98.4248 187.809C98.2695 187.724 98.0352 187.65 97.7217 187.589C97.458 187.533 97.2192 187.467 97.0054 187.391C96.7944 187.315 96.6143 187.223 96.4648 187.114C96.3184 187.006 96.2056 186.879 96.1265 186.732C96.0474 186.586 96.0078 186.414 96.0078 186.218C96.0078 186.03 96.0488 185.853 96.1309 185.686C96.2158 185.519 96.3345 185.371 96.4868 185.242C96.6421 185.113 96.8281 185.012 97.0449 184.939C97.2617 184.866 97.5034 184.829 97.77 184.829C98.1509 184.829 98.4761 184.897 98.7456 185.031C99.0151 185.166 99.2217 185.346 99.3652 185.572C99.5088 185.795 99.5806 186.042 99.5806 186.315H98.7676C98.7676 186.183 98.728 186.055 98.6489 185.932C98.5728 185.806 98.46 185.702 98.3105 185.62C98.1641 185.538 97.9839 185.497 97.77 185.497C97.5444 185.497 97.3613 185.532 97.2207 185.603C97.083 185.67 96.9819 185.756 96.9175 185.862C96.856 185.967 96.8252 186.079 96.8252 186.196C96.8252 186.284 96.8398 186.363 96.8691 186.433C96.9014 186.501 96.957 186.564 97.0361 186.622C97.1152 186.678 97.2266 186.731 97.3701 186.78C97.5137 186.83 97.6968 186.88 97.9194 186.93C98.3091 187.018 98.6299 187.123 98.8818 187.246C99.1338 187.369 99.3213 187.52 99.4443 187.699C99.5674 187.878 99.6289 188.094 99.6289 188.349C99.6289 188.557 99.585 188.748 99.4971 188.921C99.4121 189.093 99.2876 189.243 99.1235 189.369C98.9624 189.492 98.769 189.588 98.5435 189.659C98.3208 189.726 98.0703 189.76 97.792 189.76C97.373 189.76 97.0186 189.685 96.7285 189.536C96.4385 189.386 96.2188 189.193 96.0693 188.956C95.9199 188.718 95.8452 188.468 95.8452 188.204H96.6626C96.6743 188.427 96.7388 188.604 96.856 188.736C96.9731 188.865 97.1167 188.957 97.2866 189.013C97.4565 189.066 97.625 189.092 97.792 189.092C98.0146 189.092 98.2007 189.063 98.3501 189.004C98.5024 188.945 98.6182 188.865 98.6973 188.762C98.7764 188.66 98.8159 188.543 98.8159 188.411ZM20.123 200.982V201.672H16.9238V200.982H20.123ZM17.0908 195.274V201.672H16.2427V195.274H17.0908ZM20.7559 199.347V199.246C20.7559 198.903 20.8057 198.586 20.9053 198.293C21.0049 197.997 21.1484 197.74 21.3359 197.524C21.5234 197.304 21.7505 197.134 22.0171 197.014C22.2837 196.891 22.5825 196.829 22.9136 196.829C23.2476 196.829 23.5479 196.891 23.8145 197.014C24.084 197.134 24.3125 197.304 24.5 197.524C24.6904 197.74 24.8354 197.997 24.9351 198.293C25.0347 198.586 25.0845 198.903 25.0845 199.246V199.347C25.0845 199.69 25.0347 200.008 24.9351 200.301C24.8354 200.594 24.6904 200.85 24.5 201.07C24.3125 201.287 24.0854 201.457 23.8188 201.58C23.5552 201.7 23.2563 201.76 22.9224 201.76C22.5884 201.76 22.2881 201.7 22.0215 201.58C21.7549 201.457 21.5264 201.287 21.3359 201.07C21.1484 200.85 21.0049 200.594 20.9053 200.301C20.8057 200.008 20.7559 199.69 20.7559 199.347ZM21.5688 199.246V199.347C21.5688 199.585 21.5967 199.809 21.6523 200.02C21.708 200.228 21.7915 200.412 21.9028 200.573C22.0171 200.734 22.1592 200.862 22.3291 200.956C22.499 201.046 22.6968 201.092 22.9224 201.092C23.145 201.092 23.3398 201.046 23.5068 200.956C23.6768 200.862 23.8174 200.734 23.9287 200.573C24.04 200.412 24.1235 200.228 24.1792 200.02C24.2378 199.809 24.2671 199.585 24.2671 199.347V199.246C24.2671 199.012 24.2378 198.791 24.1792 198.583C24.1235 198.372 24.0386 198.186 23.9243 198.025C23.813 197.86 23.6724 197.732 23.5024 197.638C23.3354 197.544 23.1392 197.497 22.9136 197.497C22.6909 197.497 22.4946 197.544 22.3247 197.638C22.1577 197.732 22.0171 197.86 21.9028 198.025C21.7915 198.186 21.708 198.372 21.6523 198.583C21.5967 198.791 21.5688 199.012 21.5688 199.246ZM27.3081 200.828L28.5298 196.917H29.0659L28.9604 197.695L27.7168 201.672H27.1938L27.3081 200.828ZM26.4863 196.917L27.5278 200.872L27.6025 201.672H27.0532L25.6733 196.917H26.4863ZM30.2349 200.841L31.228 196.917H32.0366L30.6567 201.672H30.1118L30.2349 200.841ZM29.1846 196.917L30.3799 200.762L30.5161 201.672H29.9976L28.7188 197.686L28.6133 196.917H29.1846ZM38.6372 200.055C38.6372 199.905 38.6138 199.774 38.5669 199.659C38.5229 199.542 38.4438 199.437 38.3296 199.343C38.2183 199.249 38.063 199.16 37.8638 199.075C37.6675 198.99 37.4185 198.903 37.1167 198.816C36.8003 198.722 36.5146 198.618 36.2598 198.504C36.0049 198.386 35.7866 198.253 35.605 198.104C35.4233 197.954 35.2842 197.783 35.1875 197.589C35.0908 197.396 35.0425 197.175 35.0425 196.926C35.0425 196.677 35.0938 196.447 35.1963 196.236C35.2988 196.025 35.4453 195.842 35.6357 195.687C35.8291 195.528 36.0591 195.405 36.3257 195.317C36.5923 195.23 36.8896 195.186 37.2178 195.186C37.6982 195.186 38.1055 195.278 38.4395 195.463C38.7764 195.644 39.0327 195.883 39.2085 196.179C39.3843 196.472 39.4722 196.785 39.4722 197.119H38.6284C38.6284 196.879 38.5771 196.667 38.4746 196.482C38.3721 196.295 38.2168 196.148 38.0088 196.043C37.8008 195.934 37.5371 195.88 37.2178 195.88C36.916 195.88 36.667 195.925 36.4707 196.016C36.2744 196.107 36.1279 196.23 36.0312 196.385C35.9375 196.541 35.8906 196.718 35.8906 196.917C35.8906 197.052 35.9185 197.175 35.9741 197.286C36.0327 197.395 36.1221 197.496 36.2422 197.589C36.3652 197.683 36.5205 197.77 36.708 197.849C36.8984 197.928 37.1255 198.004 37.3892 198.077C37.7524 198.18 38.0659 198.294 38.3296 198.42C38.5933 198.546 38.8101 198.688 38.98 198.846C39.1528 199.002 39.2803 199.179 39.3623 199.378C39.4473 199.574 39.4897 199.797 39.4897 200.046C39.4897 200.307 39.437 200.543 39.3315 200.754C39.2261 200.964 39.0752 201.145 38.8789 201.294C38.6826 201.443 38.4468 201.559 38.1714 201.641C37.8989 201.72 37.5942 201.76 37.2573 201.76C36.9614 201.76 36.6699 201.719 36.3828 201.637C36.0986 201.555 35.8394 201.432 35.605 201.268C35.3735 201.104 35.1875 200.901 35.0469 200.661C34.9092 200.418 34.8403 200.137 34.8403 199.817H35.6841C35.6841 200.037 35.7266 200.226 35.8115 200.384C35.8965 200.54 36.0122 200.669 36.1587 200.771C36.3081 200.874 36.4766 200.95 36.6641 201C36.8545 201.046 37.0522 201.07 37.2573 201.07C37.5532 201.07 37.8037 201.029 38.0088 200.947C38.2139 200.865 38.3691 200.748 38.4746 200.595C38.583 200.443 38.6372 200.263 38.6372 200.055ZM42.4385 196.917V197.541H39.8677V196.917H42.4385ZM40.7378 195.761H41.5508V200.494C41.5508 200.655 41.5757 200.777 41.6255 200.859C41.6753 200.941 41.7397 200.995 41.8188 201.022C41.8979 201.048 41.9829 201.061 42.0737 201.061C42.1411 201.061 42.2114 201.055 42.2847 201.044C42.3608 201.029 42.418 201.017 42.4561 201.008L42.4604 201.672C42.396 201.692 42.311 201.712 42.2056 201.729C42.103 201.75 41.9785 201.76 41.832 201.76C41.6328 201.76 41.4497 201.72 41.2827 201.641C41.1157 201.562 40.9824 201.43 40.8828 201.246C40.7861 201.058 40.7378 200.806 40.7378 200.49V195.761ZM43.0889 199.347V199.246C43.0889 198.903 43.1387 198.586 43.2383 198.293C43.3379 197.997 43.4814 197.74 43.6689 197.524C43.8564 197.304 44.0835 197.134 44.3501 197.014C44.6167 196.891 44.9155 196.829 45.2466 196.829C45.5806 196.829 45.8809 196.891 46.1475 197.014C46.417 197.134 46.6455 197.304 46.833 197.524C47.0234 197.74 47.1685 197.997 47.2681 198.293C47.3677 198.586 47.4175 198.903 47.4175 199.246V199.347C47.4175 199.69 47.3677 200.008 47.2681 200.301C47.1685 200.594 47.0234 200.85 46.833 201.07C46.6455 201.287 46.4185 201.457 46.1519 201.58C45.8882 201.7 45.5894 201.76 45.2554 201.76C44.9214 201.76 44.6211 201.7 44.3545 201.58C44.0879 201.457 43.8594 201.287 43.6689 201.07C43.4814 200.85 43.3379 200.594 43.2383 200.301C43.1387 200.008 43.0889 199.69 43.0889 199.347ZM43.9019 199.246V199.347C43.9019 199.585 43.9297 199.809 43.9854 200.02C44.041 200.228 44.1245 200.412 44.2358 200.573C44.3501 200.734 44.4922 200.862 44.6621 200.956C44.832 201.046 45.0298 201.092 45.2554 201.092C45.478 201.092 45.6729 201.046 45.8398 200.956C46.0098 200.862 46.1504 200.734 46.2617 200.573C46.373 200.412 46.4565 200.228 46.5122 200.02C46.5708 199.809 46.6001 199.585 46.6001 199.347V199.246C46.6001 199.012 46.5708 198.791 46.5122 198.583C46.4565 198.372 46.3716 198.186 46.2573 198.025C46.146 197.86 46.0054 197.732 45.8354 197.638C45.6685 197.544 45.4722 197.497 45.2466 197.497C45.0239 197.497 44.8276 197.544 44.6577 197.638C44.4907 197.732 44.3501 197.86 44.2358 198.025C44.1245 198.186 44.041 198.372 43.9854 198.583C43.9297 198.791 43.9019 199.012 43.9019 199.246ZM50.3398 201.092C50.5332 201.092 50.7119 201.052 50.876 200.973C51.04 200.894 51.1748 200.786 51.2803 200.648C51.3857 200.507 51.4458 200.348 51.4604 200.169H52.2339C52.2192 200.45 52.124 200.713 51.9482 200.956C51.7754 201.196 51.5483 201.391 51.2671 201.54C50.9858 201.687 50.6768 201.76 50.3398 201.76C49.9824 201.76 49.6704 201.697 49.4038 201.571C49.1401 201.445 48.9204 201.272 48.7446 201.052C48.5718 200.833 48.4414 200.581 48.3535 200.296C48.2686 200.009 48.2261 199.706 48.2261 199.387V199.202C48.2261 198.883 48.2686 198.581 48.3535 198.297C48.4414 198.01 48.5718 197.756 48.7446 197.537C48.9204 197.317 49.1401 197.144 49.4038 197.018C49.6704 196.892 49.9824 196.829 50.3398 196.829C50.7119 196.829 51.0371 196.905 51.3154 197.058C51.5938 197.207 51.812 197.412 51.9702 197.673C52.1313 197.931 52.2192 198.224 52.2339 198.552H51.4604C51.4458 198.356 51.3901 198.178 51.2935 198.02C51.1997 197.862 51.0708 197.736 50.9067 197.642C50.7456 197.546 50.5566 197.497 50.3398 197.497C50.0908 197.497 49.8813 197.547 49.7114 197.647C49.5444 197.743 49.4111 197.875 49.3115 198.042C49.2148 198.206 49.1445 198.389 49.1006 198.591C49.0596 198.791 49.0391 198.994 49.0391 199.202V199.387C49.0391 199.595 49.0596 199.8 49.1006 200.002C49.1416 200.204 49.2104 200.387 49.3071 200.551C49.4067 200.715 49.54 200.847 49.707 200.947C49.877 201.044 50.0879 201.092 50.3398 201.092ZM53.9653 194.922V201.672H53.1479V194.922H53.9653ZM56.8701 196.917L54.7959 199.136L53.6357 200.34L53.5698 199.475L54.4004 198.482L55.877 196.917H56.8701ZM56.1274 201.672L54.4312 199.404L54.853 198.679L57.0854 201.672H56.1274ZM63.9453 200.982V201.672H60.7461V200.982H63.9453ZM60.9131 195.274V201.672H60.0649V195.274H60.9131ZM66.7666 201.76C66.4355 201.76 66.1353 201.704 65.8657 201.593C65.5991 201.479 65.3691 201.319 65.1758 201.114C64.9854 200.909 64.8389 200.666 64.7363 200.384C64.6338 200.103 64.5825 199.796 64.5825 199.462V199.277C64.5825 198.89 64.6396 198.546 64.7539 198.244C64.8682 197.94 65.0234 197.682 65.2197 197.471C65.416 197.26 65.6387 197.1 65.8877 196.992C66.1367 196.883 66.3945 196.829 66.6611 196.829C67.001 196.829 67.2939 196.888 67.54 197.005C67.7891 197.122 67.9927 197.286 68.1509 197.497C68.3091 197.705 68.4263 197.951 68.5024 198.235C68.5786 198.517 68.6167 198.824 68.6167 199.158V199.523H65.0659V198.859H67.8037V198.798C67.792 198.587 67.748 198.382 67.6719 198.183C67.5986 197.984 67.4814 197.819 67.3203 197.691C67.1592 197.562 66.9395 197.497 66.6611 197.497C66.4766 197.497 66.3066 197.537 66.1514 197.616C65.9961 197.692 65.8628 197.806 65.7515 197.959C65.6401 198.111 65.5537 198.297 65.4922 198.517C65.4307 198.736 65.3999 198.99 65.3999 199.277V199.462C65.3999 199.687 65.4307 199.9 65.4922 200.099C65.5566 200.295 65.6489 200.468 65.769 200.617C65.8921 200.767 66.04 200.884 66.2129 200.969C66.3887 201.054 66.5879 201.096 66.8105 201.096C67.0977 201.096 67.3408 201.038 67.54 200.921C67.7393 200.803 67.9136 200.647 68.063 200.45L68.5552 200.841C68.4526 200.997 68.3223 201.145 68.1641 201.285C68.0059 201.426 67.811 201.54 67.5796 201.628C67.3511 201.716 67.0801 201.76 66.7666 201.76ZM70.9502 200.938L72.251 196.917H73.0815L71.3721 201.672H70.8271L70.9502 200.938ZM69.8647 196.917L71.2051 200.96L71.2974 201.672H70.7524L69.0298 196.917H69.8647ZM75.7754 201.76C75.4443 201.76 75.144 201.704 74.8745 201.593C74.6079 201.479 74.3779 201.319 74.1846 201.114C73.9941 200.909 73.8477 200.666 73.7451 200.384C73.6426 200.103 73.5913 199.796 73.5913 199.462V199.277C73.5913 198.89 73.6484 198.546 73.7627 198.244C73.877 197.94 74.0322 197.682 74.2285 197.471C74.4248 197.26 74.6475 197.1 74.8965 196.992C75.1455 196.883 75.4033 196.829 75.6699 196.829C76.0098 196.829 76.3027 196.888 76.5488 197.005C76.7979 197.122 77.0015 197.286 77.1597 197.497C77.3179 197.705 77.4351 197.951 77.5112 198.235C77.5874 198.517 77.6255 198.824 77.6255 199.158V199.523H74.0747V198.859H76.8125V198.798C76.8008 198.587 76.7568 198.382 76.6807 198.183C76.6074 197.984 76.4902 197.819 76.3291 197.691C76.168 197.562 75.9482 197.497 75.6699 197.497C75.4854 197.497 75.3154 197.537 75.1602 197.616C75.0049 197.692 74.8716 197.806 74.7603 197.959C74.6489 198.111 74.5625 198.297 74.501 198.517C74.4395 198.736 74.4087 198.99 74.4087 199.277V199.462C74.4087 199.687 74.4395 199.9 74.501 200.099C74.5654 200.295 74.6577 200.468 74.7778 200.617C74.9009 200.767 75.0488 200.884 75.2217 200.969C75.3975 201.054 75.5967 201.096 75.8193 201.096C76.1064 201.096 76.3496 201.038 76.5488 200.921C76.748 200.803 76.9224 200.647 77.0718 200.45L77.564 200.841C77.4614 200.997 77.3311 201.145 77.1729 201.285C77.0146 201.426 76.8198 201.54 76.5884 201.628C76.3599 201.716 76.0889 201.76 75.7754 201.76ZM79.458 194.922V201.672H78.6406V194.922H79.458Z" fill="#4B465C"/>
<path d="M149.545 189.048V196.172H148.139V190.669L146.449 191.206V190.098L149.394 189.048H149.545Z" fill="#4B465C"/>
<path d="M18.6069 214.492V220.89H17.772V214.492H18.6069ZM20.6636 214.492V215.186H15.7197V214.492H20.6636ZM20.835 218.566V218.464C20.835 218.122 20.8848 217.804 20.9844 217.511C21.084 217.215 21.2275 216.959 21.415 216.742C21.6025 216.522 21.8296 216.352 22.0962 216.232C22.3628 216.109 22.6616 216.047 22.9927 216.047C23.3267 216.047 23.627 216.109 23.8936 216.232C24.1631 216.352 24.3916 216.522 24.5791 216.742C24.7695 216.959 24.9146 217.215 25.0142 217.511C25.1138 217.804 25.1636 218.122 25.1636 218.464V218.566C25.1636 218.908 25.1138 219.226 25.0142 219.519C24.9146 219.812 24.7695 220.068 24.5791 220.288C24.3916 220.505 24.1646 220.675 23.8979 220.798C23.6343 220.918 23.3354 220.978 23.0015 220.978C22.6675 220.978 22.3672 220.918 22.1006 220.798C21.834 220.675 21.6055 220.505 21.415 220.288C21.2275 220.068 21.084 219.812 20.9844 219.519C20.8848 219.226 20.835 218.908 20.835 218.566ZM21.6479 218.464V218.566C21.6479 218.803 21.6758 219.027 21.7314 219.238C21.7871 219.446 21.8706 219.63 21.9819 219.792C22.0962 219.953 22.2383 220.08 22.4082 220.174C22.5781 220.265 22.7759 220.31 23.0015 220.31C23.2241 220.31 23.4189 220.265 23.5859 220.174C23.7559 220.08 23.8965 219.953 24.0078 219.792C24.1191 219.63 24.2026 219.446 24.2583 219.238C24.3169 219.027 24.3462 218.803 24.3462 218.566V218.464C24.3462 218.23 24.3169 218.009 24.2583 217.801C24.2026 217.59 24.1177 217.404 24.0034 217.243C23.8921 217.079 23.7515 216.95 23.5815 216.856C23.4146 216.762 23.2183 216.715 22.9927 216.715C22.77 216.715 22.5737 216.762 22.4038 216.856C22.2368 216.95 22.0962 217.079 21.9819 217.243C21.8706 217.404 21.7871 217.59 21.7314 217.801C21.6758 218.009 21.6479 218.23 21.6479 218.464ZM28.1738 216.135V216.759H25.603V216.135H28.1738ZM26.4731 214.98H27.2861V219.713C27.2861 219.874 27.311 219.995 27.3608 220.077C27.4106 220.159 27.4751 220.213 27.5542 220.24C27.6333 220.266 27.7183 220.279 27.8091 220.279C27.8765 220.279 27.9468 220.274 28.02 220.262C28.0962 220.247 28.1533 220.235 28.1914 220.227L28.1958 220.89C28.1313 220.911 28.0464 220.93 27.9409 220.947C27.8384 220.968 27.7139 220.978 27.5674 220.978C27.3682 220.978 27.1851 220.939 27.0181 220.859C26.8511 220.78 26.7178 220.649 26.6182 220.464C26.5215 220.276 26.4731 220.025 26.4731 219.708V214.98ZM31.9312 220.077V217.63C31.9312 217.442 31.8931 217.279 31.8169 217.142C31.7437 217.001 31.6323 216.893 31.4829 216.817C31.3335 216.74 31.1489 216.702 30.9292 216.702C30.7241 216.702 30.5439 216.737 30.3887 216.808C30.2363 216.878 30.1162 216.97 30.0283 217.085C29.9434 217.199 29.9009 217.322 29.9009 217.454H29.0879C29.0879 217.284 29.1318 217.115 29.2197 216.948C29.3076 216.781 29.4336 216.63 29.5977 216.496C29.7646 216.358 29.9639 216.25 30.1953 216.171C30.4297 216.088 30.6904 216.047 30.9775 216.047C31.3232 216.047 31.6279 216.106 31.8916 216.223C32.1582 216.34 32.3662 216.518 32.5156 216.755C32.668 216.989 32.7441 217.284 32.7441 217.638V219.853C32.7441 220.011 32.7573 220.18 32.7837 220.359C32.813 220.537 32.8555 220.691 32.9111 220.82V220.89H32.063C32.022 220.796 31.9897 220.672 31.9663 220.517C31.9429 220.359 31.9312 220.212 31.9312 220.077ZM32.0718 218.007L32.0806 218.579H31.2588C31.0273 218.579 30.8208 218.598 30.6392 218.636C30.4575 218.671 30.3052 218.725 30.1821 218.798C30.0591 218.872 29.9653 218.964 29.9009 219.075C29.8364 219.184 29.8042 219.311 29.8042 219.458C29.8042 219.607 29.8379 219.743 29.9053 219.866C29.9727 219.989 30.0737 220.088 30.2085 220.161C30.3462 220.231 30.5146 220.266 30.7139 220.266C30.9629 220.266 31.1826 220.213 31.373 220.108C31.5635 220.003 31.7144 219.874 31.8257 219.721C31.9399 219.569 32.0015 219.421 32.0103 219.277L32.3574 219.669C32.3369 219.792 32.2812 219.928 32.1904 220.077C32.0996 220.227 31.978 220.37 31.8257 220.508C31.6763 220.643 31.4976 220.755 31.2896 220.846C31.0845 220.934 30.853 220.978 30.5952 220.978C30.2729 220.978 29.9902 220.915 29.7471 220.789C29.5068 220.663 29.3193 220.495 29.1846 220.284C29.0527 220.07 28.9868 219.831 28.9868 219.567C28.9868 219.313 29.0366 219.088 29.1362 218.895C29.2358 218.699 29.3794 218.536 29.5669 218.407C29.7544 218.275 29.98 218.176 30.2437 218.109C30.5073 218.041 30.8018 218.007 31.127 218.007H32.0718ZM34.9062 214.14V220.89H34.0889V214.14H34.9062ZM38.2285 218.566V218.464C38.2285 218.122 38.2783 217.804 38.3779 217.511C38.4775 217.215 38.6211 216.959 38.8086 216.742C38.9961 216.522 39.2231 216.352 39.4897 216.232C39.7563 216.109 40.0552 216.047 40.3862 216.047C40.7202 216.047 41.0205 216.109 41.2871 216.232C41.5566 216.352 41.7852 216.522 41.9727 216.742C42.1631 216.959 42.3081 217.215 42.4077 217.511C42.5073 217.804 42.5571 218.122 42.5571 218.464V218.566C42.5571 218.908 42.5073 219.226 42.4077 219.519C42.3081 219.812 42.1631 220.068 41.9727 220.288C41.7852 220.505 41.5581 220.675 41.2915 220.798C41.0278 220.918 40.729 220.978 40.395 220.978C40.061 220.978 39.7607 220.918 39.4941 220.798C39.2275 220.675 38.999 220.505 38.8086 220.288C38.6211 220.068 38.4775 219.812 38.3779 219.519C38.2783 219.226 38.2285 218.908 38.2285 218.566ZM39.0415 218.464V218.566C39.0415 218.803 39.0693 219.027 39.125 219.238C39.1807 219.446 39.2642 219.63 39.3755 219.792C39.4897 219.953 39.6318 220.08 39.8018 220.174C39.9717 220.265 40.1694 220.31 40.395 220.31C40.6177 220.31 40.8125 220.265 40.9795 220.174C41.1494 220.08 41.29 219.953 41.4014 219.792C41.5127 219.63 41.5962 219.446 41.6519 219.238C41.7104 219.027 41.7397 218.803 41.7397 218.566V218.464C41.7397 218.23 41.7104 218.009 41.6519 217.801C41.5962 217.59 41.5112 217.404 41.397 217.243C41.2856 217.079 41.145 216.95 40.9751 216.856C40.8081 216.762 40.6118 216.715 40.3862 216.715C40.1636 216.715 39.9673 216.762 39.7974 216.856C39.6304 216.95 39.4897 217.079 39.3755 217.243C39.2642 217.404 39.1807 217.59 39.125 217.801C39.0693 218.009 39.0415 218.23 39.0415 218.464ZM46.4858 219.792V216.135H47.3032V220.89H46.5254L46.4858 219.792ZM46.6396 218.79L46.978 218.781C46.978 219.097 46.9443 219.39 46.877 219.66C46.8125 219.926 46.707 220.158 46.5605 220.354C46.4141 220.55 46.2222 220.704 45.9849 220.816C45.7476 220.924 45.459 220.978 45.1191 220.978C44.8877 220.978 44.6753 220.944 44.4819 220.877C44.2915 220.81 44.1274 220.706 43.9897 220.565C43.8521 220.424 43.7451 220.241 43.6689 220.016C43.5957 219.79 43.5591 219.519 43.5591 219.203V216.135H44.3721V219.212C44.3721 219.425 44.3955 219.603 44.4424 219.743C44.4922 219.881 44.5581 219.991 44.6401 220.073C44.7251 220.152 44.8188 220.208 44.9214 220.24C45.0269 220.272 45.1353 220.288 45.2466 220.288C45.5923 220.288 45.8662 220.222 46.0684 220.09C46.2705 219.956 46.4155 219.775 46.5034 219.55C46.5942 219.321 46.6396 219.068 46.6396 218.79ZM50.5332 216.135V216.759H47.9624V216.135H50.5332ZM48.8325 214.98H49.6455V219.713C49.6455 219.874 49.6704 219.995 49.7202 220.077C49.77 220.159 49.8345 220.213 49.9136 220.24C49.9927 220.266 50.0776 220.279 50.1685 220.279C50.2358 220.279 50.3062 220.274 50.3794 220.262C50.4556 220.247 50.5127 220.235 50.5508 220.227L50.5552 220.89C50.4907 220.911 50.4058 220.93 50.3003 220.947C50.1978 220.968 50.0732 220.978 49.9268 220.978C49.7275 220.978 49.5444 220.939 49.3774 220.859C49.2104 220.78 49.0771 220.649 48.9775 220.464C48.8809 220.276 48.8325 220.025 48.8325 219.708V214.98ZM53.5039 218.566V218.464C53.5039 218.122 53.5537 217.804 53.6533 217.511C53.7529 217.215 53.8965 216.959 54.084 216.742C54.2715 216.522 54.4985 216.352 54.7651 216.232C55.0317 216.109 55.3306 216.047 55.6616 216.047C55.9956 216.047 56.2959 216.109 56.5625 216.232C56.832 216.352 57.0605 216.522 57.248 216.742C57.4385 216.959 57.5835 217.215 57.6831 217.511C57.7827 217.804 57.8325 218.122 57.8325 218.464V218.566C57.8325 218.908 57.7827 219.226 57.6831 219.519C57.5835 219.812 57.4385 220.068 57.248 220.288C57.0605 220.505 56.8335 220.675 56.5669 220.798C56.3032 220.918 56.0044 220.978 55.6704 220.978C55.3364 220.978 55.0361 220.918 54.7695 220.798C54.5029 220.675 54.2744 220.505 54.084 220.288C53.8965 220.068 53.7529 219.812 53.6533 219.519C53.5537 219.226 53.5039 218.908 53.5039 218.566ZM54.3169 218.464V218.566C54.3169 218.803 54.3447 219.027 54.4004 219.238C54.4561 219.446 54.5396 219.63 54.6509 219.792C54.7651 219.953 54.9072 220.08 55.0771 220.174C55.2471 220.265 55.4448 220.31 55.6704 220.31C55.8931 220.31 56.0879 220.265 56.2549 220.174C56.4248 220.08 56.5654 219.953 56.6768 219.792C56.7881 219.63 56.8716 219.446 56.9272 219.238C56.9858 219.027 57.0151 218.803 57.0151 218.566V218.464C57.0151 218.23 56.9858 218.009 56.9272 217.801C56.8716 217.59 56.7866 217.404 56.6724 217.243C56.561 217.079 56.4204 216.95 56.2505 216.856C56.0835 216.762 55.8872 216.715 55.6616 216.715C55.439 216.715 55.2427 216.762 55.0728 216.856C54.9058 216.95 54.7651 217.079 54.6509 217.243C54.5396 217.404 54.4561 217.59 54.4004 217.801C54.3447 218.009 54.3169 218.23 54.3169 218.464ZM60.0649 220.89H59.252V215.634C59.252 215.292 59.3135 215.003 59.4365 214.769C59.5625 214.531 59.7427 214.353 59.9771 214.233C60.2114 214.109 60.4897 214.048 60.812 214.048C60.9058 214.048 60.9995 214.054 61.0933 214.066C61.1899 214.077 61.2837 214.095 61.3745 214.118L61.3306 214.782C61.269 214.767 61.1987 214.757 61.1196 214.751C61.0435 214.745 60.9673 214.742 60.8911 214.742C60.7183 214.742 60.5688 214.777 60.4429 214.848C60.3198 214.915 60.2261 215.015 60.1616 215.147C60.0972 215.278 60.0649 215.441 60.0649 215.634V220.89ZM61.0757 216.135V216.759H58.5005V216.135H61.0757ZM67.7466 219.273C67.7466 219.124 67.7231 218.992 67.6763 218.878C67.6323 218.76 67.5532 218.655 67.439 218.561C67.3276 218.467 67.1724 218.378 66.9731 218.293C66.7769 218.208 66.5278 218.122 66.2261 218.034C65.9097 217.94 65.624 217.836 65.3691 217.722C65.1143 217.605 64.896 217.471 64.7144 217.322C64.5327 217.172 64.3936 217.001 64.2969 216.808C64.2002 216.614 64.1519 216.393 64.1519 216.144C64.1519 215.895 64.2031 215.665 64.3057 215.454C64.4082 215.243 64.5547 215.06 64.7451 214.905C64.9385 214.747 65.1685 214.624 65.4351 214.536C65.7017 214.448 65.999 214.404 66.3271 214.404C66.8076 214.404 67.2148 214.496 67.5488 214.681C67.8857 214.862 68.1421 215.101 68.3179 215.397C68.4937 215.69 68.5815 216.004 68.5815 216.338H67.7378C67.7378 216.097 67.6865 215.885 67.584 215.7C67.4814 215.513 67.3262 215.366 67.1182 215.261C66.9102 215.152 66.6465 215.098 66.3271 215.098C66.0254 215.098 65.7764 215.144 65.5801 215.234C65.3838 215.325 65.2373 215.448 65.1406 215.604C65.0469 215.759 65 215.936 65 216.135C65 216.27 65.0278 216.393 65.0835 216.505C65.1421 216.613 65.2314 216.714 65.3516 216.808C65.4746 216.901 65.6299 216.988 65.8174 217.067C66.0078 217.146 66.2349 217.222 66.4985 217.296C66.8618 217.398 67.1753 217.512 67.439 217.638C67.7026 217.764 67.9194 217.906 68.0894 218.065C68.2622 218.22 68.3896 218.397 68.4717 218.596C68.5566 218.793 68.5991 219.015 68.5991 219.264C68.5991 219.525 68.5464 219.761 68.4409 219.972C68.3354 220.183 68.1846 220.363 67.9883 220.512C67.792 220.662 67.5562 220.777 67.2808 220.859C67.0083 220.939 66.7036 220.978 66.3667 220.978C66.0708 220.978 65.7793 220.937 65.4922 220.855C65.208 220.773 64.9487 220.65 64.7144 220.486C64.4829 220.322 64.2969 220.12 64.1562 219.88C64.0186 219.636 63.9497 219.355 63.9497 219.036H64.7935C64.7935 219.255 64.8359 219.444 64.9209 219.603C65.0059 219.758 65.1216 219.887 65.2681 219.989C65.4175 220.092 65.5859 220.168 65.7734 220.218C65.9639 220.265 66.1616 220.288 66.3667 220.288C66.6626 220.288 66.9131 220.247 67.1182 220.165C67.3232 220.083 67.4785 219.966 67.584 219.814C67.6924 219.661 67.7466 219.481 67.7466 219.273ZM71.5479 216.135V216.759H68.9771V216.135H71.5479ZM69.8472 214.98H70.6602V219.713C70.6602 219.874 70.6851 219.995 70.7349 220.077C70.7847 220.159 70.8491 220.213 70.9282 220.24C71.0073 220.266 71.0923 220.279 71.1831 220.279C71.2505 220.279 71.3208 220.274 71.394 220.262C71.4702 220.247 71.5273 220.235 71.5654 220.227L71.5698 220.89C71.5054 220.911 71.4204 220.93 71.3149 220.947C71.2124 220.968 71.0879 220.978 70.9414 220.978C70.7422 220.978 70.5591 220.939 70.3921 220.859C70.2251 220.78 70.0918 220.649 69.9922 220.464C69.8955 220.276 69.8472 220.025 69.8472 219.708V214.98ZM72.1982 218.566V218.464C72.1982 218.122 72.248 217.804 72.3477 217.511C72.4473 217.215 72.5908 216.959 72.7783 216.742C72.9658 216.522 73.1929 216.352 73.4595 216.232C73.7261 216.109 74.0249 216.047 74.356 216.047C74.6899 216.047 74.9902 216.109 75.2568 216.232C75.5264 216.352 75.7549 216.522 75.9424 216.742C76.1328 216.959 76.2778 217.215 76.3774 217.511C76.4771 217.804 76.5269 218.122 76.5269 218.464V218.566C76.5269 218.908 76.4771 219.226 76.3774 219.519C76.2778 219.812 76.1328 220.068 75.9424 220.288C75.7549 220.505 75.5278 220.675 75.2612 220.798C74.9976 220.918 74.6987 220.978 74.3647 220.978C74.0308 220.978 73.7305 220.918 73.4639 220.798C73.1973 220.675 72.9688 220.505 72.7783 220.288C72.5908 220.068 72.4473 219.812 72.3477 219.519C72.248 219.226 72.1982 218.908 72.1982 218.566ZM73.0112 218.464V218.566C73.0112 218.803 73.0391 219.027 73.0947 219.238C73.1504 219.446 73.2339 219.63 73.3452 219.792C73.4595 219.953 73.6016 220.08 73.7715 220.174C73.9414 220.265 74.1392 220.31 74.3647 220.31C74.5874 220.31 74.7822 220.265 74.9492 220.174C75.1191 220.08 75.2598 219.953 75.3711 219.792C75.4824 219.63 75.5659 219.446 75.6216 219.238C75.6802 219.027 75.7095 218.803 75.7095 218.566V218.464C75.7095 218.23 75.6802 218.009 75.6216 217.801C75.5659 217.59 75.481 217.404 75.3667 217.243C75.2554 217.079 75.1147 216.95 74.9448 216.856C74.7778 216.762 74.5815 216.715 74.356 216.715C74.1333 216.715 73.937 216.762 73.7671 216.856C73.6001 216.95 73.4595 217.079 73.3452 217.243C73.2339 217.404 73.1504 217.59 73.0947 217.801C73.0391 218.009 73.0112 218.23 73.0112 218.464ZM79.4492 220.31C79.6426 220.31 79.8213 220.271 79.9854 220.192C80.1494 220.112 80.2842 220.004 80.3896 219.866C80.4951 219.726 80.5552 219.566 80.5698 219.387H81.3433C81.3286 219.669 81.2334 219.931 81.0576 220.174C80.8848 220.414 80.6577 220.609 80.3765 220.758C80.0952 220.905 79.7861 220.978 79.4492 220.978C79.0918 220.978 78.7798 220.915 78.5132 220.789C78.2495 220.663 78.0298 220.49 77.854 220.271C77.6812 220.051 77.5508 219.799 77.4629 219.515C77.3779 219.228 77.3354 218.924 77.3354 218.605V218.421C77.3354 218.101 77.3779 217.799 77.4629 217.515C77.5508 217.228 77.6812 216.975 77.854 216.755C78.0298 216.535 78.2495 216.362 78.5132 216.236C78.7798 216.11 79.0918 216.047 79.4492 216.047C79.8213 216.047 80.1465 216.124 80.4248 216.276C80.7031 216.425 80.9214 216.63 81.0796 216.891C81.2407 217.149 81.3286 217.442 81.3433 217.77H80.5698C80.5552 217.574 80.4995 217.397 80.4028 217.238C80.3091 217.08 80.1802 216.954 80.0161 216.86C79.855 216.764 79.666 216.715 79.4492 216.715C79.2002 216.715 78.9907 216.765 78.8208 216.865C78.6538 216.962 78.5205 217.093 78.4209 217.26C78.3242 217.424 78.2539 217.608 78.21 217.81C78.1689 218.009 78.1484 218.213 78.1484 218.421V218.605C78.1484 218.813 78.1689 219.018 78.21 219.22C78.251 219.422 78.3198 219.606 78.4165 219.77C78.5161 219.934 78.6494 220.066 78.8164 220.165C78.9863 220.262 79.1973 220.31 79.4492 220.31ZM83.0747 214.14V220.89H82.2573V214.14H83.0747ZM85.9795 216.135L83.9053 218.355L82.7451 219.559L82.6792 218.693L83.5098 217.7L84.9863 216.135H85.9795ZM85.2368 220.89L83.5405 218.623L83.9624 217.898L86.1948 220.89H85.2368Z" fill="#4B465C"/>
<path d="M135.432 213.766V220.89H134.025V215.387L132.336 215.924V214.816L135.28 213.766H135.432ZM139.187 216.725H139.938C140.179 216.725 140.378 216.685 140.534 216.603C140.69 216.518 140.806 216.401 140.881 216.252C140.959 216.099 140.998 215.921 140.998 215.719C140.998 215.537 140.962 215.376 140.891 215.236C140.822 215.093 140.716 214.982 140.573 214.904C140.43 214.823 140.249 214.782 140.031 214.782C139.859 214.782 139.699 214.816 139.553 214.884C139.406 214.953 139.289 215.049 139.201 215.172C139.113 215.296 139.069 215.446 139.069 215.622H137.658C137.658 215.231 137.762 214.891 137.971 214.601C138.182 214.311 138.465 214.085 138.82 213.922C139.175 213.76 139.566 213.678 139.992 213.678C140.474 213.678 140.896 213.756 141.257 213.913C141.618 214.066 141.9 214.292 142.102 214.591C142.303 214.891 142.404 215.262 142.404 215.705C142.404 215.929 142.352 216.147 142.248 216.359C142.144 216.567 141.994 216.756 141.799 216.925C141.607 217.091 141.372 217.225 141.096 217.326C140.819 217.423 140.508 217.472 140.163 217.472H139.187V216.725ZM139.187 217.795V217.067H140.163C140.55 217.067 140.891 217.111 141.184 217.199C141.477 217.287 141.722 217.414 141.921 217.58C142.119 217.742 142.269 217.936 142.37 218.161C142.471 218.382 142.521 218.628 142.521 218.898C142.521 219.23 142.458 219.526 142.331 219.787C142.204 220.044 142.025 220.262 141.794 220.441C141.566 220.62 141.299 220.757 140.993 220.851C140.687 220.942 140.354 220.988 139.992 220.988C139.693 220.988 139.398 220.947 139.108 220.866C138.822 220.781 138.562 220.656 138.327 220.49C138.096 220.321 137.91 220.109 137.771 219.855C137.634 219.598 137.565 219.294 137.565 218.942H138.977C138.977 219.124 139.022 219.287 139.113 219.43C139.204 219.574 139.33 219.686 139.489 219.767C139.652 219.849 139.833 219.889 140.031 219.889C140.256 219.889 140.448 219.849 140.607 219.767C140.77 219.683 140.894 219.565 140.979 219.416C141.066 219.263 141.11 219.085 141.11 218.883C141.11 218.623 141.063 218.415 140.969 218.258C140.874 218.099 140.739 217.982 140.563 217.907C140.388 217.832 140.179 217.795 139.938 217.795H139.187ZM144.812 217.653L143.688 217.384L144.094 213.781H148.088V214.919H145.251L145.075 216.496C145.17 216.44 145.313 216.382 145.505 216.32C145.697 216.255 145.912 216.222 146.149 216.222C146.494 216.222 146.8 216.276 147.067 216.383C147.334 216.491 147.561 216.647 147.746 216.852C147.935 217.057 148.078 217.308 148.176 217.604C148.273 217.9 148.322 218.236 148.322 218.61C148.322 218.926 148.273 219.227 148.176 219.513C148.078 219.796 147.93 220.05 147.731 220.275C147.533 220.496 147.284 220.671 146.984 220.797C146.685 220.924 146.33 220.988 145.92 220.988C145.614 220.988 145.318 220.942 145.031 220.851C144.748 220.76 144.493 220.625 144.265 220.446C144.04 220.267 143.859 220.05 143.723 219.796C143.589 219.539 143.519 219.246 143.513 218.918H144.909C144.929 219.119 144.981 219.294 145.065 219.44C145.153 219.583 145.269 219.694 145.412 219.772C145.555 219.85 145.723 219.889 145.915 219.889C146.094 219.889 146.247 219.855 146.374 219.787C146.501 219.718 146.604 219.624 146.682 219.504C146.76 219.38 146.817 219.237 146.853 219.074C146.892 218.908 146.911 218.729 146.911 218.537C146.911 218.345 146.888 218.171 146.843 218.014C146.797 217.858 146.727 217.723 146.633 217.609C146.538 217.495 146.418 217.407 146.271 217.345C146.128 217.283 145.961 217.253 145.769 217.253C145.508 217.253 145.306 217.293 145.163 217.375C145.023 217.456 144.906 217.549 144.812 217.653ZM152.658 213.766V220.89H151.252V215.387L149.562 215.924V214.816L152.507 213.766H152.658Z" fill="#4B465C"/>
</svg>
