<svg width="364" height="328" viewBox="0 0 364 328" fill="none" xmlns="http://www.w3.org/2000/svg">
<rect width="363.5" height="328" rx="8" fill="white"/>
<path d="M30.3594 21.0339V21.573C30.3594 22.4376 30.2422 23.2136 30.0078 23.9011C29.7734 24.5886 29.4427 25.1746 29.0156 25.6589C28.5885 26.1381 28.0781 26.5053 27.4844 26.7605C26.8958 27.0157 26.2422 27.1433 25.5234 27.1433C24.8099 27.1433 24.1562 27.0157 23.5625 26.7605C22.974 26.5053 22.4635 26.1381 22.0312 25.6589C21.599 25.1746 21.263 24.5886 21.0234 23.9011C20.7891 23.2136 20.6719 22.4376 20.6719 21.573V21.0339C20.6719 20.1641 20.7891 19.3881 21.0234 18.7058C21.2578 18.0183 21.5885 17.4324 22.0156 16.948C22.4479 16.4636 22.9583 16.0938 23.5469 15.8386C24.1406 15.5834 24.7943 15.4558 25.5078 15.4558C26.2266 15.4558 26.8802 15.5834 27.4688 15.8386C28.0625 16.0938 28.5729 16.4636 29 16.948C29.4323 17.4324 29.7656 18.0183 30 18.7058C30.2396 19.3881 30.3594 20.1641 30.3594 21.0339ZM27.9922 21.573V21.0183C27.9922 20.4141 27.9375 19.8829 27.8281 19.4246C27.7188 18.9662 27.5573 18.5808 27.3438 18.2683C27.1302 17.9558 26.8698 17.7214 26.5625 17.5652C26.2552 17.4037 25.9036 17.323 25.5078 17.323C25.112 17.323 24.7604 17.4037 24.4531 17.5652C24.151 17.7214 23.8932 17.9558 23.6797 18.2683C23.4714 18.5808 23.3125 18.9662 23.2031 19.4246C23.0938 19.8829 23.0391 20.4141 23.0391 21.0183V21.573C23.0391 22.172 23.0938 22.7032 23.2031 23.1667C23.3125 23.6251 23.474 24.0131 23.6875 24.3308C23.901 24.6433 24.1615 24.8803 24.4688 25.0417C24.776 25.2032 25.1276 25.2839 25.5234 25.2839C25.9193 25.2839 26.2708 25.2032 26.5781 25.0417C26.8854 24.8803 27.1432 24.6433 27.3516 24.3308C27.5599 24.0131 27.7188 23.6251 27.8281 23.1667C27.9375 22.7032 27.9922 22.172 27.9922 21.573ZM34.6562 20.3777V26.9871H32.4062V18.5339H34.5234L34.6562 20.3777ZM37.2031 18.4792L37.1641 20.5652C37.0547 20.5496 36.9219 20.5365 36.7656 20.5261C36.6146 20.5105 36.4766 20.5027 36.3516 20.5027C36.0339 20.5027 35.7578 20.5444 35.5234 20.6277C35.2943 20.7058 35.1016 20.823 34.9453 20.9792C34.7943 21.1355 34.6797 21.3256 34.6016 21.5496C34.5286 21.7735 34.487 22.0287 34.4766 22.3152L34.0234 22.1746C34.0234 21.6277 34.0781 21.1251 34.1875 20.6667C34.2969 20.2032 34.4557 19.7996 34.6641 19.4558C34.8776 19.1121 35.138 18.8464 35.4453 18.6589C35.7526 18.4714 36.1042 18.3777 36.5 18.3777C36.625 18.3777 36.7526 18.3881 36.8828 18.4089C37.013 18.4246 37.1198 18.448 37.2031 18.4792ZM43.6016 25.1433V14.9871H45.8672V26.9871H43.8281L43.6016 25.1433ZM38.2578 22.8621V22.698C38.2578 22.0522 38.3307 21.4662 38.4766 20.9402C38.6224 20.4089 38.8359 19.9532 39.1172 19.573C39.3984 19.1928 39.7448 18.8985 40.1562 18.6902C40.5677 18.4819 41.0365 18.3777 41.5625 18.3777C42.0573 18.3777 42.4896 18.4819 42.8594 18.6902C43.2344 18.8985 43.5521 19.1954 43.8125 19.5808C44.0781 19.961 44.2917 20.4115 44.4531 20.9324C44.6146 21.448 44.7318 22.0131 44.8047 22.6277V22.9871C44.7318 23.5756 44.6146 24.1225 44.4531 24.6277C44.2917 25.1329 44.0781 25.5756 43.8125 25.9558C43.5521 26.3308 43.2344 26.6225 42.8594 26.8308C42.4844 27.0391 42.0469 27.1433 41.5469 27.1433C41.0208 27.1433 40.5521 27.0365 40.1406 26.823C39.7344 26.6095 39.3906 26.31 39.1094 25.9246C38.8333 25.5391 38.6224 25.086 38.4766 24.5652C38.3307 24.0444 38.2578 23.4766 38.2578 22.8621ZM40.5078 22.698V22.8621C40.5078 23.211 40.5339 23.5365 40.5859 23.8386C40.6432 24.1407 40.7344 24.4089 40.8594 24.6433C40.9896 24.8725 41.1562 25.0522 41.3594 25.1824C41.5677 25.3074 41.8203 25.3699 42.1172 25.3699C42.5026 25.3699 42.8203 25.2839 43.0703 25.1121C43.3203 24.935 43.5104 24.6928 43.6406 24.3855C43.776 24.0782 43.8542 23.724 43.875 23.323V22.2996C43.8594 21.9714 43.8125 21.6772 43.7344 21.4167C43.6615 21.1511 43.5521 20.9246 43.4062 20.7371C43.2656 20.5496 43.0885 20.4037 42.875 20.2996C42.6667 20.1954 42.4193 20.1433 42.1328 20.1433C41.8411 20.1433 41.5911 20.211 41.3828 20.3464C41.1745 20.4766 41.0052 20.6563 40.875 20.8855C40.75 21.1147 40.6562 21.3855 40.5938 21.698C40.5365 22.0053 40.5078 22.3386 40.5078 22.698ZM52.0156 27.1433C51.3594 27.1433 50.7708 27.0391 50.25 26.8308C49.7292 26.6173 49.2865 26.323 48.9219 25.948C48.5625 25.573 48.2865 25.1381 48.0938 24.6433C47.901 24.1433 47.8047 23.6121 47.8047 23.0496V22.7371C47.8047 22.0964 47.8958 21.5105 48.0781 20.9792C48.2604 20.448 48.5208 19.9871 48.8594 19.5964C49.2031 19.2058 49.6198 18.9063 50.1094 18.698C50.599 18.4845 51.151 18.3777 51.7656 18.3777C52.3646 18.3777 52.8958 18.4766 53.3594 18.6746C53.8229 18.8725 54.2109 19.1537 54.5234 19.5183C54.8411 19.8829 55.0807 20.3204 55.2422 20.8308C55.4036 21.336 55.4844 21.8985 55.4844 22.5183V23.4558H48.7656V21.9558H53.2734V21.7839C53.2734 21.4714 53.2161 21.1928 53.1016 20.948C52.9922 20.698 52.8255 20.5001 52.6016 20.3542C52.3776 20.2084 52.0911 20.1355 51.7422 20.1355C51.4453 20.1355 51.1901 20.2006 50.9766 20.3308C50.763 20.461 50.5885 20.6433 50.4531 20.8777C50.3229 21.1121 50.224 21.3881 50.1562 21.7058C50.0938 22.0183 50.0625 22.3621 50.0625 22.7371V23.0496C50.0625 23.3881 50.1094 23.7006 50.2031 23.9871C50.3021 24.2735 50.4401 24.5209 50.6172 24.7292C50.7995 24.9376 51.0182 25.099 51.2734 25.2136C51.5339 25.3282 51.8281 25.3855 52.1562 25.3855C52.5625 25.3855 52.9401 25.3074 53.2891 25.1511C53.6432 24.9897 53.9479 24.7475 54.2031 24.4246L55.2969 25.6121C55.1198 25.8673 54.8776 26.1121 54.5703 26.3464C54.2682 26.5808 53.9036 26.7735 53.4766 26.9246C53.0495 27.0704 52.5625 27.1433 52.0156 27.1433ZM59.5156 20.3777V26.9871H57.2656V18.5339H59.3828L59.5156 20.3777ZM62.0625 18.4792L62.0234 20.5652C61.9141 20.5496 61.7812 20.5365 61.625 20.5261C61.474 20.5105 61.3359 20.5027 61.2109 20.5027C60.8932 20.5027 60.6172 20.5444 60.3828 20.6277C60.1536 20.7058 59.9609 20.823 59.8047 20.9792C59.6536 21.1355 59.5391 21.3256 59.4609 21.5496C59.388 21.7735 59.3464 22.0287 59.3359 22.3152L58.8828 22.1746C58.8828 21.6277 58.9375 21.1251 59.0469 20.6667C59.1562 20.2032 59.3151 19.7996 59.5234 19.4558C59.737 19.1121 59.9974 18.8464 60.3047 18.6589C60.612 18.4714 60.9635 18.3777 61.3594 18.3777C61.4844 18.3777 61.612 18.3881 61.7422 18.4089C61.8724 18.4246 61.9792 18.448 62.0625 18.4792ZM72.3516 24.6121L75.0312 15.6121H77.6406L73.6797 26.9871H71.9609L72.3516 24.6121ZM69.8828 15.6121L72.5547 24.6121L72.9609 26.9871H71.2266L67.2891 15.6121H69.8828ZM78.3438 22.8464V22.6824C78.3438 22.0626 78.4323 21.4923 78.6094 20.9714C78.7865 20.4454 79.0443 19.9897 79.3828 19.6042C79.7214 19.2188 80.138 18.9194 80.6328 18.7058C81.1276 18.4871 81.6953 18.3777 82.3359 18.3777C82.9766 18.3777 83.5469 18.4871 84.0469 18.7058C84.5469 18.9194 84.9661 19.2188 85.3047 19.6042C85.6484 19.9897 85.9089 20.4454 86.0859 20.9714C86.263 21.4923 86.3516 22.0626 86.3516 22.6824V22.8464C86.3516 23.461 86.263 24.0313 86.0859 24.5574C85.9089 25.0782 85.6484 25.5339 85.3047 25.9246C84.9661 26.31 84.5495 26.6095 84.0547 26.823C83.5599 27.0365 82.9922 27.1433 82.3516 27.1433C81.7109 27.1433 81.1406 27.0365 80.6406 26.823C80.1458 26.6095 79.7266 26.31 79.3828 25.9246C79.0443 25.5339 78.7865 25.0782 78.6094 24.5574C78.4323 24.0313 78.3438 23.461 78.3438 22.8464ZM80.5938 22.6824V22.8464C80.5938 23.2006 80.625 23.5313 80.6875 23.8386C80.75 24.1459 80.849 24.4167 80.9844 24.6511C81.125 24.8803 81.3073 25.06 81.5312 25.1902C81.7552 25.3204 82.0286 25.3855 82.3516 25.3855C82.6641 25.3855 82.9323 25.3204 83.1562 25.1902C83.3802 25.06 83.5599 24.8803 83.6953 24.6511C83.8307 24.4167 83.9297 24.1459 83.9922 23.8386C84.0599 23.5313 84.0938 23.2006 84.0938 22.8464V22.6824C84.0938 22.3386 84.0599 22.0157 83.9922 21.7136C83.9297 21.4063 83.8281 21.1355 83.6875 20.9011C83.5521 20.6615 83.3724 20.474 83.1484 20.3386C82.9245 20.2032 82.6536 20.1355 82.3359 20.1355C82.0182 20.1355 81.7474 20.2032 81.5234 20.3386C81.3047 20.474 81.125 20.6615 80.9844 20.9011C80.849 21.1355 80.75 21.4063 80.6875 21.7136C80.625 22.0157 80.5938 22.3386 80.5938 22.6824ZM90.6094 14.9871V26.9871H88.3516V14.9871H90.6094ZM97.9688 24.9636V18.5339H100.219V26.9871H98.1016L97.9688 24.9636ZM98.2188 23.2292L98.8828 23.2136C98.8828 23.7761 98.8177 24.2996 98.6875 24.7839C98.5573 25.2631 98.362 25.6798 98.1016 26.0339C97.8411 26.3829 97.513 26.6563 97.1172 26.8542C96.7214 27.047 96.2552 27.1433 95.7188 27.1433C95.3073 27.1433 94.9271 27.086 94.5781 26.9714C94.2344 26.8516 93.9375 26.6667 93.6875 26.4167C93.4427 26.1615 93.25 25.836 93.1094 25.4402C92.974 25.0391 92.9062 24.5574 92.9062 23.9949V18.5339H95.1562V24.0105C95.1562 24.2605 95.1849 24.4714 95.2422 24.6433C95.3047 24.8152 95.3906 24.9558 95.5 25.0652C95.6094 25.1746 95.737 25.2527 95.8828 25.2996C96.0339 25.3464 96.2005 25.3699 96.3828 25.3699C96.8464 25.3699 97.2109 25.2761 97.4766 25.0886C97.7474 24.9011 97.9375 24.6459 98.0469 24.323C98.1615 23.9949 98.2188 23.6303 98.2188 23.2292ZM104.688 20.2839V26.9871H102.43V18.5339H104.547L104.688 20.2839ZM104.375 22.4636H103.75C103.75 21.8751 103.82 21.3334 103.961 20.8386C104.107 20.3386 104.318 19.9063 104.594 19.5417C104.875 19.172 105.221 18.8855 105.633 18.6824C106.044 18.4792 106.521 18.3777 107.062 18.3777C107.438 18.3777 107.781 18.435 108.094 18.5496C108.406 18.6589 108.674 18.8334 108.898 19.073C109.128 19.3074 109.305 19.6147 109.43 19.9949C109.555 20.3699 109.617 20.8204 109.617 21.3464V26.9871H107.367V21.5964C107.367 21.211 107.315 20.9141 107.211 20.7058C107.107 20.4975 106.958 20.3516 106.766 20.2683C106.578 20.185 106.352 20.1433 106.086 20.1433C105.794 20.1433 105.539 20.2032 105.32 20.323C105.107 20.4428 104.93 20.6095 104.789 20.823C104.648 21.0313 104.544 21.2761 104.477 21.5574C104.409 21.8386 104.375 22.1407 104.375 22.4636ZM109.406 22.2058L108.602 22.3074C108.602 21.7553 108.669 21.2423 108.805 20.7683C108.945 20.2944 109.151 19.8777 109.422 19.5183C109.698 19.1589 110.039 18.8803 110.445 18.6824C110.852 18.4792 111.32 18.3777 111.852 18.3777C112.258 18.3777 112.628 18.4376 112.961 18.5574C113.294 18.672 113.578 18.8569 113.812 19.1121C114.052 19.3621 114.234 19.6902 114.359 20.0964C114.49 20.5027 114.555 21.0001 114.555 21.5886V26.9871H112.297V21.5886C112.297 21.198 112.245 20.9011 112.141 20.698C112.042 20.4897 111.896 20.3464 111.703 20.2683C111.516 20.185 111.292 20.1433 111.031 20.1433C110.76 20.1433 110.523 20.198 110.32 20.3074C110.117 20.4115 109.948 20.5574 109.812 20.7449C109.677 20.9324 109.576 21.1511 109.508 21.4011C109.44 21.6459 109.406 21.9141 109.406 22.2058ZM120.688 27.1433C120.031 27.1433 119.443 27.0391 118.922 26.8308C118.401 26.6173 117.958 26.323 117.594 25.948C117.234 25.573 116.958 25.1381 116.766 24.6433C116.573 24.1433 116.477 23.6121 116.477 23.0496V22.7371C116.477 22.0964 116.568 21.5105 116.75 20.9792C116.932 20.448 117.193 19.9871 117.531 19.5964C117.875 19.2058 118.292 18.9063 118.781 18.698C119.271 18.4845 119.823 18.3777 120.438 18.3777C121.036 18.3777 121.568 18.4766 122.031 18.6746C122.495 18.8725 122.883 19.1537 123.195 19.5183C123.513 19.8829 123.753 20.3204 123.914 20.8308C124.076 21.336 124.156 21.8985 124.156 22.5183V23.4558H117.438V21.9558H121.945V21.7839C121.945 21.4714 121.888 21.1928 121.773 20.948C121.664 20.698 121.497 20.5001 121.273 20.3542C121.049 20.2084 120.763 20.1355 120.414 20.1355C120.117 20.1355 119.862 20.2006 119.648 20.3308C119.435 20.461 119.26 20.6433 119.125 20.8777C118.995 21.1121 118.896 21.3881 118.828 21.7058C118.766 22.0183 118.734 22.3621 118.734 22.7371V23.0496C118.734 23.3881 118.781 23.7006 118.875 23.9871C118.974 24.2735 119.112 24.5209 119.289 24.7292C119.471 24.9376 119.69 25.099 119.945 25.2136C120.206 25.3282 120.5 25.3855 120.828 25.3855C121.234 25.3855 121.612 25.3074 121.961 25.1511C122.315 24.9897 122.62 24.7475 122.875 24.4246L123.969 25.6121C123.792 25.8673 123.549 26.1121 123.242 26.3464C122.94 26.5808 122.576 26.7735 122.148 26.9246C121.721 27.0704 121.234 27.1433 120.688 27.1433Z" fill="#363740"/>
<g clip-path="url(#clip0_2_882)">
<path d="M276.148 23.448L277.645 18.7996H278.727L276.688 24.4871H275.957L276.148 23.448ZM274.766 18.7996L276.25 23.448L276.453 24.4871H275.719L273.688 18.7996H274.766ZM280.458 20.2605V24.4871H279.513V20.2605H280.458ZM279.45 19.1511C279.45 19.0079 279.497 18.8894 279.591 18.7957C279.687 18.6993 279.82 18.6511 279.99 18.6511C280.156 18.6511 280.288 18.6993 280.384 18.7957C280.48 18.8894 280.529 19.0079 280.529 19.1511C280.529 19.2917 280.48 19.4089 280.384 19.5027C280.288 19.5964 280.156 19.6433 279.99 19.6433C279.82 19.6433 279.687 19.5964 279.591 19.5027C279.497 19.4089 279.45 19.2917 279.45 19.1511ZM283.534 24.5652C283.221 24.5652 282.939 24.5144 282.686 24.4128C282.436 24.3087 282.223 24.1641 282.045 23.9792C281.871 23.7944 281.737 23.5769 281.643 23.3269C281.549 23.0769 281.503 22.8074 281.503 22.5183V22.3621C281.503 22.0313 281.551 21.7319 281.647 21.4636C281.743 21.1954 281.878 20.9662 282.049 20.7761C282.221 20.5834 282.424 20.4363 282.659 20.3347C282.893 20.2332 283.147 20.1824 283.42 20.1824C283.723 20.1824 283.987 20.2332 284.213 20.3347C284.44 20.4363 284.628 20.5795 284.776 20.7644C284.927 20.9467 285.039 21.1641 285.112 21.4167C285.187 21.6694 285.225 21.948 285.225 22.2527V22.655H281.96V21.9792H284.295V21.905C284.29 21.7358 284.256 21.5769 284.194 21.4285C284.134 21.28 284.042 21.1602 283.917 21.0691C283.792 20.9779 283.625 20.9324 283.417 20.9324C283.26 20.9324 283.121 20.9662 282.999 21.0339C282.879 21.099 282.779 21.1941 282.698 21.3191C282.617 21.4441 282.555 21.5951 282.51 21.7722C282.469 21.9467 282.448 22.1433 282.448 22.3621V22.5183C282.448 22.7032 282.473 22.8751 282.522 23.0339C282.574 23.1902 282.65 23.3269 282.749 23.4441C282.848 23.5613 282.967 23.6537 283.108 23.7214C283.249 23.7865 283.409 23.8191 283.588 23.8191C283.815 23.8191 284.017 23.7735 284.194 23.6824C284.371 23.5912 284.525 23.4623 284.655 23.2957L285.151 23.7761C285.06 23.9089 284.941 24.0365 284.795 24.1589C284.65 24.2787 284.471 24.3764 284.26 24.4519C284.052 24.5274 283.81 24.5652 283.534 24.5652ZM287.289 23.5496L288.266 20.2605H288.867L288.703 21.2449L287.719 24.4871H287.18L287.289 23.5496ZM286.715 20.2605L287.476 23.5652L287.539 24.4871H286.937L285.793 20.2605H286.715ZM289.781 23.5261L290.519 20.2605H291.437L290.297 24.4871H289.695L289.781 23.5261ZM288.969 20.2605L289.933 23.5105L290.055 24.4871H289.516L288.519 21.241L288.355 20.2605H288.969ZM294.526 18.7996H296.538C296.97 18.7996 297.338 18.8647 297.643 18.9949C297.948 19.1251 298.181 19.3178 298.342 19.573C298.506 19.8256 298.588 20.1381 298.588 20.5105C298.588 20.7944 298.536 21.0444 298.432 21.2605C298.328 21.4766 298.181 21.6589 297.991 21.8074C297.801 21.9532 297.574 22.0665 297.311 22.1472L297.014 22.2917H295.206L295.198 21.5144H296.553C296.788 21.5144 296.983 21.4727 297.139 21.3894C297.295 21.3061 297.413 21.1928 297.491 21.0496C297.571 20.9037 297.612 20.7397 297.612 20.5574C297.612 20.3595 297.573 20.1876 297.495 20.0417C297.419 19.8933 297.302 19.78 297.143 19.7019C296.984 19.6212 296.782 19.5808 296.538 19.5808H295.506V24.4871H294.526V18.7996ZM297.772 24.4871L296.436 21.9324L297.463 21.9285L298.819 24.4363V24.4871H297.772ZM301.515 24.5652C301.203 24.5652 300.92 24.5144 300.668 24.4128C300.418 24.3087 300.204 24.1641 300.027 23.9792C299.853 23.7944 299.719 23.5769 299.625 23.3269C299.531 23.0769 299.484 22.8074 299.484 22.5183V22.3621C299.484 22.0313 299.532 21.7319 299.629 21.4636C299.725 21.1954 299.859 20.9662 300.031 20.7761C300.203 20.5834 300.406 20.4363 300.64 20.3347C300.875 20.2332 301.129 20.1824 301.402 20.1824C301.704 20.1824 301.969 20.2332 302.195 20.3347C302.422 20.4363 302.609 20.5795 302.758 20.7644C302.909 20.9467 303.021 21.1641 303.094 21.4167C303.169 21.6694 303.207 21.948 303.207 22.2527V22.655H299.941V21.9792H302.277V21.905C302.272 21.7358 302.238 21.5769 302.176 21.4285C302.116 21.28 302.023 21.1602 301.898 21.0691C301.773 20.9779 301.607 20.9324 301.398 20.9324C301.242 20.9324 301.103 20.9662 300.98 21.0339C300.86 21.099 300.76 21.1941 300.679 21.3191C300.599 21.4441 300.536 21.5951 300.492 21.7722C300.45 21.9467 300.429 22.1433 300.429 22.3621V22.5183C300.429 22.7032 300.454 22.8751 300.504 23.0339C300.556 23.1902 300.631 23.3269 300.73 23.4441C300.829 23.5613 300.949 23.6537 301.09 23.7214C301.23 23.7865 301.39 23.8191 301.57 23.8191C301.797 23.8191 301.998 23.7735 302.176 23.6824C302.353 23.5912 302.506 23.4623 302.636 23.2957L303.133 23.7761C303.041 23.9089 302.923 24.0365 302.777 24.1589C302.631 24.2787 302.453 24.3764 302.242 24.4519C302.034 24.5274 301.791 24.5652 301.515 24.5652ZM305.067 21.073V26.1121H304.126V20.2605H304.993L305.067 21.073ZM307.821 22.3347V22.4167C307.821 22.724 307.785 23.0092 307.712 23.2722C307.642 23.5326 307.536 23.7605 307.396 23.9558C307.258 24.1485 307.087 24.2983 306.884 24.405C306.681 24.5118 306.446 24.5652 306.181 24.5652C305.918 24.5652 305.687 24.517 305.489 24.4207C305.294 24.3217 305.129 24.1824 304.993 24.0027C304.858 23.823 304.748 23.6121 304.665 23.3699C304.584 23.1251 304.527 22.8569 304.493 22.5652V22.2488C304.527 21.9389 304.584 21.6576 304.665 21.405C304.748 21.1524 304.858 20.935 304.993 20.7527C305.129 20.5704 305.294 20.4298 305.489 20.3308C305.685 20.2319 305.912 20.1824 306.173 20.1824C306.439 20.1824 306.674 20.2345 306.88 20.3386C307.086 20.4402 307.259 20.586 307.399 20.7761C307.54 20.9636 307.646 21.1902 307.716 21.4558C307.786 21.7188 307.821 22.0118 307.821 22.3347ZM306.88 22.4167V22.3347C306.88 22.1394 306.862 21.9584 306.825 21.7917C306.789 21.6225 306.731 21.474 306.653 21.3464C306.575 21.2188 306.475 21.1199 306.353 21.0496C306.233 20.9766 306.088 20.9402 305.919 20.9402C305.752 20.9402 305.609 20.9688 305.489 21.0261C305.37 21.0808 305.269 21.1576 305.189 21.2566C305.108 21.3556 305.045 21.4714 305.001 21.6042C304.957 21.7345 304.925 21.8764 304.907 22.03V22.7878C304.939 22.9753 304.992 23.1472 305.067 23.3035C305.143 23.4597 305.25 23.5847 305.388 23.6785C305.528 23.7696 305.708 23.8152 305.927 23.8152C306.096 23.8152 306.241 23.7787 306.36 23.7058C306.48 23.6329 306.578 23.5326 306.653 23.405C306.731 23.2748 306.789 23.1251 306.825 22.9558C306.862 22.7865 306.88 22.6069 306.88 22.4167ZM308.623 22.4207V22.3308C308.623 22.0261 308.668 21.7436 308.756 21.4832C308.845 21.2201 308.972 20.9923 309.139 20.7996C309.308 20.6042 309.514 20.4532 309.756 20.3464C310.001 20.2371 310.277 20.1824 310.584 20.1824C310.894 20.1824 311.17 20.2371 311.412 20.3464C311.657 20.4532 311.864 20.6042 312.034 20.7996C312.203 20.9923 312.332 21.2201 312.42 21.4832C312.509 21.7436 312.553 22.0261 312.553 22.3308V22.4207C312.553 22.7253 312.509 23.0079 312.42 23.2683C312.332 23.5287 312.203 23.7566 312.034 23.9519C311.864 24.1446 311.659 24.2957 311.416 24.405C311.174 24.5118 310.899 24.5652 310.592 24.5652C310.282 24.5652 310.005 24.5118 309.76 24.405C309.518 24.2957 309.312 24.1446 309.143 23.9519C308.974 23.7566 308.845 23.5287 308.756 23.2683C308.668 23.0079 308.623 22.7253 308.623 22.4207ZM309.565 22.3308V22.4207C309.565 22.6108 309.584 22.7904 309.623 22.9597C309.662 23.129 309.724 23.2774 309.807 23.405C309.89 23.5326 309.997 23.6329 310.127 23.7058C310.257 23.7787 310.412 23.8152 310.592 23.8152C310.767 23.8152 310.918 23.7787 311.045 23.7058C311.175 23.6329 311.282 23.5326 311.366 23.405C311.449 23.2774 311.51 23.129 311.549 22.9597C311.591 22.7904 311.612 22.6108 311.612 22.4207V22.3308C311.612 22.1433 311.591 21.9662 311.549 21.7996C311.51 21.6303 311.448 21.4806 311.362 21.3503C311.278 21.2201 311.172 21.1186 311.041 21.0457C310.914 20.9701 310.761 20.9324 310.584 20.9324C310.407 20.9324 310.254 20.9701 310.123 21.0457C309.996 21.1186 309.89 21.2201 309.807 21.3503C309.724 21.4806 309.662 21.6303 309.623 21.7996C309.584 21.9662 309.565 22.1433 309.565 22.3308ZM314.468 21.0652V24.4871H313.527V20.2605H314.425L314.468 21.0652ZM315.761 20.2332L315.754 21.1082C315.696 21.0977 315.634 21.0899 315.566 21.0847C315.501 21.0795 315.436 21.0769 315.371 21.0769C315.209 21.0769 315.067 21.1003 314.945 21.1472C314.823 21.1915 314.72 21.2566 314.636 21.3425C314.556 21.4259 314.493 21.5274 314.449 21.6472C314.405 21.767 314.379 21.9011 314.371 22.0496L314.156 22.0652C314.156 21.7996 314.182 21.5535 314.234 21.3269C314.286 21.1003 314.364 20.9011 314.468 20.7292C314.575 20.5574 314.708 20.4233 314.867 20.3269C315.028 20.2306 315.214 20.1824 315.425 20.1824C315.483 20.1824 315.544 20.1876 315.609 20.198C315.677 20.2084 315.727 20.2201 315.761 20.2332ZM318.665 20.2605V20.948H316.282V20.2605H318.665ZM316.97 19.2253H317.911V23.3191C317.911 23.4493 317.929 23.5496 317.966 23.6199C318.005 23.6876 318.058 23.7332 318.126 23.7566C318.194 23.78 318.273 23.7917 318.364 23.7917C318.429 23.7917 318.492 23.7878 318.552 23.78C318.612 23.7722 318.66 23.7644 318.696 23.7566L318.7 24.4753C318.622 24.4988 318.531 24.5196 318.427 24.5378C318.325 24.5561 318.208 24.5652 318.075 24.5652C317.859 24.5652 317.668 24.5274 317.501 24.4519C317.334 24.3738 317.204 24.2475 317.11 24.073C317.017 23.8985 316.97 23.6667 316.97 23.3777V19.2253Z" fill="#979797"/>
<path d="M323.83 21.145L325.513 22.8282L327.196 21.145" stroke="#979797" stroke-width="0.736416" stroke-linecap="round" stroke-linejoin="round"/>
</g>
<path d="M23.623 47.5125L21.377 46.9753L22.1875 39.7683H30.1758V42.0437H24.502L24.1504 45.198C24.3392 45.0873 24.6257 44.9701 25.0098 44.8464C25.3939 44.7162 25.8236 44.6511 26.2988 44.6511C26.9889 44.6511 27.6009 44.7585 28.1348 44.9734C28.6686 45.1882 29.1211 45.5007 29.4922 45.9109C29.8698 46.321 30.1562 46.8223 30.3516 47.4148C30.5469 48.0072 30.6445 48.6778 30.6445 49.4265C30.6445 50.058 30.5469 50.6602 30.3516 51.2332C30.1562 51.7996 29.86 52.3074 29.4629 52.7566C29.0658 53.1993 28.5677 53.5476 27.9688 53.8015C27.3698 54.0554 26.6602 54.1824 25.8398 54.1824C25.2279 54.1824 24.6354 54.0912 24.0625 53.9089C23.4961 53.7266 22.985 53.4565 22.5293 53.0984C22.0801 52.7403 21.7188 52.3074 21.4453 51.7996C21.1784 51.2852 21.0384 50.6993 21.0254 50.0417H23.8184C23.8574 50.4454 23.9616 50.7937 24.1309 51.0867C24.3066 51.3731 24.5378 51.5945 24.8242 51.7507C25.1107 51.907 25.446 51.9851 25.8301 51.9851C26.1882 51.9851 26.4941 51.9167 26.748 51.78C27.002 51.6433 27.207 51.4545 27.3633 51.2136C27.5195 50.9662 27.6335 50.6798 27.7051 50.3542C27.7832 50.0222 27.8223 49.6641 27.8223 49.28C27.8223 48.8959 27.7767 48.5476 27.6855 48.2351C27.5944 47.9226 27.4544 47.6524 27.2656 47.4246C27.0768 47.1967 26.8359 47.0209 26.543 46.8972C26.2565 46.7735 25.9212 46.7117 25.5371 46.7117C25.0163 46.7117 24.6126 46.7931 24.3262 46.9558C24.0462 47.1186 23.8118 47.3041 23.623 47.5125ZM33.2148 52.6296C33.2148 52.213 33.3581 51.8647 33.6445 51.5847C33.9375 51.3048 34.3249 51.1648 34.8066 51.1648C35.2884 51.1648 35.6725 51.3048 35.959 51.5847C36.252 51.8647 36.3984 52.213 36.3984 52.6296C36.3984 53.0463 36.252 53.3946 35.959 53.6746C35.6725 53.9545 35.2884 54.0945 34.8066 54.0945C34.3249 54.0945 33.9375 53.9545 33.6445 53.6746C33.3581 53.3946 33.2148 53.0463 33.2148 52.6296ZM41.9082 47.5125L39.6621 46.9753L40.4727 39.7683H48.4609V42.0437H42.7871L42.4355 45.198C42.6243 45.0873 42.9108 44.9701 43.2949 44.8464C43.679 44.7162 44.1087 44.6511 44.584 44.6511C45.2741 44.6511 45.8861 44.7585 46.4199 44.9734C46.9538 45.1882 47.4062 45.5007 47.7773 45.9109C48.1549 46.321 48.4414 46.8223 48.6367 47.4148C48.832 48.0072 48.9297 48.6778 48.9297 49.4265C48.9297 50.058 48.832 50.6602 48.6367 51.2332C48.4414 51.7996 48.1452 52.3074 47.748 52.7566C47.3509 53.1993 46.8529 53.5476 46.2539 53.8015C45.6549 54.0554 44.9453 54.1824 44.125 54.1824C43.513 54.1824 42.9206 54.0912 42.3477 53.9089C41.7812 53.7266 41.2702 53.4565 40.8145 53.0984C40.3652 52.7403 40.0039 52.3074 39.7305 51.7996C39.4635 51.2852 39.3236 50.6993 39.3105 50.0417H42.1035C42.1426 50.4454 42.2467 50.7937 42.416 51.0867C42.5918 51.3731 42.8229 51.5945 43.1094 51.7507C43.3958 51.907 43.7311 51.9851 44.1152 51.9851C44.4733 51.9851 44.7793 51.9167 45.0332 51.78C45.2871 51.6433 45.4922 51.4545 45.6484 51.2136C45.8047 50.9662 45.9186 50.6798 45.9902 50.3542C46.0684 50.0222 46.1074 49.6641 46.1074 49.28C46.1074 48.8959 46.0618 48.5476 45.9707 48.2351C45.8796 47.9226 45.7396 47.6524 45.5508 47.4246C45.362 47.1967 45.1211 47.0209 44.8281 46.8972C44.5417 46.7735 44.2064 46.7117 43.8223 46.7117C43.3014 46.7117 42.8978 46.7931 42.6113 46.9558C42.3314 47.1186 42.097 47.3041 41.9082 47.5125ZM58.1016 39.739V53.9871H55.2891V42.9812L51.9102 44.0554V41.8386L57.7988 39.739H58.1016ZM66.4531 39.7683V53.9871H63.5234V39.7683H66.4531ZM74.9688 39.7683L69.334 46.7898L66.082 50.2859L65.5547 47.5125L67.752 44.5046L71.375 39.7683H74.9688ZM71.6387 53.9871L67.4492 47.4148L69.6172 45.5984L75.1055 53.9871H71.6387Z" fill="#363740"/>
<path d="M87.6086 51.9871V42.951" stroke="#37CB79" stroke-width="1.5" stroke-linecap="round" stroke-linejoin="round"/>
<path d="M84 45.5446L87.5576 41.987L91.1152 45.5446" stroke="#37CB79" stroke-width="1.5" stroke-linecap="round" stroke-linejoin="round"/>
<path d="M102.508 50.7683V51.9871H96.7304V50.9441L99.5019 47.95C99.791 47.6218 100.019 47.3367 100.187 47.0945C100.355 46.8523 100.475 46.6335 100.545 46.4382C100.619 46.239 100.656 46.0496 100.656 45.8699C100.656 45.6082 100.609 45.3796 100.516 45.1843C100.422 44.9851 100.285 44.8308 100.105 44.7214C99.9296 44.6121 99.7128 44.5574 99.455 44.5574C99.1699 44.5574 98.9257 44.6238 98.7226 44.7566C98.5234 44.8855 98.371 45.0652 98.2656 45.2957C98.164 45.5261 98.1132 45.7898 98.1132 46.0867H96.5605C96.5605 45.5828 96.6777 45.1238 96.912 44.7097C97.1464 44.2917 97.4824 43.9578 97.9199 43.7078C98.3574 43.4578 98.8769 43.3328 99.4785 43.3328C100.064 43.3328 100.56 43.4304 100.967 43.6257C101.373 43.8171 101.682 44.0906 101.893 44.446C102.103 44.8015 102.209 45.2253 102.209 45.7175C102.209 45.991 102.164 46.2605 102.074 46.5261C101.984 46.7917 101.857 47.0554 101.693 47.3171C101.533 47.575 101.342 47.8367 101.119 48.1023C100.896 48.3679 100.648 48.6394 100.375 48.9167L98.7109 50.7683H102.508ZM104.232 51.2312C104.232 50.9968 104.312 50.7996 104.473 50.6394C104.633 50.4792 104.85 50.3992 105.123 50.3992C105.396 50.3992 105.613 50.4792 105.773 50.6394C105.934 50.7996 106.014 50.9968 106.014 51.2312C106.014 51.4617 105.934 51.657 105.773 51.8171C105.613 51.9734 105.396 52.0515 105.123 52.0515C104.85 52.0515 104.633 51.9734 104.473 51.8171C104.312 51.657 104.232 51.4617 104.232 51.2312ZM111.98 43.4324V51.9871H110.428V45.2429L108.371 45.9226V44.6687L111.805 43.4324H111.98ZM115.31 45.5476V45.0964C115.31 44.7722 115.381 44.4773 115.521 44.2117C115.662 43.946 115.867 43.7332 116.137 43.573C116.41 43.4128 116.742 43.3328 117.133 43.3328C117.531 43.3328 117.865 43.4128 118.135 43.573C118.408 43.7332 118.613 43.946 118.75 44.2117C118.891 44.4773 118.961 44.7722 118.961 45.0964V45.5476C118.961 45.864 118.891 46.155 118.75 46.4207C118.613 46.6863 118.41 46.8992 118.141 47.0593C117.871 47.2195 117.539 47.2996 117.144 47.2996C116.75 47.2996 116.416 47.2195 116.143 47.0593C115.869 46.8992 115.662 46.6863 115.521 46.4207C115.381 46.155 115.31 45.864 115.31 45.5476ZM116.359 45.0964V45.5476C116.359 45.696 116.387 45.8367 116.441 45.9695C116.5 46.0984 116.588 46.2039 116.705 46.2859C116.822 46.3679 116.969 46.4089 117.144 46.4089C117.32 46.4089 117.463 46.3679 117.572 46.2859C117.685 46.2039 117.769 46.0984 117.824 45.9695C117.883 45.8367 117.912 45.696 117.912 45.5476V45.0964C117.912 44.9441 117.883 44.8015 117.824 44.6687C117.769 44.5359 117.684 44.4285 117.566 44.3464C117.453 44.2644 117.309 44.2234 117.133 44.2234C116.961 44.2234 116.816 44.2644 116.699 44.3464C116.586 44.4285 116.5 44.5359 116.441 44.6687C116.387 44.8015 116.359 44.9441 116.359 45.0964ZM119.406 50.3464V49.8953C119.406 49.575 119.477 49.282 119.617 49.0164C119.762 48.7507 119.971 48.5378 120.244 48.3777C120.518 48.2175 120.848 48.1375 121.234 48.1375C121.637 48.1375 121.973 48.2175 122.242 48.3777C122.512 48.5378 122.715 48.7507 122.852 49.0164C122.992 49.282 123.062 49.575 123.062 49.8953V50.3464C123.062 50.6667 122.992 50.9597 122.852 51.2253C122.715 51.491 122.512 51.7039 122.242 51.864C121.977 52.0242 121.646 52.1042 121.252 52.1042C120.857 52.1042 120.521 52.0242 120.244 51.864C119.971 51.7039 119.762 51.491 119.617 51.2253C119.477 50.9597 119.406 50.6667 119.406 50.3464ZM120.461 49.8953V50.3464C120.461 50.4988 120.492 50.6414 120.555 50.7742C120.617 50.9031 120.707 51.0085 120.824 51.0906C120.945 51.1726 121.086 51.2136 121.246 51.2136C121.441 51.2136 121.596 51.1726 121.709 51.0906C121.822 51.0085 121.902 50.9031 121.949 50.7742C121.996 50.6414 122.019 50.4988 122.019 50.3464V49.8953C122.019 49.7429 121.99 49.6023 121.932 49.4734C121.873 49.3406 121.785 49.2332 121.668 49.1511C121.555 49.0691 121.41 49.0281 121.234 49.0281C121.062 49.0281 120.918 49.0691 120.801 49.1511C120.687 49.2332 120.602 49.3406 120.543 49.4734C120.488 49.6023 120.461 49.7429 120.461 49.8953ZM121.621 44.6746L117.455 51.3425L116.687 50.9148L120.853 44.2468L121.621 44.6746Z" fill="#37CB79"/>
<path d="M133.09 49.8152L134.566 44.6472H136.184L134.01 50.9871H133.025L133.09 49.8152ZM132.012 44.6472L133.506 49.8269L133.559 50.9871H132.568L130.389 44.6472H132.012ZM140.984 49.2527C140.984 49.1199 140.949 49.0007 140.879 48.8953C140.809 48.7898 140.676 48.6941 140.481 48.6082C140.289 48.5183 140.008 48.4343 139.637 48.3562C139.309 48.2859 139.006 48.198 138.729 48.0925C138.451 47.9871 138.213 47.8601 138.014 47.7117C137.815 47.5593 137.658 47.3816 137.545 47.1785C137.436 46.9714 137.381 46.7332 137.381 46.4636C137.381 46.2019 137.438 45.9558 137.551 45.7253C137.664 45.491 137.828 45.2859 138.043 45.1101C138.258 44.9304 138.52 44.7898 138.828 44.6882C139.137 44.5828 139.484 44.53 139.871 44.53C140.41 44.53 140.873 44.6179 141.26 44.7937C141.65 44.9695 141.949 45.2117 142.156 45.5203C142.363 45.825 142.467 46.1687 142.467 46.5515H140.92C140.92 46.3835 140.881 46.2312 140.803 46.0945C140.729 45.9578 140.613 45.8484 140.457 45.7664C140.301 45.6804 140.104 45.6375 139.865 45.6375C139.65 45.6375 139.469 45.6726 139.32 45.7429C139.176 45.8132 139.066 45.905 138.992 46.0183C138.918 46.1316 138.881 46.2566 138.881 46.3933C138.881 46.4949 138.9 46.5867 138.94 46.6687C138.982 46.7468 139.051 46.8191 139.145 46.8855C139.238 46.9519 139.365 47.0125 139.525 47.0671C139.69 47.1218 139.891 47.1746 140.129 47.2253C140.602 47.3191 141.014 47.4441 141.365 47.6003C141.721 47.7527 141.998 47.9558 142.197 48.2097C142.397 48.4636 142.496 48.7878 142.496 49.1824C142.496 49.4636 142.436 49.7214 142.315 49.9558C142.193 50.1863 142.018 50.3875 141.787 50.5593C141.557 50.7312 141.281 50.866 140.961 50.9636C140.641 51.0574 140.279 51.1042 139.877 51.1042C139.295 51.1042 138.803 51.0007 138.4 50.7937C137.998 50.5828 137.693 50.3171 137.486 49.9968C137.279 49.6726 137.176 49.3367 137.176 48.989H138.658C138.67 49.2351 138.736 49.4324 138.857 49.5808C138.979 49.7292 139.131 49.8367 139.315 49.9031C139.502 49.9656 139.699 49.9968 139.906 49.9968C140.141 49.9968 140.338 49.9656 140.498 49.9031C140.658 49.8367 140.779 49.7488 140.861 49.6394C140.943 49.5261 140.984 49.3972 140.984 49.2527ZM153.193 49.7214V50.9871H148.904V49.7214H153.193ZM149.391 42.4558V50.9871H147.779V42.4558H149.391ZM158.147 49.6394V46.7156C158.147 46.5007 158.109 46.3152 158.035 46.1589C157.961 46.0027 157.848 45.8816 157.695 45.7957C157.543 45.7097 157.35 45.6667 157.115 45.6667C156.908 45.6667 156.727 45.7019 156.57 45.7722C156.418 45.8425 156.301 45.9421 156.219 46.071C156.137 46.196 156.096 46.3406 156.096 46.5046H154.543C154.543 46.2429 154.606 45.9949 154.731 45.7605C154.856 45.5222 155.033 45.3113 155.264 45.1277C155.498 44.9402 155.777 44.7937 156.102 44.6882C156.43 44.5828 156.797 44.53 157.203 44.53C157.684 44.53 158.111 44.6121 158.486 44.7761C158.865 44.9363 159.162 45.1785 159.377 45.5027C159.596 45.8269 159.705 46.2351 159.705 46.7273V49.4929C159.705 49.8093 159.725 50.0808 159.764 50.3074C159.807 50.53 159.869 50.7234 159.951 50.8875V50.9871H158.375C158.301 50.8269 158.244 50.6238 158.205 50.3777C158.166 50.1277 158.147 49.8816 158.147 49.6394ZM158.363 47.1257L158.375 48.0457H157.397C157.154 48.0457 156.941 48.071 156.758 48.1218C156.574 48.1687 156.424 48.239 156.307 48.3328C156.19 48.4226 156.102 48.532 156.043 48.6609C155.984 48.7859 155.955 48.9285 155.955 49.0886C155.955 49.2449 155.99 49.3855 156.061 49.5105C156.135 49.6355 156.24 49.7351 156.377 49.8093C156.518 49.8796 156.682 49.9148 156.869 49.9148C157.143 49.9148 157.381 49.8601 157.584 49.7507C157.787 49.6375 157.945 49.5007 158.059 49.3406C158.172 49.1804 158.232 49.0281 158.24 48.8835L158.686 49.5515C158.631 49.7117 158.549 49.8816 158.44 50.0613C158.33 50.241 158.19 50.4089 158.018 50.5652C157.846 50.7214 157.639 50.8503 157.397 50.9519C157.154 51.0535 156.873 51.1042 156.553 51.1042C156.143 51.1042 155.775 51.0222 155.451 50.8582C155.127 50.6941 154.871 50.4695 154.684 50.1843C154.496 49.8992 154.402 49.575 154.402 49.2117C154.402 48.8757 154.465 48.5789 154.59 48.321C154.715 48.0632 154.9 47.8464 155.147 47.6707C155.393 47.491 155.697 47.3562 156.061 47.2664C156.428 47.1726 156.848 47.1257 157.32 47.1257H158.363ZM165.086 49.2527C165.086 49.1199 165.051 49.0007 164.981 48.8953C164.91 48.7898 164.777 48.6941 164.582 48.6082C164.391 48.5183 164.109 48.4343 163.738 48.3562C163.41 48.2859 163.107 48.198 162.83 48.0925C162.553 47.9871 162.315 47.8601 162.115 47.7117C161.916 47.5593 161.76 47.3816 161.647 47.1785C161.537 46.9714 161.482 46.7332 161.482 46.4636C161.482 46.2019 161.539 45.9558 161.652 45.7253C161.766 45.491 161.93 45.2859 162.145 45.1101C162.359 44.9304 162.621 44.7898 162.93 44.6882C163.238 44.5828 163.586 44.53 163.973 44.53C164.512 44.53 164.975 44.6179 165.361 44.7937C165.752 44.9695 166.051 45.2117 166.258 45.5203C166.465 45.825 166.568 46.1687 166.568 46.5515H165.022C165.022 46.3835 164.982 46.2312 164.904 46.0945C164.83 45.9578 164.715 45.8484 164.559 45.7664C164.402 45.6804 164.205 45.6375 163.967 45.6375C163.752 45.6375 163.57 45.6726 163.422 45.7429C163.277 45.8132 163.168 45.905 163.094 46.0183C163.02 46.1316 162.982 46.2566 162.982 46.3933C162.982 46.4949 163.002 46.5867 163.041 46.6687C163.084 46.7468 163.152 46.8191 163.246 46.8855C163.34 46.9519 163.467 47.0125 163.627 47.0671C163.791 47.1218 163.992 47.1746 164.231 47.2253C164.703 47.3191 165.115 47.4441 165.467 47.6003C165.822 47.7527 166.1 47.9558 166.299 48.2097C166.498 48.4636 166.598 48.7878 166.598 49.1824C166.598 49.4636 166.537 49.7214 166.416 49.9558C166.295 50.1863 166.119 50.3875 165.889 50.5593C165.658 50.7312 165.383 50.866 165.063 50.9636C164.742 51.0574 164.381 51.1042 163.979 51.1042C163.397 51.1042 162.904 51.0007 162.502 50.7937C162.1 50.5828 161.795 50.3171 161.588 49.9968C161.381 49.6726 161.277 49.3367 161.277 48.989H162.76C162.772 49.2351 162.838 49.4324 162.959 49.5808C163.08 49.7292 163.232 49.8367 163.416 49.9031C163.604 49.9656 163.801 49.9968 164.008 49.9968C164.242 49.9968 164.44 49.9656 164.6 49.9031C164.76 49.8367 164.881 49.7488 164.963 49.6394C165.045 49.5261 165.086 49.3972 165.086 49.2527ZM171.275 44.6472V45.7605H167.643V44.6472H171.275ZM168.615 43.0886H170.168V49.1589C170.168 49.3464 170.193 49.491 170.244 49.5925C170.295 49.6941 170.371 49.7625 170.473 49.7976C170.574 49.8328 170.695 49.8503 170.836 49.8503C170.938 49.8503 171.031 49.8445 171.117 49.8328C171.203 49.821 171.275 49.8093 171.334 49.7976L171.34 50.9578C171.211 51.0007 171.065 51.0359 170.9 51.0632C170.74 51.0906 170.559 51.1042 170.356 51.1042C170.008 51.1042 169.703 51.0457 169.441 50.9285C169.18 50.8074 168.977 50.614 168.832 50.3484C168.688 50.0789 168.615 49.7234 168.615 49.282V43.0886ZM178.51 49.3523L180.209 42.4558H181.129L181.188 43.9089L179.371 50.9871H178.398L178.51 49.3523ZM177.438 42.4558L178.832 49.3289V50.9871H177.772L175.838 42.4558H177.438ZM182.951 49.2996L184.322 42.4558H185.928L183.994 50.9871H182.934L182.951 49.2996ZM181.568 42.4558L183.268 49.3757L183.367 50.9871H182.395L180.584 43.9031L180.654 42.4558H181.568ZM189.99 51.1042C189.51 51.1042 189.078 51.0261 188.695 50.8699C188.313 50.7136 187.986 50.4968 187.717 50.2195C187.451 49.9382 187.246 49.6121 187.102 49.241C186.961 48.866 186.891 48.4636 186.891 48.0339V47.7996C186.891 47.3113 186.961 46.8679 187.102 46.4695C187.242 46.0671 187.441 45.7214 187.699 45.4324C187.957 45.1433 188.266 44.9207 188.625 44.7644C188.984 44.6082 189.381 44.53 189.815 44.53C190.264 44.53 190.66 44.6062 191.004 44.7585C191.348 44.907 191.635 45.1179 191.865 45.3914C192.096 45.6648 192.27 45.9929 192.387 46.3757C192.504 46.7546 192.563 47.1746 192.563 47.6355V48.2859H187.594V47.2195H191.039V47.1023C191.031 46.8562 190.984 46.6316 190.898 46.4285C190.813 46.2214 190.68 46.0574 190.5 45.9363C190.32 45.8113 190.088 45.7488 189.803 45.7488C189.572 45.7488 189.371 45.7996 189.199 45.9011C189.031 45.9988 188.891 46.1394 188.777 46.323C188.668 46.5027 188.586 46.7175 188.531 46.9675C188.477 47.2175 188.449 47.4949 188.449 47.7996V48.0339C188.449 48.2996 188.484 48.5457 188.555 48.7722C188.629 48.9988 188.736 49.196 188.877 49.364C189.022 49.5281 189.193 49.657 189.393 49.7507C189.596 49.8406 189.826 49.8855 190.084 49.8855C190.408 49.8855 190.701 49.823 190.963 49.698C191.229 49.5691 191.459 49.3796 191.654 49.1296L192.434 49.9382C192.301 50.1335 192.121 50.321 191.895 50.5007C191.672 50.6804 191.402 50.8269 191.086 50.9402C190.77 51.0496 190.404 51.1042 189.99 51.1042ZM196.947 51.1042C196.467 51.1042 196.035 51.0261 195.652 50.8699C195.27 50.7136 194.943 50.4968 194.674 50.2195C194.408 49.9382 194.203 49.6121 194.059 49.241C193.918 48.866 193.848 48.4636 193.848 48.0339V47.7996C193.848 47.3113 193.918 46.8679 194.059 46.4695C194.199 46.0671 194.398 45.7214 194.656 45.4324C194.914 45.1433 195.223 44.9207 195.582 44.7644C195.941 44.6082 196.338 44.53 196.772 44.53C197.221 44.53 197.617 44.6062 197.961 44.7585C198.305 44.907 198.592 45.1179 198.822 45.3914C199.053 45.6648 199.227 45.9929 199.344 46.3757C199.461 46.7546 199.52 47.1746 199.52 47.6355V48.2859H194.551V47.2195H197.996V47.1023C197.988 46.8562 197.941 46.6316 197.856 46.4285C197.77 46.2214 197.637 46.0574 197.457 45.9363C197.277 45.8113 197.045 45.7488 196.76 45.7488C196.529 45.7488 196.328 45.7996 196.156 45.9011C195.988 45.9988 195.848 46.1394 195.734 46.323C195.625 46.5027 195.543 46.7175 195.488 46.9675C195.434 47.2175 195.406 47.4949 195.406 47.7996V48.0339C195.406 48.2996 195.441 48.5457 195.512 48.7722C195.586 48.9988 195.693 49.196 195.834 49.364C195.979 49.5281 196.15 49.657 196.35 49.7507C196.553 49.8406 196.783 49.8855 197.041 49.8855C197.365 49.8855 197.658 49.823 197.92 49.698C198.186 49.5691 198.416 49.3796 198.611 49.1296L199.391 49.9382C199.258 50.1335 199.078 50.321 198.852 50.5007C198.629 50.6804 198.359 50.8269 198.043 50.9402C197.727 51.0496 197.361 51.1042 196.947 51.1042ZM202.604 41.9812V50.9871H201.057V41.9812H202.604ZM206.576 44.6472L203.816 47.7468L202.322 49.2644L201.83 48.0632L202.984 46.6101L204.707 44.6472H206.576ZM204.994 50.9871L203.031 48.0339L204.063 47.032L206.787 50.9871H204.994Z" fill="#979797"/>
<path d="M20 163.605H342.529" stroke="#DBDADE" stroke-width="0.647493" stroke-dasharray="1.94 3.88"/>
<path d="M20 114.987H342.529" stroke="#DBDADE" stroke-width="0.647493" stroke-dasharray="1.94 3.88"/>
<path d="M20 212.222H342.529" stroke="#DBDADE" stroke-width="0.647493" stroke-dasharray="1.94 3.88"/>
<path d="M20 260.841L343.5 261.026" stroke="#DBDADE" stroke-width="0.647493"/>
<path opacity="0.5" d="M28.6233 276.367C28.6233 275.55 28.7563 274.914 29.0222 274.458C29.2881 273.997 29.7534 273.767 30.4182 273.767C31.0782 273.767 31.5411 273.997 31.807 274.458C32.0729 274.914 32.2059 275.55 32.2059 276.367C32.2059 277.198 32.0729 277.843 31.807 278.304C31.5411 278.765 31.0782 278.995 30.4182 278.995C29.7534 278.995 29.2881 278.765 29.0222 278.304C28.7563 277.843 28.6233 277.198 28.6233 276.367ZM31.5649 276.367C31.5649 275.954 31.5364 275.605 31.4794 275.32C31.4272 275.03 31.3156 274.797 31.1446 274.622C30.9785 274.446 30.7363 274.358 30.4182 274.358C30.0953 274.358 29.8484 274.446 29.6774 274.622C29.5112 274.797 29.3997 275.03 29.3427 275.32C29.2904 275.605 29.2643 275.954 29.2643 276.367C29.2643 276.794 29.2904 277.153 29.3427 277.442C29.3997 277.732 29.5112 277.964 29.6774 278.14C29.8484 278.316 30.0953 278.404 30.4182 278.404C30.7363 278.404 30.9785 278.316 31.1446 278.14C31.3156 277.964 31.4272 277.732 31.4794 277.442C31.5364 277.153 31.5649 276.794 31.5649 276.367ZM33.2485 274.437V273.845H34.5875V278.995H33.9322V274.437H33.2485Z" fill="#6F6B7D"/>
<path d="M25.032 151.45H30.0642V260.84H25.032V151.45Z" fill="#7367F0"/>
<path d="M33.837 200.068H38.8692V260.841H33.837V200.068Z" fill="#FFE600"/>
<path opacity="0.5" d="M246.918 276.367C246.918 275.55 247.05 274.914 247.316 274.458C247.582 273.997 248.048 273.767 248.712 273.767C249.372 273.767 249.835 273.997 250.101 274.458C250.367 274.914 250.5 275.55 250.5 276.367C250.5 277.198 250.367 277.843 250.101 278.304C249.835 278.765 249.372 278.995 248.712 278.995C248.048 278.995 247.582 278.765 247.316 278.304C247.05 277.843 246.918 277.198 246.918 276.367ZM249.859 276.367C249.859 275.954 249.831 275.605 249.774 275.32C249.721 275.03 249.61 274.797 249.439 274.622C249.273 274.446 249.03 274.358 248.712 274.358C248.389 274.358 248.143 274.446 247.972 274.622C247.805 274.797 247.694 275.03 247.637 275.32C247.585 275.605 247.559 275.954 247.559 276.367C247.559 276.794 247.585 277.153 247.637 277.442C247.694 277.732 247.805 277.964 247.972 278.14C248.143 278.316 248.389 278.404 248.712 278.404C249.03 278.404 249.273 278.316 249.439 278.14C249.61 277.964 249.721 277.732 249.774 277.442C249.831 277.153 249.859 276.794 249.859 276.367ZM254.883 274.351L252.903 278.995H252.248L254.256 274.415H251.507V273.86H254.883V274.351Z" fill="#6F6B7D"/>
<path d="M243.93 151.45H248.963V260.84H243.93V151.45Z" fill="#7367F0"/>
<path d="M252.736 200.068H257.768V260.841H252.736V200.068Z" fill="#FFE600"/>
<path opacity="0.5" d="M66.6074 276.368C66.6074 275.551 66.7403 274.915 67.0062 274.459C67.2721 273.998 67.7374 273.768 68.4022 273.768C69.0622 273.768 69.5252 273.998 69.7911 274.459C70.057 274.915 70.1899 275.551 70.1899 276.368C70.1899 277.199 70.057 277.844 69.7911 278.305C69.5252 278.766 69.0622 278.996 68.4022 278.996C67.7374 278.996 67.2721 278.766 67.0062 278.305C66.7403 277.844 66.6074 277.199 66.6074 276.368ZM69.5489 276.368C69.5489 275.955 69.5204 275.606 69.4634 275.321C69.4112 275.031 69.2996 274.798 69.1287 274.623C68.9625 274.447 68.7203 274.359 68.4022 274.359C68.0793 274.359 67.8324 274.447 67.6615 274.623C67.4953 274.798 67.3837 275.031 67.3267 275.321C67.2745 275.606 67.2484 275.955 67.2484 276.368C67.2484 276.795 67.2745 277.154 67.3267 277.443C67.3837 277.733 67.4953 277.965 67.6615 278.141C67.8324 278.317 68.0793 278.405 68.4022 278.405C68.7203 278.405 68.9625 278.317 69.1287 278.141C69.2996 277.965 69.4112 277.733 69.4634 277.443C69.5204 277.154 69.5489 276.795 69.5489 276.368ZM66.7168 285.476C67.3198 284.992 67.7923 284.595 68.1342 284.286C68.476 283.973 68.7633 283.648 68.996 283.311C69.2334 282.969 69.3521 282.634 69.3521 282.306C69.3521 281.998 69.2761 281.756 69.1242 281.58C68.977 281.4 68.7372 281.309 68.4048 281.309C68.0819 281.309 67.8303 281.411 67.6498 281.616C67.4742 281.815 67.3792 282.083 67.3649 282.42H66.7382C66.7572 281.889 66.9186 281.478 67.2225 281.188C67.5264 280.899 67.9181 280.754 68.3977 280.754C68.8868 280.754 69.2738 280.889 69.5587 281.16C69.8483 281.43 69.9931 281.803 69.9931 282.278C69.9931 282.672 69.8744 283.057 69.637 283.432C69.4043 283.802 69.1384 284.13 68.8393 284.415C68.5401 284.695 68.1579 285.022 67.6926 285.398H70.1427V285.939H66.7168V285.476Z" fill="#6F6B7D"/>
<path d="M61.5143 175.76H66.5465V260.841H61.5143V175.76Z" fill="#7367F0"/>
<path d="M70.3212 151.451H75.3533V260.841H70.3212V151.451Z" fill="#FFE600"/>
<path opacity="0.5" d="M282.613 276.367C282.613 275.55 282.746 274.914 283.012 274.458C283.278 273.997 283.744 273.767 284.408 273.767C285.068 273.767 285.531 273.997 285.797 274.458C286.063 274.914 286.196 275.55 286.196 276.367C286.196 277.198 286.063 277.843 285.797 278.304C285.531 278.765 285.068 278.995 284.408 278.995C283.744 278.995 283.278 278.765 283.012 278.304C282.746 277.843 282.613 277.198 282.613 276.367ZM285.555 276.367C285.555 275.954 285.527 275.605 285.47 275.32C285.417 275.03 285.306 274.797 285.135 274.622C284.969 274.446 284.726 274.358 284.408 274.358C284.085 274.358 283.839 274.446 283.668 274.622C283.501 274.797 283.39 275.03 283.333 275.32C283.281 275.605 283.255 275.954 283.255 276.367C283.255 276.794 283.281 277.153 283.333 277.442C283.39 277.732 283.501 277.964 283.668 278.14C283.839 278.316 284.085 278.404 284.408 278.404C284.726 278.404 284.969 278.316 285.135 278.14C285.306 277.964 285.417 277.732 285.47 277.442C285.527 277.153 285.555 276.794 285.555 276.367ZM288.35 276.317C288.084 276.212 287.88 276.06 287.737 275.861C287.595 275.662 287.524 275.419 287.524 275.135C287.524 274.878 287.588 274.648 287.716 274.444C287.844 274.235 288.034 274.071 288.286 273.952C288.542 273.829 288.851 273.767 289.212 273.767C289.572 273.767 289.879 273.829 290.13 273.952C290.387 274.071 290.579 274.235 290.707 274.444C290.84 274.648 290.907 274.878 290.907 275.135C290.907 275.41 290.833 275.652 290.686 275.861C290.539 276.065 290.337 276.217 290.081 276.317C290.375 276.407 290.608 276.566 290.779 276.794C290.954 277.017 291.042 277.288 291.042 277.606C291.042 277.915 290.966 278.185 290.814 278.418C290.662 278.646 290.446 278.824 290.166 278.952C289.891 279.076 289.572 279.137 289.212 279.137C288.851 279.137 288.533 279.076 288.257 278.952C287.987 278.824 287.775 278.646 287.623 278.418C287.471 278.185 287.395 277.915 287.395 277.606C287.395 277.288 287.481 277.015 287.652 276.787C287.823 276.559 288.055 276.402 288.35 276.317ZM290.28 275.213C290.28 274.923 290.185 274.7 289.995 274.543C289.805 274.387 289.544 274.308 289.212 274.308C288.884 274.308 288.625 274.387 288.435 274.543C288.245 274.7 288.15 274.926 288.15 275.22C288.15 275.486 288.248 275.7 288.442 275.861C288.642 276.022 288.898 276.103 289.212 276.103C289.53 276.103 289.786 276.022 289.981 275.861C290.18 275.695 290.28 275.479 290.28 275.213ZM289.212 276.602C288.86 276.602 288.573 276.685 288.35 276.851C288.127 277.012 288.015 277.257 288.015 277.585C288.015 277.889 288.122 278.133 288.336 278.318C288.554 278.503 288.846 278.596 289.212 278.596C289.577 278.596 289.867 278.503 290.081 278.318C290.294 278.133 290.401 277.889 290.401 277.585C290.401 277.266 290.292 277.024 290.073 276.858C289.855 276.687 289.568 276.602 289.212 276.602Z" fill="#6F6B7D"/>
<path d="M280.415 175.76H285.447V260.841H280.415V175.76Z" fill="#7367F0"/>
<path d="M289.22 151.45H294.253V260.84H289.22V151.45Z" fill="#FFE600"/>
<path opacity="0.5" d="M103.091 276.368C103.091 275.551 103.224 274.915 103.49 274.459C103.756 273.998 104.221 273.768 104.886 273.768C105.546 273.768 106.009 273.998 106.275 274.459C106.541 274.915 106.674 275.551 106.674 276.368C106.674 277.199 106.541 277.844 106.275 278.305C106.009 278.766 105.546 278.996 104.886 278.996C104.221 278.996 103.756 278.766 103.49 278.305C103.224 277.844 103.091 277.199 103.091 276.368ZM106.033 276.368C106.033 275.955 106.004 275.606 105.947 275.321C105.895 275.031 105.783 274.798 105.612 274.623C105.446 274.447 105.204 274.359 104.886 274.359C104.563 274.359 104.316 274.447 104.145 274.623C103.979 274.798 103.867 275.031 103.81 275.321C103.758 275.606 103.732 275.955 103.732 276.368C103.732 276.795 103.758 277.154 103.81 277.443C103.867 277.733 103.979 277.965 104.145 278.141C104.316 278.317 104.563 278.405 104.886 278.405C105.204 278.405 105.446 278.317 105.612 278.141C105.783 277.965 105.895 277.733 105.947 277.443C106.004 277.154 106.033 276.795 106.033 276.368ZM103.216 282.143C103.249 281.706 103.418 281.364 103.722 281.117C104.025 280.87 104.42 280.747 104.904 280.747C105.227 280.747 105.505 280.806 105.737 280.925C105.975 281.039 106.153 281.195 106.271 281.395C106.395 281.594 106.457 281.82 106.457 282.071C106.457 282.366 106.371 282.62 106.2 282.833C106.034 283.047 105.816 283.185 105.545 283.247V283.282C105.854 283.358 106.098 283.508 106.279 283.731C106.459 283.954 106.549 284.246 106.549 284.607C106.549 284.878 106.487 285.122 106.364 285.341C106.241 285.554 106.055 285.723 105.808 285.846C105.562 285.97 105.265 286.031 104.918 286.031C104.415 286.031 104.002 285.901 103.679 285.64C103.356 285.374 103.176 284.999 103.138 284.514H103.764C103.798 284.799 103.914 285.032 104.113 285.212C104.313 285.393 104.579 285.483 104.911 285.483C105.243 285.483 105.495 285.398 105.666 285.227C105.842 285.051 105.93 284.825 105.93 284.55C105.93 284.194 105.811 283.937 105.573 283.781C105.336 283.624 104.977 283.546 104.498 283.546H104.334V283.004H104.505C104.942 283 105.272 282.928 105.495 282.791C105.718 282.648 105.83 282.43 105.83 282.135C105.83 281.884 105.747 281.682 105.581 281.53C105.419 281.378 105.186 281.302 104.883 281.302C104.588 281.302 104.351 281.378 104.17 281.53C103.99 281.682 103.883 281.886 103.85 282.143H103.216Z" fill="#6F6B7D"/>
<path d="M97.9977 163.605H103.03V260.841H97.9977V163.605Z" fill="#7367F0"/>
<path d="M106.803 212.223H111.835V260.841H106.803V212.223Z" fill="#FFE600"/>
<path opacity="0.5" d="M319.101 276.368C319.101 275.551 319.234 274.915 319.5 274.459C319.766 273.998 320.231 273.768 320.896 273.768C321.556 273.768 322.019 273.998 322.285 274.459C322.551 274.915 322.684 275.551 322.684 276.368C322.684 277.199 322.551 277.844 322.285 278.305C322.019 278.766 321.556 278.996 320.896 278.996C320.231 278.996 319.766 278.766 319.5 278.305C319.234 277.844 319.101 277.199 319.101 276.368ZM322.043 276.368C322.043 275.955 322.014 275.606 321.957 275.321C321.905 275.031 321.793 274.798 321.622 274.623C321.456 274.447 321.214 274.359 320.896 274.359C320.573 274.359 320.326 274.447 320.155 274.623C319.989 274.798 319.877 275.031 319.82 275.321C319.768 275.606 319.742 275.955 319.742 276.368C319.742 276.795 319.768 277.154 319.82 277.443C319.877 277.733 319.989 277.965 320.155 278.141C320.326 278.317 320.573 278.405 320.896 278.405C321.214 278.405 321.456 278.317 321.622 278.141C321.793 277.965 321.905 277.733 321.957 277.443C322.014 277.154 322.043 276.795 322.043 276.368ZM324.731 277.614C324.778 277.885 324.887 278.094 325.058 278.241C325.234 278.388 325.469 278.462 325.763 278.462C326.157 278.462 326.447 278.307 326.632 277.999C326.822 277.69 326.912 277.17 326.903 276.439C326.803 276.653 326.637 276.821 326.404 276.945C326.172 277.063 325.913 277.123 325.628 277.123C325.31 277.123 325.025 277.059 324.773 276.93C324.526 276.797 324.332 276.605 324.189 276.353C324.047 276.102 323.976 275.798 323.976 275.442C323.976 274.934 324.123 274.525 324.417 274.217C324.712 273.903 325.129 273.747 325.671 273.747C326.335 273.747 326.801 273.963 327.067 274.395C327.337 274.827 327.473 275.47 327.473 276.325C327.473 276.923 327.418 277.417 327.309 277.806C327.204 278.196 327.024 278.493 326.768 278.697C326.516 278.901 326.169 279.003 325.728 279.003C325.243 279.003 324.866 278.872 324.595 278.611C324.325 278.35 324.17 278.018 324.132 277.614H324.731ZM325.735 276.574C326.053 276.574 326.314 276.477 326.518 276.282C326.722 276.083 326.825 275.815 326.825 275.477C326.825 275.121 326.725 274.834 326.525 274.616C326.326 274.397 326.046 274.288 325.685 274.288C325.353 274.288 325.087 274.392 324.887 274.601C324.693 274.81 324.595 275.086 324.595 275.428C324.595 275.774 324.693 276.052 324.887 276.261C325.082 276.47 325.364 276.574 325.735 276.574Z" fill="#6F6B7D"/>
<path d="M316.898 163.605H321.93V260.841H316.898V163.605Z" fill="#7367F0"/>
<path d="M325.705 212.223H330.737V260.841H325.705V212.223Z" fill="#FFE600"/>
<path opacity="0.5" d="M136.687 276.368C136.687 275.551 136.82 274.915 137.086 274.459C137.352 273.998 137.817 273.768 138.482 273.768C139.142 273.768 139.605 273.998 139.871 274.459C140.137 274.915 140.269 275.551 140.269 276.368C140.269 277.199 140.137 277.844 139.871 278.305C139.605 278.766 139.142 278.996 138.482 278.996C137.817 278.996 137.352 278.766 137.086 278.305C136.82 277.844 136.687 277.199 136.687 276.368ZM139.628 276.368C139.628 275.955 139.6 275.606 139.543 275.321C139.491 275.031 139.379 274.798 139.208 274.623C139.042 274.447 138.8 274.359 138.482 274.359C138.159 274.359 137.912 274.447 137.741 274.623C137.575 274.798 137.463 275.031 137.406 275.321C137.354 275.606 137.328 275.955 137.328 276.368C137.328 276.795 137.354 277.154 137.406 277.443C137.463 277.733 137.575 277.965 137.741 278.141C137.912 278.317 138.159 278.405 138.482 278.405C138.8 278.405 139.042 278.317 139.208 278.141C139.379 277.965 139.491 277.733 139.543 277.443C139.6 277.154 139.628 276.795 139.628 276.368ZM141.326 277.849V277.358L143.826 273.896H144.603V277.286H145.315V277.849H144.603V278.996H143.962V277.849H141.326ZM143.99 274.573L142.074 277.286H143.99V274.573Z" fill="#6F6B7D"/>
<path d="M134.482 187.915H139.514V260.842H134.482V187.915Z" fill="#7367F0"/>
<path d="M143.287 163.605H148.319V260.841H143.287V163.605Z" fill="#FFE600"/>
<path opacity="0.5" d="M173.174 276.367C173.174 275.55 173.307 274.914 173.573 274.458C173.839 273.997 174.304 273.767 174.969 273.767C175.629 273.767 176.092 273.997 176.358 274.458C176.624 274.914 176.757 275.55 176.757 276.367C176.757 277.198 176.624 277.843 176.358 278.304C176.092 278.765 175.629 278.995 174.969 278.995C174.304 278.995 173.839 278.765 173.573 278.304C173.307 277.843 173.174 277.198 173.174 276.367ZM176.116 276.367C176.116 275.954 176.087 275.605 176.03 275.32C175.978 275.03 175.866 274.797 175.695 274.622C175.529 274.446 175.287 274.358 174.969 274.358C174.646 274.358 174.399 274.446 174.228 274.622C174.062 274.797 173.95 275.03 173.893 275.32C173.841 275.605 173.815 275.954 173.815 276.367C173.815 276.794 173.841 277.153 173.893 277.442C173.95 277.732 174.062 277.964 174.228 278.14C174.399 278.316 174.646 278.404 174.969 278.404C175.287 278.404 175.529 278.316 175.695 278.14C175.866 277.964 175.978 277.732 176.03 277.442C176.087 277.153 176.116 276.794 176.116 276.367ZM181.254 274.408H178.754V276.032C178.863 275.88 179.024 275.757 179.238 275.662C179.452 275.562 179.682 275.512 179.929 275.512C180.323 275.512 180.643 275.595 180.89 275.761C181.137 275.923 181.313 276.134 181.417 276.395C181.527 276.652 181.581 276.925 181.581 277.214C181.581 277.556 181.517 277.862 181.389 278.133C181.261 278.404 181.064 278.617 180.798 278.774C180.537 278.931 180.211 279.009 179.822 279.009C179.323 279.009 178.92 278.881 178.611 278.625C178.302 278.368 178.115 278.026 178.048 277.599H178.682C178.744 277.87 178.875 278.081 179.074 278.233C179.274 278.385 179.525 278.461 179.829 278.461C180.204 278.461 180.487 278.349 180.677 278.126C180.867 277.898 180.962 277.599 180.962 277.229C180.962 276.858 180.867 276.573 180.677 276.374C180.487 276.17 180.207 276.068 179.836 276.068C179.585 276.068 179.364 276.129 179.174 276.253C178.989 276.371 178.853 276.535 178.768 276.744H178.155V273.838H181.254V274.408Z" fill="#6F6B7D"/>
<path d="M170.965 139.296H175.997V260.841H170.965V139.296Z" fill="#7367F0"/>
<path d="M179.771 175.76H184.803V260.841H179.771V175.76Z" fill="#FFE600"/>
<path opacity="0.5" d="M209.632 276.368C209.632 275.551 209.765 274.915 210.031 274.459C210.297 273.998 210.762 273.768 211.427 273.768C212.087 273.768 212.55 273.998 212.816 274.459C213.082 274.915 213.215 275.551 213.215 276.368C213.215 277.199 213.082 277.844 212.816 278.305C212.55 278.766 212.087 278.996 211.427 278.996C210.762 278.996 210.297 278.766 210.031 278.305C209.765 277.844 209.632 277.199 209.632 276.368ZM212.574 276.368C212.574 275.955 212.545 275.606 212.488 275.321C212.436 275.031 212.325 274.798 212.154 274.623C211.987 274.447 211.745 274.359 211.427 274.359C211.104 274.359 210.857 274.447 210.686 274.623C210.52 274.798 210.409 275.031 210.352 275.321C210.299 275.606 210.273 275.955 210.273 276.368C210.273 276.795 210.299 277.154 210.352 277.443C210.409 277.733 210.52 277.965 210.686 278.141C210.857 278.317 211.104 278.405 211.427 278.405C211.745 278.405 211.987 278.317 212.154 278.141C212.325 277.965 212.436 277.733 212.488 277.443C212.545 277.154 212.574 276.795 212.574 276.368ZM217.299 275.071C217.194 274.544 216.869 274.281 216.323 274.281C215.9 274.281 215.585 274.445 215.376 274.772C215.167 275.095 215.065 275.629 215.069 276.375C215.179 276.128 215.359 275.936 215.611 275.798C215.867 275.655 216.152 275.584 216.465 275.584C216.954 275.584 217.344 275.736 217.633 276.04C217.928 276.344 218.075 276.764 218.075 277.301C218.075 277.624 218.011 277.913 217.883 278.17C217.759 278.426 217.569 278.63 217.313 278.782C217.061 278.934 216.755 279.01 216.394 279.01C215.905 279.01 215.523 278.901 215.247 278.682C214.972 278.464 214.78 278.163 214.671 277.778C214.561 277.393 214.507 276.918 214.507 276.353C214.507 274.611 215.114 273.74 216.33 273.74C216.795 273.74 217.161 273.865 217.427 274.117C217.693 274.369 217.849 274.687 217.897 275.071H217.299ZM216.33 276.133C216.126 276.133 215.934 276.175 215.753 276.261C215.573 276.342 215.425 276.467 215.312 276.638C215.202 276.805 215.148 277.009 215.148 277.251C215.148 277.612 215.252 277.906 215.461 278.134C215.67 278.357 215.969 278.469 216.359 278.469C216.691 278.469 216.954 278.367 217.149 278.163C217.349 277.954 217.448 277.673 217.448 277.322C217.448 276.952 217.353 276.662 217.163 276.453C216.973 276.239 216.696 276.133 216.33 276.133Z" fill="#6F6B7D"/>
<path d="M207.448 127.141H212.48V260.841H207.448V127.141Z" fill="#7367F0"/>
<path d="M216.253 200.068H221.285V260.841H216.253V200.068Z" fill="#FFE600"/>
<circle cx="24.5" cy="306.513" r="4.5" fill="#7367F0"/>
<path opacity="0.7" d="M41.1426 301.482V310.013H40.0293V301.482H41.1426ZM43.8848 301.482V302.407H37.293V301.482H43.8848ZM46.5703 301.013V310.013H45.4863V301.013H46.5703ZM46.3125 306.603L45.8613 306.585C45.8652 306.152 45.9297 305.751 46.0547 305.384C46.1797 305.013 46.3555 304.691 46.582 304.417C46.8086 304.144 47.0781 303.933 47.3906 303.784C47.707 303.632 48.0566 303.556 48.4395 303.556C48.752 303.556 49.0332 303.599 49.2832 303.685C49.5332 303.767 49.7461 303.9 49.9219 304.083C50.1016 304.267 50.2383 304.505 50.332 304.798C50.4258 305.087 50.4727 305.441 50.4727 305.859V310.013H49.3828V305.847C49.3828 305.515 49.334 305.249 49.2363 305.05C49.1387 304.847 48.9961 304.7 48.8086 304.611C48.6211 304.517 48.3906 304.47 48.1172 304.47C47.8477 304.47 47.6016 304.527 47.3789 304.64C47.1602 304.753 46.9707 304.909 46.8105 305.109C46.6543 305.308 46.5312 305.536 46.4414 305.794C46.3555 306.048 46.3125 306.318 46.3125 306.603ZM53.7734 303.673V310.013H52.6836V303.673H53.7734ZM52.6016 301.991C52.6016 301.816 52.6543 301.667 52.7598 301.546C52.8691 301.425 53.0293 301.365 53.2402 301.365C53.4473 301.365 53.6055 301.425 53.7148 301.546C53.8281 301.667 53.8848 301.816 53.8848 301.991C53.8848 302.159 53.8281 302.304 53.7148 302.425C53.6055 302.542 53.4473 302.601 53.2402 302.601C53.0293 302.601 52.8691 302.542 52.7598 302.425C52.6543 302.304 52.6016 302.159 52.6016 301.991ZM59.7051 308.331C59.7051 308.175 59.6699 308.031 59.5996 307.898C59.5332 307.761 59.3945 307.638 59.1836 307.529C58.9766 307.415 58.6641 307.318 58.2461 307.236C57.8945 307.161 57.5762 307.073 57.291 306.972C57.0098 306.87 56.7695 306.747 56.5703 306.603C56.375 306.458 56.2246 306.288 56.1191 306.093C56.0137 305.898 55.9609 305.669 55.9609 305.407C55.9609 305.157 56.0156 304.921 56.125 304.698C56.2383 304.476 56.3965 304.279 56.5996 304.107C56.8066 303.935 57.0547 303.8 57.3438 303.702C57.6328 303.605 57.9551 303.556 58.3105 303.556C58.8184 303.556 59.252 303.646 59.6113 303.825C59.9707 304.005 60.2461 304.245 60.4375 304.546C60.6289 304.843 60.7246 305.173 60.7246 305.536H59.6406C59.6406 305.361 59.5879 305.191 59.4824 305.027C59.3809 304.859 59.2305 304.72 59.0312 304.611C58.8359 304.501 58.5957 304.447 58.3105 304.447C58.0098 304.447 57.7656 304.493 57.5781 304.587C57.3945 304.677 57.2598 304.792 57.1738 304.933C57.0918 305.073 57.0508 305.222 57.0508 305.378C57.0508 305.495 57.0703 305.601 57.1094 305.695C57.1523 305.784 57.2266 305.868 57.332 305.947C57.4375 306.021 57.5859 306.091 57.7773 306.157C57.9688 306.224 58.2129 306.29 58.5098 306.357C59.0293 306.474 59.457 306.615 59.793 306.779C60.1289 306.943 60.3789 307.144 60.543 307.382C60.707 307.62 60.7891 307.909 60.7891 308.249C60.7891 308.527 60.7305 308.781 60.6133 309.011C60.5 309.241 60.334 309.441 60.1152 309.609C59.9004 309.773 59.6426 309.902 59.3418 309.995C59.0449 310.085 58.7109 310.13 58.3398 310.13C57.7812 310.13 57.3086 310.031 56.9219 309.831C56.5352 309.632 56.2422 309.374 56.043 309.058C55.8438 308.741 55.7441 308.407 55.7441 308.056H56.834C56.8496 308.353 56.9355 308.589 57.0918 308.765C57.248 308.937 57.4395 309.06 57.666 309.134C57.8926 309.204 58.1172 309.24 58.3398 309.24C58.6367 309.24 58.8848 309.2 59.084 309.122C59.2871 309.044 59.4414 308.937 59.5469 308.8C59.6523 308.663 59.7051 308.507 59.7051 308.331ZM67.7949 308.888L69.4238 303.673H70.1387L69.998 304.71L68.3398 310.013H67.6426L67.7949 308.888ZM66.6992 303.673L68.0879 308.947L68.1875 310.013H67.4551L65.6152 303.673H66.6992ZM71.6973 308.906L73.0215 303.673H74.0996L72.2598 310.013H71.5332L71.6973 308.906ZM70.2969 303.673L71.8906 308.8L72.0723 310.013H71.3809L69.6758 304.698L69.5352 303.673H70.2969ZM78.3438 310.13C77.9023 310.13 77.502 310.056 77.1426 309.907C76.7871 309.755 76.4805 309.542 76.2227 309.269C75.9688 308.995 75.7734 308.671 75.6367 308.296C75.5 307.921 75.4316 307.511 75.4316 307.066V306.82C75.4316 306.304 75.5078 305.845 75.6602 305.443C75.8125 305.036 76.0195 304.693 76.2812 304.411C76.543 304.13 76.8398 303.917 77.1719 303.773C77.5039 303.628 77.8477 303.556 78.2031 303.556C78.6562 303.556 79.0469 303.634 79.375 303.79C79.707 303.947 79.9785 304.165 80.1895 304.447C80.4004 304.724 80.5566 305.052 80.6582 305.431C80.7598 305.806 80.8105 306.216 80.8105 306.661V307.148H76.0762V306.263H79.7266V306.181C79.7109 305.9 79.6523 305.626 79.5508 305.361C79.4531 305.095 79.2969 304.876 79.082 304.704C78.8672 304.532 78.5742 304.447 78.2031 304.447C77.957 304.447 77.7305 304.499 77.5234 304.605C77.3164 304.706 77.1387 304.859 76.9902 305.062C76.8418 305.265 76.7266 305.513 76.6445 305.806C76.5625 306.099 76.5215 306.437 76.5215 306.82V307.066C76.5215 307.366 76.5625 307.65 76.6445 307.915C76.7305 308.177 76.8535 308.407 77.0137 308.607C77.1777 308.806 77.375 308.962 77.6055 309.075C77.8398 309.189 78.1055 309.245 78.4023 309.245C78.7852 309.245 79.1094 309.167 79.375 309.011C79.6406 308.855 79.873 308.646 80.0723 308.384L80.7285 308.906C80.5918 309.113 80.418 309.31 80.207 309.497C79.9961 309.685 79.7363 309.837 79.4277 309.954C79.123 310.072 78.7617 310.13 78.3438 310.13ZM85.207 310.13C84.7656 310.13 84.3652 310.056 84.0059 309.907C83.6504 309.755 83.3438 309.542 83.0859 309.269C82.832 308.995 82.6367 308.671 82.5 308.296C82.3633 307.921 82.2949 307.511 82.2949 307.066V306.82C82.2949 306.304 82.3711 305.845 82.5234 305.443C82.6758 305.036 82.8828 304.693 83.1445 304.411C83.4062 304.13 83.7031 303.917 84.0352 303.773C84.3672 303.628 84.7109 303.556 85.0664 303.556C85.5195 303.556 85.9102 303.634 86.2383 303.79C86.5703 303.947 86.8418 304.165 87.0527 304.447C87.2637 304.724 87.4199 305.052 87.5215 305.431C87.623 305.806 87.6738 306.216 87.6738 306.661V307.148H82.9395V306.263H86.5898V306.181C86.5742 305.9 86.5156 305.626 86.4141 305.361C86.3164 305.095 86.1602 304.876 85.9453 304.704C85.7305 304.532 85.4375 304.447 85.0664 304.447C84.8203 304.447 84.5938 304.499 84.3867 304.605C84.1797 304.706 84.002 304.859 83.8535 305.062C83.7051 305.265 83.5898 305.513 83.5078 305.806C83.4258 306.099 83.3848 306.437 83.3848 306.82V307.066C83.3848 307.366 83.4258 307.65 83.5078 307.915C83.5938 308.177 83.7168 308.407 83.877 308.607C84.041 308.806 84.2383 308.962 84.4688 309.075C84.7031 309.189 84.9688 309.245 85.2656 309.245C85.6484 309.245 85.9727 309.167 86.2383 309.011C86.5039 308.855 86.7363 308.646 86.9355 308.384L87.5918 308.906C87.4551 309.113 87.2812 309.31 87.0703 309.497C86.8594 309.685 86.5996 309.837 86.291 309.954C85.9863 310.072 85.625 310.13 85.207 310.13ZM90.5293 301.013V310.013H89.4395V301.013H90.5293ZM94.4023 303.673L91.6367 306.632L90.0898 308.238L90.002 307.083L91.1094 305.759L93.0781 303.673H94.4023ZM93.4121 310.013L91.1504 306.99L91.7129 306.023L94.6895 310.013H93.4121Z" fill="#363740"/>
<circle cx="134.5" cy="306.513" r="4.5" fill="#FFE600"/>
<path opacity="0.7" d="M153.164 309.093V310.013H148.898V309.093H153.164ZM149.121 301.482V310.013H147.99V301.482H149.121ZM158.533 308.929V305.665C158.533 305.415 158.482 305.198 158.381 305.015C158.283 304.827 158.135 304.683 157.936 304.581C157.736 304.48 157.49 304.429 157.197 304.429C156.924 304.429 156.684 304.476 156.477 304.57C156.273 304.663 156.113 304.786 155.996 304.939C155.883 305.091 155.826 305.255 155.826 305.431H154.742C154.742 305.204 154.801 304.98 154.918 304.757C155.035 304.534 155.203 304.333 155.422 304.154C155.645 303.97 155.91 303.825 156.219 303.72C156.531 303.611 156.879 303.556 157.262 303.556C157.723 303.556 158.129 303.634 158.48 303.79C158.836 303.947 159.113 304.183 159.312 304.499C159.516 304.812 159.617 305.204 159.617 305.677V308.63C159.617 308.841 159.635 309.066 159.67 309.304C159.709 309.542 159.766 309.747 159.84 309.919V310.013H158.709C158.654 309.888 158.611 309.722 158.58 309.515C158.549 309.304 158.533 309.109 158.533 308.929ZM158.721 306.169L158.732 306.931H157.637C157.328 306.931 157.053 306.956 156.811 307.007C156.568 307.054 156.365 307.126 156.201 307.224C156.037 307.322 155.912 307.445 155.826 307.593C155.74 307.738 155.697 307.907 155.697 308.103C155.697 308.302 155.742 308.484 155.832 308.648C155.922 308.812 156.057 308.943 156.236 309.04C156.42 309.134 156.645 309.181 156.91 309.181C157.242 309.181 157.535 309.111 157.789 308.97C158.043 308.829 158.244 308.657 158.393 308.454C158.545 308.251 158.627 308.054 158.639 307.863L159.102 308.384C159.074 308.548 159 308.73 158.879 308.929C158.758 309.128 158.596 309.32 158.393 309.503C158.193 309.683 157.955 309.833 157.678 309.954C157.404 310.072 157.096 310.13 156.752 310.13C156.322 310.13 155.945 310.046 155.621 309.878C155.301 309.71 155.051 309.486 154.871 309.204C154.695 308.919 154.607 308.601 154.607 308.249C154.607 307.909 154.674 307.611 154.807 307.353C154.939 307.091 155.131 306.874 155.381 306.702C155.631 306.527 155.932 306.394 156.283 306.304C156.635 306.214 157.027 306.169 157.461 306.169H158.721ZM165.514 308.331C165.514 308.175 165.479 308.031 165.408 307.898C165.342 307.761 165.203 307.638 164.992 307.529C164.785 307.415 164.473 307.318 164.055 307.236C163.703 307.161 163.385 307.073 163.1 306.972C162.818 306.87 162.578 306.747 162.379 306.603C162.184 306.458 162.033 306.288 161.928 306.093C161.822 305.898 161.77 305.669 161.77 305.407C161.77 305.157 161.824 304.921 161.934 304.698C162.047 304.476 162.205 304.279 162.408 304.107C162.615 303.935 162.863 303.8 163.152 303.702C163.441 303.605 163.764 303.556 164.119 303.556C164.627 303.556 165.061 303.646 165.42 303.825C165.779 304.005 166.055 304.245 166.246 304.546C166.438 304.843 166.533 305.173 166.533 305.536H165.449C165.449 305.361 165.396 305.191 165.291 305.027C165.189 304.859 165.039 304.72 164.84 304.611C164.645 304.501 164.404 304.447 164.119 304.447C163.818 304.447 163.574 304.493 163.387 304.587C163.203 304.677 163.068 304.792 162.982 304.933C162.9 305.073 162.859 305.222 162.859 305.378C162.859 305.495 162.879 305.601 162.918 305.695C162.961 305.784 163.035 305.868 163.141 305.947C163.246 306.021 163.395 306.091 163.586 306.157C163.777 306.224 164.021 306.29 164.318 306.357C164.838 306.474 165.266 306.615 165.602 306.779C165.938 306.943 166.188 307.144 166.352 307.382C166.516 307.62 166.598 307.909 166.598 308.249C166.598 308.527 166.539 308.781 166.422 309.011C166.309 309.241 166.143 309.441 165.924 309.609C165.709 309.773 165.451 309.902 165.15 309.995C164.854 310.085 164.52 310.13 164.148 310.13C163.59 310.13 163.117 310.031 162.73 309.831C162.344 309.632 162.051 309.374 161.852 309.058C161.652 308.741 161.553 308.407 161.553 308.056H162.643C162.658 308.353 162.744 308.589 162.9 308.765C163.057 308.937 163.248 309.06 163.475 309.134C163.701 309.204 163.926 309.24 164.148 309.24C164.445 309.24 164.693 309.2 164.893 309.122C165.096 309.044 165.25 308.937 165.355 308.8C165.461 308.663 165.514 308.507 165.514 308.331ZM171.176 303.673V304.505H167.748V303.673H171.176ZM168.908 302.132H169.992V308.443C169.992 308.657 170.025 308.82 170.092 308.929C170.158 309.038 170.244 309.111 170.35 309.146C170.455 309.181 170.568 309.198 170.689 309.198C170.779 309.198 170.873 309.191 170.971 309.175C171.072 309.156 171.148 309.14 171.199 309.128L171.205 310.013C171.119 310.04 171.006 310.066 170.865 310.089C170.729 310.116 170.562 310.13 170.367 310.13C170.102 310.13 169.857 310.077 169.635 309.972C169.412 309.866 169.234 309.691 169.102 309.445C168.973 309.195 168.908 308.859 168.908 308.437V302.132ZM178.832 307.435L180.525 301.482H181.346L180.871 303.796L179.049 310.013H178.234L178.832 307.435ZM177.08 301.482L178.428 307.318L178.832 310.013H178.023L175.955 301.482H177.08ZM183.537 307.312L184.855 301.482H185.986L183.924 310.013H183.115L183.537 307.312ZM181.469 301.482L183.115 307.435L183.713 310.013H182.898L181.141 303.796L180.66 301.482H181.469ZM190.02 310.13C189.578 310.13 189.178 310.056 188.818 309.907C188.463 309.755 188.156 309.542 187.898 309.269C187.645 308.995 187.449 308.671 187.312 308.296C187.176 307.921 187.107 307.511 187.107 307.066V306.82C187.107 306.304 187.184 305.845 187.336 305.443C187.488 305.036 187.695 304.693 187.957 304.411C188.219 304.13 188.516 303.917 188.848 303.773C189.18 303.628 189.523 303.556 189.879 303.556C190.332 303.556 190.723 303.634 191.051 303.79C191.383 303.947 191.654 304.165 191.865 304.447C192.076 304.724 192.232 305.052 192.334 305.431C192.436 305.806 192.486 306.216 192.486 306.661V307.148H187.752V306.263H191.402V306.181C191.387 305.9 191.328 305.626 191.227 305.361C191.129 305.095 190.973 304.876 190.758 304.704C190.543 304.532 190.25 304.447 189.879 304.447C189.633 304.447 189.406 304.499 189.199 304.605C188.992 304.706 188.814 304.859 188.666 305.062C188.518 305.265 188.402 305.513 188.32 305.806C188.238 306.099 188.197 306.437 188.197 306.82V307.066C188.197 307.366 188.238 307.65 188.32 307.915C188.406 308.177 188.529 308.407 188.689 308.607C188.854 308.806 189.051 308.962 189.281 309.075C189.516 309.189 189.781 309.245 190.078 309.245C190.461 309.245 190.785 309.167 191.051 309.011C191.316 308.855 191.549 308.646 191.748 308.384L192.404 308.906C192.268 309.113 192.094 309.31 191.883 309.497C191.672 309.685 191.412 309.837 191.104 309.954C190.799 310.072 190.438 310.13 190.02 310.13ZM196.883 310.13C196.441 310.13 196.041 310.056 195.682 309.907C195.326 309.755 195.02 309.542 194.762 309.269C194.508 308.995 194.312 308.671 194.176 308.296C194.039 307.921 193.971 307.511 193.971 307.066V306.82C193.971 306.304 194.047 305.845 194.199 305.443C194.352 305.036 194.559 304.693 194.82 304.411C195.082 304.13 195.379 303.917 195.711 303.773C196.043 303.628 196.387 303.556 196.742 303.556C197.195 303.556 197.586 303.634 197.914 303.79C198.246 303.947 198.518 304.165 198.729 304.447C198.939 304.724 199.096 305.052 199.197 305.431C199.299 305.806 199.35 306.216 199.35 306.661V307.148H194.615V306.263H198.266V306.181C198.25 305.9 198.191 305.626 198.09 305.361C197.992 305.095 197.836 304.876 197.621 304.704C197.406 304.532 197.113 304.447 196.742 304.447C196.496 304.447 196.27 304.499 196.062 304.605C195.855 304.706 195.678 304.859 195.529 305.062C195.381 305.265 195.266 305.513 195.184 305.806C195.102 306.099 195.061 306.437 195.061 306.82V307.066C195.061 307.366 195.102 307.65 195.184 307.915C195.27 308.177 195.393 308.407 195.553 308.607C195.717 308.806 195.914 308.962 196.145 309.075C196.379 309.189 196.645 309.245 196.941 309.245C197.324 309.245 197.648 309.167 197.914 309.011C198.18 308.855 198.412 308.646 198.611 308.384L199.268 308.906C199.131 309.113 198.957 309.31 198.746 309.497C198.535 309.685 198.275 309.837 197.967 309.954C197.662 310.072 197.301 310.13 196.883 310.13ZM202.205 301.013V310.013H201.115V301.013H202.205ZM206.078 303.673L203.312 306.632L201.766 308.238L201.678 307.083L202.785 305.759L204.754 303.673H206.078ZM205.088 310.013L202.826 306.99L203.389 306.023L206.365 310.013H205.088Z" fill="#363740"/>
<defs>
<clipPath id="clip0_2_882">
<rect x="259" y="13.279" width="84.5" height="17.4162" rx="2.52486" fill="white"/>
</clipPath>
</defs>
</svg>
