<svg width="364" height="328" viewBox="0 0 364 328" fill="none" xmlns="http://www.w3.org/2000/svg">
<rect width="363.5" height="328" rx="8" fill="white"/>
<path d="M26.9375 23.3223C26.9375 23.1192 26.9062 22.9369 26.8438 22.7754C26.7865 22.6088 26.6771 22.4577 26.5156 22.3223C26.3542 22.1817 26.1276 22.0437 25.8359 21.9082C25.5443 21.7728 25.1667 21.6322 24.7031 21.4864C24.1875 21.3197 23.6979 21.1322 23.2344 20.9239C22.776 20.7155 22.3698 20.4733 22.0156 20.1973C21.6667 19.916 21.3906 19.5905 21.1875 19.2207C20.9896 18.8509 20.8906 18.4213 20.8906 17.9317C20.8906 17.4577 20.9948 17.028 21.2031 16.6426C21.4115 16.252 21.7031 15.9187 22.0781 15.6426C22.4531 15.3614 22.8958 15.1452 23.4062 14.9942C23.9219 14.8431 24.487 14.7676 25.1016 14.7676C25.9401 14.7676 26.6719 14.9187 27.2969 15.2207C27.9219 15.5228 28.4062 15.9369 28.75 16.4629C29.099 16.989 29.2734 17.5905 29.2734 18.2676H26.9453C26.9453 17.9343 26.875 17.6426 26.7344 17.3926C26.599 17.1374 26.3906 16.9369 26.1094 16.791C25.8333 16.6452 25.4844 16.5723 25.0625 16.5723C24.6562 16.5723 24.3177 16.6348 24.0469 16.7598C23.776 16.8796 23.5729 17.0437 23.4375 17.252C23.3021 17.4551 23.2344 17.6843 23.2344 17.9395C23.2344 18.1322 23.2812 18.3067 23.375 18.4629C23.474 18.6192 23.6198 18.765 23.8125 18.9004C24.0052 19.0358 24.2422 19.1634 24.5234 19.2832C24.8047 19.403 25.1302 19.5202 25.5 19.6348C26.1198 19.8223 26.6641 20.0332 27.1328 20.2676C27.6068 20.502 28.0026 20.765 28.3203 21.0567C28.638 21.3483 28.8776 21.6791 29.0391 22.0489C29.2005 22.4187 29.2812 22.8379 29.2812 23.3067C29.2812 23.8015 29.1849 24.2442 28.9922 24.6348C28.7995 25.0254 28.5208 25.3562 28.1562 25.627C27.7917 25.8978 27.3568 26.1035 26.8516 26.2442C26.3464 26.3848 25.7812 26.4551 25.1562 26.4551C24.5938 26.4551 24.0391 26.3822 23.4922 26.2364C22.9453 26.0853 22.4479 25.8588 22 25.5567C21.5573 25.2546 21.2031 24.8692 20.9375 24.4004C20.6719 23.9317 20.5391 23.377 20.5391 22.7364H22.8906C22.8906 23.0905 22.9453 23.39 23.0547 23.6348C23.1641 23.8796 23.3177 24.0775 23.5156 24.2285C23.7188 24.3796 23.9583 24.489 24.2344 24.5567C24.5156 24.6244 24.8229 24.6582 25.1562 24.6582C25.5625 24.6582 25.8958 24.6009 26.1562 24.4864C26.4219 24.3718 26.6172 24.2129 26.7422 24.0098C26.8724 23.8067 26.9375 23.5775 26.9375 23.3223ZM35.7969 24.3926V20.627C35.7969 20.3562 35.7526 20.1244 35.6641 19.9317C35.5755 19.7338 35.4375 19.5801 35.25 19.4707C35.0677 19.3614 34.8307 19.3067 34.5391 19.3067C34.2891 19.3067 34.0729 19.3509 33.8906 19.4395C33.7083 19.5228 33.5677 19.6452 33.4688 19.8067C33.3698 19.9629 33.3203 20.1478 33.3203 20.3614H31.0703C31.0703 20.002 31.1536 19.6608 31.3203 19.3379C31.487 19.015 31.7292 18.7312 32.0469 18.4864C32.3646 18.2364 32.7422 18.041 33.1797 17.9004C33.6224 17.7598 34.1172 17.6895 34.6641 17.6895C35.3203 17.6895 35.9036 17.7989 36.4141 18.0176C36.9245 18.2364 37.3255 18.5645 37.6172 19.002C37.9141 19.4395 38.0625 19.9864 38.0625 20.6426V24.2598C38.0625 24.7233 38.0911 25.1035 38.1484 25.4004C38.2057 25.6921 38.2891 25.9473 38.3984 26.166V26.2989H36.125C36.0156 26.0697 35.9323 25.7832 35.875 25.4395C35.8229 25.0905 35.7969 24.7416 35.7969 24.3926ZM36.0938 21.1504L36.1094 22.4239H34.8516C34.5547 22.4239 34.2969 22.4577 34.0781 22.5254C33.8594 22.5931 33.6797 22.6895 33.5391 22.8145C33.3984 22.9343 33.2943 23.0749 33.2266 23.2364C33.1641 23.3978 33.1328 23.5749 33.1328 23.7676C33.1328 23.9603 33.1771 24.1348 33.2656 24.291C33.3542 24.4421 33.4818 24.5619 33.6484 24.6504C33.8151 24.7338 34.0104 24.7754 34.2344 24.7754C34.5729 24.7754 34.8672 24.7077 35.1172 24.5723C35.3672 24.4369 35.5599 24.2702 35.6953 24.0723C35.8359 23.8744 35.9089 23.6869 35.9141 23.5098L36.5078 24.4629C36.4245 24.6765 36.3099 24.8978 36.1641 25.127C36.0234 25.3562 35.8438 25.5723 35.625 25.7754C35.4062 25.9733 35.1432 26.1374 34.8359 26.2676C34.5286 26.3926 34.1641 26.4551 33.7422 26.4551C33.2057 26.4551 32.7188 26.3483 32.2812 26.1348C31.849 25.916 31.5052 25.6166 31.25 25.2364C31 24.8509 30.875 24.4134 30.875 23.9239C30.875 23.4812 30.9583 23.0879 31.125 22.7442C31.2917 22.4004 31.5365 22.1114 31.8594 21.877C32.1875 21.6374 32.5964 21.4577 33.0859 21.3379C33.5755 21.2129 34.1432 21.1504 34.7891 21.1504H36.0938ZM42.6719 14.2989V26.2989H40.4141V14.2989H42.6719ZM48.9219 26.4551C48.2656 26.4551 47.6771 26.3509 47.1562 26.1426C46.6354 25.9291 46.1927 25.6348 45.8281 25.2598C45.4688 24.8848 45.1927 24.4499 45 23.9551C44.8073 23.4551 44.7109 22.9239 44.7109 22.3614V22.0489C44.7109 21.4082 44.8021 20.8223 44.9844 20.291C45.1667 19.7598 45.4271 19.2989 45.7656 18.9082C46.1094 18.5176 46.526 18.2181 47.0156 18.0098C47.5052 17.7963 48.0573 17.6895 48.6719 17.6895C49.2708 17.6895 49.8021 17.7884 50.2656 17.9864C50.7292 18.1843 51.1172 18.4655 51.4297 18.8301C51.7474 19.1947 51.987 19.6322 52.1484 20.1426C52.3099 20.6478 52.3906 21.2103 52.3906 21.8301V22.7676H45.6719V21.2676H50.1797V21.0957C50.1797 20.7832 50.1224 20.5046 50.0078 20.2598C49.8984 20.0098 49.7318 19.8119 49.5078 19.666C49.2839 19.5202 48.9974 19.4473 48.6484 19.4473C48.3516 19.4473 48.0964 19.5124 47.8828 19.6426C47.6693 19.7728 47.4948 19.9551 47.3594 20.1895C47.2292 20.4239 47.1302 20.6999 47.0625 21.0176C47 21.3301 46.9688 21.6739 46.9688 22.0489V22.3614C46.9688 22.6999 47.0156 23.0124 47.1094 23.2989C47.2083 23.5853 47.3464 23.8327 47.5234 24.041C47.7057 24.2494 47.9245 24.4108 48.1797 24.5254C48.4401 24.64 48.7344 24.6973 49.0625 24.6973C49.4688 24.6973 49.8464 24.6192 50.1953 24.4629C50.5495 24.3015 50.8542 24.0593 51.1094 23.7364L52.2031 24.9239C52.026 25.1791 51.7839 25.4239 51.4766 25.6582C51.1745 25.8926 50.8099 26.0853 50.3828 26.2364C49.9557 26.3822 49.4688 26.4551 48.9219 26.4551ZM58.7422 23.9629C58.7422 23.8015 58.6953 23.6556 58.6016 23.5254C58.5078 23.3952 58.3333 23.2754 58.0781 23.166C57.8281 23.0515 57.4661 22.9473 56.9922 22.8535C56.5651 22.7598 56.1667 22.6426 55.7969 22.502C55.4323 22.3562 55.1146 22.1817 54.8438 21.9785C54.5781 21.7754 54.3698 21.5358 54.2188 21.2598C54.0677 20.9785 53.9922 20.6582 53.9922 20.2989C53.9922 19.9447 54.0677 19.6114 54.2188 19.2989C54.375 18.9864 54.5964 18.7103 54.8828 18.4707C55.1745 18.2259 55.5286 18.0358 55.9453 17.9004C56.3672 17.7598 56.8411 17.6895 57.3672 17.6895C58.1016 17.6895 58.7318 17.8067 59.2578 18.041C59.7891 18.2754 60.1953 18.5983 60.4766 19.0098C60.763 19.416 60.9062 19.8796 60.9062 20.4004H58.6562C58.6562 20.1817 58.6094 19.9864 58.5156 19.8145C58.4271 19.6374 58.2865 19.4994 58.0938 19.4004C57.9062 19.2963 57.6615 19.2442 57.3594 19.2442C57.1094 19.2442 56.8932 19.2884 56.7109 19.377C56.5286 19.4603 56.388 19.5749 56.2891 19.7207C56.1953 19.8614 56.1484 20.0176 56.1484 20.1895C56.1484 20.3197 56.1745 20.4369 56.2266 20.541C56.2839 20.64 56.375 20.7312 56.5 20.8145C56.625 20.8978 56.7865 20.9759 56.9844 21.0489C57.1875 21.1166 57.4375 21.1791 57.7344 21.2364C58.3438 21.3614 58.888 21.5254 59.3672 21.7285C59.8464 21.9265 60.2266 22.1973 60.5078 22.541C60.7891 22.8796 60.9297 23.3249 60.9297 23.877C60.9297 24.252 60.8464 24.5957 60.6797 24.9082C60.513 25.2207 60.2734 25.4942 59.9609 25.7285C59.6484 25.9577 59.2734 26.1374 58.8359 26.2676C58.4036 26.3926 57.9167 26.4551 57.375 26.4551C56.5885 26.4551 55.9219 26.3145 55.375 26.0332C54.8333 25.752 54.4219 25.3952 54.1406 24.9629C53.8646 24.5254 53.7266 24.0775 53.7266 23.6192H55.8594C55.8698 23.9265 55.9479 24.1739 56.0938 24.3614C56.2448 24.5489 56.4349 24.6843 56.6641 24.7676C56.8984 24.8509 57.151 24.8926 57.4219 24.8926C57.7135 24.8926 57.9557 24.8535 58.1484 24.7754C58.3411 24.6921 58.487 24.5827 58.5859 24.4473C58.6901 24.3067 58.7422 24.1452 58.7422 23.9629ZM73.4375 23.3223C73.4375 23.1192 73.4062 22.9369 73.3438 22.7754C73.2865 22.6088 73.1771 22.4577 73.0156 22.3223C72.8542 22.1817 72.6276 22.0437 72.3359 21.9082C72.0443 21.7728 71.6667 21.6322 71.2031 21.4864C70.6875 21.3197 70.1979 21.1322 69.7344 20.9239C69.276 20.7155 68.8698 20.4733 68.5156 20.1973C68.1667 19.916 67.8906 19.5905 67.6875 19.2207C67.4896 18.8509 67.3906 18.4213 67.3906 17.9317C67.3906 17.4577 67.4948 17.028 67.7031 16.6426C67.9115 16.252 68.2031 15.9187 68.5781 15.6426C68.9531 15.3614 69.3958 15.1452 69.9062 14.9942C70.4219 14.8431 70.987 14.7676 71.6016 14.7676C72.4401 14.7676 73.1719 14.9187 73.7969 15.2207C74.4219 15.5228 74.9062 15.9369 75.25 16.4629C75.599 16.989 75.7734 17.5905 75.7734 18.2676H73.4453C73.4453 17.9343 73.375 17.6426 73.2344 17.3926C73.099 17.1374 72.8906 16.9369 72.6094 16.791C72.3333 16.6452 71.9844 16.5723 71.5625 16.5723C71.1562 16.5723 70.8177 16.6348 70.5469 16.7598C70.276 16.8796 70.0729 17.0437 69.9375 17.252C69.8021 17.4551 69.7344 17.6843 69.7344 17.9395C69.7344 18.1322 69.7812 18.3067 69.875 18.4629C69.974 18.6192 70.1198 18.765 70.3125 18.9004C70.5052 19.0358 70.7422 19.1634 71.0234 19.2832C71.3047 19.403 71.6302 19.5202 72 19.6348C72.6198 19.8223 73.1641 20.0332 73.6328 20.2676C74.1068 20.502 74.5026 20.765 74.8203 21.0567C75.138 21.3483 75.3776 21.6791 75.5391 22.0489C75.7005 22.4187 75.7812 22.8379 75.7812 23.3067C75.7812 23.8015 75.6849 24.2442 75.4922 24.6348C75.2995 25.0254 75.0208 25.3562 74.6562 25.627C74.2917 25.8978 73.8568 26.1035 73.3516 26.2442C72.8464 26.3848 72.2812 26.4551 71.6562 26.4551C71.0938 26.4551 70.5391 26.3822 69.9922 26.2364C69.4453 26.0853 68.9479 25.8588 68.5 25.5567C68.0573 25.2546 67.7031 24.8692 67.4375 24.4004C67.1719 23.9317 67.0391 23.377 67.0391 22.7364H69.3906C69.3906 23.0905 69.4453 23.39 69.5547 23.6348C69.6641 23.8796 69.8177 24.0775 70.0156 24.2285C70.2188 24.3796 70.4583 24.489 70.7344 24.5567C71.0156 24.6244 71.3229 24.6582 71.6562 24.6582C72.0625 24.6582 72.3958 24.6009 72.6562 24.4864C72.9219 24.3718 73.1172 24.2129 73.2422 24.0098C73.3724 23.8067 73.4375 23.5775 73.4375 23.3223ZM82.7344 24.2754V17.8457H84.9844V26.2989H82.8672L82.7344 24.2754ZM82.9844 22.541L83.6484 22.5254C83.6484 23.0879 83.5833 23.6114 83.4531 24.0957C83.3229 24.5749 83.1276 24.9916 82.8672 25.3457C82.6068 25.6947 82.2786 25.9681 81.8828 26.166C81.487 26.3588 81.0208 26.4551 80.4844 26.4551C80.0729 26.4551 79.6927 26.3978 79.3438 26.2832C79 26.1634 78.7031 25.9785 78.4531 25.7285C78.2083 25.4733 78.0156 25.1478 77.875 24.752C77.7396 24.3509 77.6719 23.8692 77.6719 23.3067V17.8457H79.9219V23.3223C79.9219 23.5723 79.9505 23.7832 80.0078 23.9551C80.0703 24.127 80.1562 24.2676 80.2656 24.377C80.375 24.4864 80.5026 24.5645 80.6484 24.6114C80.7995 24.6582 80.9661 24.6817 81.1484 24.6817C81.612 24.6817 81.9766 24.5879 82.2422 24.4004C82.513 24.2129 82.7031 23.9577 82.8125 23.6348C82.9271 23.3067 82.9844 22.9421 82.9844 22.541ZM89.4531 19.5957V26.2989H87.1953V17.8457H89.3125L89.4531 19.5957ZM89.1406 21.7754H88.5156C88.5156 21.1869 88.5859 20.6452 88.7266 20.1504C88.8724 19.6504 89.0833 19.2181 89.3594 18.8535C89.6406 18.4838 89.987 18.1973 90.3984 17.9942C90.8099 17.791 91.2865 17.6895 91.8281 17.6895C92.2031 17.6895 92.5469 17.7468 92.8594 17.8614C93.1719 17.9707 93.4401 18.1452 93.6641 18.3848C93.8932 18.6192 94.0703 18.9265 94.1953 19.3067C94.3203 19.6817 94.3828 20.1322 94.3828 20.6582V26.2989H92.1328V20.9082C92.1328 20.5228 92.0807 20.2259 91.9766 20.0176C91.8724 19.8093 91.724 19.6634 91.5312 19.5801C91.3438 19.4968 91.1172 19.4551 90.8516 19.4551C90.5599 19.4551 90.3047 19.515 90.0859 19.6348C89.8724 19.7546 89.6953 19.9213 89.5547 20.1348C89.4141 20.3431 89.3099 20.5879 89.2422 20.8692C89.1745 21.1504 89.1406 21.4525 89.1406 21.7754ZM94.1719 21.5176L93.3672 21.6192C93.3672 21.0671 93.4349 20.5541 93.5703 20.0801C93.7109 19.6062 93.9167 19.1895 94.1875 18.8301C94.4635 18.4707 94.8047 18.1921 95.2109 17.9942C95.6172 17.791 96.0859 17.6895 96.6172 17.6895C97.0234 17.6895 97.3932 17.7494 97.7266 17.8692C98.0599 17.9838 98.3438 18.1687 98.5781 18.4239C98.8177 18.6739 99 19.002 99.125 19.4082C99.2552 19.8145 99.3203 20.3119 99.3203 20.9004V26.2989H97.0625V20.9004C97.0625 20.5098 97.0104 20.2129 96.9062 20.0098C96.8073 19.8015 96.6615 19.6582 96.4688 19.5801C96.2812 19.4968 96.0573 19.4551 95.7969 19.4551C95.526 19.4551 95.2891 19.5098 95.0859 19.6192C94.8828 19.7233 94.7135 19.8692 94.5781 20.0567C94.4427 20.2442 94.3411 20.4629 94.2734 20.7129C94.2057 20.9577 94.1719 21.2259 94.1719 21.5176ZM103.812 19.5957V26.2989H101.555V17.8457H103.672L103.812 19.5957ZM103.5 21.7754H102.875C102.875 21.1869 102.945 20.6452 103.086 20.1504C103.232 19.6504 103.443 19.2181 103.719 18.8535C104 18.4838 104.346 18.1973 104.758 17.9942C105.169 17.791 105.646 17.6895 106.188 17.6895C106.562 17.6895 106.906 17.7468 107.219 17.8614C107.531 17.9707 107.799 18.1452 108.023 18.3848C108.253 18.6192 108.43 18.9265 108.555 19.3067C108.68 19.6817 108.742 20.1322 108.742 20.6582V26.2989H106.492V20.9082C106.492 20.5228 106.44 20.2259 106.336 20.0176C106.232 19.8093 106.083 19.6634 105.891 19.5801C105.703 19.4968 105.477 19.4551 105.211 19.4551C104.919 19.4551 104.664 19.515 104.445 19.6348C104.232 19.7546 104.055 19.9213 103.914 20.1348C103.773 20.3431 103.669 20.5879 103.602 20.8692C103.534 21.1504 103.5 21.4525 103.5 21.7754ZM108.531 21.5176L107.727 21.6192C107.727 21.0671 107.794 20.5541 107.93 20.0801C108.07 19.6062 108.276 19.1895 108.547 18.8301C108.823 18.4707 109.164 18.1921 109.57 17.9942C109.977 17.791 110.445 17.6895 110.977 17.6895C111.383 17.6895 111.753 17.7494 112.086 17.8692C112.419 17.9838 112.703 18.1687 112.938 18.4239C113.177 18.6739 113.359 19.002 113.484 19.4082C113.615 19.8145 113.68 20.3119 113.68 20.9004V26.2989H111.422V20.9004C111.422 20.5098 111.37 20.2129 111.266 20.0098C111.167 19.8015 111.021 19.6582 110.828 19.5801C110.641 19.4968 110.417 19.4551 110.156 19.4551C109.885 19.4551 109.648 19.5098 109.445 19.6192C109.242 19.7233 109.073 19.8692 108.938 20.0567C108.802 20.2442 108.701 20.4629 108.633 20.7129C108.565 20.9577 108.531 21.2259 108.531 21.5176ZM120.484 24.3926V20.627C120.484 20.3562 120.44 20.1244 120.352 19.9317C120.263 19.7338 120.125 19.5801 119.938 19.4707C119.755 19.3614 119.518 19.3067 119.227 19.3067C118.977 19.3067 118.76 19.3509 118.578 19.4395C118.396 19.5228 118.255 19.6452 118.156 19.8067C118.057 19.9629 118.008 20.1478 118.008 20.3614H115.758C115.758 20.002 115.841 19.6608 116.008 19.3379C116.174 19.015 116.417 18.7312 116.734 18.4864C117.052 18.2364 117.43 18.041 117.867 17.9004C118.31 17.7598 118.805 17.6895 119.352 17.6895C120.008 17.6895 120.591 17.7989 121.102 18.0176C121.612 18.2364 122.013 18.5645 122.305 19.002C122.602 19.4395 122.75 19.9864 122.75 20.6426V24.2598C122.75 24.7233 122.779 25.1035 122.836 25.4004C122.893 25.6921 122.977 25.9473 123.086 26.166V26.2989H120.812C120.703 26.0697 120.62 25.7832 120.562 25.4395C120.51 25.0905 120.484 24.7416 120.484 24.3926ZM120.781 21.1504L120.797 22.4239H119.539C119.242 22.4239 118.984 22.4577 118.766 22.5254C118.547 22.5931 118.367 22.6895 118.227 22.8145C118.086 22.9343 117.982 23.0749 117.914 23.2364C117.852 23.3978 117.82 23.5749 117.82 23.7676C117.82 23.9603 117.865 24.1348 117.953 24.291C118.042 24.4421 118.169 24.5619 118.336 24.6504C118.503 24.7338 118.698 24.7754 118.922 24.7754C119.26 24.7754 119.555 24.7077 119.805 24.5723C120.055 24.4369 120.247 24.2702 120.383 24.0723C120.523 23.8744 120.596 23.6869 120.602 23.5098L121.195 24.4629C121.112 24.6765 120.997 24.8978 120.852 25.127C120.711 25.3562 120.531 25.5723 120.312 25.7754C120.094 25.9733 119.831 26.1374 119.523 26.2676C119.216 26.3926 118.852 26.4551 118.43 26.4551C117.893 26.4551 117.406 26.3483 116.969 26.1348C116.536 25.916 116.193 25.6166 115.938 25.2364C115.688 24.8509 115.562 24.4134 115.562 23.9239C115.562 23.4812 115.646 23.0879 115.812 22.7442C115.979 22.4004 116.224 22.1114 116.547 21.877C116.875 21.6374 117.284 21.4577 117.773 21.3379C118.263 21.2129 118.831 21.1504 119.477 21.1504H120.781ZM127.234 19.6895V26.2989H124.984V17.8457H127.102L127.234 19.6895ZM129.781 17.791L129.742 19.877C129.633 19.8614 129.5 19.8483 129.344 19.8379C129.193 19.8223 129.055 19.8145 128.93 19.8145C128.612 19.8145 128.336 19.8562 128.102 19.9395C127.872 20.0176 127.68 20.1348 127.523 20.291C127.372 20.4473 127.258 20.6374 127.18 20.8614C127.107 21.0853 127.065 21.3405 127.055 21.627L126.602 21.4864C126.602 20.9395 126.656 20.4369 126.766 19.9785C126.875 19.515 127.034 19.1114 127.242 18.7676C127.456 18.4239 127.716 18.1582 128.023 17.9707C128.331 17.7832 128.682 17.6895 129.078 17.6895C129.203 17.6895 129.331 17.6999 129.461 17.7207C129.591 17.7364 129.698 17.7598 129.781 17.791ZM133.992 25.3457L136.234 17.8457H138.648L135.25 27.5723C135.177 27.7858 135.078 28.015 134.953 28.2598C134.833 28.5046 134.669 28.7364 134.461 28.9551C134.258 29.1791 134 29.3614 133.688 29.502C133.38 29.6426 133.003 29.7129 132.555 29.7129C132.341 29.7129 132.167 29.6999 132.031 29.6739C131.896 29.6478 131.734 29.6114 131.547 29.5645V27.916C131.604 27.916 131.664 27.916 131.727 27.916C131.789 27.9213 131.849 27.9239 131.906 27.9239C132.203 27.9239 132.445 27.89 132.633 27.8223C132.82 27.7546 132.971 27.6504 133.086 27.5098C133.201 27.3744 133.292 27.1973 133.359 26.9785L133.992 25.3457ZM133.055 17.8457L134.891 23.9707L135.211 26.3535L133.68 26.5176L130.641 17.8457H133.055Z" fill="#363740"/>
<g clip-path="url(#clip0_2_881)">
<path d="M283.148 22.7598L284.645 18.1114H285.727L283.688 23.7989H282.957L283.148 22.7598ZM281.766 18.1114L283.25 22.7598L283.453 23.7989H282.719L280.688 18.1114H281.766ZM287.458 19.5723V23.7989H286.513V19.5723H287.458ZM286.451 18.4629C286.451 18.3197 286.497 18.2012 286.591 18.1075C286.687 18.0111 286.82 17.9629 286.99 17.9629C287.156 17.9629 287.288 18.0111 287.384 18.1075C287.48 18.2012 287.529 18.3197 287.529 18.4629C287.529 18.6035 287.48 18.7207 287.384 18.8145C287.288 18.9082 287.156 18.9551 286.99 18.9551C286.82 18.9551 286.687 18.9082 286.591 18.8145C286.497 18.7207 286.451 18.6035 286.451 18.4629ZM290.534 23.877C290.221 23.877 289.939 23.8262 289.686 23.7246C289.436 23.6205 289.223 23.4759 289.046 23.291C288.871 23.1062 288.737 22.8887 288.643 22.6387C288.549 22.3887 288.503 22.1192 288.503 21.8301V21.6739C288.503 21.3431 288.551 21.0437 288.647 20.7754C288.743 20.5072 288.878 20.278 289.049 20.0879C289.221 19.8952 289.424 19.7481 289.659 19.6465C289.893 19.545 290.147 19.4942 290.421 19.4942C290.723 19.4942 290.987 19.545 291.213 19.6465C291.44 19.7481 291.628 19.8913 291.776 20.0762C291.927 20.2585 292.039 20.4759 292.112 20.7285C292.187 20.9812 292.225 21.2598 292.225 21.5645V21.9668H288.96V21.291H291.296V21.2168C291.29 21.0476 291.256 20.8887 291.194 20.7403C291.134 20.5918 291.042 20.472 290.917 20.3809C290.792 20.2897 290.625 20.2442 290.417 20.2442C290.26 20.2442 290.121 20.278 289.999 20.3457C289.879 20.4108 289.779 20.5059 289.698 20.6309C289.617 20.7559 289.555 20.9069 289.51 21.084C289.469 21.2585 289.448 21.4551 289.448 21.6739V21.8301C289.448 22.015 289.473 22.1869 289.522 22.3457C289.574 22.502 289.65 22.6387 289.749 22.7559C289.848 22.8731 289.967 22.9655 290.108 23.0332C290.249 23.0983 290.409 23.1309 290.588 23.1309C290.815 23.1309 291.017 23.0853 291.194 22.9942C291.371 22.903 291.525 22.7741 291.655 22.6075L292.151 23.0879C292.06 23.2207 291.941 23.3483 291.796 23.4707C291.65 23.5905 291.471 23.6882 291.26 23.7637C291.052 23.8392 290.81 23.877 290.534 23.877ZM294.289 22.8614L295.266 19.5723H295.867L295.703 20.5567L294.719 23.7989H294.18L294.289 22.8614ZM293.715 19.5723L294.476 22.877L294.539 23.7989H293.937L292.793 19.5723H293.715ZM296.781 22.8379L297.519 19.5723H298.437L297.297 23.7989H296.695L296.781 22.8379ZM295.969 19.5723L296.933 22.8223L297.055 23.7989H296.516L295.519 20.5528L295.355 19.5723H295.969ZM301.526 18.1114H303.538C303.97 18.1114 304.338 18.1765 304.643 18.3067C304.948 18.4369 305.181 18.6296 305.342 18.8848C305.506 19.1374 305.588 19.4499 305.588 19.8223C305.588 20.1062 305.536 20.3562 305.432 20.5723C305.328 20.7884 305.181 20.9707 304.991 21.1192C304.801 21.265 304.574 21.3783 304.311 21.459L304.014 21.6035H302.206L302.198 20.8262H303.553C303.788 20.8262 303.983 20.7845 304.139 20.7012C304.295 20.6179 304.413 20.5046 304.491 20.3614C304.571 20.2155 304.612 20.0515 304.612 19.8692C304.612 19.6713 304.573 19.4994 304.495 19.3535C304.419 19.2051 304.302 19.0918 304.143 19.0137C303.984 18.933 303.782 18.8926 303.538 18.8926H302.506V23.7989H301.526V18.1114ZM304.772 23.7989L303.436 21.2442L304.463 21.2403L305.819 23.7481V23.7989H304.772ZM308.515 23.877C308.203 23.877 307.92 23.8262 307.668 23.7246C307.418 23.6205 307.204 23.4759 307.027 23.291C306.853 23.1062 306.719 22.8887 306.625 22.6387C306.531 22.3887 306.484 22.1192 306.484 21.8301V21.6739C306.484 21.3431 306.532 21.0437 306.629 20.7754C306.725 20.5072 306.859 20.278 307.031 20.0879C307.203 19.8952 307.406 19.7481 307.64 19.6465C307.875 19.545 308.129 19.4942 308.402 19.4942C308.704 19.4942 308.969 19.545 309.195 19.6465C309.422 19.7481 309.609 19.8913 309.758 20.0762C309.909 20.2585 310.021 20.4759 310.094 20.7285C310.169 20.9812 310.207 21.2598 310.207 21.5645V21.9668H306.941V21.291H309.277V21.2168C309.272 21.0476 309.238 20.8887 309.176 20.7403C309.116 20.5918 309.023 20.472 308.898 20.3809C308.773 20.2897 308.607 20.2442 308.398 20.2442C308.242 20.2442 308.103 20.278 307.98 20.3457C307.86 20.4108 307.76 20.5059 307.679 20.6309C307.599 20.7559 307.536 20.9069 307.492 21.084C307.45 21.2585 307.429 21.4551 307.429 21.6739V21.8301C307.429 22.015 307.454 22.1869 307.504 22.3457C307.556 22.502 307.631 22.6387 307.73 22.7559C307.829 22.8731 307.949 22.9655 308.09 23.0332C308.23 23.0983 308.39 23.1309 308.57 23.1309C308.797 23.1309 308.998 23.0853 309.176 22.9942C309.353 22.903 309.506 22.7741 309.636 22.6075L310.133 23.0879C310.041 23.2207 309.923 23.3483 309.777 23.4707C309.631 23.5905 309.453 23.6882 309.242 23.7637C309.034 23.8392 308.791 23.877 308.515 23.877ZM312.067 20.3848V25.4239H311.126V19.5723H311.993L312.067 20.3848ZM314.821 21.6465V21.7285C314.821 22.0358 314.785 22.321 314.712 22.584C314.642 22.8444 314.536 23.0723 314.396 23.2676C314.258 23.4603 314.087 23.6101 313.884 23.7168C313.681 23.8236 313.446 23.877 313.181 23.877C312.918 23.877 312.687 23.8288 312.489 23.7325C312.294 23.6335 312.129 23.4942 311.993 23.3145C311.858 23.1348 311.748 22.9239 311.665 22.6817C311.584 22.4369 311.527 22.1687 311.493 21.877V21.5606C311.527 21.2507 311.584 20.9694 311.665 20.7168C311.748 20.4642 311.858 20.2468 311.993 20.0645C312.129 19.8822 312.294 19.7416 312.489 19.6426C312.685 19.5437 312.912 19.4942 313.173 19.4942C313.439 19.4942 313.674 19.5463 313.88 19.6504C314.086 19.752 314.259 19.8978 314.399 20.0879C314.54 20.2754 314.646 20.502 314.716 20.7676C314.786 21.0306 314.821 21.3236 314.821 21.6465ZM313.88 21.7285V21.6465C313.88 21.4512 313.862 21.2702 313.825 21.1035C313.789 20.9343 313.732 20.7858 313.653 20.6582C313.575 20.5306 313.475 20.4317 313.353 20.3614C313.233 20.2884 313.088 20.252 312.919 20.252C312.752 20.252 312.609 20.2806 312.489 20.3379C312.37 20.3926 312.269 20.4694 312.189 20.5684C312.108 20.6673 312.045 20.7832 312.001 20.916C311.957 21.0463 311.926 21.1882 311.907 21.3418V22.0996C311.939 22.2871 311.992 22.459 312.067 22.6153C312.143 22.7715 312.25 22.8965 312.388 22.9903C312.528 23.0814 312.708 23.127 312.927 23.127C313.096 23.127 313.241 23.0905 313.36 23.0176C313.48 22.9447 313.578 22.8444 313.653 22.7168C313.732 22.5866 313.789 22.4369 313.825 22.2676C313.862 22.0983 313.88 21.9187 313.88 21.7285ZM315.623 21.7325V21.6426C315.623 21.3379 315.668 21.0554 315.756 20.795C315.845 20.5319 315.972 20.3041 316.139 20.1114C316.308 19.916 316.514 19.765 316.756 19.6582C317.001 19.5489 317.277 19.4942 317.584 19.4942C317.894 19.4942 318.17 19.5489 318.412 19.6582C318.657 19.765 318.864 19.916 319.034 20.1114C319.203 20.3041 319.332 20.5319 319.42 20.795C319.509 21.0554 319.553 21.3379 319.553 21.6426V21.7325C319.553 22.0371 319.509 22.3197 319.42 22.5801C319.332 22.8405 319.203 23.0684 319.034 23.2637C318.864 23.4564 318.659 23.6075 318.416 23.7168C318.174 23.8236 317.899 23.877 317.592 23.877C317.282 23.877 317.005 23.8236 316.76 23.7168C316.518 23.6075 316.312 23.4564 316.143 23.2637C315.974 23.0684 315.845 22.8405 315.756 22.5801C315.668 22.3197 315.623 22.0371 315.623 21.7325ZM316.565 21.6426V21.7325C316.565 21.9226 316.584 22.1022 316.623 22.2715C316.662 22.4408 316.724 22.5892 316.807 22.7168C316.89 22.8444 316.997 22.9447 317.127 23.0176C317.258 23.0905 317.412 23.127 317.592 23.127C317.767 23.127 317.918 23.0905 318.045 23.0176C318.175 22.9447 318.282 22.8444 318.366 22.7168C318.449 22.5892 318.51 22.4408 318.549 22.2715C318.591 22.1022 318.612 21.9226 318.612 21.7325V21.6426C318.612 21.4551 318.591 21.278 318.549 21.1114C318.51 20.9421 318.448 20.7923 318.362 20.6621C318.278 20.5319 318.172 20.4304 318.041 20.3575C317.914 20.2819 317.761 20.2442 317.584 20.2442C317.407 20.2442 317.254 20.2819 317.123 20.3575C316.996 20.4304 316.89 20.5319 316.807 20.6621C316.724 20.7923 316.662 20.9421 316.623 21.1114C316.584 21.278 316.565 21.4551 316.565 21.6426ZM321.468 20.377V23.7989H320.527V19.5723H321.425L321.468 20.377ZM322.761 19.545L322.754 20.42C322.696 20.4095 322.634 20.4017 322.566 20.3965C322.501 20.3913 322.436 20.3887 322.371 20.3887C322.209 20.3887 322.067 20.4121 321.945 20.459C321.823 20.5033 321.72 20.5684 321.636 20.6543C321.556 20.7377 321.493 20.8392 321.449 20.959C321.405 21.0788 321.379 21.2129 321.371 21.3614L321.156 21.377C321.156 21.1114 321.182 20.8653 321.234 20.6387C321.286 20.4121 321.364 20.2129 321.468 20.041C321.575 19.8692 321.708 19.7351 321.867 19.6387C322.028 19.5423 322.215 19.4942 322.425 19.4942C322.483 19.4942 322.544 19.4994 322.609 19.5098C322.677 19.5202 322.728 19.5319 322.761 19.545ZM325.665 19.5723V20.2598H323.282V19.5723H325.665ZM323.97 18.5371H324.911V22.6309C324.911 22.7611 324.929 22.8614 324.966 22.9317C325.005 22.9994 325.058 23.045 325.126 23.0684C325.194 23.0918 325.273 23.1035 325.364 23.1035C325.429 23.1035 325.492 23.0996 325.552 23.0918C325.612 23.084 325.66 23.0762 325.696 23.0684L325.7 23.7871C325.622 23.8106 325.531 23.8314 325.427 23.8496C325.325 23.8679 325.208 23.877 325.075 23.877C324.859 23.877 324.668 23.8392 324.501 23.7637C324.334 23.6856 324.204 23.5593 324.11 23.3848C324.017 23.2103 323.97 22.9785 323.97 22.6895V18.5371Z" fill="#979797"/>
<path d="M330.83 20.4568L332.513 22.14L334.196 20.4568" stroke="#979797" stroke-width="0.736416" stroke-linecap="round" stroke-linejoin="round"/>
</g>
<path d="M23.8574 44.9688H25.3613C25.8431 44.9688 26.2402 44.8874 26.5527 44.7246C26.8652 44.5554 27.0964 44.321 27.2461 44.0215C27.4023 43.7155 27.4805 43.3607 27.4805 42.9571C27.4805 42.5925 27.4089 42.2702 27.2656 41.9903C27.1289 41.7038 26.9173 41.4825 26.6309 41.3262C26.3444 41.1634 25.9831 41.0821 25.5469 41.0821C25.2018 41.0821 24.8828 41.1504 24.5898 41.2871C24.2969 41.4239 24.0625 41.6159 23.8867 41.8633C23.7109 42.1107 23.623 42.4102 23.623 42.7617H20.8008C20.8008 41.9805 21.0091 41.3002 21.4258 40.7207C21.849 40.1413 22.4154 39.6888 23.125 39.3633C23.8346 39.0378 24.6159 38.875 25.4688 38.875C26.4323 38.875 27.2754 39.0313 27.998 39.3438C28.7207 39.6498 29.2839 40.1022 29.6875 40.7012C30.0911 41.3002 30.293 42.0423 30.293 42.9278C30.293 43.377 30.1888 43.8132 29.9805 44.2364C29.7721 44.653 29.4727 45.0306 29.082 45.3692C28.6979 45.7012 28.2292 45.9681 27.6758 46.17C27.1224 46.3653 26.5007 46.4629 25.8105 46.4629H23.8574V44.9688ZM23.8574 47.1075V45.6524H25.8105C26.5853 45.6524 27.2656 45.7403 27.8516 45.916C28.4375 46.0918 28.929 46.3457 29.3262 46.6778C29.7233 47.0033 30.0228 47.3907 30.2246 47.8399C30.4264 48.2826 30.5273 48.7741 30.5273 49.3145C30.5273 49.9785 30.4004 50.571 30.1465 51.0918C29.8926 51.6062 29.5345 52.0423 29.0723 52.4004C28.6165 52.7585 28.0827 53.0319 27.4707 53.2207C26.8587 53.403 26.1914 53.4942 25.4688 53.4942C24.8698 53.4942 24.2806 53.4128 23.7012 53.25C23.1283 53.0808 22.6074 52.8301 22.1387 52.4981C21.6764 52.1595 21.3053 51.7364 21.0254 51.2285C20.752 50.7142 20.6152 50.1055 20.6152 49.4024H23.4375C23.4375 49.767 23.5286 50.0925 23.7109 50.3789C23.8932 50.6654 24.1439 50.89 24.4629 51.0528C24.7884 51.2155 25.1497 51.2969 25.5469 51.2969C25.9961 51.2969 26.3802 51.2155 26.6992 51.0528C27.0247 50.8835 27.2721 50.6491 27.4414 50.3496C27.6172 50.0437 27.7051 49.6888 27.7051 49.2852C27.7051 48.7644 27.6107 48.3477 27.4219 48.0352C27.2331 47.7162 26.9629 47.4818 26.6113 47.3321C26.2598 47.1823 25.8431 47.1075 25.3613 47.1075H23.8574ZM36.1836 39.0801V53.2989H33.2539V39.0801H36.1836ZM44.6992 39.0801L39.0645 46.1016L35.8125 49.5977L35.2852 46.8242L37.4824 43.8164L41.1055 39.0801H44.6992ZM41.3691 53.2989L37.1797 46.7266L39.3477 44.9102L44.8359 53.2989H41.3691Z" fill="#363740"/>
<path d="M58.3457 41.2989V50.3349" stroke="#EA5455" stroke-width="1.5" stroke-linecap="round" stroke-linejoin="round"/>
<path d="M62.8167 47.7413L58.4083 51.2989L54 47.7413" stroke="#EA5455" stroke-width="1.5" stroke-linecap="round" stroke-linejoin="round"/>
<path d="M74.2092 50.0801V51.2989H68.4319V50.2559L71.2034 47.2617C71.4924 46.9336 71.7209 46.6485 71.8889 46.4063C72.0569 46.1641 72.176 45.9453 72.2463 45.75C72.3206 45.5508 72.3577 45.3614 72.3577 45.1817C72.3577 44.92 72.3108 44.6914 72.217 44.4961C72.1233 44.2969 71.9866 44.1426 71.8069 44.0332C71.6311 43.9239 71.4143 43.8692 71.1565 43.8692C70.8713 43.8692 70.6272 43.9356 70.4241 44.0684C70.2249 44.1973 70.0725 44.377 69.967 44.6075C69.8655 44.8379 69.8147 45.1016 69.8147 45.3985H68.262C68.262 44.8946 68.3792 44.4356 68.6135 44.0215C68.8479 43.6035 69.1838 43.2696 69.6213 43.0196C70.0588 42.7696 70.5784 42.6446 71.1799 42.6446C71.7659 42.6446 72.262 42.7422 72.6682 42.9375C73.0745 43.1289 73.3831 43.4024 73.594 43.7578C73.8049 44.1133 73.9104 44.5371 73.9104 45.0293C73.9104 45.3028 73.8655 45.5723 73.7756 45.8379C73.6858 46.1035 73.5588 46.3672 73.3948 46.6289C73.2346 46.8867 73.0432 47.1485 72.8206 47.4141C72.5979 47.6797 72.3499 47.9512 72.0764 48.2285L70.4124 50.0801H74.2092ZM75.9338 50.543C75.9338 50.3086 76.0139 50.1114 76.1741 49.9512C76.3342 49.791 76.551 49.711 76.8245 49.711C77.0979 49.711 77.3147 49.791 77.4749 49.9512C77.635 50.1114 77.7151 50.3086 77.7151 50.543C77.7151 50.7735 77.635 50.9688 77.4749 51.1289C77.3147 51.2852 77.0979 51.3633 76.8245 51.3633C76.551 51.3633 76.3342 51.2852 76.1741 51.1289C76.0139 50.9688 75.9338 50.7735 75.9338 50.543ZM83.6819 42.7442V51.2989H82.1292V44.5547L80.0725 45.2344V43.9805L83.5061 42.7442H83.6819ZM87.012 44.8594V44.4082C87.012 44.084 87.0823 43.7891 87.2229 43.5235C87.3635 43.2578 87.5686 43.045 87.8381 42.8848C88.1116 42.7246 88.4436 42.6446 88.8342 42.6446C89.2327 42.6446 89.5667 42.7246 89.8362 42.8848C90.1096 43.045 90.3147 43.2578 90.4514 43.5235C90.592 43.7891 90.6624 44.084 90.6624 44.4082V44.8594C90.6624 45.1758 90.592 45.4668 90.4514 45.7325C90.3147 45.9981 90.1116 46.211 89.842 46.3711C89.5725 46.5313 89.2405 46.6114 88.8459 46.6114C88.4514 46.6114 88.1174 46.5313 87.844 46.3711C87.5706 46.211 87.3635 45.9981 87.2229 45.7325C87.0823 45.4668 87.012 45.1758 87.012 44.8594ZM88.0608 44.4082V44.8594C88.0608 45.0078 88.0881 45.1485 88.1428 45.2813C88.2014 45.4102 88.2893 45.5157 88.4065 45.5977C88.5237 45.6797 88.6702 45.7207 88.8459 45.7207C89.0217 45.7207 89.1643 45.6797 89.2737 45.5977C89.387 45.5157 89.4709 45.4102 89.5256 45.2813C89.5842 45.1485 89.6135 45.0078 89.6135 44.8594V44.4082C89.6135 44.2559 89.5842 44.1133 89.5256 43.9805C89.4709 43.8477 89.385 43.7403 89.2678 43.6582C89.1545 43.5762 89.01 43.5352 88.8342 43.5352C88.6624 43.5352 88.5178 43.5762 88.4006 43.6582C88.2874 43.7403 88.2014 43.8477 88.1428 43.9805C88.0881 44.1133 88.0608 44.2559 88.0608 44.4082ZM91.1077 49.6582V49.2071C91.1077 48.8867 91.178 48.5938 91.3186 48.3282C91.4631 48.0625 91.6721 47.8496 91.9456 47.6895C92.219 47.5293 92.5491 47.4492 92.9358 47.4492C93.3381 47.4492 93.6741 47.5293 93.9436 47.6895C94.2131 47.8496 94.4163 48.0625 94.553 48.3282C94.6936 48.5938 94.7639 48.8867 94.7639 49.2071V49.6582C94.7639 49.9785 94.6936 50.2715 94.553 50.5371C94.4163 50.8028 94.2131 51.0157 93.9436 51.1758C93.678 51.336 93.3479 51.416 92.9534 51.416C92.5588 51.416 92.2229 51.336 91.9456 51.1758C91.6721 51.0157 91.4631 50.8028 91.3186 50.5371C91.178 50.2715 91.1077 49.9785 91.1077 49.6582ZM92.1624 49.2071V49.6582C92.1624 49.8106 92.1936 49.9532 92.2561 50.086C92.3186 50.2149 92.4084 50.3203 92.5256 50.4024C92.6467 50.4844 92.7874 50.5254 92.9475 50.5254C93.1428 50.5254 93.2971 50.4844 93.4104 50.4024C93.5237 50.3203 93.6038 50.2149 93.6506 50.086C93.6975 49.9532 93.7209 49.8106 93.7209 49.6582V49.2071C93.7209 49.0547 93.6917 48.9141 93.6331 48.7852C93.5745 48.6524 93.4866 48.545 93.3694 48.4629C93.2561 48.3809 93.1116 48.3399 92.9358 48.3399C92.7639 48.3399 92.6194 48.3809 92.5022 48.4629C92.3889 48.545 92.303 48.6524 92.2444 48.7852C92.1897 48.9141 92.1624 49.0547 92.1624 49.2071ZM93.3225 43.9864L89.1565 50.6543L88.3889 50.2266L92.5549 43.5586L93.3225 43.9864Z" fill="#EA5455"/>
<path d="M104.791 49.127L106.268 43.959H107.885L105.711 50.2989H104.727L104.791 49.127ZM103.713 43.959L105.207 49.1387L105.26 50.2989H104.27L102.09 43.959H103.713ZM112.686 48.5645C112.686 48.4317 112.651 48.3125 112.58 48.2071C112.51 48.1016 112.377 48.0059 112.182 47.92C111.991 47.8301 111.709 47.7461 111.338 47.668C111.01 47.5977 110.707 47.5098 110.43 47.4043C110.153 47.2989 109.914 47.1719 109.715 47.0235C109.516 46.8711 109.36 46.6934 109.246 46.4903C109.137 46.2832 109.082 46.045 109.082 45.7754C109.082 45.5137 109.139 45.2676 109.252 45.0371C109.366 44.8028 109.53 44.5977 109.744 44.4219C109.959 44.2422 110.221 44.1016 110.53 44C110.838 43.8946 111.186 43.8418 111.573 43.8418C112.112 43.8418 112.575 43.9297 112.961 44.1055C113.352 44.2813 113.651 44.5235 113.858 44.8321C114.065 45.1367 114.168 45.4805 114.168 45.8633H112.621C112.621 45.6953 112.582 45.543 112.504 45.4063C112.43 45.2696 112.315 45.1602 112.159 45.0782C112.002 44.9922 111.805 44.9492 111.567 44.9492C111.352 44.9492 111.17 44.9844 111.022 45.0547C110.877 45.125 110.768 45.2168 110.694 45.3301C110.619 45.4434 110.582 45.5684 110.582 45.7051C110.582 45.8067 110.602 45.8985 110.641 45.9805C110.684 46.0586 110.752 46.1309 110.846 46.1973C110.94 46.2637 111.067 46.3242 111.227 46.3789C111.391 46.4336 111.592 46.4864 111.83 46.5371C112.303 46.6309 112.715 46.7559 113.067 46.9121C113.422 47.0645 113.7 47.2676 113.899 47.5215C114.098 47.7754 114.198 48.0996 114.198 48.4942C114.198 48.7754 114.137 49.0332 114.016 49.2676C113.895 49.4981 113.719 49.6992 113.489 49.8711C113.258 50.043 112.983 50.1778 112.662 50.2754C112.342 50.3692 111.981 50.416 111.578 50.416C110.996 50.416 110.504 50.3125 110.102 50.1055C109.7 49.8946 109.395 49.6289 109.188 49.3086C108.981 48.9844 108.877 48.6485 108.877 48.3008H110.36C110.371 48.5469 110.438 48.7442 110.559 48.8926C110.68 49.041 110.832 49.1485 111.016 49.2149C111.203 49.2774 111.401 49.3086 111.608 49.3086C111.842 49.3086 112.039 49.2774 112.2 49.2149C112.36 49.1485 112.481 49.0606 112.563 48.9512C112.645 48.8379 112.686 48.709 112.686 48.5645ZM124.895 49.0332V50.2989H120.606V49.0332H124.895ZM121.092 41.7676V50.2989H119.481V41.7676H121.092ZM129.848 48.9512V46.0274C129.848 45.8125 129.811 45.627 129.737 45.4707C129.662 45.3145 129.549 45.1934 129.397 45.1075C129.244 45.0215 129.051 44.9785 128.817 44.9785C128.61 44.9785 128.428 45.0137 128.272 45.084C128.119 45.1543 128.002 45.2539 127.92 45.3828C127.838 45.5078 127.797 45.6524 127.797 45.8164H126.244C126.244 45.5547 126.307 45.3067 126.432 45.0723C126.557 44.834 126.735 44.6231 126.965 44.4395C127.2 44.252 127.479 44.1055 127.803 44C128.131 43.8946 128.498 43.8418 128.905 43.8418C129.385 43.8418 129.813 43.9239 130.188 44.0879C130.567 44.2481 130.864 44.4903 131.078 44.8145C131.297 45.1387 131.407 45.5469 131.407 46.0391V48.8047C131.407 49.1211 131.426 49.3926 131.465 49.6192C131.508 49.8418 131.571 50.0352 131.653 50.1992V50.2989H130.077C130.002 50.1387 129.946 49.9356 129.907 49.6895C129.868 49.4395 129.848 49.1934 129.848 48.9512ZM130.065 46.4375L130.077 47.3575H129.098C128.856 47.3575 128.643 47.3828 128.459 47.4336C128.276 47.4805 128.125 47.5508 128.008 47.6446C127.891 47.7344 127.803 47.8438 127.744 47.9727C127.686 48.0977 127.657 48.2403 127.657 48.4004C127.657 48.5567 127.692 48.6973 127.762 48.8223C127.836 48.9473 127.942 49.0469 128.078 49.1211C128.219 49.1914 128.383 49.2266 128.571 49.2266C128.844 49.2266 129.082 49.1719 129.285 49.0625C129.489 48.9492 129.647 48.8125 129.76 48.6524C129.873 48.4922 129.934 48.3399 129.942 48.1953L130.387 48.8633C130.332 49.0235 130.25 49.1934 130.141 49.3731C130.032 49.5528 129.891 49.7207 129.719 49.877C129.547 50.0332 129.34 50.1621 129.098 50.2637C128.856 50.3653 128.575 50.416 128.254 50.416C127.844 50.416 127.477 50.334 127.153 50.17C126.828 50.0059 126.573 49.7813 126.385 49.4961C126.198 49.211 126.104 48.8867 126.104 48.5235C126.104 48.1875 126.166 47.8907 126.291 47.6328C126.416 47.375 126.602 47.1582 126.848 46.9825C127.094 46.8028 127.399 46.668 127.762 46.5782C128.129 46.4844 128.549 46.4375 129.022 46.4375H130.065ZM136.787 48.5645C136.787 48.4317 136.752 48.3125 136.682 48.2071C136.612 48.1016 136.479 48.0059 136.284 47.92C136.092 47.8301 135.811 47.7461 135.44 47.668C135.112 47.5977 134.809 47.5098 134.532 47.4043C134.254 47.2989 134.016 47.1719 133.817 47.0235C133.618 46.8711 133.461 46.6934 133.348 46.4903C133.239 46.2832 133.184 46.045 133.184 45.7754C133.184 45.5137 133.241 45.2676 133.354 45.0371C133.467 44.8028 133.631 44.5977 133.846 44.4219C134.061 44.2422 134.323 44.1016 134.631 44C134.94 43.8946 135.287 43.8418 135.674 43.8418C136.213 43.8418 136.676 43.9297 137.063 44.1055C137.453 44.2813 137.752 44.5235 137.959 44.8321C138.166 45.1367 138.27 45.4805 138.27 45.8633H136.723C136.723 45.6953 136.684 45.543 136.606 45.4063C136.532 45.2696 136.416 45.1602 136.26 45.0782C136.104 44.9922 135.907 44.9492 135.668 44.9492C135.453 44.9492 135.272 44.9844 135.123 45.0547C134.979 45.125 134.869 45.2168 134.795 45.3301C134.721 45.4434 134.684 45.5684 134.684 45.7051C134.684 45.8067 134.703 45.8985 134.743 45.9805C134.785 46.0586 134.854 46.1309 134.948 46.1973C135.041 46.2637 135.168 46.3242 135.328 46.3789C135.493 46.4336 135.694 46.4864 135.932 46.5371C136.405 46.6309 136.817 46.7559 137.168 46.9121C137.524 47.0645 137.801 47.2676 138 47.5215C138.2 47.7754 138.299 48.0996 138.299 48.4942C138.299 48.7754 138.239 49.0332 138.118 49.2676C137.996 49.4981 137.821 49.6992 137.59 49.8711C137.36 50.043 137.084 50.1778 136.764 50.2754C136.444 50.3692 136.082 50.416 135.68 50.416C135.098 50.416 134.606 50.3125 134.203 50.1055C133.801 49.8946 133.496 49.6289 133.289 49.3086C133.082 48.9844 132.979 48.6485 132.979 48.3008H134.461C134.473 48.5469 134.539 48.7442 134.66 48.8926C134.782 49.041 134.934 49.1485 135.118 49.2149C135.305 49.2774 135.502 49.3086 135.709 49.3086C135.944 49.3086 136.141 49.2774 136.301 49.2149C136.461 49.1485 136.582 49.0606 136.664 48.9512C136.746 48.8379 136.787 48.709 136.787 48.5645ZM142.977 43.959V45.0723H139.344V43.959H142.977ZM140.317 42.4004H141.869V48.4707C141.869 48.6582 141.895 48.8028 141.946 48.9043C141.996 49.0059 142.073 49.0742 142.174 49.1094C142.276 49.1446 142.397 49.1621 142.537 49.1621C142.639 49.1621 142.733 49.1563 142.819 49.1446C142.905 49.1328 142.977 49.1211 143.035 49.1094L143.041 50.2696C142.912 50.3125 142.766 50.3477 142.602 50.375C142.442 50.4024 142.26 50.416 142.057 50.416C141.709 50.416 141.405 50.3575 141.143 50.2403C140.881 50.1192 140.678 49.9258 140.534 49.6602C140.389 49.3907 140.317 49.0352 140.317 48.5938V42.4004ZM150.211 48.6641L151.91 41.7676H152.83L152.889 43.2207L151.073 50.2989H150.1L150.211 48.6641ZM149.139 41.7676L150.534 48.6407V50.2989H149.473L147.539 41.7676H149.139ZM154.653 48.6114L156.024 41.7676H157.629L155.696 50.2989H154.635L154.653 48.6114ZM153.27 41.7676L154.969 48.6875L155.069 50.2989H154.096L152.285 43.2149L152.356 41.7676H153.27ZM161.692 50.416C161.211 50.416 160.78 50.3379 160.397 50.1817C160.014 50.0254 159.688 49.8086 159.418 49.5313C159.153 49.25 158.948 48.9239 158.803 48.5528C158.662 48.1778 158.592 47.7754 158.592 47.3457V47.1114C158.592 46.6231 158.662 46.1797 158.803 45.7813C158.944 45.3789 159.143 45.0332 159.401 44.7442C159.659 44.4551 159.967 44.2325 160.327 44.0762C160.686 43.92 161.082 43.8418 161.516 43.8418C161.965 43.8418 162.362 43.918 162.705 44.0703C163.049 44.2188 163.336 44.4297 163.567 44.7032C163.797 44.9766 163.971 45.3047 164.088 45.6875C164.205 46.0664 164.264 46.4864 164.264 46.9473V47.5977H159.295V46.5313H162.741V46.4141C162.733 46.168 162.686 45.9434 162.6 45.7403C162.514 45.5332 162.381 45.3692 162.202 45.2481C162.022 45.1231 161.789 45.0606 161.504 45.0606C161.274 45.0606 161.073 45.1114 160.901 45.2129C160.733 45.3106 160.592 45.4512 160.479 45.6348C160.369 45.8145 160.287 46.0293 160.233 46.2793C160.178 46.5293 160.151 46.8067 160.151 47.1114V47.3457C160.151 47.6114 160.186 47.8575 160.256 48.084C160.33 48.3106 160.438 48.5078 160.578 48.6758C160.723 48.8399 160.895 48.9688 161.094 49.0625C161.297 49.1524 161.528 49.1973 161.785 49.1973C162.11 49.1973 162.403 49.1348 162.664 49.0098C162.93 48.8809 163.16 48.6914 163.356 48.4414L164.135 49.25C164.002 49.4453 163.823 49.6328 163.596 49.8125C163.373 49.9922 163.104 50.1387 162.787 50.252C162.471 50.3614 162.106 50.416 161.692 50.416ZM168.649 50.416C168.168 50.416 167.737 50.3379 167.354 50.1817C166.971 50.0254 166.645 49.8086 166.375 49.5313C166.11 49.25 165.905 48.9239 165.76 48.5528C165.619 48.1778 165.549 47.7754 165.549 47.3457V47.1114C165.549 46.6231 165.619 46.1797 165.76 45.7813C165.901 45.3789 166.1 45.0332 166.358 44.7442C166.616 44.4551 166.924 44.2325 167.284 44.0762C167.643 43.92 168.039 43.8418 168.473 43.8418C168.922 43.8418 169.319 43.918 169.662 44.0703C170.006 44.2188 170.293 44.4297 170.524 44.7032C170.754 44.9766 170.928 45.3047 171.045 45.6875C171.162 46.0664 171.221 46.4864 171.221 46.9473V47.5977H166.252V46.5313H169.698V46.4141C169.69 46.168 169.643 45.9434 169.557 45.7403C169.471 45.5332 169.338 45.3692 169.159 45.2481C168.979 45.1231 168.746 45.0606 168.461 45.0606C168.231 45.0606 168.03 45.1114 167.858 45.2129C167.69 45.3106 167.549 45.4512 167.436 45.6348C167.327 45.8145 167.244 46.0293 167.19 46.2793C167.135 46.5293 167.108 46.8067 167.108 47.1114V47.3457C167.108 47.6114 167.143 47.8575 167.213 48.084C167.287 48.3106 167.395 48.5078 167.535 48.6758C167.68 48.8399 167.852 48.9688 168.051 49.0625C168.254 49.1524 168.485 49.1973 168.743 49.1973C169.067 49.1973 169.36 49.1348 169.621 49.0098C169.887 48.8809 170.118 48.6914 170.313 48.4414L171.092 49.25C170.959 49.4453 170.78 49.6328 170.553 49.8125C170.33 49.9922 170.061 50.1387 169.744 50.252C169.428 50.3614 169.063 50.416 168.649 50.416ZM174.305 41.293V50.2989H172.758V41.293H174.305ZM178.278 43.959L175.518 47.0586L174.024 48.5762L173.532 47.375L174.686 45.9219L176.409 43.959H178.278ZM176.696 50.2989L174.733 47.3457L175.764 46.3438L178.489 50.2989H176.696Z" fill="#979797"/>
<path d="M66.1719 139.002H343.5" stroke="#DBDADE" stroke-width="0.925904" stroke-dasharray="2.78 5.56"/>
<path d="M39.7833 107.825H40.4951V111.285H41.4037V111.902H40.4951V113.299H39.8098V111.902H37.2316V111.263L39.7833 107.825ZM37.9017 111.285H39.7947V108.745L37.9017 111.285ZM45.6584 113.299H44.9164L43.6897 111.334L42.9174 112.133V113.299H42.2208V107.673H42.9174V111.342L44.7574 109.385H45.56L44.1478 110.876L45.6584 113.299Z" fill="#979797"/>
<path d="M37.3075 151.974C37.3075 151.62 37.3933 151.32 37.5649 151.073C37.7366 150.823 37.965 150.632 38.2502 150.501C38.5379 150.37 38.8547 150.304 39.2005 150.304C39.5791 150.304 39.9135 150.36 40.2037 150.471C40.494 150.579 40.7212 150.738 40.8852 150.948C41.0493 151.157 41.1313 151.413 41.1313 151.716C41.1313 151.986 41.0455 152.231 40.8739 152.451C40.7022 152.668 40.4397 152.838 40.0864 152.962C40.3262 153.027 40.5357 153.123 40.7149 153.25C40.8941 153.376 41.0329 153.531 41.1313 153.715C41.2297 153.897 41.279 154.106 41.279 154.344C41.279 154.594 41.226 154.818 41.12 155.018C41.0165 155.214 40.8701 155.382 40.6808 155.521C40.4915 155.657 40.2681 155.762 40.0107 155.835C39.7532 155.906 39.4731 155.94 39.1702 155.938C38.7941 155.935 38.4622 155.866 38.1745 155.729C37.8893 155.593 37.6646 155.402 37.5006 155.158C37.3365 154.91 37.2482 154.617 37.2356 154.279H37.936C37.989 154.62 38.1278 154.881 38.3524 155.063C38.577 155.245 38.8585 155.336 39.1967 155.336C39.4642 155.336 39.6977 155.294 39.8971 155.211C40.0965 155.125 40.2504 155.007 40.359 154.859C40.4675 154.71 40.5218 154.535 40.5218 154.336C40.5218 154.116 40.4612 153.931 40.34 153.78C40.2189 153.628 40.0536 153.513 39.8441 153.435C39.6346 153.354 39.4011 153.313 39.1437 153.31L38.6515 153.299V152.704L39.121 152.693C39.3607 152.688 39.5753 152.642 39.7646 152.557C39.9539 152.468 40.1028 152.353 40.2113 152.212C40.3224 152.068 40.3779 151.911 40.3779 151.739C40.3779 151.587 40.3312 151.447 40.2378 151.319C40.1444 151.187 40.0094 151.083 39.8327 151.004C39.6586 150.926 39.4466 150.887 39.1967 150.887C38.9998 150.887 38.8118 150.926 38.6326 151.004C38.4534 151.08 38.3057 151.198 38.1896 151.357C38.0735 151.516 38.0117 151.721 38.0041 151.974H37.3075ZM45.6584 155.854H44.9164L43.6897 153.889L42.9174 154.688V155.854H42.2208V150.228H42.9174V153.897L44.7574 151.94H45.56L44.1478 153.431L45.6584 155.854Z" fill="#979797"/>
<path d="M37.6004 198.409V197.981V197.758C37.6004 197.478 37.6521 197.235 37.7556 197.031C37.8616 196.827 38.0004 196.649 38.172 196.497C38.3462 196.343 38.5355 196.206 38.7399 196.085C38.9469 195.963 39.1526 195.847 39.3571 195.736C39.564 195.623 39.7533 195.505 39.925 195.384C40.0966 195.26 40.2341 195.122 40.3376 194.968C40.4436 194.811 40.4966 194.627 40.4966 194.415C40.4966 194.137 40.3982 193.911 40.2013 193.737C40.007 193.563 39.7432 193.476 39.4101 193.476C39.0517 193.476 38.7639 193.577 38.5469 193.779C38.3298 193.981 38.2074 194.25 38.1796 194.585H37.483C37.4906 194.27 37.5688 193.982 37.7177 193.722C37.8666 193.46 38.085 193.25 38.3727 193.094C38.6604 192.937 39.0151 192.859 39.4366 192.859C39.8025 192.859 40.1206 192.924 40.3906 193.056C40.6607 193.184 40.8689 193.366 41.0153 193.601C41.1642 193.833 41.2387 194.104 41.2387 194.415C41.2387 194.698 41.1869 194.94 41.0835 195.142C40.98 195.344 40.8424 195.519 40.6708 195.668C40.5017 195.814 40.3162 195.946 40.1142 196.062C39.9123 196.178 39.7092 196.29 39.5047 196.399C39.3003 196.505 39.1135 196.617 38.9444 196.736C38.7753 196.852 38.639 196.986 38.5355 197.137C38.432 197.288 38.3803 197.469 38.3803 197.678V197.788H41.269V198.409H37.6004ZM45.6584 198.409H44.9164L43.6897 196.444L42.9174 197.243V198.409H42.2208V192.783H42.9174V196.452L44.7574 194.494H45.56L44.1478 195.986L45.6584 198.409Z" fill="#979797"/>
<path d="M39.9664 240.964V236.606H38.9101V236.148C39.2383 236.148 39.4932 236.124 39.6749 236.076C39.8566 236.028 39.9853 235.955 40.0611 235.857C40.1393 235.758 40.1822 235.636 40.1898 235.489H40.6895V240.964H39.9664ZM45.6584 240.964H44.9164L43.6897 238.999L42.9174 239.798V240.964H42.2208V235.338H42.9174V239.007L44.7574 237.049H45.56L44.1478 238.541L45.6584 240.964Z" fill="#979797"/>
<path d="M43.6 277.969C44.1931 277.969 44.6651 278.207 45.0159 278.684C45.3693 279.159 45.546 279.862 45.546 280.793C45.546 281.719 45.3706 282.42 45.0197 282.894C44.6689 283.366 44.1931 283.602 43.5924 283.602C42.9942 283.602 42.5197 283.367 42.1689 282.898C41.8181 282.426 41.6427 281.728 41.6427 280.804C41.6427 280.181 41.7234 279.658 41.885 279.237C42.0465 278.815 42.2736 278.499 42.5664 278.287C42.8592 278.075 43.2037 277.969 43.6 277.969ZM43.6 282.996C43.9912 282.996 44.2865 282.825 44.4859 282.481C44.6878 282.136 44.7888 281.574 44.7888 280.797C44.7888 280.004 44.6866 279.434 44.4821 279.085C44.2802 278.735 43.9849 278.559 43.5962 278.559C43.21 278.559 42.9122 278.736 42.7027 279.089C42.4958 279.44 42.3923 280.009 42.3923 280.797C42.3923 281.572 42.4958 282.132 42.7027 282.478C42.9097 282.823 43.2088 282.996 43.6 282.996Z" fill="#979797"/>
<path d="M62.0717 199.041H335.548" stroke="#DBDADE" stroke-width="0.925904" stroke-dasharray="2.78 5.56"/>
<path d="M62.0717 164.396H335.548" stroke="#DBDADE" stroke-width="0.925904" stroke-dasharray="2.78 5.56"/>
<path d="M62.0717 233.686H335.548" stroke="#DBDADE" stroke-width="0.925904" stroke-dasharray="2.78 5.56"/>
<path d="M56.8126 269.197L335.548 268.308" stroke="#DBDADE" stroke-width="0.925904"/>
<path d="M56.8126 269.197L56.8126 108.531" stroke="#DBDADE" stroke-width="0.925904"/>
<path opacity="0.5" d="M75.6351 282.04C75.6351 281.123 75.7844 280.408 76.0831 279.896C76.3818 279.379 76.9044 279.12 77.6511 279.12C78.3924 279.12 78.9124 279.379 79.2111 279.896C79.5098 280.408 79.6591 281.123 79.6591 282.04C79.6591 282.973 79.5098 283.699 79.2111 284.216C78.9124 284.733 78.3924 284.992 77.6511 284.992C76.9044 284.992 76.3818 284.733 76.0831 284.216C75.7844 283.699 75.6351 282.973 75.6351 282.04ZM78.9391 282.04C78.9391 281.576 78.9071 281.184 78.8431 280.864C78.7844 280.539 78.6591 280.277 78.4671 280.08C78.2804 279.883 78.0084 279.784 77.6511 279.784C77.2884 279.784 77.0111 279.883 76.8191 280.08C76.6324 280.277 76.5071 280.539 76.4431 280.864C76.3844 281.184 76.3551 281.576 76.3551 282.04C76.3551 282.52 76.3844 282.923 76.4431 283.248C76.5071 283.573 76.6324 283.835 76.8191 284.032C77.0111 284.229 77.2884 284.328 77.6511 284.328C78.0084 284.328 78.2804 284.229 78.4671 284.032C78.6591 283.835 78.7844 283.573 78.8431 283.248C78.9071 282.923 78.9391 282.52 78.9391 282.04ZM80.9295 279.872V279.208H82.4335V284.992H81.6975V279.872H80.9295Z" fill="#6F6B7D"/>
<path opacity="0.5" d="M122.387 282.04C122.387 281.123 122.536 280.408 122.835 279.896C123.134 279.379 123.656 279.12 124.403 279.12C125.144 279.12 125.664 279.379 125.963 279.896C126.262 280.408 126.411 281.123 126.411 282.04C126.411 282.973 126.262 283.699 125.963 284.216C125.664 284.733 125.144 284.992 124.403 284.992C123.656 284.992 123.134 284.733 122.835 284.216C122.536 283.699 122.387 282.973 122.387 282.04ZM125.691 282.04C125.691 281.576 125.659 281.184 125.595 280.864C125.536 280.539 125.411 280.277 125.219 280.08C125.032 279.883 124.76 279.784 124.403 279.784C124.04 279.784 123.763 279.883 123.571 280.08C123.384 280.277 123.259 280.539 123.195 280.864C123.136 281.184 123.107 281.576 123.107 282.04C123.107 282.52 123.136 282.923 123.195 283.248C123.259 283.573 123.384 283.835 123.571 284.032C123.763 284.229 124.04 284.328 124.403 284.328C124.76 284.328 125.032 284.229 125.219 284.032C125.411 283.835 125.536 283.573 125.595 283.248C125.659 282.923 125.691 282.52 125.691 282.04ZM127.785 284.408C128.463 283.864 128.993 283.419 129.377 283.072C129.761 282.72 130.084 282.355 130.345 281.976C130.612 281.592 130.745 281.216 130.745 280.848C130.745 280.501 130.66 280.229 130.489 280.032C130.324 279.829 130.055 279.728 129.681 279.728C129.319 279.728 129.036 279.843 128.833 280.072C128.636 280.296 128.529 280.597 128.513 280.976H127.809C127.831 280.379 128.012 279.917 128.353 279.592C128.695 279.267 129.135 279.104 129.673 279.104C130.223 279.104 130.657 279.256 130.977 279.56C131.303 279.864 131.465 280.283 131.465 280.816C131.465 281.259 131.332 281.691 131.065 282.112C130.804 282.528 130.505 282.896 130.169 283.216C129.833 283.531 129.404 283.899 128.881 284.32H131.633V284.928H127.785V284.408Z" fill="#6F6B7D"/>
<path opacity="0.5" d="M170.541 282.04C170.541 281.123 170.691 280.408 170.989 279.896C171.288 279.379 171.811 279.12 172.557 279.12C173.299 279.12 173.819 279.379 174.117 279.896C174.416 280.408 174.565 281.123 174.565 282.04C174.565 282.973 174.416 283.699 174.117 284.216C173.819 284.733 173.299 284.992 172.557 284.992C171.811 284.992 171.288 284.733 170.989 284.216C170.691 283.699 170.541 282.973 170.541 282.04ZM173.845 282.04C173.845 281.576 173.813 281.184 173.749 280.864C173.691 280.539 173.565 280.277 173.373 280.08C173.187 279.883 172.915 279.784 172.557 279.784C172.195 279.784 171.917 279.883 171.725 280.08C171.539 280.277 171.413 280.539 171.349 280.864C171.291 281.184 171.261 281.576 171.261 282.04C171.261 282.52 171.291 282.923 171.349 283.248C171.413 283.573 171.539 283.835 171.725 284.032C171.917 284.229 172.195 284.328 172.557 284.328C172.915 284.328 173.187 284.229 173.373 284.032C173.565 283.835 173.691 283.573 173.749 283.248C173.813 282.923 173.845 282.52 173.845 282.04ZM176.012 280.664C176.049 280.173 176.238 279.789 176.58 279.512C176.921 279.235 177.364 279.096 177.908 279.096C178.27 279.096 178.582 279.163 178.844 279.296C179.11 279.424 179.31 279.6 179.444 279.824C179.582 280.048 179.652 280.301 179.652 280.584C179.652 280.915 179.556 281.2 179.364 281.44C179.177 281.68 178.932 281.835 178.628 281.904V281.944C178.974 282.029 179.249 282.197 179.452 282.448C179.654 282.699 179.756 283.027 179.756 283.432C179.756 283.736 179.686 284.011 179.548 284.256C179.409 284.496 179.201 284.685 178.924 284.824C178.646 284.963 178.313 285.032 177.924 285.032C177.358 285.032 176.894 284.885 176.532 284.592C176.169 284.293 175.966 283.872 175.924 283.328H176.628C176.665 283.648 176.796 283.909 177.02 284.112C177.244 284.315 177.542 284.416 177.916 284.416C178.289 284.416 178.572 284.32 178.764 284.128C178.961 283.931 179.06 283.677 179.06 283.368C179.06 282.968 178.926 282.68 178.66 282.504C178.393 282.328 177.99 282.24 177.452 282.24H177.268V281.632H177.46C177.95 281.627 178.321 281.547 178.572 281.392C178.822 281.232 178.948 280.987 178.948 280.656C178.948 280.373 178.854 280.147 178.668 279.976C178.486 279.805 178.225 279.72 177.884 279.72C177.553 279.72 177.286 279.805 177.084 279.976C176.881 280.147 176.761 280.376 176.724 280.664H176.012Z" fill="#6F6B7D"/>
<path opacity="0.5" d="M219.029 282.04C219.029 281.123 219.178 280.408 219.477 279.896C219.775 279.379 220.298 279.12 221.045 279.12C221.786 279.12 222.306 279.379 222.605 279.896C222.903 280.408 223.053 281.123 223.053 282.04C223.053 282.973 222.903 283.699 222.605 284.216C222.306 284.733 221.786 284.992 221.045 284.992C220.298 284.992 219.775 284.733 219.477 284.216C219.178 283.699 219.029 282.973 219.029 282.04ZM222.333 282.04C222.333 281.576 222.301 281.184 222.237 280.864C222.178 280.539 222.053 280.277 221.861 280.08C221.674 279.883 221.402 279.784 221.045 279.784C220.682 279.784 220.405 279.883 220.213 280.08C220.026 280.277 219.901 280.539 219.837 280.864C219.778 281.184 219.749 281.576 219.749 282.04C219.749 282.52 219.778 282.923 219.837 283.248C219.901 283.573 220.026 283.835 220.213 284.032C220.405 284.229 220.682 284.328 221.045 284.328C221.402 284.328 221.674 284.229 221.861 284.032C222.053 283.835 222.178 283.573 222.237 283.248C222.301 282.923 222.333 282.52 222.333 282.04ZM224.339 283.704V283.152L227.147 279.264H228.019V283.072H228.819V283.704H228.019V284.992H227.299V283.704H224.339ZM227.331 280.024L225.179 283.072H227.331V280.024Z" fill="#6F6B7D"/>
<path opacity="0.5" d="M267.241 282.04C267.241 281.123 267.39 280.408 267.689 279.896C267.988 279.379 268.51 279.12 269.257 279.12C269.998 279.12 270.518 279.379 270.817 279.896C271.116 280.408 271.265 281.123 271.265 282.04C271.265 282.973 271.116 283.699 270.817 284.216C270.518 284.733 269.998 284.992 269.257 284.992C268.51 284.992 267.988 284.733 267.689 284.216C267.39 283.699 267.241 282.973 267.241 282.04ZM270.545 282.04C270.545 281.576 270.513 281.184 270.449 280.864C270.39 280.539 270.265 280.277 270.073 280.08C269.886 279.883 269.614 279.784 269.257 279.784C268.894 279.784 268.617 279.883 268.425 280.08C268.238 280.277 268.113 280.539 268.049 280.864C267.99 281.184 267.961 281.576 267.961 282.04C267.961 282.52 267.99 282.923 268.049 283.248C268.113 283.573 268.238 283.835 268.425 284.032C268.617 284.229 268.894 284.328 269.257 284.328C269.614 284.328 269.886 284.229 270.073 284.032C270.265 283.835 270.39 283.573 270.449 283.248C270.513 282.923 270.545 282.52 270.545 282.04ZM276.415 279.84H273.607V281.664C273.73 281.493 273.911 281.355 274.151 281.248C274.391 281.136 274.65 281.08 274.927 281.08C275.37 281.08 275.73 281.173 276.007 281.36C276.285 281.541 276.482 281.779 276.599 282.072C276.722 282.36 276.783 282.667 276.783 282.992C276.783 283.376 276.711 283.72 276.567 284.024C276.423 284.328 276.202 284.568 275.903 284.744C275.61 284.92 275.245 285.008 274.807 285.008C274.247 285.008 273.794 284.864 273.447 284.576C273.101 284.288 272.89 283.904 272.815 283.424H273.527C273.597 283.728 273.743 283.965 273.967 284.136C274.191 284.307 274.474 284.392 274.815 284.392C275.237 284.392 275.554 284.267 275.767 284.016C275.981 283.76 276.087 283.424 276.087 283.008C276.087 282.592 275.981 282.272 275.767 282.048C275.554 281.819 275.239 281.704 274.823 281.704C274.541 281.704 274.293 281.773 274.079 281.912C273.871 282.045 273.719 282.229 273.623 282.464H272.935V279.2H276.415V279.84Z" fill="#6F6B7D"/>
<path opacity="0.5" d="M315.423 282.04C315.423 281.123 315.572 280.408 315.871 279.896C316.169 279.379 316.692 279.12 317.439 279.12C318.18 279.12 318.7 279.379 318.999 279.896C319.297 280.408 319.447 281.123 319.447 282.04C319.447 282.973 319.297 283.699 318.999 284.216C318.7 284.733 318.18 284.992 317.439 284.992C316.692 284.992 316.169 284.733 315.871 284.216C315.572 283.699 315.423 282.973 315.423 282.04ZM318.727 282.04C318.727 281.576 318.695 281.184 318.631 280.864C318.572 280.539 318.447 280.277 318.255 280.08C318.068 279.883 317.796 279.784 317.439 279.784C317.076 279.784 316.799 279.883 316.607 280.08C316.42 280.277 316.295 280.539 316.231 280.864C316.172 281.184 316.143 281.576 316.143 282.04C316.143 282.52 316.172 282.923 316.231 283.248C316.295 283.573 316.42 283.835 316.607 284.032C316.799 284.229 317.076 284.328 317.439 284.328C317.796 284.328 318.068 284.229 318.255 284.032C318.447 283.835 318.572 283.573 318.631 283.248C318.695 282.923 318.727 282.52 318.727 282.04ZM324.133 280.584C324.016 279.992 323.65 279.696 323.037 279.696C322.562 279.696 322.208 279.88 321.973 280.248C321.738 280.611 321.624 281.211 321.629 282.048C321.752 281.771 321.954 281.555 322.237 281.4C322.525 281.24 322.845 281.16 323.197 281.16C323.746 281.16 324.184 281.331 324.509 281.672C324.84 282.013 325.005 282.485 325.005 283.088C325.005 283.451 324.933 283.776 324.789 284.064C324.65 284.352 324.437 284.581 324.149 284.752C323.866 284.923 323.522 285.008 323.117 285.008C322.568 285.008 322.138 284.885 321.829 284.64C321.52 284.395 321.304 284.056 321.181 283.624C321.058 283.192 320.997 282.659 320.997 282.024C320.997 280.067 321.68 279.088 323.045 279.088C323.568 279.088 323.978 279.229 324.277 279.512C324.576 279.795 324.752 280.152 324.805 280.584H324.133ZM323.045 281.776C322.816 281.776 322.6 281.824 322.397 281.92C322.194 282.011 322.029 282.152 321.901 282.344C321.778 282.531 321.717 282.76 321.717 283.032C321.717 283.437 321.834 283.768 322.069 284.024C322.304 284.275 322.64 284.4 323.077 284.4C323.45 284.4 323.746 284.285 323.965 284.056C324.189 283.821 324.301 283.507 324.301 283.112C324.301 282.696 324.194 282.371 323.981 282.136C323.768 281.896 323.456 281.776 323.045 281.776Z" fill="#6F6B7D"/>
<ellipse cx="66.7964" cy="312.938" rx="4.72455" ry="3.89756" fill="#7367F0"/>
<path opacity="0.7" d="M83.757 308.408V316.308H82.7262V308.408H83.757ZM86.296 308.408V309.266H80.1926V308.408H86.296ZM88.7825 307.974V316.308H87.7789V307.974H88.7825ZM88.5438 313.15L88.1261 313.134C88.1297 312.732 88.1894 312.362 88.3051 312.022C88.4208 311.678 88.5836 311.38 88.7934 311.127C89.0031 310.873 89.2527 310.678 89.5421 310.541C89.835 310.4 90.1587 310.329 90.5132 310.329C90.8025 310.329 91.0629 310.369 91.2944 310.448C91.5259 310.524 91.723 310.647 91.8857 310.817C92.0521 310.987 92.1787 311.208 92.2655 311.479C92.3523 311.747 92.3957 312.074 92.3957 312.461V316.308H91.3866V312.45C91.3866 312.143 91.3414 311.897 91.251 311.712C91.1606 311.524 91.0286 311.389 90.855 311.306C90.6813 311.219 90.468 311.175 90.2148 311.175C89.9652 311.175 89.7374 311.228 89.5312 311.333C89.3287 311.438 89.1532 311.582 89.005 311.767C88.8603 311.951 88.7464 312.163 88.6632 312.401C88.5836 312.637 88.5438 312.886 88.5438 313.15ZM95.4519 310.438V316.308H94.4428V310.438H95.4519ZM94.3669 308.88C94.3669 308.718 94.4157 308.58 94.5134 308.468C94.6146 308.356 94.7629 308.3 94.9582 308.3C95.1499 308.3 95.2964 308.356 95.3977 308.468C95.5026 308.58 95.555 308.718 95.555 308.88C95.555 309.036 95.5026 309.17 95.3977 309.282C95.2964 309.39 95.1499 309.445 94.9582 309.445C94.7629 309.445 94.6146 309.39 94.5134 309.282C94.4157 309.17 94.3669 309.036 94.3669 308.88ZM100.944 314.751C100.944 314.606 100.912 314.472 100.846 314.349C100.785 314.223 100.657 314.109 100.461 314.007C100.27 313.902 99.9802 313.812 99.5932 313.736C99.2677 313.667 98.9729 313.586 98.7089 313.492C98.4485 313.398 98.226 313.284 98.0416 313.15C97.8607 313.016 97.7215 312.859 97.6238 312.678C97.5262 312.497 97.4773 312.286 97.4773 312.043C97.4773 311.812 97.528 311.593 97.6292 311.387C97.7341 311.181 97.8806 310.998 98.0687 310.839C98.2604 310.68 98.49 310.555 98.7577 310.465C99.0253 310.374 99.3237 310.329 99.6529 310.329C100.123 310.329 100.525 310.412 100.857 310.579C101.19 310.745 101.445 310.967 101.622 311.246C101.799 311.521 101.888 311.826 101.888 312.163H100.884C100.884 312 100.836 311.843 100.738 311.691C100.644 311.535 100.505 311.407 100.32 311.306C100.139 311.204 99.9169 311.154 99.6529 311.154C99.3744 311.154 99.1483 311.197 98.9747 311.284C98.8047 311.367 98.6799 311.474 98.6004 311.604C98.5244 311.734 98.4864 311.872 98.4864 312.016C98.4864 312.125 98.5045 312.222 98.5407 312.309C98.5805 312.392 98.6492 312.47 98.7468 312.543C98.8445 312.611 98.9819 312.676 99.1592 312.738C99.3364 312.799 99.5624 312.861 99.8373 312.922C100.318 313.031 100.714 313.161 101.025 313.313C101.336 313.465 101.568 313.651 101.72 313.872C101.872 314.092 101.948 314.36 101.948 314.675C101.948 314.931 101.893 315.167 101.785 315.38C101.68 315.593 101.526 315.778 101.324 315.933C101.125 316.085 100.886 316.205 100.608 316.291C100.333 316.375 100.024 316.416 99.68 316.416C99.1628 316.416 98.7251 316.324 98.3671 316.139C98.009 315.955 97.7378 315.716 97.5533 315.423C97.3688 315.13 97.2766 314.821 97.2766 314.496H98.2857C98.3002 314.77 98.3797 314.989 98.5244 315.152C98.6691 315.311 98.8463 315.425 99.0561 315.494C99.2659 315.559 99.4738 315.591 99.68 315.591C99.9549 315.591 100.185 315.555 100.369 315.483C100.557 315.411 100.7 315.311 100.798 315.185C100.895 315.058 100.944 314.913 100.944 314.751ZM109.178 313.921L110.746 308.408H111.505L111.066 310.551L109.378 316.308H108.624L109.178 313.921ZM107.556 308.408L108.803 313.812L109.178 316.308H108.429L106.514 308.408H107.556ZM113.534 313.807L114.755 308.408H115.802L113.892 316.308H113.144L113.534 313.807ZM111.619 308.408L113.144 313.921L113.697 316.308H112.943L111.315 310.551L110.87 308.408H111.619ZM119.536 316.416C119.128 316.416 118.757 316.347 118.424 316.21C118.095 316.069 117.811 315.872 117.572 315.619C117.337 315.365 117.156 315.065 117.03 314.718C116.903 314.371 116.84 313.991 116.84 313.579V313.351C116.84 312.873 116.91 312.448 117.052 312.076C117.193 311.7 117.384 311.382 117.627 311.121C117.869 310.861 118.144 310.664 118.451 310.53C118.759 310.396 119.077 310.329 119.406 310.329C119.826 310.329 120.187 310.401 120.491 310.546C120.799 310.691 121.05 310.893 121.245 311.154C121.441 311.41 121.585 311.714 121.679 312.065C121.773 312.412 121.82 312.792 121.82 313.204V313.655H117.437V312.835H120.817V312.76C120.802 312.499 120.748 312.246 120.654 312C120.563 311.754 120.419 311.552 120.22 311.392C120.021 311.233 119.75 311.154 119.406 311.154C119.178 311.154 118.968 311.202 118.777 311.3C118.585 311.394 118.421 311.535 118.283 311.723C118.146 311.911 118.039 312.141 117.963 312.412C117.887 312.684 117.849 312.996 117.849 313.351V313.579C117.849 313.857 117.887 314.119 117.963 314.365C118.043 314.608 118.156 314.821 118.305 315.006C118.457 315.19 118.639 315.335 118.853 315.44C119.07 315.544 119.316 315.597 119.591 315.597C119.945 315.597 120.245 315.525 120.491 315.38C120.737 315.235 120.952 315.042 121.137 314.799L121.744 315.282C121.618 315.474 121.457 315.657 121.262 315.83C121.066 316.004 120.826 316.145 120.54 316.253C120.258 316.362 119.923 316.416 119.536 316.416ZM125.891 316.416C125.482 316.416 125.112 316.347 124.779 316.21C124.45 316.069 124.166 315.872 123.927 315.619C123.692 315.365 123.511 315.065 123.385 314.718C123.258 314.371 123.195 313.991 123.195 313.579V313.351C123.195 312.873 123.265 312.448 123.406 312.076C123.547 311.7 123.739 311.382 123.981 311.121C124.224 310.861 124.499 310.664 124.806 310.53C125.113 310.396 125.432 310.329 125.761 310.329C126.18 310.329 126.542 310.401 126.846 310.546C127.153 310.691 127.405 310.893 127.6 311.154C127.795 311.41 127.94 311.714 128.034 312.065C128.128 312.412 128.175 312.792 128.175 313.204V313.655H123.791V312.835H127.171V312.76C127.157 312.499 127.103 312.246 127.009 312C126.918 311.754 126.774 311.552 126.575 311.392C126.376 311.233 126.104 311.154 125.761 311.154C125.533 311.154 125.323 311.202 125.132 311.3C124.94 311.394 124.775 311.535 124.638 311.723C124.5 311.911 124.394 312.141 124.318 312.412C124.242 312.684 124.204 312.996 124.204 313.351V313.579C124.204 313.857 124.242 314.119 124.318 314.365C124.397 314.608 124.511 314.821 124.66 315.006C124.811 315.19 124.994 315.335 125.207 315.44C125.424 315.544 125.67 315.597 125.945 315.597C126.3 315.597 126.6 315.525 126.846 315.38C127.092 315.235 127.307 315.042 127.491 314.799L128.099 315.282C127.973 315.474 127.812 315.657 127.616 315.83C127.421 316.004 127.18 316.145 126.895 316.253C126.613 316.362 126.278 316.416 125.891 316.416ZM130.819 307.974V316.308H129.81V307.974H130.819ZM134.405 310.438L131.844 313.177L130.412 314.664L130.331 313.595L131.356 312.369L133.179 310.438H134.405ZM133.488 316.308L131.394 313.508L131.915 312.613L134.671 316.308H133.488Z" fill="#363740"/>
<ellipse cx="166.975" cy="312.938" rx="4.90992" ry="3.89756" fill="#FFE600"/>
<path opacity="0.7" d="M186.32 315.456V316.308H182.371V315.456H186.32ZM182.577 308.408V316.308H181.53V308.408H182.577ZM191.292 315.304V312.282C191.292 312.051 191.245 311.85 191.151 311.68C191.06 311.506 190.923 311.372 190.738 311.278C190.554 311.184 190.326 311.137 190.055 311.137C189.802 311.137 189.579 311.181 189.387 311.268C189.199 311.354 189.051 311.468 188.943 311.609C188.838 311.75 188.785 311.902 188.785 312.065H187.782C187.782 311.855 187.836 311.647 187.944 311.441C188.053 311.235 188.208 311.049 188.411 310.882C188.617 310.712 188.863 310.579 189.149 310.481C189.438 310.38 189.76 310.329 190.114 310.329C190.541 310.329 190.917 310.401 191.243 310.546C191.572 310.691 191.829 310.91 192.013 311.202C192.201 311.492 192.295 311.855 192.295 312.293V315.027C192.295 315.223 192.312 315.431 192.344 315.651C192.38 315.872 192.433 316.062 192.501 316.221V316.308H191.454C191.404 316.192 191.364 316.038 191.335 315.846C191.306 315.651 191.292 315.47 191.292 315.304ZM191.465 312.749L191.476 313.454H190.462C190.176 313.454 189.921 313.477 189.697 313.524C189.472 313.568 189.284 313.635 189.132 313.725C188.981 313.816 188.865 313.93 188.785 314.067C188.706 314.201 188.666 314.358 188.666 314.539C188.666 314.723 188.707 314.892 188.791 315.044C188.874 315.195 188.999 315.317 189.165 315.407C189.335 315.494 189.543 315.537 189.789 315.537C190.096 315.537 190.368 315.472 190.603 315.342C190.838 315.212 191.024 315.053 191.161 314.865C191.303 314.676 191.378 314.494 191.389 314.317L191.818 314.799C191.793 314.951 191.724 315.119 191.612 315.304C191.5 315.488 191.35 315.666 191.161 315.836C190.977 316.002 190.756 316.141 190.5 316.253C190.246 316.362 189.961 316.416 189.642 316.416C189.245 316.416 188.896 316.338 188.595 316.183C188.299 316.027 188.067 315.819 187.901 315.559C187.738 315.295 187.657 315 187.657 314.675C187.657 314.36 187.718 314.083 187.841 313.845C187.964 313.602 188.141 313.402 188.373 313.242C188.604 313.08 188.883 312.957 189.208 312.873C189.534 312.79 189.897 312.749 190.299 312.749H191.465ZM197.755 314.751C197.755 314.606 197.722 314.472 197.657 314.349C197.596 314.223 197.467 314.109 197.272 314.007C197.08 313.902 196.791 313.812 196.404 313.736C196.079 313.667 195.784 313.586 195.52 313.492C195.259 313.398 195.037 313.284 194.852 313.15C194.672 313.016 194.532 312.859 194.435 312.678C194.337 312.497 194.288 312.286 194.288 312.043C194.288 311.812 194.339 311.593 194.44 311.387C194.545 311.181 194.691 310.998 194.88 310.839C195.071 310.68 195.301 310.555 195.569 310.465C195.836 310.374 196.135 310.329 196.464 310.329C196.934 310.329 197.335 310.412 197.668 310.579C198.001 310.745 198.256 310.967 198.433 311.246C198.61 311.521 198.699 311.826 198.699 312.163H197.695C197.695 312 197.646 311.843 197.549 311.691C197.455 311.535 197.315 311.407 197.131 311.306C196.95 311.204 196.728 311.154 196.464 311.154C196.185 311.154 195.959 311.197 195.786 311.284C195.616 311.367 195.491 311.474 195.411 311.604C195.335 311.734 195.297 311.872 195.297 312.016C195.297 312.125 195.315 312.222 195.352 312.309C195.391 312.392 195.46 312.47 195.558 312.543C195.655 312.611 195.793 312.676 195.97 312.738C196.147 312.799 196.373 312.861 196.648 312.922C197.129 313.031 197.525 313.161 197.836 313.313C198.147 313.465 198.379 313.651 198.531 313.872C198.683 314.092 198.759 314.36 198.759 314.675C198.759 314.931 198.704 315.167 198.596 315.38C198.491 315.593 198.337 315.778 198.135 315.933C197.936 316.085 197.697 316.205 197.419 316.291C197.144 316.375 196.834 316.416 196.491 316.416C195.974 316.416 195.536 316.324 195.178 316.139C194.82 315.955 194.549 315.716 194.364 315.423C194.18 315.13 194.087 314.821 194.087 314.496H195.097C195.111 314.77 195.191 314.989 195.335 315.152C195.48 315.311 195.657 315.425 195.867 315.494C196.077 315.559 196.285 315.591 196.491 315.591C196.766 315.591 196.995 315.555 197.18 315.483C197.368 315.411 197.511 315.311 197.608 315.185C197.706 315.058 197.755 314.913 197.755 314.751ZM202.997 310.438V311.208H199.824V310.438H202.997ZM200.898 309.011H201.902V314.854C201.902 315.053 201.932 315.203 201.994 315.304C202.055 315.405 202.135 315.472 202.233 315.505C202.33 315.537 202.435 315.554 202.547 315.554C202.63 315.554 202.717 315.546 202.808 315.532C202.902 315.514 202.972 315.499 203.019 315.488L203.025 316.308C202.945 316.333 202.84 316.356 202.71 316.378C202.583 316.403 202.43 316.416 202.249 316.416C202.003 316.416 201.777 316.367 201.571 316.27C201.364 316.172 201.2 316.009 201.077 315.781C200.958 315.55 200.898 315.239 200.898 314.848V309.011ZM210.086 313.921L211.654 308.408H212.414L211.974 310.551L210.287 316.308H209.533L210.086 313.921ZM208.464 308.408L209.712 313.812L210.086 316.308H209.338L207.423 308.408H208.464ZM214.443 313.807L215.664 308.408H216.711L214.801 316.308H214.052L214.443 313.807ZM212.528 308.408L214.052 313.921L214.606 316.308H213.852L212.224 310.551L211.779 308.408H212.528ZM220.445 316.416C220.036 316.416 219.666 316.347 219.333 316.21C219.004 316.069 218.72 315.872 218.481 315.619C218.246 315.365 218.065 315.065 217.939 314.718C217.812 314.371 217.749 313.991 217.749 313.579V313.351C217.749 312.873 217.819 312.448 217.96 312.076C218.101 311.7 218.293 311.382 218.535 311.121C218.778 310.861 219.053 310.664 219.36 310.53C219.667 310.396 219.986 310.329 220.315 310.329C220.734 310.329 221.096 310.401 221.4 310.546C221.707 310.691 221.959 310.893 222.154 311.154C222.349 311.41 222.494 311.714 222.588 312.065C222.682 312.412 222.729 312.792 222.729 313.204V313.655H218.345V312.835H221.725V312.76C221.711 312.499 221.657 312.246 221.563 312C221.472 311.754 221.327 311.552 221.129 311.392C220.93 311.233 220.658 311.154 220.315 311.154C220.087 311.154 219.877 311.202 219.685 311.3C219.494 311.394 219.329 311.535 219.192 311.723C219.054 311.911 218.948 312.141 218.872 312.412C218.796 312.684 218.758 312.996 218.758 313.351V313.579C218.758 313.857 218.796 314.119 218.872 314.365C218.951 314.608 219.065 314.821 219.213 315.006C219.365 315.19 219.548 315.335 219.761 315.44C219.978 315.544 220.224 315.597 220.499 315.597C220.854 315.597 221.154 315.525 221.4 315.38C221.646 315.235 221.861 315.042 222.045 314.799L222.653 315.282C222.526 315.474 222.366 315.657 222.17 315.83C221.975 316.004 221.734 316.145 221.449 316.253C221.167 316.362 220.832 316.416 220.445 316.416ZM226.8 316.416C226.391 316.416 226.02 316.347 225.688 316.21C225.358 316.069 225.075 315.872 224.836 315.619C224.601 315.365 224.42 315.065 224.293 314.718C224.167 314.371 224.103 313.991 224.103 313.579V313.351C224.103 312.873 224.174 312.448 224.315 312.076C224.456 311.7 224.648 311.382 224.89 311.121C225.132 310.861 225.407 310.664 225.715 310.53C226.022 310.396 226.34 310.329 226.67 310.329C227.089 310.329 227.451 310.401 227.755 310.546C228.062 310.691 228.313 310.893 228.509 311.154C228.704 311.41 228.849 311.714 228.943 312.065C229.037 312.412 229.084 312.792 229.084 313.204V313.655H224.7V312.835H228.08V312.76C228.066 312.499 228.011 312.246 227.917 312C227.827 311.754 227.682 311.552 227.483 311.392C227.284 311.233 227.013 311.154 226.67 311.154C226.442 311.154 226.232 311.202 226.04 311.3C225.849 311.394 225.684 311.535 225.547 311.723C225.409 311.911 225.302 312.141 225.226 312.412C225.15 312.684 225.112 312.996 225.112 313.351V313.579C225.112 313.857 225.15 314.119 225.226 314.365C225.306 314.608 225.42 314.821 225.568 315.006C225.72 315.19 225.903 315.335 226.116 315.44C226.333 315.544 226.579 315.597 226.854 315.597C227.208 315.597 227.509 315.525 227.755 315.38C228.001 315.235 228.216 315.042 228.4 314.799L229.008 315.282C228.881 315.474 228.72 315.657 228.525 315.83C228.33 316.004 228.089 316.145 227.803 316.253C227.521 316.362 227.187 316.416 226.8 316.416ZM231.728 307.974V316.308H230.719V307.974H231.728ZM235.314 310.438L232.753 313.177L231.321 314.664L231.239 313.595L232.265 312.369L234.088 310.438H235.314ZM234.397 316.308L232.303 313.508L232.824 312.613L235.58 316.308H234.397Z" fill="#363740"/>
<path d="M78.2885 189.663L123.39 107.762L173.955 215.761L227.259 116.164L270.373 184.504L318.582 172.341" stroke="#FFE600" stroke-width="2.77771" stroke-linecap="round" stroke-linejoin="round"/>
<path d="M78.2902 213.916L129.254 226.175L193.513 144.626L226.821 195.848L283.794 213.916L318.583 144.626" stroke="#7367F0" stroke-width="2.77771" stroke-linecap="round" stroke-linejoin="round"/>
<defs>
<clipPath id="clip0_2_881">
<rect x="273" y="12.5908" width="70.5" height="17.4162" rx="2.52486" fill="white"/>
</clipPath>
</defs>
</svg>
