<svg width="170" height="248" viewBox="0 0 170 248" fill="none" xmlns="http://www.w3.org/2000/svg">
<rect width="169.75" height="248" rx="8" fill="white"/>
<path d="M32.2861 21.2142V29.0346H30.5405V21.2142H32.2861ZM34.6655 21.2142V22.5731H28.2095V21.2142H34.6655ZM34.1714 26.1879V26.0751C34.1714 25.649 34.2323 25.2569 34.354 24.8988C34.4757 24.5372 34.6548 24.2238 34.8911 23.9589C35.1274 23.6939 35.4175 23.488 35.7612 23.3412C36.105 23.1908 36.4989 23.1156 36.9429 23.1156C37.394 23.1156 37.7915 23.1908 38.1353 23.3412C38.4826 23.488 38.7744 23.6939 39.0107 23.9589C39.2471 24.2238 39.4261 24.5372 39.5479 24.8988C39.6696 25.2569 39.7305 25.649 39.7305 26.0751V26.1879C39.7305 26.6104 39.6696 27.0025 39.5479 27.3641C39.4261 27.7222 39.2471 28.0355 39.0107 28.3041C38.7744 28.5691 38.4844 28.775 38.1406 28.9218C37.7969 29.0686 37.4012 29.142 36.9536 29.142C36.5096 29.142 36.1139 29.0686 35.7666 28.9218C35.4193 28.775 35.1274 28.5691 34.8911 28.3041C34.6548 28.0355 34.4757 27.7222 34.354 27.3641C34.2323 27.0025 34.1714 26.6104 34.1714 26.1879ZM35.8525 26.0751V26.1879C35.8525 26.417 35.8704 26.6319 35.9062 26.8324C35.9456 27.0329 36.0083 27.2084 36.0942 27.3588C36.1802 27.5092 36.293 27.6273 36.4326 27.7133C36.5758 27.7956 36.7495 27.8368 36.9536 27.8368C37.1577 27.8368 37.3296 27.7956 37.4692 27.7133C37.6089 27.6273 37.7217 27.5092 37.8076 27.3588C37.8936 27.2084 37.9544 27.0329 37.9902 26.8324C38.0296 26.6319 38.0493 26.417 38.0493 26.1879V26.0751C38.0493 25.8495 38.0296 25.6382 37.9902 25.4413C37.9544 25.2408 37.8936 25.0635 37.8076 24.9096C37.7217 24.7556 37.6071 24.6356 37.4639 24.5497C37.3242 24.4638 37.1506 24.4208 36.9429 24.4208C36.7424 24.4208 36.5723 24.4638 36.4326 24.5497C36.293 24.6356 36.1802 24.7556 36.0942 24.9096C36.0083 25.0635 35.9456 25.2408 35.9062 25.4413C35.8704 25.6382 35.8525 25.8495 35.8525 26.0751ZM43.5654 23.223V24.3993H40.1172V23.223H43.5654ZM40.9067 21.7836H42.5879V27.2138C42.5879 27.3749 42.6076 27.4984 42.647 27.5844C42.6864 27.6703 42.7508 27.7312 42.8403 27.767C42.9299 27.7992 43.0444 27.8153 43.1841 27.8153C43.2843 27.8153 43.3703 27.8117 43.4419 27.8046C43.5135 27.7974 43.5798 27.7885 43.6406 27.7777V28.9916C43.4974 29.0381 43.3452 29.0739 43.1841 29.099C43.0229 29.1277 42.8475 29.142 42.6577 29.142C42.2961 29.142 41.9827 29.0829 41.7178 28.9647C41.4564 28.8466 41.2559 28.6604 41.1162 28.4061C40.9766 28.1483 40.9067 27.8135 40.9067 27.4017V21.7836ZM47.4487 27.6488V25.1566C47.4487 24.9812 47.4219 24.8308 47.3682 24.7055C47.3145 24.5801 47.2303 24.4817 47.1157 24.41C47.0011 24.3384 46.8525 24.3026 46.6699 24.3026C46.516 24.3026 46.3817 24.3295 46.2671 24.3832C46.1561 24.4369 46.0701 24.5139 46.0093 24.6141C45.952 24.7144 45.9233 24.8379 45.9233 24.9848H44.2476C44.2476 24.7234 44.3066 24.4799 44.4248 24.2543C44.543 24.0287 44.7113 23.83 44.9297 23.6581C45.1517 23.4862 45.4167 23.3537 45.7246 23.2606C46.0326 23.164 46.3781 23.1156 46.7612 23.1156C47.216 23.1156 47.6206 23.1926 47.9751 23.3466C48.3332 23.497 48.616 23.7243 48.8237 24.0287C49.0314 24.3295 49.1353 24.709 49.1353 25.1674V27.6005C49.1353 27.9514 49.1549 28.2271 49.1943 28.4276C49.2373 28.6246 49.2982 28.7964 49.377 28.9433V29.0346H47.6851C47.6063 28.8663 47.5472 28.6586 47.5078 28.4115C47.4684 28.1609 47.4487 27.9066 47.4487 27.6488ZM47.6582 25.4896L47.6689 26.4135H46.8364C46.6502 26.4135 46.4891 26.4367 46.353 26.4833C46.2205 26.5298 46.1131 26.5943 46.0308 26.6766C45.9484 26.7554 45.8875 26.8485 45.8481 26.9559C45.8123 27.0598 45.7944 27.1744 45.7944 27.2997C45.7944 27.4179 45.8231 27.5253 45.8804 27.622C45.9377 27.7151 46.0164 27.7885 46.1167 27.8422C46.217 27.8959 46.3333 27.9227 46.4658 27.9227C46.6842 27.9227 46.8704 27.8798 47.0244 27.7938C47.182 27.7079 47.3037 27.6041 47.3896 27.4823C47.4756 27.357 47.5186 27.2406 47.5186 27.1332L47.9214 27.8314C47.8569 27.9747 47.7782 28.1233 47.6851 28.2772C47.592 28.4276 47.4738 28.5691 47.3306 28.7016C47.1873 28.8305 47.0137 28.9361 46.8096 29.0184C46.609 29.1008 46.3674 29.142 46.0845 29.142C45.7192 29.142 45.388 29.0686 45.0908 28.9218C44.7936 28.7714 44.5555 28.5655 44.3765 28.3041C44.201 28.0427 44.1133 27.7419 44.1133 27.4017C44.1133 27.0974 44.1688 26.827 44.2798 26.5907C44.3908 26.3544 44.5573 26.1539 44.7793 25.9891C45.0049 25.8244 45.2878 25.7009 45.6279 25.6185C45.9681 25.5326 46.3656 25.4896 46.8203 25.4896H47.6582ZM52.0034 20.7846V29.0346H50.3223V20.7846H52.0034ZM59.1201 26.3168H57.1543V24.9579H59.1201C59.4102 24.9579 59.6429 24.9096 59.8184 24.8129C59.9974 24.7162 60.1281 24.5837 60.2104 24.4154C60.2964 24.2435 60.3394 24.0502 60.3394 23.8353C60.3394 23.6133 60.2964 23.4074 60.2104 23.2177C60.1281 23.0243 59.9974 22.8685 59.8184 22.7504C59.6429 22.6322 59.4102 22.5731 59.1201 22.5731H57.7881V29.0346H56.0371V21.2142H59.1201C59.7432 21.2142 60.2767 21.327 60.7207 21.5526C61.1683 21.7782 61.5103 22.0879 61.7466 22.4818C61.9865 22.8721 62.1064 23.3197 62.1064 23.8246C62.1064 24.3295 61.9865 24.7681 61.7466 25.1405C61.5103 25.5129 61.1683 25.803 60.7207 26.0106C60.2767 26.2147 59.7432 26.3168 59.1201 26.3168ZM65.748 29.142C65.2861 29.142 64.8726 29.0686 64.5073 28.9218C64.1421 28.775 63.8324 28.5726 63.5781 28.3148C63.3275 28.0534 63.1359 27.7527 63.0034 27.4125C62.8709 27.0723 62.8047 26.7089 62.8047 26.3222V26.1181C62.8047 25.6848 62.8656 25.2855 62.9873 24.9203C63.109 24.5551 63.2863 24.2382 63.519 23.9696C63.7554 23.6975 64.0454 23.488 64.3892 23.3412C64.7329 23.1908 65.125 23.1156 65.5654 23.1156C65.9772 23.1156 66.3442 23.1836 66.6665 23.3197C66.9888 23.4522 67.2609 23.6438 67.4829 23.8944C67.7049 24.1415 67.8732 24.4405 67.9878 24.7914C68.106 25.1387 68.165 25.529 68.165 25.9623V26.6498H63.4814V25.5702H66.5215V25.4413C66.5215 25.2372 66.4839 25.0582 66.4087 24.9042C66.3371 24.7502 66.2297 24.6321 66.0864 24.5497C65.9468 24.4638 65.7695 24.4208 65.5547 24.4208C65.3506 24.4208 65.1805 24.4638 65.0444 24.5497C64.9084 24.6356 64.7992 24.7574 64.7168 24.9149C64.638 25.0689 64.5807 25.2497 64.5449 25.4574C64.5091 25.6615 64.4912 25.8817 64.4912 26.1181V26.3222C64.4912 26.5477 64.5216 26.7536 64.5825 26.9398C64.6434 27.126 64.7329 27.2854 64.8511 27.4179C64.9692 27.5503 65.1125 27.6542 65.2808 27.7294C65.4491 27.8046 65.6406 27.8422 65.8555 27.8422C66.1204 27.8422 66.3729 27.792 66.6128 27.6918C66.8527 27.5879 67.0604 27.4268 67.2358 27.2084L68.02 28.1054C67.9019 28.2772 67.7354 28.4437 67.5205 28.6049C67.3092 28.7624 67.055 28.8913 66.7578 28.9916C66.4606 29.0919 66.124 29.142 65.748 29.142ZM70.625 24.4638V29.0346H68.9438V23.223H70.5229L70.625 24.4638ZM70.4048 25.9247L69.9858 25.9354C69.9858 25.4986 70.0396 25.1065 70.147 24.7592C70.2544 24.4118 70.4066 24.1164 70.6035 23.8729C70.804 23.6259 71.0422 23.4379 71.3179 23.309C71.5972 23.1801 71.9051 23.1156 72.2417 23.1156C72.5138 23.1156 72.7627 23.155 72.9883 23.2338C73.2139 23.3126 73.4072 23.4397 73.5684 23.6151C73.7331 23.787 73.8584 24.0162 73.9443 24.3026C74.0303 24.5855 74.0732 24.9346 74.0732 25.35V29.0346H72.3867V25.3446C72.3867 25.1011 72.3527 24.9131 72.2847 24.7807C72.2166 24.6482 72.1164 24.5551 71.9839 24.5014C71.855 24.4476 71.6974 24.4208 71.5112 24.4208C71.3143 24.4208 71.146 24.4602 71.0063 24.539C70.8667 24.6141 70.7521 24.7198 70.6626 24.8558C70.5731 24.9919 70.5068 25.1513 70.4639 25.3339C70.4245 25.5165 70.4048 25.7134 70.4048 25.9247ZM78.5527 27.7348V20.7846H80.2393V29.0346H78.7246L78.5527 27.7348ZM74.9326 26.1986V26.0858C74.9326 25.6454 74.981 25.2444 75.0776 24.8827C75.1779 24.5175 75.3229 24.2042 75.5127 23.9428C75.7061 23.6778 75.9442 23.4737 76.2271 23.3305C76.5099 23.1872 76.834 23.1156 77.1992 23.1156C77.5358 23.1156 77.8294 23.1908 78.0801 23.3412C78.3307 23.488 78.5438 23.6957 78.7192 23.9642C78.8983 24.2292 79.0433 24.5425 79.1543 24.9042C79.2653 25.2623 79.3494 25.6508 79.4067 26.0697V26.2631C79.353 26.6641 79.2689 27.0383 79.1543 27.3856C79.0433 27.733 78.8983 28.0391 78.7192 28.3041C78.5438 28.5655 78.3289 28.7714 78.0747 28.9218C77.8241 29.0686 77.5286 29.142 77.1885 29.142C76.8232 29.142 76.4992 29.0686 76.2163 28.9218C75.937 28.775 75.7025 28.5691 75.5127 28.3041C75.3229 28.0391 75.1779 27.7276 75.0776 27.3695C74.981 27.0114 74.9326 26.6211 74.9326 26.1986ZM76.6084 26.0858V26.1986C76.6084 26.4278 76.6245 26.6408 76.6567 26.8378C76.6925 27.0347 76.7498 27.2084 76.8286 27.3588C76.9074 27.5092 77.0112 27.6273 77.1401 27.7133C77.269 27.7956 77.4266 27.8368 77.6128 27.8368C77.8634 27.8368 78.0693 27.7795 78.2305 27.6649C78.3916 27.5468 78.5133 27.3838 78.5957 27.1762C78.6781 26.9685 78.721 26.7268 78.7246 26.4511V25.8871C78.7246 25.6579 78.7013 25.452 78.6548 25.2694C78.6082 25.0868 78.5384 24.9328 78.4453 24.8075C78.3558 24.6822 78.243 24.5873 78.1069 24.5228C77.9709 24.4548 77.8097 24.4208 77.6235 24.4208C77.4409 24.4208 77.2852 24.4638 77.1562 24.5497C77.0273 24.6321 76.9217 24.7484 76.8394 24.8988C76.7606 25.0492 76.7015 25.2265 76.6621 25.4306C76.6263 25.6311 76.6084 25.8495 76.6084 26.0858ZM83.1235 23.223V29.0346H81.4424V23.223H83.1235ZM81.3403 21.7191C81.3403 21.4756 81.4263 21.2769 81.5981 21.1229C81.77 20.9654 81.9956 20.8866 82.2749 20.8866C82.5542 20.8866 82.7798 20.9654 82.9517 21.1229C83.1271 21.2769 83.2148 21.4756 83.2148 21.7191C83.2148 21.959 83.1271 22.1578 82.9517 22.3153C82.7798 22.4693 82.5542 22.5463 82.2749 22.5463C81.9956 22.5463 81.77 22.4693 81.5981 22.3153C81.4263 22.1578 81.3403 21.959 81.3403 21.7191ZM85.9756 24.4638V29.0346H84.2944V23.223H85.8735L85.9756 24.4638ZM85.7554 25.9247L85.3364 25.9354C85.3364 25.4986 85.3901 25.1065 85.4976 24.7592C85.605 24.4118 85.7572 24.1164 85.9541 23.8729C86.1546 23.6259 86.3927 23.4379 86.6685 23.309C86.9478 23.1801 87.2557 23.1156 87.5923 23.1156C87.8644 23.1156 88.1133 23.155 88.3389 23.2338C88.5645 23.3126 88.7578 23.4397 88.9189 23.6151C89.0837 23.787 89.209 24.0162 89.2949 24.3026C89.3809 24.5855 89.4238 24.9346 89.4238 25.35V29.0346H87.7373V25.3446C87.7373 25.1011 87.7033 24.9131 87.6353 24.7807C87.5672 24.6482 87.467 24.5551 87.3345 24.5014C87.2056 24.4476 87.048 24.4208 86.8618 24.4208C86.6649 24.4208 86.4966 24.4602 86.3569 24.539C86.2173 24.6141 86.1027 24.7198 86.0132 24.8558C85.9237 24.9919 85.8574 25.1513 85.8145 25.3339C85.7751 25.5165 85.7554 25.7134 85.7554 25.9247ZM94.1826 23.223H95.708V28.8251C95.708 29.3586 95.5863 29.8116 95.3428 30.184C95.1029 30.5564 94.7681 30.8392 94.3384 31.0326C93.9087 31.226 93.4056 31.3226 92.8291 31.3226C92.5785 31.3226 92.3171 31.2886 92.0449 31.2206C91.7728 31.1561 91.5168 31.0577 91.2769 30.9252C91.0369 30.7963 90.8364 30.6316 90.6753 30.431L91.3896 29.4428C91.5544 29.629 91.7513 29.7794 91.9805 29.8939C92.2096 30.0121 92.471 30.0712 92.7646 30.0712C93.0332 30.0712 93.2606 30.0228 93.4468 29.9262C93.633 29.8295 93.7744 29.688 93.8711 29.5018C93.9714 29.3156 94.0215 29.0901 94.0215 28.8251V24.5819L94.1826 23.223ZM90.2993 26.1986V26.0858C90.2993 25.6454 90.353 25.2444 90.4604 24.8827C90.5679 24.5175 90.7236 24.2042 90.9277 23.9428C91.1354 23.6778 91.3843 23.4737 91.6743 23.3305C91.9679 23.1872 92.2974 23.1156 92.6626 23.1156C93.0565 23.1156 93.3823 23.1908 93.6401 23.3412C93.8979 23.488 94.1074 23.6957 94.2686 23.9642C94.4297 24.2292 94.5568 24.5425 94.6499 24.9042C94.743 25.2623 94.8182 25.6508 94.8755 26.0697V26.2631C94.8182 26.6641 94.7358 27.0383 94.6284 27.3856C94.521 27.733 94.3813 28.0391 94.2095 28.3041C94.0376 28.5655 93.8228 28.7714 93.5649 28.9218C93.3107 29.0686 93.0063 29.142 92.6519 29.142C92.2902 29.142 91.9644 29.0686 91.6743 28.9218C91.3843 28.775 91.1354 28.5691 90.9277 28.3041C90.7236 28.0391 90.5679 27.7276 90.4604 27.3695C90.353 27.0114 90.2993 26.6211 90.2993 26.1986ZM91.9751 26.0858V26.1986C91.9751 26.4278 91.9966 26.6408 92.0396 26.8378C92.0861 27.0347 92.1541 27.2084 92.2437 27.3588C92.3368 27.5092 92.4513 27.6273 92.5874 27.7133C92.7271 27.7956 92.89 27.8368 93.0762 27.8368C93.3483 27.8368 93.5685 27.7795 93.7368 27.6649C93.9087 27.5468 94.034 27.3838 94.1128 27.1762C94.1951 26.9685 94.2381 26.7268 94.2417 26.4511V25.8871C94.2417 25.6579 94.2184 25.452 94.1719 25.2694C94.1253 25.0868 94.0555 24.9328 93.9624 24.8075C93.8729 24.6822 93.7547 24.5873 93.6079 24.5228C93.4647 24.4548 93.291 24.4208 93.0869 24.4208C92.9043 24.4208 92.7432 24.4638 92.6035 24.5497C92.4639 24.6321 92.3475 24.7484 92.2544 24.8988C92.1613 25.0492 92.0915 25.2265 92.0449 25.4306C91.9984 25.6311 91.9751 25.8495 91.9751 26.0858ZM35.165 38.9525V39.3016C35.165 39.8961 35.0827 40.4296 34.918 40.9022C34.7568 41.3749 34.5259 41.7777 34.2251 42.1107C33.9279 42.4437 33.5734 42.6998 33.1616 42.8788C32.7534 43.0543 32.3005 43.142 31.8027 43.142C31.305 43.142 30.8503 43.0543 30.4385 42.8788C30.0267 42.6998 29.6686 42.4437 29.3643 42.1107C29.0635 41.7777 28.8307 41.3749 28.666 40.9022C28.5013 40.4296 28.4189 39.8961 28.4189 39.3016V38.9525C28.4189 38.3581 28.5013 37.8246 28.666 37.3519C28.8307 36.8757 29.0617 36.4711 29.3589 36.1381C29.6597 35.8051 30.016 35.5508 30.4277 35.3754C30.8395 35.1963 31.2943 35.1068 31.792 35.1068C32.2897 35.1068 32.7445 35.1963 33.1562 35.3754C33.568 35.5508 33.9225 35.8051 34.2197 36.1381C34.5205 36.4711 34.7533 36.8757 34.918 37.3519C35.0827 37.8246 35.165 38.3581 35.165 38.9525ZM33.3979 39.3016V38.9418C33.3979 38.5443 33.3621 38.1934 33.2905 37.8891C33.2189 37.5811 33.1151 37.3233 32.979 37.1156C32.8429 36.9079 32.6746 36.7522 32.4741 36.6483C32.2736 36.5409 32.0462 36.4872 31.792 36.4872C31.527 36.4872 31.2961 36.5409 31.0991 36.6483C30.9022 36.7522 30.7357 36.9079 30.5996 37.1156C30.4671 37.3233 30.3651 37.5811 30.2935 37.8891C30.2254 38.1934 30.1914 38.5443 30.1914 38.9418V39.3016C30.1914 39.6955 30.2254 40.0464 30.2935 40.3544C30.3651 40.6587 30.4689 40.9166 30.605 41.1278C30.741 41.3391 30.9076 41.4984 31.1045 41.6058C31.305 41.7133 31.5378 41.767 31.8027 41.767C32.057 41.767 32.2826 41.7133 32.4795 41.6058C32.68 41.4984 32.8483 41.3391 32.9844 41.1278C33.1204 40.9166 33.2225 40.6587 33.2905 40.3544C33.3621 40.0464 33.3979 39.6955 33.3979 39.3016ZM37.8345 38.5766V43.0346H36.1587V37.223H37.7324L37.8345 38.5766ZM39.5693 37.1801L39.5425 38.7431C39.4709 38.7323 39.3778 38.7234 39.2632 38.7162C39.1486 38.7055 39.0501 38.7001 38.9678 38.7001C38.7529 38.7001 38.5667 38.7269 38.4092 38.7807C38.2552 38.8308 38.1263 38.906 38.0225 39.0062C37.9222 39.1065 37.847 39.2318 37.7969 39.3822C37.7467 39.529 37.7217 39.6991 37.7217 39.8925L37.4048 39.7367C37.4048 39.3536 37.4424 39.0027 37.5176 38.684C37.5928 38.3653 37.702 38.0896 37.8452 37.8568C37.9884 37.6205 38.1639 37.4379 38.3716 37.309C38.5793 37.1801 38.8156 37.1156 39.0806 37.1156C39.1665 37.1156 39.2542 37.121 39.3438 37.1317C39.4333 37.1425 39.5085 37.1586 39.5693 37.1801ZM43.5332 41.7348V34.7846H45.2197V43.0346H43.7051L43.5332 41.7348ZM39.9131 40.1986V40.0858C39.9131 39.6454 39.9614 39.2444 40.0581 38.8827C40.1584 38.5175 40.3034 38.2042 40.4932 37.9428C40.6865 37.6778 40.9246 37.4737 41.2075 37.3305C41.4904 37.1872 41.8145 37.1156 42.1797 37.1156C42.5163 37.1156 42.8099 37.1908 43.0605 37.3412C43.3112 37.488 43.5243 37.6957 43.6997 37.9642C43.8787 38.2292 44.0238 38.5425 44.1348 38.9042C44.2458 39.2623 44.3299 39.6508 44.3872 40.0697V40.2631C44.3335 40.6641 44.2493 41.0383 44.1348 41.3856C44.0238 41.733 43.8787 42.0391 43.6997 42.3041C43.5243 42.5655 43.3094 42.7714 43.0552 42.9218C42.8045 43.0686 42.5091 43.142 42.1689 43.142C41.8037 43.142 41.4797 43.0686 41.1968 42.9218C40.9175 42.775 40.6829 42.5691 40.4932 42.3041C40.3034 42.0391 40.1584 41.7276 40.0581 41.3695C39.9614 41.0114 39.9131 40.6211 39.9131 40.1986ZM41.5889 40.0858V40.1986C41.5889 40.4278 41.605 40.6408 41.6372 40.8378C41.673 41.0347 41.7303 41.2084 41.8091 41.3588C41.8879 41.5092 41.9917 41.6273 42.1206 41.7133C42.2495 41.7956 42.4071 41.8368 42.5933 41.8368C42.8439 41.8368 43.0498 41.7795 43.2109 41.6649C43.3721 41.5468 43.4938 41.3838 43.5762 41.1762C43.6585 40.9685 43.7015 40.7268 43.7051 40.4511V39.8871C43.7051 39.6579 43.6818 39.452 43.6353 39.2694C43.5887 39.0868 43.5189 38.9328 43.4258 38.8075C43.3363 38.6822 43.2235 38.5873 43.0874 38.5228C42.9513 38.4548 42.7902 38.4208 42.604 38.4208C42.4214 38.4208 42.2656 38.4638 42.1367 38.5497C42.0078 38.6321 41.9022 38.7484 41.8198 38.8988C41.741 39.0492 41.682 39.2265 41.6426 39.4306C41.6068 39.6311 41.5889 39.8495 41.5889 40.0858ZM49.0762 43.142C48.6143 43.142 48.2007 43.0686 47.8354 42.9218C47.4702 42.775 47.1605 42.5726 46.9062 42.3148C46.6556 42.0534 46.464 41.7527 46.3315 41.4125C46.1991 41.0723 46.1328 40.7089 46.1328 40.3222V40.1181C46.1328 39.6848 46.1937 39.2855 46.3154 38.9203C46.4372 38.5551 46.6144 38.2382 46.8472 37.9696C47.0835 37.6975 47.3735 37.488 47.7173 37.3412C48.061 37.1908 48.4531 37.1156 48.8936 37.1156C49.3053 37.1156 49.6724 37.1836 49.9946 37.3197C50.3169 37.4522 50.589 37.6438 50.811 37.8944C51.033 38.1415 51.2013 38.4405 51.3159 38.7914C51.4341 39.1387 51.4932 39.529 51.4932 39.9623V40.6498H46.8096V39.5702H49.8496V39.4413C49.8496 39.2372 49.812 39.0582 49.7368 38.9042C49.6652 38.7502 49.5578 38.6321 49.4146 38.5497C49.2749 38.4638 49.0977 38.4208 48.8828 38.4208C48.6787 38.4208 48.5086 38.4638 48.3726 38.5497C48.2365 38.6356 48.1273 38.7574 48.0449 38.9149C47.9661 39.0689 47.9089 39.2497 47.873 39.4574C47.8372 39.6615 47.8193 39.8817 47.8193 40.1181V40.3222C47.8193 40.5477 47.8498 40.7536 47.9106 40.9398C47.9715 41.126 48.061 41.2854 48.1792 41.4179C48.2974 41.5503 48.4406 41.6542 48.6089 41.7294C48.7772 41.8046 48.9688 41.8422 49.1836 41.8422C49.4486 41.8422 49.701 41.792 49.9409 41.6918C50.1808 41.5879 50.3885 41.4268 50.564 41.2084L51.3481 42.1054C51.23 42.2772 51.0635 42.4437 50.8486 42.6049C50.6374 42.7624 50.3831 42.8913 50.0859 42.9916C49.7887 43.0919 49.4521 43.142 49.0762 43.142ZM53.9907 38.5766V43.0346H52.3149V37.223H53.8887L53.9907 38.5766ZM55.7256 37.1801L55.6987 38.7431C55.6271 38.7323 55.534 38.7234 55.4194 38.7162C55.3049 38.7055 55.2064 38.7001 55.124 38.7001C54.9092 38.7001 54.723 38.7269 54.5654 38.7807C54.4115 38.8308 54.2826 38.906 54.1787 39.0062C54.0785 39.1065 54.0033 39.2318 53.9531 39.3822C53.903 39.529 53.8779 39.6991 53.8779 39.8925L53.561 39.7367C53.561 39.3536 53.5986 39.0027 53.6738 38.684C53.749 38.3653 53.8582 38.0896 54.0015 37.8568C54.1447 37.6205 54.3201 37.4379 54.5278 37.309C54.7355 37.1801 54.9718 37.1156 55.2368 37.1156C55.3228 37.1156 55.4105 37.121 55.5 37.1317C55.5895 37.1425 55.6647 37.1586 55.7256 37.1801ZM59.5068 41.4179C59.5068 41.3104 59.4728 41.2155 59.4048 41.1332C59.3403 41.0508 59.2222 40.9756 59.0503 40.9076C58.882 40.8396 58.6439 40.7715 58.3359 40.7035C58.0459 40.6426 57.7756 40.5639 57.5249 40.4672C57.2743 40.3669 57.0558 40.247 56.8696 40.1073C56.6834 39.9641 56.5384 39.7958 56.4346 39.6024C56.3307 39.4055 56.2788 39.1817 56.2788 38.931C56.2788 38.6876 56.3307 38.4566 56.4346 38.2382C56.542 38.0197 56.696 37.8264 56.8965 37.6581C57.1006 37.4898 57.3477 37.3573 57.6377 37.2606C57.9313 37.164 58.2643 37.1156 58.6367 37.1156C59.1488 37.1156 59.591 37.1962 59.9634 37.3573C60.3358 37.5149 60.6222 37.7369 60.8228 38.0233C61.0233 38.3062 61.1235 38.6303 61.1235 38.9955H59.4478C59.4478 38.8451 59.4191 38.7144 59.3618 38.6034C59.3045 38.4924 59.2168 38.4065 59.0986 38.3456C58.9805 38.2811 58.8247 38.2489 58.6313 38.2489C58.481 38.2489 58.3485 38.2758 58.2339 38.3295C58.1229 38.3796 58.0352 38.4494 57.9707 38.539C57.9098 38.6285 57.8794 38.7323 57.8794 38.8505C57.8794 38.9328 57.8973 39.008 57.9331 39.0761C57.9725 39.1405 58.0316 39.2014 58.1104 39.2587C58.1927 39.3124 58.2983 39.3607 58.4272 39.4037C58.5597 39.4467 58.7209 39.4878 58.9106 39.5272C59.3153 39.6024 59.6841 39.7081 60.0171 39.8441C60.3537 39.9802 60.6222 40.1682 60.8228 40.4081C61.0269 40.648 61.1289 40.9649 61.1289 41.3588C61.1289 41.6166 61.0698 41.8529 60.9517 42.0678C60.8371 42.2826 60.6706 42.4706 60.4521 42.6317C60.2337 42.7929 59.9723 42.9182 59.668 43.0077C59.3636 43.0972 59.0199 43.142 58.6367 43.142C58.0889 43.142 57.6252 43.0435 57.2456 42.8466C56.866 42.6496 56.5796 42.4026 56.3862 42.1054C56.1965 41.8046 56.1016 41.4966 56.1016 41.1815H57.6753C57.6825 41.3749 57.7308 41.5324 57.8203 41.6542C57.9134 41.7759 58.0334 41.8655 58.1802 41.9227C58.327 41.9765 58.4917 42.0033 58.6743 42.0033C58.8569 42.0033 59.0091 41.9782 59.1309 41.9281C59.2526 41.878 59.3457 41.8099 59.4102 41.724C59.4746 41.6345 59.5068 41.5324 59.5068 41.4179Z" fill="#4B465C"/>
<path d="M30.7617 48.3471V54.0346H30.0195V48.3471H30.7617ZM32.5898 48.3471V48.9642H28.1953V48.3471H32.5898ZM32.7422 51.9682V51.8783C32.7422 51.5736 32.7865 51.2911 32.875 51.0307C32.9635 50.7676 33.0911 50.5398 33.2578 50.3471C33.4245 50.1517 33.6263 50.0007 33.8633 49.8939C34.1003 49.7846 34.3659 49.7299 34.6602 49.7299C34.957 49.7299 35.224 49.7846 35.4609 49.8939C35.7005 50.0007 35.9036 50.1517 36.0703 50.3471C36.2396 50.5398 36.3685 50.7676 36.457 51.0307C36.5456 51.2911 36.5898 51.5736 36.5898 51.8783V51.9682C36.5898 52.2728 36.5456 52.5554 36.457 52.8158C36.3685 53.0762 36.2396 53.3041 36.0703 53.4994C35.9036 53.6921 35.7018 53.8432 35.4648 53.9525C35.2305 54.0593 34.9648 54.1127 34.668 54.1127C34.3711 54.1127 34.1042 54.0593 33.8672 53.9525C33.6302 53.8432 33.4271 53.6921 33.2578 53.4994C33.0911 53.3041 32.9635 53.0762 32.875 52.8158C32.7865 52.5554 32.7422 52.2728 32.7422 51.9682ZM33.4648 51.8783V51.9682C33.4648 52.1791 33.4896 52.3783 33.5391 52.5658C33.5885 52.7507 33.6628 52.9148 33.7617 53.058C33.8633 53.2012 33.9896 53.3145 34.1406 53.3978C34.2917 53.4786 34.4674 53.5189 34.668 53.5189C34.8659 53.5189 35.0391 53.4786 35.1875 53.3978C35.3385 53.3145 35.4635 53.2012 35.5625 53.058C35.6615 52.9148 35.7357 52.7507 35.7852 52.5658C35.8372 52.3783 35.8633 52.1791 35.8633 51.9682V51.8783C35.8633 51.67 35.8372 51.4734 35.7852 51.2885C35.7357 51.101 35.6602 50.9356 35.5586 50.7924C35.4596 50.6465 35.3346 50.532 35.1836 50.4486C35.0352 50.3653 34.8607 50.3236 34.6602 50.3236C34.4622 50.3236 34.2878 50.3653 34.1367 50.4486C33.9883 50.532 33.8633 50.6465 33.7617 50.7924C33.6628 50.9356 33.5885 51.101 33.5391 51.2885C33.4896 51.4734 33.4648 51.67 33.4648 51.8783ZM40.1602 53.2142V48.0346H40.8867V54.0346H40.2227L40.1602 53.2142ZM37.3164 51.9682V51.8861C37.3164 51.5632 37.3555 51.2702 37.4336 51.0072C37.5143 50.7416 37.6276 50.5137 37.7734 50.3236C37.9219 50.1335 38.0977 49.9877 38.3008 49.8861C38.5065 49.782 38.7357 49.7299 38.9883 49.7299C39.2539 49.7299 39.4857 49.7767 39.6836 49.8705C39.8841 49.9616 40.0534 50.0958 40.1914 50.2728C40.332 50.4473 40.4427 50.6583 40.5234 50.9057C40.6042 51.153 40.6602 51.433 40.6914 51.7455V52.1049C40.6628 52.4148 40.6068 52.6934 40.5234 52.9408C40.4427 53.1882 40.332 53.3991 40.1914 53.5736C40.0534 53.7481 39.8841 53.8822 39.6836 53.976C39.4831 54.0671 39.2487 54.1127 38.9805 54.1127C38.7331 54.1127 38.5065 54.0593 38.3008 53.9525C38.0977 53.8458 37.9219 53.696 37.7734 53.5033C37.6276 53.3106 37.5143 53.084 37.4336 52.8236C37.3555 52.5606 37.3164 52.2754 37.3164 51.9682ZM38.043 51.8861V51.9682C38.043 52.1791 38.0638 52.377 38.1055 52.5619C38.1497 52.7468 38.2174 52.9096 38.3086 53.0502C38.3997 53.1908 38.5156 53.3015 38.6562 53.3822C38.7969 53.4603 38.9648 53.4994 39.1602 53.4994C39.3997 53.4994 39.5964 53.4486 39.75 53.3471C39.9062 53.2455 40.0312 53.1114 40.125 52.9447C40.2188 52.778 40.2917 52.5971 40.3438 52.4017V51.4603C40.3125 51.3171 40.2669 51.1791 40.207 51.0463C40.1497 50.9109 40.0742 50.7911 39.9805 50.6869C39.8893 50.5801 39.776 50.4955 39.6406 50.433C39.5078 50.3705 39.3503 50.3392 39.168 50.3392C38.9701 50.3392 38.7995 50.3809 38.6562 50.4642C38.5156 50.545 38.3997 50.657 38.3086 50.8002C38.2174 50.9408 38.1497 51.1049 38.1055 51.2924C38.0638 51.4773 38.043 51.6752 38.043 51.8861ZM44.5039 53.3119V51.1361C44.5039 50.9695 44.4701 50.8249 44.4023 50.7025C44.3372 50.5775 44.2383 50.4812 44.1055 50.4135C43.9727 50.3458 43.8086 50.3119 43.6133 50.3119C43.431 50.3119 43.2708 50.3432 43.1328 50.4057C42.9974 50.4682 42.8906 50.5502 42.8125 50.6517C42.737 50.7533 42.6992 50.8627 42.6992 50.9799H41.9766C41.9766 50.8288 42.0156 50.6791 42.0938 50.5307C42.1719 50.3822 42.2839 50.2481 42.4297 50.1283C42.5781 50.0059 42.7552 49.9096 42.9609 49.8392C43.1693 49.7663 43.401 49.7299 43.6562 49.7299C43.9635 49.7299 44.2344 49.782 44.4688 49.8861C44.7057 49.9903 44.8906 50.1478 45.0234 50.3588C45.1589 50.5671 45.2266 50.8288 45.2266 51.1439V53.1127C45.2266 53.2533 45.2383 53.403 45.2617 53.5619C45.2878 53.7208 45.3255 53.8575 45.375 53.9721V54.0346H44.6211C44.5846 53.9512 44.556 53.8405 44.5352 53.7025C44.5143 53.5619 44.5039 53.4317 44.5039 53.3119ZM44.6289 51.4721L44.6367 51.9799H43.9062C43.7005 51.9799 43.5169 51.9968 43.3555 52.0307C43.194 52.0619 43.0586 52.1101 42.9492 52.1752C42.8398 52.2403 42.7565 52.3223 42.6992 52.4213C42.6419 52.5176 42.6133 52.6309 42.6133 52.7611C42.6133 52.8939 42.6432 53.015 42.7031 53.1244C42.763 53.2338 42.8529 53.321 42.9727 53.3861C43.0951 53.4486 43.2448 53.4799 43.4219 53.4799C43.6432 53.4799 43.8385 53.433 44.0078 53.3392C44.1771 53.2455 44.3112 53.1309 44.4102 52.9955C44.5117 52.8601 44.5664 52.7286 44.5742 52.601L44.8828 52.9486C44.8646 53.058 44.8151 53.1791 44.7344 53.3119C44.6536 53.4447 44.5456 53.5723 44.4102 53.6947C44.2773 53.8145 44.1185 53.9148 43.9336 53.9955C43.7513 54.0736 43.5456 54.1127 43.3164 54.1127C43.0299 54.1127 42.7786 54.0567 42.5625 53.9447C42.349 53.8327 42.1823 53.683 42.0625 53.4955C41.9453 53.3054 41.8867 53.0932 41.8867 52.8588C41.8867 52.6322 41.931 52.433 42.0195 52.2611C42.1081 52.0866 42.2357 51.9421 42.4023 51.8275C42.569 51.7103 42.7695 51.6218 43.0039 51.5619C43.2383 51.502 43.5 51.4721 43.7891 51.4721H44.6289ZM47.4883 53.5971L48.6641 49.808H49.4375L47.7422 54.6869C47.7031 54.7911 47.651 54.903 47.5859 55.0228C47.5234 55.1452 47.4427 55.2611 47.3438 55.3705C47.2448 55.4799 47.125 55.5684 46.9844 55.6361C46.8464 55.7064 46.681 55.7416 46.4883 55.7416C46.431 55.7416 46.3581 55.7338 46.2695 55.7182C46.181 55.7025 46.1185 55.6895 46.082 55.6791L46.0781 55.0932C46.099 55.0958 46.1315 55.0984 46.1758 55.101C46.2227 55.1062 46.2552 55.1088 46.2734 55.1088C46.4375 55.1088 46.5768 55.0866 46.6914 55.0424C46.806 55.0007 46.9023 54.9291 46.9805 54.8275C47.0612 54.7286 47.1302 54.5919 47.1875 54.4174L47.4883 53.5971ZM46.625 49.808L47.7227 53.0892L47.9102 53.851L47.3906 54.1166L45.8359 49.808H46.625Z" fill="#979797"/>
<path d="M124.011 23.3485V34.0346H121.901V25.7802L119.367 26.5858V24.9232L123.784 23.3485H124.011ZM134.66 27.765V29.6107C134.66 30.4115 134.575 31.1024 134.404 31.6835C134.233 32.2597 133.986 32.7333 133.664 33.1044C133.347 33.4706 132.968 33.7416 132.529 33.9174C132.089 34.0932 131.601 34.181 131.064 34.181C130.634 34.181 130.234 34.1273 129.863 34.0199C129.492 33.9076 129.157 33.7343 128.859 33.4999C128.566 33.2655 128.312 32.9701 128.098 32.6137C127.888 32.2523 127.727 31.8226 127.614 31.3246C127.502 30.8266 127.446 30.2553 127.446 29.6107V27.765C127.446 26.9642 127.531 26.2782 127.702 25.7069C127.878 25.1308 128.125 24.6596 128.442 24.2933C128.764 23.9271 129.145 23.6586 129.584 23.4877C130.024 23.3119 130.512 23.224 131.049 23.224C131.479 23.224 131.877 23.2802 132.243 23.3925C132.614 23.4999 132.949 23.6683 133.247 23.8978C133.544 24.1273 133.798 24.4227 134.008 24.7841C134.218 25.1405 134.379 25.5678 134.492 26.0658C134.604 26.559 134.66 27.1254 134.66 27.765ZM132.543 29.8891V27.4794C132.543 27.0936 132.521 26.7567 132.478 26.4686C132.438 26.1806 132.377 25.9364 132.294 25.7362C132.211 25.5311 132.109 25.3651 131.987 25.2382C131.865 25.1112 131.726 25.0184 131.569 24.9599C131.413 24.9013 131.24 24.872 131.049 24.872C130.81 24.872 130.598 24.9183 130.412 25.0111C130.231 25.1039 130.078 25.2528 129.951 25.4579C129.824 25.6581 129.726 25.9266 129.658 26.2636C129.594 26.5956 129.562 27.0009 129.562 27.4794V29.8891C129.562 30.2748 129.582 30.6141 129.621 30.9071C129.665 31.2001 129.729 31.4516 129.812 31.6615C129.899 31.8666 130.002 32.035 130.119 32.1669C130.241 32.2938 130.38 32.3866 130.537 32.4452C130.698 32.5038 130.874 32.5331 131.064 32.5331C131.298 32.5331 131.506 32.4867 131.687 32.3939C131.872 32.2963 132.028 32.1449 132.155 31.9398C132.287 31.7299 132.385 31.4564 132.448 31.1195C132.512 30.7826 132.543 30.3724 132.543 29.8891Z" fill="#4B465C"/>
<rect opacity="0.6" x="28" y="134.703" width="7.64977" height="8.41475" rx="3.82488" fill="#7367F0"/>
<rect opacity="0.7" x="63.3667" y="134.703" width="7.64977" height="8.41475" rx="3.82488" fill="#7367F0"/>
<rect opacity="0.8" x="98.7335" y="134.703" width="7.64977" height="8.41475" rx="3.82488" fill="#7367F0"/>
<rect x="134.1" y="97.9839" width="7.64977" height="45.1336" rx="3.82488" fill="#7367F0"/>
<path d="M102.424 130.585C101.82 130.585 101.34 130.347 100.986 129.873C100.631 129.396 100.454 128.691 100.454 127.758C100.454 127.128 100.536 126.6 100.699 126.175C100.862 125.749 101.092 125.429 101.387 125.214C101.683 125 102.031 124.893 102.432 124.893C103.031 124.893 103.508 125.134 103.862 125.616C104.219 126.095 104.398 126.806 104.398 127.747C104.398 128.682 104.22 129.39 103.866 129.869C103.511 130.346 103.031 130.585 102.424 130.585ZM102.432 129.973C102.827 129.973 103.125 129.799 103.327 129.452C103.531 129.103 103.633 128.536 103.633 127.75C103.633 126.95 103.529 126.373 103.323 126.022C103.119 125.667 102.82 125.49 102.428 125.49C102.038 125.49 101.737 125.668 101.525 126.025C101.316 126.38 101.211 126.955 101.211 127.75C101.211 128.533 101.316 129.099 101.525 129.449C101.734 129.798 102.036 129.973 102.432 129.973Z" fill="#363740"/>
<path d="M68.3114 130.585C67.707 130.585 67.2277 130.347 66.8732 129.873C66.5188 129.396 66.3416 128.691 66.3416 127.758C66.3416 127.128 66.4232 126.6 66.5863 126.175C66.7495 125.749 66.979 125.429 67.2748 125.214C67.5706 125 67.9187 124.893 68.319 124.893C68.9183 124.893 69.3951 125.134 69.7495 125.616C70.1065 126.095 70.285 126.806 70.285 127.747C70.285 128.682 70.1078 129.39 69.7534 129.869C69.3989 130.346 68.9183 130.585 68.3114 130.585ZM68.319 129.973C68.7143 129.973 69.0126 129.799 69.214 129.452C69.418 129.103 69.52 128.536 69.52 127.75C69.52 126.95 69.4168 126.373 69.2102 126.022C69.0062 125.667 68.7079 125.49 68.3152 125.49C67.9251 125.49 67.6242 125.668 67.4125 126.025C67.2034 126.38 67.0989 126.955 67.0989 127.75C67.0989 128.533 67.2034 129.099 67.4125 129.449C67.6216 129.798 67.9238 129.973 68.319 129.973Z" fill="#363740"/>
<path d="M31.5755 130.585C30.9711 130.585 30.4917 130.347 30.1373 129.873C29.7829 129.396 29.6056 128.691 29.6056 127.758C29.6056 127.128 29.6872 126.6 29.8504 126.175C30.0136 125.749 30.2431 125.429 30.5389 125.214C30.8347 125 31.1828 124.893 31.5831 124.893C32.1823 124.893 32.6592 125.134 33.0136 125.616C33.3706 126.095 33.5491 126.806 33.5491 127.747C33.5491 128.682 33.3719 129.39 33.0174 129.869C32.663 130.346 32.1823 130.585 31.5755 130.585ZM31.5831 129.973C31.9783 129.973 32.2767 129.799 32.4781 129.452C32.6821 129.103 32.7841 128.536 32.7841 127.75C32.7841 126.95 32.6808 126.373 32.4743 126.022C32.2703 125.667 31.972 125.49 31.5793 125.49C31.1891 125.49 30.8882 125.668 30.6766 126.025C30.4675 126.38 30.363 126.955 30.363 127.75C30.363 128.533 30.4675 129.099 30.6766 129.449C30.8857 129.798 31.1879 129.973 31.5831 129.973Z" fill="#363740"/>
<path d="M133.213 97.0004V92.5979H132.146V92.1351C132.477 92.1351 132.735 92.1109 132.918 92.0625C133.102 92.014 133.232 91.9401 133.308 91.8406C133.387 91.7412 133.431 91.6175 133.438 91.4696H133.943V97.0004H133.213ZM137.242 97.0845C136.638 97.0845 136.158 96.8474 135.804 96.3731C135.449 95.8963 135.272 95.1912 135.272 94.2579C135.272 93.6281 135.354 93.1003 135.517 92.6744C135.68 92.2486 135.91 91.9286 136.206 91.7144C136.501 91.5002 136.849 91.3931 137.25 91.3931C137.849 91.3931 138.326 91.6341 138.68 92.116C139.037 92.5954 139.216 93.3055 139.216 94.2465C139.216 95.1823 139.038 95.8899 138.684 96.3693C138.33 96.8461 137.849 97.0845 137.242 97.0845ZM137.25 96.4725C137.645 96.4725 137.943 96.2992 138.145 95.9524C138.349 95.603 138.451 95.0357 138.451 94.2503C138.451 93.4496 138.347 92.8733 138.141 92.5214C137.937 92.167 137.639 91.9898 137.246 91.9898C136.856 91.9898 136.555 92.1683 136.343 92.5253C136.134 92.8797 136.03 93.4547 136.03 94.2503C136.03 95.0331 136.134 95.5992 136.343 95.9485C136.552 96.2979 136.854 96.4725 137.25 96.4725Z" fill="#363740"/>
<path d="M28.2764 150.833V149.987H33.7161V150.833H31.5233V157.177H30.5985V150.833H28.2764Z" fill="#979797"/>
<path d="M72.0976 149.987L69.9993 157.177H69.149L67.5728 151.603L65.9717 157.177H65.1463L63.0728 149.987H64.0026L65.5938 155.711L67.2148 149.987H67.9358L69.5518 155.711L71.1728 149.987H72.0976Z" fill="#979797"/>
<path d="M101.443 150.833V149.987H106.883V150.833H104.69V157.177H103.765V150.833H101.443Z" fill="#979797"/>
<path d="M136.747 149.987H141.227L141.223 150.793H137.692V153.17H140.864V153.965H137.692V157.177H136.747V149.987Z" fill="#979797"/>
<mask id="path-16-inside-1_2_874" fill="white">
<path d="M31.0883 191.667H138.662V227.667H31.0883V191.667Z"/>
</mask>
<path d="M31.0883 191.667V192.667H138.662V191.667V190.667H31.0883V191.667Z" fill="#979797" mask="url(#path-16-inside-1_2_874)"/>
<path d="M35.454 203.002H36.7942C36.7673 203.441 36.6463 203.831 36.4312 204.172C36.219 204.513 35.9217 204.779 35.5392 204.97C35.1597 205.161 34.7025 205.257 34.1676 205.257C33.7493 205.257 33.3742 205.185 33.0425 205.042C32.7109 204.895 32.427 204.686 32.1909 204.414C31.9578 204.142 31.78 203.813 31.6575 203.428C31.535 203.043 31.4737 202.611 31.4737 202.133V201.68C31.4737 201.202 31.5365 200.77 31.662 200.385C31.7905 199.996 31.9728 199.666 32.2088 199.394C32.4479 199.122 32.7333 198.913 33.065 198.766C33.3966 198.62 33.7672 198.547 34.1766 198.547C34.7204 198.547 35.1791 198.645 35.5526 198.843C35.9291 199.04 36.2205 199.312 36.4267 199.658C36.6358 200.005 36.7614 200.399 36.8032 200.842H35.4585C35.4436 200.579 35.3913 200.356 35.3016 200.174C35.212 199.989 35.076 199.85 34.8937 199.757C34.7144 199.661 34.4754 199.614 34.1766 199.614C33.9525 199.614 33.7567 199.655 33.5894 199.739C33.422 199.823 33.2816 199.95 33.1681 200.12C33.0545 200.29 32.9693 200.506 32.9126 200.766C32.8588 201.023 32.8319 201.324 32.8319 201.671V202.133C32.8319 202.47 32.8573 202.768 32.9081 203.025C32.9589 203.279 33.0366 203.494 33.1412 203.67C33.2487 203.843 33.3862 203.975 33.5535 204.065C33.7239 204.151 33.9285 204.194 34.1676 204.194C34.4485 204.194 34.6801 204.15 34.8624 204.06C35.0446 203.97 35.1836 203.837 35.2792 203.661C35.3778 203.485 35.4361 203.265 35.454 203.002ZM40.4652 204.006V200.317H41.7561V205.167H40.5414L40.4652 204.006ZM40.6086 203.011L40.9896 203.002C40.9896 203.325 40.9523 203.625 40.8776 203.903C40.8029 204.178 40.6908 204.417 40.5414 204.62C40.392 204.821 40.2037 204.977 39.9766 205.091C39.7495 205.202 39.4821 205.257 39.1743 205.257C38.9383 205.257 38.7201 205.224 38.5199 205.158C38.3227 205.089 38.1524 204.983 38.0089 204.84C37.8685 204.694 37.7579 204.507 37.6772 204.28C37.5995 204.05 37.5607 203.773 37.5607 203.45V200.317H38.8516V203.459C38.8516 203.603 38.868 203.724 38.9009 203.822C38.9368 203.921 38.9861 204.002 39.0488 204.065C39.1116 204.127 39.1848 204.172 39.2684 204.199C39.3551 204.226 39.4507 204.239 39.5553 204.239C39.8213 204.239 40.0304 204.186 40.1828 204.078C40.3382 203.97 40.4473 203.824 40.51 203.639C40.5758 203.45 40.6086 203.241 40.6086 203.011ZM44.0331 201.375V205.167H42.7422V200.317H43.9569L44.0331 201.375ZM45.4943 200.286L45.4719 201.483C45.4092 201.474 45.333 201.466 45.2433 201.46C45.1567 201.451 45.0775 201.447 45.0058 201.447C44.8235 201.447 44.6651 201.471 44.5307 201.519C44.3992 201.563 44.2886 201.631 44.199 201.72C44.1123 201.81 44.0466 201.919 44.0017 202.047C43.9599 202.176 43.936 202.322 43.93 202.487L43.6701 202.406C43.6701 202.092 43.7014 201.804 43.7642 201.541C43.8269 201.275 43.9181 201.043 44.0376 200.846C44.1601 200.649 44.3095 200.497 44.4858 200.389C44.6621 200.281 44.8638 200.228 45.0909 200.228C45.1627 200.228 45.2359 200.234 45.3106 200.246C45.3853 200.255 45.4465 200.268 45.4943 200.286ZM47.3948 201.375V205.167H46.1039V200.317H47.3186L47.3948 201.375ZM48.8561 200.286L48.8336 201.483C48.7709 201.474 48.6947 201.466 48.605 201.46C48.5184 201.451 48.4392 201.447 48.3675 201.447C48.1852 201.447 48.0268 201.471 47.8924 201.519C47.7609 201.563 47.6503 201.631 47.5607 201.72C47.474 201.81 47.4083 201.919 47.3635 202.047C47.3216 202.176 47.2977 202.322 47.2917 202.487L47.0318 202.406C47.0318 202.092 47.0631 201.804 47.1259 201.541C47.1886 201.275 47.2798 201.043 47.3993 200.846C47.5218 200.649 47.6712 200.497 47.8475 200.389C48.0238 200.281 48.2255 200.228 48.4527 200.228C48.5244 200.228 48.5976 200.234 48.6723 200.246C48.747 200.255 48.8082 200.268 48.8561 200.286ZM51.6082 205.257C51.2317 205.257 50.894 205.197 50.5952 205.077C50.2964 204.955 50.0424 204.786 49.8332 204.571C49.627 204.356 49.4686 204.106 49.3581 203.822C49.2475 203.536 49.1922 203.231 49.1922 202.908V202.729C49.1922 202.361 49.2445 202.025 49.3491 201.72C49.4537 201.415 49.6031 201.151 49.7973 200.927C49.9946 200.703 50.2336 200.531 50.5145 200.411C50.7954 200.289 51.1121 200.228 51.4647 200.228C51.8084 200.228 52.1132 200.284 52.3791 200.398C52.6451 200.512 52.8677 200.673 53.047 200.882C53.2293 201.091 53.3667 201.342 53.4594 201.635C53.552 201.925 53.5983 202.248 53.5983 202.603V203.141H49.7436V202.281H52.3298V202.182C52.3298 202.003 52.297 201.843 52.2312 201.702C52.1685 201.559 52.0728 201.445 51.9444 201.362C51.8159 201.278 51.6515 201.236 51.4513 201.236C51.281 201.236 51.1346 201.274 51.012 201.348C50.8895 201.423 50.7894 201.528 50.7117 201.662C50.637 201.796 50.5802 201.955 50.5414 202.137C50.5055 202.316 50.4876 202.514 50.4876 202.729V202.908C50.4876 203.102 50.5145 203.282 50.5683 203.446C50.6251 203.61 50.7043 203.752 50.8059 203.872C50.9104 203.991 51.0359 204.084 51.1824 204.15C51.3318 204.215 51.5006 204.248 51.6889 204.248C51.9219 204.248 52.1386 204.203 52.3388 204.114C52.542 204.021 52.7168 203.882 52.8632 203.697L53.4907 204.378C53.3891 204.525 53.2502 204.665 53.0739 204.8C52.9006 204.934 52.6914 205.045 52.4464 205.131C52.2013 205.215 51.9219 205.257 51.6082 205.257ZM55.5974 201.353V205.167H54.3065V200.317H55.5167L55.5974 201.353ZM55.4092 202.572H55.0595C55.0595 202.213 55.1059 201.891 55.1985 201.604C55.2911 201.314 55.4211 201.067 55.5885 200.864C55.7558 200.658 55.9545 200.501 56.1846 200.394C56.4177 200.283 56.6776 200.228 56.9645 200.228C57.1916 200.228 57.3993 200.261 57.5876 200.326C57.7758 200.392 57.9372 200.497 58.0716 200.64C58.2091 200.783 58.3137 200.973 58.3854 201.209C58.4601 201.445 58.4975 201.734 58.4975 202.074V205.167H57.1976V202.07C57.1976 201.855 57.1677 201.687 57.1079 201.568C57.0482 201.448 56.96 201.365 56.8435 201.317C56.7299 201.266 56.5895 201.241 56.4222 201.241C56.2488 201.241 56.0979 201.275 55.9694 201.344C55.8439 201.412 55.7394 201.508 55.6557 201.631C55.575 201.75 55.5137 201.891 55.4719 202.052C55.4301 202.213 55.4092 202.387 55.4092 202.572ZM61.8547 200.317V201.232H59.0308V200.317H61.8547ZM59.7301 199.121H61.021V203.706C61.021 203.846 61.0389 203.954 61.0748 204.029C61.1136 204.103 61.1704 204.156 61.2451 204.186C61.3198 204.212 61.4139 204.226 61.5275 204.226C61.6082 204.226 61.6799 204.223 61.7426 204.217C61.8084 204.208 61.8637 204.199 61.9085 204.19L61.913 205.14C61.8024 205.176 61.6829 205.204 61.5544 205.225C61.4259 205.246 61.2839 205.257 61.1286 205.257C60.8447 205.257 60.5967 205.21 60.3845 205.118C60.1753 205.022 60.014 204.87 59.9004 204.661C59.7869 204.451 59.7301 204.177 59.7301 203.836V199.121ZM66.96 205.167H65.5391L65.5481 204.118H66.96C67.3126 204.118 67.6099 204.039 67.852 203.881C68.094 203.719 68.2763 203.485 68.3988 203.177C68.5243 202.869 68.5871 202.497 68.5871 202.061V201.743C68.5871 201.408 68.5512 201.114 68.4795 200.86C68.4108 200.606 68.3077 200.392 68.1702 200.219C68.0328 200.045 67.8639 199.915 67.6637 199.829C67.4635 199.739 67.2334 199.694 66.9735 199.694H65.5122V198.641H66.9735C67.4097 198.641 67.8087 198.716 68.1702 198.865C68.5348 199.011 68.85 199.222 69.116 199.497C69.3819 199.772 69.5866 200.101 69.7301 200.483C69.8765 200.863 69.9497 201.285 69.9497 201.752V202.061C69.9497 202.524 69.8765 202.947 69.7301 203.329C69.5866 203.712 69.3819 204.041 69.116 204.316C68.853 204.587 68.5378 204.798 68.1702 204.948C67.8057 205.094 67.4023 205.167 66.96 205.167ZM66.3011 198.641V205.167H64.9564V198.641H66.3011ZM73.4638 204.073V201.913C73.4638 201.758 73.4384 201.625 73.3876 201.514C73.3368 201.401 73.2576 201.312 73.1501 201.25C73.0455 201.187 72.9095 201.155 72.7422 201.155C72.5987 201.155 72.4747 201.181 72.3701 201.232C72.2655 201.28 72.1849 201.35 72.1281 201.442C72.0713 201.532 72.0429 201.638 72.0429 201.761H70.752C70.752 201.554 70.7998 201.359 70.8955 201.173C70.9911 200.988 71.13 200.825 71.3123 200.685C71.4946 200.541 71.7112 200.429 71.9622 200.349C72.2162 200.268 72.5001 200.228 72.8139 200.228C73.1904 200.228 73.5251 200.29 73.8179 200.416C74.1108 200.541 74.3408 200.73 74.5082 200.981C74.6785 201.232 74.7637 201.545 74.7637 201.922V203.997C74.7637 204.263 74.7801 204.481 74.813 204.652C74.8459 204.819 74.8937 204.965 74.9564 205.091V205.167H73.6521C73.5893 205.036 73.5415 204.871 73.5086 204.674C73.4788 204.474 73.4638 204.274 73.4638 204.073ZM73.6341 202.213L73.6431 202.944H72.9215C72.7511 202.944 72.6032 202.963 72.4777 203.002C72.3522 203.041 72.2491 203.096 72.1684 203.168C72.0878 203.237 72.028 203.317 71.9891 203.41C71.9533 203.503 71.9354 203.604 71.9354 203.715C71.9354 203.825 71.9608 203.926 72.0116 204.015C72.0624 204.102 72.1356 204.171 72.2312 204.221C72.3268 204.269 72.4389 204.293 72.5674 204.293C72.7616 204.293 72.9304 204.254 73.0739 204.177C73.2173 204.099 73.3279 204.003 73.4055 203.89C73.4862 203.776 73.5281 203.669 73.531 203.567L73.8717 204.114C73.8239 204.236 73.7582 204.363 73.6745 204.495C73.5938 204.626 73.4907 204.75 73.3652 204.867C73.2397 204.98 73.0888 205.075 72.9125 205.149C72.7362 205.221 72.527 205.257 72.285 205.257C71.9772 205.257 71.6978 205.196 71.4468 205.073C71.1988 204.948 71.0015 204.776 70.8551 204.558C70.7117 204.336 70.64 204.085 70.64 203.805C70.64 203.551 70.6878 203.325 70.7834 203.128C70.879 202.93 71.0195 202.765 71.2047 202.63C71.393 202.493 71.6276 202.39 71.9085 202.321C72.1894 202.249 72.5151 202.213 72.8856 202.213H73.6341ZM77.1214 200.317V205.167H75.826V200.317H77.1214ZM75.7453 199.053C75.7453 198.865 75.811 198.71 75.9425 198.587C76.074 198.465 76.2503 198.403 76.4714 198.403C76.6896 198.403 76.8644 198.465 76.9959 198.587C77.1303 198.71 77.1976 198.865 77.1976 199.053C77.1976 199.242 77.1303 199.397 76.9959 199.519C76.8644 199.642 76.6896 199.703 76.4714 199.703C76.2503 199.703 76.074 199.642 75.9425 199.519C75.811 199.397 75.7453 199.242 75.7453 199.053ZM79.5508 198.282V205.167H78.2554V198.282H79.5508ZM82.0564 204.62L83.3428 200.317H84.7278L82.778 205.898C82.7362 206.02 82.6794 206.152 82.6077 206.292C82.539 206.433 82.4448 206.566 82.3253 206.691C82.2088 206.82 82.0608 206.924 81.8815 207.005C81.7052 207.086 81.4886 207.126 81.2316 207.126C81.1091 207.126 81.009 207.118 80.9313 207.103C80.8536 207.089 80.761 207.068 80.6534 207.041V206.095C80.6863 206.095 80.7206 206.095 80.7565 206.095C80.7924 206.098 80.8267 206.099 80.8596 206.099C81.0299 206.099 81.1689 206.08 81.2764 206.041C81.384 206.002 81.4707 205.943 81.5364 205.862C81.6022 205.784 81.6544 205.683 81.6933 205.557L82.0564 204.62ZM81.5185 200.317L82.5718 203.831L82.7556 205.199L81.8771 205.293L80.1335 200.317H81.5185ZM92.9707 201.752V202.061C92.9707 202.557 92.9035 203.002 92.769 203.397C92.6346 203.791 92.4448 204.127 92.1998 204.405C91.9547 204.68 91.6619 204.891 91.3212 205.037C90.9836 205.184 90.6086 205.257 90.1962 205.257C89.7868 205.257 89.4118 205.184 89.0711 205.037C88.7335 204.891 88.4406 204.68 88.1926 204.405C87.9446 204.127 87.7519 203.791 87.6144 203.397C87.4799 203.002 87.4127 202.557 87.4127 202.061V201.752C87.4127 201.253 87.4799 200.807 87.6144 200.416C87.7489 200.021 87.9386 199.685 88.1836 199.407C88.4317 199.13 88.7245 198.917 89.0622 198.771C89.4028 198.624 89.7778 198.551 90.1872 198.551C90.5996 198.551 90.9746 198.624 91.3123 198.771C91.6529 198.917 91.9458 199.13 92.1908 199.407C92.4388 199.685 92.6301 200.021 92.7645 200.416C92.902 200.807 92.9707 201.253 92.9707 201.752ZM91.6126 202.061V201.743C91.6126 201.396 91.5812 201.091 91.5185 200.828C91.4557 200.565 91.3631 200.344 91.2406 200.165C91.118 199.986 90.9686 199.851 90.7923 199.762C90.616 199.669 90.4143 199.623 90.1872 199.623C89.9601 199.623 89.7584 199.669 89.5821 199.762C89.4088 199.851 89.2609 199.986 89.1384 200.165C89.0188 200.344 88.9277 200.565 88.865 200.828C88.8022 201.091 88.7708 201.396 88.7708 201.743V202.061C88.7708 202.405 88.8022 202.709 88.865 202.975C88.9277 203.238 89.0203 203.461 89.1429 203.643C89.2654 203.822 89.4148 203.958 89.5911 204.051C89.7674 204.144 89.9691 204.19 90.1962 204.19C90.4233 204.19 90.625 204.144 90.8013 204.051C90.9776 203.958 91.1255 203.822 91.245 203.643C91.3646 203.461 91.4557 203.238 91.5185 202.975C91.5812 202.709 91.6126 202.405 91.6126 202.061ZM95.1491 201.375V205.167H93.8582V200.317H95.0729L95.1491 201.375ZM96.6103 200.286L96.5879 201.483C96.5252 201.474 96.449 201.466 96.3593 201.46C96.2727 201.451 96.1935 201.447 96.1218 201.447C95.9395 201.447 95.7811 201.471 95.6466 201.519C95.5152 201.563 95.4046 201.631 95.315 201.72C95.2283 201.81 95.1626 201.919 95.1177 202.047C95.0759 202.176 95.052 202.322 95.046 202.487L94.7861 202.406C94.7861 202.092 94.8174 201.804 94.8802 201.541C94.9429 201.275 95.0341 201.043 95.1536 200.846C95.2761 200.649 95.4255 200.497 95.6018 200.389C95.7781 200.281 95.9798 200.228 96.2069 200.228C96.2787 200.228 96.3519 200.234 96.4266 200.246C96.5013 200.255 96.5625 200.268 96.6103 200.286ZM99.9945 204.109V198.282H101.294V205.167H100.124L99.9945 204.109ZM96.9286 202.8V202.706C96.9286 202.336 96.9704 202 97.0541 201.698C97.1378 201.393 97.2603 201.132 97.4216 200.913C97.583 200.695 97.7817 200.526 98.0178 200.407C98.2538 200.287 98.5228 200.228 98.8246 200.228C99.1085 200.228 99.3565 200.287 99.5687 200.407C99.7838 200.526 99.9661 200.697 100.115 200.918C100.268 201.136 100.39 201.395 100.483 201.693C100.576 201.989 100.643 202.313 100.685 202.666V202.872C100.643 203.21 100.576 203.524 100.483 203.813C100.39 204.103 100.268 204.357 100.115 204.575C99.9661 204.791 99.7838 204.958 99.5687 205.077C99.3535 205.197 99.1025 205.257 98.8156 205.257C98.5138 205.257 98.2449 205.196 98.0088 205.073C97.7757 204.951 97.5785 204.779 97.4172 204.558C97.2588 204.336 97.1378 204.076 97.0541 203.778C96.9704 203.479 96.9286 203.153 96.9286 202.8ZM98.2195 202.706V202.8C98.2195 203.001 98.2344 203.187 98.2643 203.361C98.2972 203.534 98.3495 203.688 98.4212 203.822C98.4959 203.954 98.5915 204.057 98.7081 204.132C98.8276 204.203 98.9725 204.239 99.1428 204.239C99.364 204.239 99.5462 204.19 99.6897 204.091C99.8331 203.99 99.9422 203.851 100.017 203.675C100.095 203.498 100.139 203.295 100.151 203.065V202.478C100.142 202.29 100.115 202.121 100.071 201.971C100.029 201.819 99.9661 201.689 99.8824 201.581C99.8017 201.474 99.7001 201.39 99.5776 201.33C99.4581 201.271 99.3162 201.241 99.1518 201.241C98.9845 201.241 98.841 201.28 98.7215 201.357C98.602 201.432 98.5049 201.535 98.4302 201.666C98.3584 201.798 98.3046 201.953 98.2688 202.133C98.2359 202.309 98.2195 202.5 98.2195 202.706ZM104.535 205.257C104.159 205.257 103.821 205.197 103.522 205.077C103.223 204.955 102.969 204.786 102.76 204.571C102.554 204.356 102.395 204.106 102.285 203.822C102.174 203.536 102.119 203.231 102.119 202.908V202.729C102.119 202.361 102.171 202.025 102.276 201.72C102.381 201.415 102.53 201.151 102.724 200.927C102.921 200.703 103.16 200.531 103.441 200.411C103.722 200.289 104.039 200.228 104.392 200.228C104.735 200.228 105.04 200.284 105.306 200.398C105.572 200.512 105.795 200.673 105.974 200.882C106.156 201.091 106.294 201.342 106.386 201.635C106.479 201.925 106.525 202.248 106.525 202.603V203.141H102.67V202.281H105.257V202.182C105.257 202.003 105.224 201.843 105.158 201.702C105.095 201.559 105 201.445 104.871 201.362C104.743 201.278 104.578 201.236 104.378 201.236C104.208 201.236 104.061 201.274 103.939 201.348C103.816 201.423 103.716 201.528 103.639 201.662C103.564 201.796 103.507 201.955 103.468 202.137C103.432 202.316 103.414 202.514 103.414 202.729V202.908C103.414 203.102 103.441 203.282 103.495 203.446C103.552 203.61 103.631 203.752 103.733 203.872C103.837 203.991 103.963 204.084 104.109 204.15C104.259 204.215 104.427 204.248 104.616 204.248C104.849 204.248 105.065 204.203 105.266 204.114C105.469 204.021 105.644 203.882 105.79 203.697L106.418 204.378C106.316 204.525 106.177 204.665 106.001 204.8C105.827 204.934 105.618 205.045 105.373 205.131C105.128 205.215 104.849 205.257 104.535 205.257ZM108.551 201.375V205.167H107.26V200.317H108.475L108.551 201.375ZM110.012 200.286L109.99 201.483C109.927 201.474 109.851 201.466 109.761 201.46C109.675 201.451 109.596 201.447 109.524 201.447C109.342 201.447 109.183 201.471 109.049 201.519C108.917 201.563 108.807 201.631 108.717 201.72C108.63 201.81 108.565 201.919 108.52 202.047C108.478 202.176 108.454 202.322 108.448 202.487L108.188 202.406C108.188 202.092 108.219 201.804 108.282 201.541C108.345 201.275 108.436 201.043 108.556 200.846C108.678 200.649 108.828 200.497 109.004 200.389C109.18 200.281 109.382 200.228 109.609 200.228C109.681 200.228 109.754 200.234 109.829 200.246C109.903 200.255 109.965 200.268 110.012 200.286ZM33.5883 218.46L35.3812 213.48H35.9047L33.7875 219.167H33.4008L33.5883 218.46ZM31.7367 213.48L33.5219 218.46L33.7172 219.167H33.3266L31.2133 213.48H31.7367ZM36.2016 217.12V216.991C36.2016 216.684 36.2458 216.4 36.3344 216.14C36.4229 215.879 36.5492 215.654 36.7133 215.464C36.8799 215.274 37.0792 215.127 37.3109 215.023C37.5427 214.916 37.8005 214.862 38.0844 214.862C38.3708 214.862 38.6299 214.916 38.8617 215.023C39.0935 215.127 39.2927 215.274 39.4594 215.464C39.626 215.654 39.7536 215.879 39.8422 216.14C39.9307 216.4 39.975 216.684 39.975 216.991V217.12C39.975 217.428 39.9307 217.711 39.8422 217.972C39.7536 218.23 39.626 218.454 39.4594 218.644C39.2953 218.834 39.0974 218.982 38.8656 219.089C38.6338 219.193 38.376 219.245 38.0922 219.245C37.8057 219.245 37.5466 219.193 37.3148 219.089C37.0831 218.982 36.8838 218.834 36.7172 218.644C36.5505 218.454 36.4229 218.23 36.3344 217.972C36.2458 217.711 36.2016 217.428 36.2016 217.12ZM36.6664 216.991V217.12C36.6664 217.352 36.6976 217.572 36.7601 217.78C36.8226 217.986 36.9138 218.17 37.0336 218.331C37.1534 218.49 37.3018 218.615 37.4789 218.706C37.656 218.797 37.8604 218.843 38.0922 218.843C38.3213 218.843 38.5232 218.797 38.6976 218.706C38.8747 218.615 39.0232 218.49 39.143 218.331C39.2628 218.17 39.3526 217.986 39.4125 217.78C39.475 217.572 39.5062 217.352 39.5062 217.12V216.991C39.5062 216.762 39.475 216.545 39.4125 216.339C39.3526 216.133 39.2614 215.95 39.1391 215.788C39.0193 215.627 38.8708 215.499 38.6937 215.405C38.5167 215.312 38.3135 215.265 38.0844 215.265C37.8552 215.265 37.6521 215.312 37.475 215.405C37.3005 215.499 37.1521 215.627 37.0297 215.788C36.9099 215.95 36.8187 216.133 36.7562 216.339C36.6963 216.545 36.6664 216.762 36.6664 216.991ZM41.4633 213.167V219.167H40.9984V213.167H41.4633ZM45.4476 218.191V214.941H45.9164V219.167H45.4672L45.4476 218.191ZM45.5336 217.409L45.7758 217.402C45.7758 217.667 45.7445 217.912 45.682 218.136C45.6195 218.36 45.5219 218.555 45.3891 218.722C45.2562 218.888 45.0844 219.017 44.8734 219.109C44.6625 219.2 44.4086 219.245 44.1117 219.245C43.906 219.245 43.7172 219.217 43.5453 219.159C43.376 219.099 43.2302 219.006 43.1078 218.878C42.9854 218.75 42.8904 218.585 42.8226 218.382C42.7575 218.179 42.725 217.933 42.725 217.644V214.941H43.1898V217.652C43.1898 217.878 43.2146 218.067 43.2641 218.218C43.3161 218.369 43.3864 218.49 43.475 218.581C43.5661 218.672 43.6703 218.737 43.7875 218.777C43.9047 218.816 44.031 218.835 44.1664 218.835C44.5101 218.835 44.781 218.769 44.9789 218.636C45.1794 218.503 45.3213 218.329 45.4047 218.112C45.4906 217.894 45.5336 217.659 45.5336 217.409ZM47.5805 215.816V219.167H47.1117V214.941H47.5609L47.5805 215.816ZM47.4945 216.792L47.268 216.675C47.2836 216.425 47.3305 216.191 47.4086 215.972C47.4893 215.753 47.6013 215.56 47.7445 215.394C47.8878 215.227 48.0596 215.097 48.2601 215.003C48.4607 214.909 48.6885 214.862 48.9437 214.862C49.1495 214.862 49.3357 214.891 49.5023 214.948C49.6716 215.003 49.8148 215.09 49.932 215.21C50.0518 215.327 50.1443 215.481 50.2094 215.671C50.2745 215.861 50.307 216.089 50.307 216.355V219.167H49.8422V216.37C49.8422 216.089 49.7979 215.869 49.7094 215.71C49.6234 215.551 49.5023 215.438 49.3461 215.37C49.1924 215.303 49.0141 215.269 48.8109 215.269C48.5713 215.269 48.3682 215.318 48.2016 215.417C48.0375 215.513 47.9034 215.64 47.7992 215.796C47.6976 215.95 47.6221 216.115 47.5726 216.292C47.5232 216.467 47.4971 216.633 47.4945 216.792ZM50.3031 216.425L49.9906 216.433C50.0036 216.227 50.0505 216.03 50.1312 215.843C50.2146 215.655 50.3279 215.489 50.4711 215.343C50.6143 215.194 50.7849 215.077 50.9828 214.991C51.1833 214.905 51.4086 214.862 51.6586 214.862C51.8773 214.862 52.0726 214.892 52.2445 214.952C52.4164 215.01 52.5609 215.102 52.6781 215.23C52.7979 215.355 52.8891 215.515 52.9516 215.71C53.0141 215.905 53.0453 216.14 53.0453 216.413V219.167H52.5766V216.409C52.5766 216.11 52.5323 215.878 52.4437 215.714C52.3578 215.547 52.238 215.431 52.0844 215.366C51.9307 215.301 51.751 215.269 51.5453 215.269C51.3422 215.271 51.1638 215.309 51.0101 215.382C50.8565 215.452 50.7276 215.546 50.6234 215.663C50.5219 215.778 50.4437 215.902 50.3891 216.034C50.337 216.167 50.3083 216.297 50.3031 216.425ZM55.8656 219.245C55.5896 219.245 55.3357 219.194 55.1039 219.093C54.8747 218.991 54.6742 218.848 54.5023 218.663C54.3331 218.478 54.2016 218.26 54.1078 218.007C54.0167 217.752 53.9711 217.473 53.9711 217.171V217.003C53.9711 216.678 54.0193 216.383 54.1156 216.12C54.212 215.857 54.3448 215.632 54.5141 215.444C54.6833 215.257 54.876 215.114 55.0922 215.015C55.3109 214.913 55.5401 214.862 55.7797 214.862C56.0479 214.862 56.2862 214.911 56.4945 215.007C56.7029 215.101 56.8773 215.235 57.018 215.409C57.1612 215.581 57.2693 215.786 57.3422 216.023C57.4151 216.257 57.4516 216.516 57.4516 216.8V217.085H54.2523V216.687H56.9867V216.632C56.9815 216.395 56.9333 216.174 56.8422 215.968C56.7536 215.76 56.6208 215.59 56.4437 215.46C56.2667 215.33 56.0453 215.265 55.7797 215.265C55.5818 215.265 55.3995 215.306 55.2328 215.39C55.0687 215.473 54.9268 215.593 54.807 215.749C54.6898 215.903 54.5987 216.086 54.5336 216.3C54.4711 216.511 54.4398 216.745 54.4398 217.003V217.171C54.4398 217.405 54.4737 217.624 54.5414 217.827C54.6117 218.028 54.7107 218.205 54.8383 218.359C54.9685 218.512 55.1221 218.632 55.2992 218.718C55.4763 218.804 55.6716 218.847 55.8851 218.847C56.1351 218.847 56.3565 218.801 56.5492 218.71C56.7419 218.616 56.9151 218.469 57.0687 218.269L57.3617 218.495C57.2706 218.631 57.156 218.756 57.018 218.87C56.8825 218.985 56.7198 219.076 56.5297 219.144C56.3396 219.211 56.1182 219.245 55.8656 219.245ZM60.8461 213.167V219.167H60.3812V213.167H60.8461ZM62.643 214.941V219.167H62.1781V214.941H62.643ZM62.0961 213.718C62.0961 213.629 62.1234 213.555 62.1781 213.495C62.2354 213.433 62.3135 213.402 62.4125 213.402C62.5114 213.402 62.5896 213.433 62.6469 213.495C62.7068 213.555 62.7367 213.629 62.7367 213.718C62.7367 213.804 62.7068 213.878 62.6469 213.941C62.5896 214 62.5114 214.03 62.4125 214.03C62.3135 214.03 62.2354 214 62.1781 213.941C62.1234 213.878 62.0961 213.804 62.0961 213.718ZM64.3617 215.816V219.167H63.893V214.941H64.3422L64.3617 215.816ZM64.2758 216.792L64.0492 216.675C64.0648 216.425 64.1117 216.191 64.1898 215.972C64.2706 215.753 64.3825 215.56 64.5258 215.394C64.669 215.227 64.8409 215.097 65.0414 215.003C65.2419 214.909 65.4698 214.862 65.725 214.862C65.9307 214.862 66.1169 214.891 66.2836 214.948C66.4529 215.003 66.5961 215.09 66.7133 215.21C66.8331 215.327 66.9255 215.481 66.9906 215.671C67.0557 215.861 67.0883 216.089 67.0883 216.355V219.167H66.6234V216.37C66.6234 216.089 66.5792 215.869 66.4906 215.71C66.4047 215.551 66.2836 215.438 66.1273 215.37C65.9737 215.303 65.7953 215.269 65.5922 215.269C65.3526 215.269 65.1495 215.318 64.9828 215.417C64.8187 215.513 64.6846 215.64 64.5805 215.796C64.4789 215.95 64.4034 216.115 64.3539 216.292C64.3044 216.467 64.2784 216.633 64.2758 216.792ZM67.0844 216.425L66.7719 216.433C66.7849 216.227 66.8318 216.03 66.9125 215.843C66.9958 215.655 67.1091 215.489 67.2523 215.343C67.3956 215.194 67.5661 215.077 67.7641 214.991C67.9646 214.905 68.1898 214.862 68.4398 214.862C68.6586 214.862 68.8539 214.892 69.0258 214.952C69.1976 215.01 69.3422 215.102 69.4594 215.23C69.5792 215.355 69.6703 215.515 69.7328 215.71C69.7953 215.905 69.8266 216.14 69.8266 216.413V219.167H69.3578V216.409C69.3578 216.11 69.3135 215.878 69.225 215.714C69.1391 215.547 69.0193 215.431 68.8656 215.366C68.712 215.301 68.5323 215.269 68.3266 215.269C68.1234 215.271 67.945 215.309 67.7914 215.382C67.6378 215.452 67.5088 215.546 67.4047 215.663C67.3031 215.778 67.225 215.902 67.1703 216.034C67.1182 216.167 67.0896 216.297 67.0844 216.425ZM71.5336 214.941V219.167H71.0687V214.941H71.5336ZM70.9867 213.718C70.9867 213.629 71.0141 213.555 71.0687 213.495C71.126 213.433 71.2042 213.402 71.3031 213.402C71.4021 213.402 71.4802 213.433 71.5375 213.495C71.5974 213.555 71.6273 213.629 71.6273 213.718C71.6273 213.804 71.5974 213.878 71.5375 213.941C71.4802 214 71.4021 214.03 71.3031 214.03C71.2042 214.03 71.126 214 71.0687 213.941C71.0141 213.878 70.9867 213.804 70.9867 213.718ZM74.4086 214.941V215.323H72.2914V214.941H74.4086ZM73.0687 213.855H73.5336V218.14C73.5336 218.335 73.5596 218.482 73.6117 218.581C73.6638 218.68 73.7315 218.747 73.8148 218.78C73.8982 218.814 73.988 218.831 74.0844 218.831C74.1547 218.831 74.2224 218.827 74.2875 218.819C74.3526 218.809 74.4112 218.799 74.4633 218.788L74.4828 219.183C74.4255 219.201 74.3513 219.215 74.2601 219.226C74.169 219.239 74.0779 219.245 73.9867 219.245C73.807 219.245 73.6482 219.213 73.5101 219.148C73.3721 219.08 73.2641 218.965 73.1859 218.804C73.1078 218.64 73.0687 218.417 73.0687 218.136V213.855ZM77.9594 218.409V216.23C77.9594 216.029 77.9177 215.856 77.8344 215.71C77.751 215.564 77.6286 215.452 77.4672 215.374C77.3057 215.296 77.1065 215.257 76.8695 215.257C76.6508 215.257 76.4555 215.296 76.2836 215.374C76.1143 215.45 75.9802 215.553 75.8812 215.683C75.7849 215.81 75.7367 215.952 75.7367 216.109L75.268 216.105C75.268 215.946 75.307 215.792 75.3851 215.644C75.4633 215.495 75.5739 215.362 75.7172 215.245C75.8604 215.128 76.031 215.036 76.2289 214.968C76.4294 214.898 76.6495 214.862 76.8891 214.862C77.1911 214.862 77.4568 214.913 77.6859 215.015C77.9177 215.116 78.0987 215.269 78.2289 215.472C78.3591 215.675 78.4242 215.93 78.4242 216.237V218.28C78.4242 218.426 78.4346 218.577 78.4555 218.734C78.4789 218.89 78.5114 219.019 78.5531 219.12V219.167H78.057C78.0258 219.073 78.001 218.956 77.9828 218.816C77.9672 218.672 77.9594 218.537 77.9594 218.409ZM78.0687 216.706L78.0766 217.066H77.1586C76.919 217.066 76.7042 217.088 76.5141 217.132C76.3266 217.174 76.1677 217.236 76.0375 217.319C75.9073 217.4 75.807 217.498 75.7367 217.612C75.669 217.727 75.6351 217.857 75.6351 218.003C75.6351 218.154 75.6729 218.292 75.7484 218.417C75.8266 218.542 75.9359 218.642 76.0766 218.718C76.2198 218.791 76.3891 218.827 76.5844 218.827C76.8448 218.827 77.0739 218.779 77.2719 218.683C77.4724 218.586 77.6378 218.46 77.768 218.304C77.8982 218.148 77.9854 217.977 78.0297 217.792L78.2328 218.062C78.1989 218.192 78.1364 218.326 78.0453 218.464C77.9568 218.599 77.8409 218.727 77.6976 218.847C77.5544 218.964 77.3851 219.06 77.1898 219.136C76.9971 219.209 76.7784 219.245 76.5336 219.245C76.2575 219.245 76.0167 219.193 75.8109 219.089C75.6078 218.985 75.4489 218.843 75.3344 218.663C75.2224 218.481 75.1664 218.275 75.1664 218.046C75.1664 217.838 75.2107 217.652 75.2992 217.487C75.3878 217.321 75.5154 217.18 75.682 217.066C75.8513 216.948 76.0544 216.86 76.2914 216.8C76.531 216.737 76.7992 216.706 77.0961 216.706H78.0687ZM81.2758 214.941V215.323H79.1586V214.941H81.2758ZM79.9359 213.855H80.4008V218.14C80.4008 218.335 80.4268 218.482 80.4789 218.581C80.531 218.68 80.5987 218.747 80.682 218.78C80.7654 218.814 80.8552 218.831 80.9516 218.831C81.0219 218.831 81.0896 218.827 81.1547 218.819C81.2198 218.809 81.2784 218.799 81.3305 218.788L81.35 219.183C81.2927 219.201 81.2185 219.215 81.1273 219.226C81.0362 219.239 80.945 219.245 80.8539 219.245C80.6742 219.245 80.5154 219.213 80.3773 219.148C80.2393 219.08 80.1312 218.965 80.0531 218.804C79.975 218.64 79.9359 218.417 79.9359 218.136V213.855ZM82.7758 214.941V219.167H82.3109V214.941H82.7758ZM82.2289 213.718C82.2289 213.629 82.2562 213.555 82.3109 213.495C82.3682 213.433 82.4463 213.402 82.5453 213.402C82.6443 213.402 82.7224 213.433 82.7797 213.495C82.8396 213.555 82.8695 213.629 82.8695 213.718C82.8695 213.804 82.8396 213.878 82.7797 213.941C82.7224 214 82.6443 214.03 82.5453 214.03C82.4463 214.03 82.3682 214 82.3109 213.941C82.2562 213.878 82.2289 213.804 82.2289 213.718ZM83.7953 217.12V216.991C83.7953 216.684 83.8396 216.4 83.9281 216.14C84.0167 215.879 84.143 215.654 84.307 215.464C84.4737 215.274 84.6729 215.127 84.9047 215.023C85.1364 214.916 85.3943 214.862 85.6781 214.862C85.9646 214.862 86.2237 214.916 86.4555 215.023C86.6872 215.127 86.8864 215.274 87.0531 215.464C87.2198 215.654 87.3474 215.879 87.4359 216.14C87.5245 216.4 87.5687 216.684 87.5687 216.991V217.12C87.5687 217.428 87.5245 217.711 87.4359 217.972C87.3474 218.23 87.2198 218.454 87.0531 218.644C86.8891 218.834 86.6911 218.982 86.4594 219.089C86.2276 219.193 85.9698 219.245 85.6859 219.245C85.3995 219.245 85.1404 219.193 84.9086 219.089C84.6768 218.982 84.4776 218.834 84.3109 218.644C84.1443 218.454 84.0167 218.23 83.9281 217.972C83.8396 217.711 83.7953 217.428 83.7953 217.12ZM84.2601 216.991V217.12C84.2601 217.352 84.2914 217.572 84.3539 217.78C84.4164 217.986 84.5075 218.17 84.6273 218.331C84.7471 218.49 84.8956 218.615 85.0726 218.706C85.2497 218.797 85.4542 218.843 85.6859 218.843C85.9151 218.843 86.1169 218.797 86.2914 218.706C86.4685 218.615 86.6169 218.49 86.7367 218.331C86.8565 218.17 86.9463 217.986 87.0062 217.78C87.0687 217.572 87.1 217.352 87.1 217.12V216.991C87.1 216.762 87.0687 216.545 87.0062 216.339C86.9463 216.133 86.8552 215.95 86.7328 215.788C86.613 215.627 86.4646 215.499 86.2875 215.405C86.1104 215.312 85.9073 215.265 85.6781 215.265C85.4489 215.265 85.2458 215.312 85.0687 215.405C84.8943 215.499 84.7458 215.627 84.6234 215.788C84.5036 215.95 84.4125 216.133 84.35 216.339C84.2901 216.545 84.2601 216.762 84.2601 216.991ZM89.0023 215.843V219.167H88.5375V214.941H88.9828L89.0023 215.843ZM88.8969 216.792L88.6898 216.675C88.7055 216.425 88.7562 216.191 88.8422 215.972C88.9281 215.753 89.044 215.56 89.1898 215.394C89.3383 215.227 89.5114 215.097 89.7094 215.003C89.9099 214.909 90.1312 214.862 90.3734 214.862C90.5844 214.862 90.7732 214.891 90.9398 214.948C91.1065 215.006 91.2484 215.097 91.3656 215.222C91.4828 215.347 91.5713 215.507 91.6312 215.702C91.6937 215.898 91.725 216.136 91.725 216.417V219.167H91.2562V216.413C91.2562 216.122 91.2159 215.894 91.1351 215.73C91.0544 215.563 90.9398 215.444 90.7914 215.374C90.643 215.304 90.4672 215.269 90.2641 215.269C90.0401 215.269 89.8435 215.318 89.6742 215.417C89.5075 215.513 89.3669 215.64 89.2523 215.796C89.1404 215.95 89.0544 216.115 88.9945 216.292C88.9346 216.467 88.9021 216.633 88.8969 216.792Z" fill="#4B465C"/>
<path d="M129.666 206.397V212.667H128.428V207.824L126.941 208.296V207.321L129.533 206.397H129.666ZM135.914 208.988V210.071C135.914 210.541 135.864 210.947 135.764 211.288C135.664 211.626 135.519 211.904 135.33 212.121C135.144 212.336 134.922 212.495 134.664 212.598C134.406 212.702 134.12 212.753 133.804 212.753C133.552 212.753 133.317 212.722 133.1 212.659C132.882 212.593 132.686 212.491 132.511 212.353C132.339 212.216 132.19 212.043 132.064 211.833C131.941 211.621 131.846 211.369 131.78 211.077C131.714 210.785 131.681 210.45 131.681 210.071V208.988C131.681 208.519 131.731 208.116 131.832 207.781C131.935 207.443 132.08 207.166 132.266 206.951C132.455 206.736 132.678 206.579 132.936 206.479C133.194 206.375 133.481 206.324 133.796 206.324C134.048 206.324 134.281 206.357 134.496 206.423C134.714 206.486 134.91 206.585 135.085 206.719C135.26 206.854 135.409 207.027 135.532 207.239C135.655 207.448 135.75 207.699 135.816 207.991C135.882 208.281 135.914 208.613 135.914 208.988ZM134.672 210.235V208.821C134.672 208.594 134.66 208.397 134.634 208.228C134.611 208.059 134.575 207.915 134.526 207.798C134.478 207.678 134.417 207.58 134.346 207.506C134.274 207.431 134.193 207.377 134.101 207.342C134.009 207.308 133.908 207.291 133.796 207.291C133.655 207.291 133.531 207.318 133.422 207.372C133.316 207.427 133.226 207.514 133.151 207.635C133.077 207.752 133.019 207.91 132.979 208.107C132.942 208.302 132.923 208.54 132.923 208.821V210.235C132.923 210.461 132.935 210.66 132.958 210.832C132.984 211.004 133.021 211.152 133.069 211.275C133.121 211.395 133.181 211.494 133.25 211.571C133.322 211.646 133.403 211.7 133.495 211.735C133.589 211.769 133.693 211.786 133.804 211.786C133.942 211.786 134.064 211.759 134.17 211.704C134.279 211.647 134.37 211.558 134.445 211.438C134.522 211.315 134.579 211.154 134.617 210.957C134.654 210.759 134.672 210.518 134.672 210.235ZM140.968 208.988V210.071C140.968 210.541 140.918 210.947 140.818 211.288C140.718 211.626 140.573 211.904 140.384 212.121C140.198 212.336 139.976 212.495 139.718 212.598C139.46 212.702 139.174 212.753 138.858 212.753C138.606 212.753 138.371 212.722 138.154 212.659C137.936 212.593 137.74 212.491 137.565 212.353C137.393 212.216 137.244 212.043 137.118 211.833C136.995 211.621 136.9 211.369 136.834 211.077C136.768 210.785 136.735 210.45 136.735 210.071V208.988C136.735 208.519 136.785 208.116 136.886 207.781C136.989 207.443 137.134 207.166 137.32 206.951C137.509 206.736 137.732 206.579 137.99 206.479C138.248 206.375 138.535 206.324 138.85 206.324C139.102 206.324 139.335 206.357 139.55 206.423C139.768 206.486 139.964 206.585 140.139 206.719C140.314 206.854 140.463 207.027 140.586 207.239C140.709 207.448 140.804 207.699 140.87 207.991C140.936 208.281 140.968 208.613 140.968 208.988ZM139.726 210.235V208.821C139.726 208.594 139.714 208.397 139.688 208.228C139.665 208.059 139.629 207.915 139.58 207.798C139.532 207.678 139.471 207.58 139.4 207.506C139.328 207.431 139.247 207.377 139.155 207.342C139.063 207.308 138.961 207.291 138.85 207.291C138.709 207.291 138.585 207.318 138.476 207.372C138.37 207.427 138.28 207.514 138.205 207.635C138.131 207.752 138.073 207.91 138.033 208.107C137.996 208.302 137.977 208.54 137.977 208.821V210.235C137.977 210.461 137.989 210.66 138.012 210.832C138.038 211.004 138.075 211.152 138.123 211.275C138.175 211.395 138.235 211.494 138.304 211.571C138.376 211.646 138.457 211.7 138.549 211.735C138.643 211.769 138.747 211.786 138.858 211.786C138.996 211.786 139.118 211.759 139.224 211.704C139.333 211.647 139.424 211.558 139.499 211.438C139.576 211.315 139.633 211.154 139.671 210.957C139.708 210.759 139.726 210.518 139.726 210.235ZM146.022 208.988V210.071C146.022 210.541 145.972 210.947 145.872 211.288C145.772 211.626 145.627 211.904 145.438 212.121C145.252 212.336 145.03 212.495 144.772 212.598C144.514 212.702 144.227 212.753 143.912 212.753C143.66 212.753 143.425 212.722 143.208 212.659C142.99 212.593 142.794 212.491 142.619 212.353C142.447 212.216 142.298 212.043 142.172 211.833C142.049 211.621 141.954 211.369 141.888 211.077C141.822 210.785 141.789 210.45 141.789 210.071V208.988C141.789 208.519 141.839 208.116 141.94 207.781C142.043 207.443 142.188 207.166 142.374 206.951C142.563 206.736 142.786 206.579 143.044 206.479C143.302 206.375 143.589 206.324 143.904 206.324C144.156 206.324 144.389 206.357 144.604 206.423C144.822 206.486 145.018 206.585 145.193 206.719C145.368 206.854 145.517 207.027 145.64 207.239C145.763 207.448 145.858 207.699 145.924 207.991C145.99 208.281 146.022 208.613 146.022 208.988ZM144.78 210.235V208.821C144.78 208.594 144.768 208.397 144.742 208.228C144.719 208.059 144.683 207.915 144.634 207.798C144.586 207.678 144.525 207.58 144.454 207.506C144.382 207.431 144.301 207.377 144.209 207.342C144.117 207.308 144.015 207.291 143.904 207.291C143.763 207.291 143.639 207.318 143.53 207.372C143.424 207.427 143.334 207.514 143.259 207.635C143.185 207.752 143.127 207.91 143.087 208.107C143.05 208.302 143.031 208.54 143.031 208.821V210.235C143.031 210.461 143.043 210.66 143.066 210.832C143.091 211.004 143.129 211.152 143.177 211.275C143.229 211.395 143.289 211.494 143.358 211.571C143.43 211.646 143.511 211.7 143.603 211.735C143.697 211.769 143.801 211.786 143.912 211.786C144.05 211.786 144.172 211.759 144.278 211.704C144.387 211.647 144.478 211.558 144.553 211.438C144.63 211.315 144.687 211.154 144.725 210.957C144.762 210.759 144.78 210.518 144.78 210.235ZM151.076 208.988V210.071C151.076 210.541 151.026 210.947 150.926 211.288C150.826 211.626 150.681 211.904 150.492 212.121C150.306 212.336 150.084 212.495 149.826 212.598C149.568 212.702 149.281 212.753 148.966 212.753C148.714 212.753 148.479 212.722 148.262 212.659C148.044 212.593 147.848 212.491 147.673 212.353C147.501 212.216 147.352 212.043 147.226 211.833C147.103 211.621 147.008 211.369 146.942 211.077C146.876 210.785 146.843 210.45 146.843 210.071V208.988C146.843 208.519 146.893 208.116 146.994 207.781C147.097 207.443 147.242 207.166 147.428 206.951C147.617 206.736 147.84 206.579 148.098 206.479C148.356 206.375 148.643 206.324 148.958 206.324C149.21 206.324 149.443 206.357 149.658 206.423C149.876 206.486 150.072 206.585 150.247 206.719C150.422 206.854 150.571 207.027 150.694 207.239C150.817 207.448 150.912 207.699 150.978 207.991C151.043 208.281 151.076 208.613 151.076 208.988ZM149.834 210.235V208.821C149.834 208.594 149.822 208.397 149.796 208.228C149.773 208.059 149.737 207.915 149.688 207.798C149.64 207.678 149.579 207.58 149.508 207.506C149.436 207.431 149.355 207.377 149.263 207.342C149.171 207.308 149.069 207.291 148.958 207.291C148.817 207.291 148.693 207.318 148.584 207.372C148.478 207.427 148.388 207.514 148.313 207.635C148.239 207.752 148.181 207.91 148.141 208.107C148.104 208.302 148.085 208.54 148.085 208.821V210.235C148.085 210.461 148.097 210.66 148.12 210.832C148.145 211.004 148.183 211.152 148.231 211.275C148.283 211.395 148.343 211.494 148.412 211.571C148.484 211.646 148.565 211.7 148.657 211.735C148.751 211.769 148.855 211.786 148.966 211.786C149.104 211.786 149.226 211.759 149.332 211.704C149.44 211.647 149.532 211.558 149.607 211.438C149.684 211.315 149.741 211.154 149.779 210.957C149.816 210.759 149.834 210.518 149.834 210.235Z" fill="#4B465C"/>
</svg>
