<svg width="179" height="248" viewBox="0 0 179 248" fill="none" xmlns="http://www.w3.org/2000/svg">
<rect width="178.5" height="248" rx="8" fill="white"/>
<path d="M18.146 19.3986L19.6768 22.8791L21.2183 19.3986H23.1089L20.5684 24.3937V27.2189H18.7905V24.3937L16.2446 19.3986H18.146ZM23.0767 24.3722V24.2594C23.0767 23.8333 23.1375 23.4412 23.2593 23.0832C23.381 22.7215 23.5601 22.4082 23.7964 22.1432C24.0327 21.8782 24.3228 21.6724 24.6665 21.5255C25.0103 21.3752 25.4041 21.3 25.8481 21.3C26.2993 21.3 26.6968 21.3752 27.0405 21.5255C27.3879 21.6724 27.6797 21.8782 27.916 22.1432C28.1523 22.4082 28.3314 22.7215 28.4531 23.0832C28.5749 23.4412 28.6357 23.8333 28.6357 24.2594V24.3722C28.6357 24.7947 28.5749 25.1868 28.4531 25.5485C28.3314 25.9066 28.1523 26.2199 27.916 26.4884C27.6797 26.7534 27.3896 26.9593 27.0459 27.1061C26.7021 27.2529 26.3065 27.3263 25.8589 27.3263C25.4149 27.3263 25.0192 27.2529 24.6719 27.1061C24.3245 26.9593 24.0327 26.7534 23.7964 26.4884C23.5601 26.2199 23.381 25.9066 23.2593 25.5485C23.1375 25.1868 23.0767 24.7947 23.0767 24.3722ZM24.7578 24.2594V24.3722C24.7578 24.6014 24.7757 24.8162 24.8115 25.0168C24.8509 25.2173 24.9136 25.3927 24.9995 25.5431C25.0854 25.6935 25.1982 25.8117 25.3379 25.8976C25.4811 25.98 25.6548 26.0211 25.8589 26.0211C26.063 26.0211 26.2349 25.98 26.3745 25.8976C26.5142 25.8117 26.627 25.6935 26.7129 25.5431C26.7988 25.3927 26.8597 25.2173 26.8955 25.0168C26.9349 24.8162 26.9546 24.6014 26.9546 24.3722V24.2594C26.9546 24.0338 26.9349 23.8226 26.8955 23.6256C26.8597 23.4251 26.7988 23.2479 26.7129 23.0939C26.627 22.9399 26.5124 22.82 26.3691 22.734C26.2295 22.6481 26.0558 22.6051 25.8481 22.6051C25.6476 22.6051 25.4775 22.6481 25.3379 22.734C25.1982 22.82 25.0854 22.9399 24.9995 23.0939C24.9136 23.2479 24.8509 23.4251 24.8115 23.6256C24.7757 23.8226 24.7578 24.0338 24.7578 24.2594ZM32.9272 25.817V21.4074H34.6138V27.2189H33.0347L32.9272 25.817ZM33.1045 24.63L33.5664 24.6193C33.5664 25.0096 33.5199 25.3695 33.4268 25.6989C33.3372 26.0283 33.2012 26.3148 33.0186 26.5583C32.8395 26.8017 32.6157 26.9915 32.3472 27.1276C32.0822 27.2601 31.7725 27.3263 31.418 27.3263C31.1315 27.3263 30.8683 27.2869 30.6284 27.2082C30.3921 27.1258 30.188 26.9987 30.0161 26.8268C29.8442 26.6514 29.7118 26.4276 29.6187 26.1554C29.5256 25.8797 29.479 25.5503 29.479 25.1671V21.4074H31.1548V25.1779C31.1548 25.3283 31.1727 25.4572 31.2085 25.5646C31.2479 25.6684 31.2998 25.7544 31.3643 25.8224C31.4323 25.8905 31.5146 25.9406 31.6113 25.9728C31.7116 26.005 31.8208 26.0211 31.939 26.0211C32.2362 26.0211 32.4689 25.9603 32.6372 25.8385C32.8091 25.7132 32.929 25.5467 32.9971 25.339C33.0687 25.1278 33.1045 24.8914 33.1045 24.63ZM37.3853 22.7609V27.2189H35.7095V21.4074H37.2832L37.3853 22.7609ZM39.1201 21.3644L39.0933 22.9274C39.0216 22.9167 38.9285 22.9077 38.814 22.9005C38.6994 22.8898 38.6009 22.8844 38.5186 22.8844C38.3037 22.8844 38.1175 22.9113 37.96 22.965C37.806 23.0151 37.6771 23.0903 37.5732 23.1906C37.473 23.2908 37.3978 23.4162 37.3477 23.5666C37.2975 23.7134 37.2725 23.8835 37.2725 24.0768L36.9556 23.9211C36.9556 23.5379 36.9932 23.187 37.0684 22.8683C37.1436 22.5496 37.2528 22.2739 37.396 22.0412C37.5392 21.8048 37.7147 21.6222 37.9224 21.4933C38.13 21.3644 38.3664 21.3 38.6313 21.3C38.7173 21.3 38.805 21.3053 38.8945 21.3161C38.984 21.3268 39.0592 21.3429 39.1201 21.3644ZM42.6328 19.3986H45.6353C46.2332 19.3986 46.7507 19.4881 47.1875 19.6671C47.6279 19.8462 47.9663 20.1112 48.2026 20.4621C48.439 20.813 48.5571 21.2462 48.5571 21.7619C48.5571 22.1916 48.4873 22.5568 48.3477 22.8576C48.208 23.1584 48.0111 23.4072 47.7568 23.6042C47.5062 23.8011 47.2126 23.9604 46.876 24.0822L46.3066 24.3937H43.75L43.7393 23.0348H45.6406C45.902 23.0348 46.1187 22.9883 46.2905 22.8952C46.4624 22.8021 46.5913 22.6714 46.6772 22.5031C46.7668 22.3312 46.8115 22.1307 46.8115 21.9015C46.8115 21.6652 46.7668 21.4611 46.6772 21.2892C46.5877 21.1173 46.4552 20.9866 46.2798 20.8971C46.1079 20.804 45.8931 20.7575 45.6353 20.7575H44.3838V27.2189H42.6328V19.3986ZM46.9619 27.2189L45.2056 23.7438L47.0532 23.7384L48.8364 27.1383V27.2189H46.9619ZM52.7358 25.8332V23.341C52.7358 23.1655 52.709 23.0151 52.6553 22.8898C52.6016 22.7645 52.5174 22.666 52.4028 22.5944C52.2882 22.5228 52.1396 22.487 51.957 22.487C51.8031 22.487 51.6688 22.5138 51.5542 22.5675C51.4432 22.6212 51.3573 22.6982 51.2964 22.7985C51.2391 22.8988 51.2104 23.0223 51.2104 23.1691H49.5347C49.5347 22.9077 49.5938 22.6642 49.7119 22.4386C49.8301 22.213 49.9984 22.0143 50.2168 21.8424C50.4388 21.6706 50.7038 21.5381 51.0117 21.445C51.3197 21.3483 51.6652 21.3 52.0483 21.3C52.5031 21.3 52.9077 21.3769 53.2622 21.5309C53.6203 21.6813 53.9032 21.9087 54.1108 22.213C54.3185 22.5138 54.4224 22.8934 54.4224 23.3517V25.7848C54.4224 26.1357 54.4421 26.4114 54.4814 26.612C54.5244 26.8089 54.5853 26.9808 54.6641 27.1276V27.2189H52.9722C52.8934 27.0506 52.8343 26.8429 52.7949 26.5959C52.7555 26.3452 52.7358 26.091 52.7358 25.8332ZM52.9453 23.674L52.9561 24.5978H52.1235C51.9373 24.5978 51.7762 24.6211 51.6401 24.6676C51.5076 24.7142 51.4002 24.7786 51.3179 24.861C51.2355 24.9398 51.1746 25.0329 51.1353 25.1403C51.0994 25.2441 51.0815 25.3587 51.0815 25.484C51.0815 25.6022 51.1102 25.7096 51.1675 25.8063C51.2248 25.8994 51.3035 25.9728 51.4038 26.0265C51.5041 26.0802 51.6204 26.1071 51.7529 26.1071C51.9714 26.1071 52.1576 26.0641 52.3115 25.9782C52.4691 25.8922 52.5908 25.7884 52.6768 25.6667C52.7627 25.5413 52.8057 25.425 52.8057 25.3175L53.2085 26.0158C53.144 26.159 53.0653 26.3076 52.9722 26.4616C52.8791 26.612 52.7609 26.7534 52.6177 26.8859C52.4744 27.0148 52.3008 27.1204 52.0967 27.2028C51.8962 27.2851 51.6545 27.3263 51.3716 27.3263C51.0063 27.3263 50.6751 27.2529 50.3779 27.1061C50.0807 26.9557 49.8426 26.7498 49.6636 26.4884C49.4881 26.227 49.4004 25.9263 49.4004 25.5861C49.4004 25.2817 49.4559 25.0114 49.5669 24.7751C49.6779 24.5387 49.8444 24.3382 50.0664 24.1735C50.292 24.0088 50.5749 23.8852 50.915 23.8029C51.2552 23.7169 51.6527 23.674 52.1074 23.674H52.9453ZM58.4775 21.4074V22.5836H55.0293V21.4074H58.4775ZM55.8188 19.9679H57.5V25.3981C57.5 25.5592 57.5197 25.6828 57.5591 25.7687C57.5985 25.8546 57.6629 25.9155 57.7524 25.9513C57.842 25.9836 57.9565 25.9997 58.0962 25.9997C58.1965 25.9997 58.2824 25.9961 58.354 25.9889C58.4256 25.9818 58.4919 25.9728 58.5527 25.9621V27.1759C58.4095 27.2225 58.2573 27.2583 58.0962 27.2834C57.9351 27.312 57.7596 27.3263 57.5698 27.3263C57.2082 27.3263 56.8949 27.2672 56.6299 27.1491C56.3685 27.0309 56.168 26.8447 56.0283 26.5905C55.8887 26.3327 55.8188 25.9979 55.8188 25.5861V19.9679ZM61.0503 21.4074V27.2189H59.3691V21.4074H61.0503ZM59.2671 19.9035C59.2671 19.66 59.353 19.4613 59.5249 19.3073C59.6968 19.1497 59.9224 19.071 60.2017 19.071C60.481 19.071 60.7065 19.1497 60.8784 19.3073C61.0539 19.4613 61.1416 19.66 61.1416 19.9035C61.1416 20.1434 61.0539 20.3421 60.8784 20.4997C60.7065 20.6536 60.481 20.7306 60.2017 20.7306C59.9224 20.7306 59.6968 20.6536 59.5249 20.4997C59.353 20.3421 59.2671 20.1434 59.2671 19.9035ZM63.9023 22.6481V27.2189H62.2212V21.4074H63.8003L63.9023 22.6481ZM63.6821 24.109L63.2632 24.1198C63.2632 23.6829 63.3169 23.2908 63.4243 22.9435C63.5317 22.5962 63.6839 22.3008 63.8809 22.0573C64.0814 21.8102 64.3195 21.6222 64.5952 21.4933C64.8745 21.3644 65.1825 21.3 65.519 21.3C65.7912 21.3 66.04 21.3393 66.2656 21.4181C66.4912 21.4969 66.6846 21.624 66.8457 21.7995C67.0104 21.9713 67.1357 22.2005 67.2217 22.487C67.3076 22.7698 67.3506 23.119 67.3506 23.5343V27.2189H65.6641V23.529C65.6641 23.2855 65.63 23.0975 65.562 22.965C65.494 22.8325 65.3937 22.7394 65.2612 22.6857C65.1323 22.632 64.9748 22.6051 64.7886 22.6051C64.5916 22.6051 64.4233 22.6445 64.2837 22.7233C64.144 22.7985 64.0295 22.9041 63.9399 23.0402C63.8504 23.1763 63.7842 23.3356 63.7412 23.5182C63.7018 23.7008 63.6821 23.8978 63.6821 24.109ZM72.1094 21.4074H73.6348V27.0094C73.6348 27.543 73.513 27.9959 73.2695 28.3683C73.0296 28.7407 72.6948 29.0236 72.2651 29.2169C71.8354 29.4103 71.3324 29.507 70.7559 29.507C70.5052 29.507 70.2438 29.473 69.9717 29.4049C69.6995 29.3405 69.4435 29.242 69.2036 29.1095C68.9637 28.9806 68.7632 28.8159 68.6021 28.6154L69.3164 27.6271C69.4811 27.8133 69.6781 27.9637 69.9072 28.0783C70.1364 28.1964 70.3978 28.2555 70.6914 28.2555C70.96 28.2555 71.1873 28.2072 71.3735 28.1105C71.5597 28.0138 71.7012 27.8724 71.7979 27.6862C71.8981 27.5 71.9482 27.2744 71.9482 27.0094V22.7663L72.1094 21.4074ZM68.2261 24.383V24.2702C68.2261 23.8297 68.2798 23.4287 68.3872 23.067C68.4946 22.7018 68.6504 22.3885 68.8545 22.1271C69.0622 21.8621 69.311 21.658 69.6011 21.5148C69.8947 21.3716 70.2241 21.3 70.5894 21.3C70.9832 21.3 71.3091 21.3752 71.5669 21.5255C71.8247 21.6724 72.0342 21.88 72.1953 22.1486C72.3564 22.4136 72.4836 22.7269 72.5767 23.0885C72.6698 23.4466 72.745 23.8351 72.8022 24.2541V24.4474C72.745 24.8485 72.6626 25.2226 72.5552 25.57C72.4478 25.9173 72.3081 26.2235 72.1362 26.4884C71.9644 26.7498 71.7495 26.9557 71.4917 27.1061C71.2375 27.2529 70.9331 27.3263 70.5786 27.3263C70.217 27.3263 69.8911 27.2529 69.6011 27.1061C69.311 26.9593 69.0622 26.7534 68.8545 26.4884C68.6504 26.2235 68.4946 25.9119 68.3872 25.5539C68.2798 25.1958 68.2261 24.8055 68.2261 24.383ZM69.9019 24.2702V24.383C69.9019 24.6121 69.9233 24.8252 69.9663 25.0221C70.0129 25.2191 70.0809 25.3927 70.1704 25.5431C70.2635 25.6935 70.3781 25.8117 70.5142 25.8976C70.6538 25.98 70.8167 26.0211 71.0029 26.0211C71.2751 26.0211 71.4953 25.9639 71.6636 25.8493C71.8354 25.7311 71.9608 25.5682 72.0396 25.3605C72.1219 25.1528 72.1649 24.9111 72.1685 24.6354V24.0714C72.1685 23.8423 72.1452 23.6364 72.0986 23.4538C72.0521 23.2711 71.9823 23.1172 71.8892 22.9919C71.7996 22.8665 71.6815 22.7716 71.5347 22.7072C71.3914 22.6391 71.2178 22.6051 71.0137 22.6051C70.8311 22.6051 70.6699 22.6481 70.5303 22.734C70.3906 22.8164 70.2743 22.9328 70.1812 23.0832C70.0881 23.2336 70.0182 23.4108 69.9717 23.6149C69.9251 23.8154 69.9019 24.0338 69.9019 24.2702Z" fill="#4B465C"/>
<path d="M142.335 17.5329V28.2189H140.226V19.9645L137.692 20.7702V19.1076L142.108 17.5329H142.335ZM145.998 27.2008C145.998 26.8883 146.105 26.6271 146.32 26.4171C146.54 26.2072 146.83 26.1022 147.191 26.1022C147.553 26.1022 147.841 26.2072 148.056 26.4171C148.275 26.6271 148.385 26.8883 148.385 27.2008C148.385 27.5133 148.275 27.7746 148.056 27.9845C147.841 28.1945 147.553 28.2995 147.191 28.2995C146.83 28.2995 146.54 28.1945 146.32 27.9845C146.105 27.7746 145.998 27.5133 145.998 27.2008ZM152.318 21.9713H153.446C153.808 21.9713 154.105 21.9103 154.34 21.7882C154.574 21.6613 154.748 21.4855 154.86 21.2609C154.977 21.0314 155.036 20.7653 155.036 20.4626C155.036 20.1891 154.982 19.9474 154.875 19.7375C154.772 19.5226 154.613 19.3566 154.398 19.2394C154.184 19.1173 153.913 19.0563 153.585 19.0563C153.327 19.0563 153.087 19.1076 152.868 19.2101C152.648 19.3127 152.472 19.4567 152.34 19.6422C152.208 19.8278 152.143 20.0524 152.143 20.3161H150.026C150.026 19.7301 150.182 19.2199 150.495 18.7853C150.812 18.3507 151.237 18.0114 151.769 17.7672C152.301 17.5231 152.887 17.401 153.527 17.401C154.25 17.401 154.882 17.5182 155.424 17.7526C155.966 17.9821 156.388 18.3214 156.691 18.7707C156.994 19.2199 157.145 19.7765 157.145 20.4406C157.145 20.7775 157.067 21.1046 156.911 21.422C156.754 21.7345 156.53 22.0177 156.237 22.2716C155.949 22.5207 155.597 22.7209 155.182 22.8722C154.767 23.0187 154.301 23.0919 153.783 23.0919H152.318V21.9713ZM152.318 23.5753V22.484H153.783C154.364 22.484 154.875 22.55 155.314 22.6818C155.753 22.8136 156.122 23.0041 156.42 23.2531C156.718 23.4972 156.942 23.7878 157.094 24.1247C157.245 24.4567 157.321 24.8253 157.321 25.2306C157.321 25.7287 157.226 26.173 157.035 26.5636C156.845 26.9494 156.576 27.2765 156.229 27.5451C155.888 27.8136 155.487 28.0187 155.028 28.1603C154.569 28.297 154.069 28.3654 153.527 28.3654C153.078 28.3654 152.636 28.3044 152.201 28.1823C151.771 28.0553 151.381 27.8673 151.029 27.6183C150.683 27.3644 150.404 27.047 150.194 26.6662C149.989 26.2804 149.887 25.8239 149.887 25.2965H152.003C152.003 25.57 152.072 25.8141 152.208 26.029C152.345 26.2438 152.533 26.4123 152.772 26.5343C153.017 26.6564 153.288 26.7174 153.585 26.7174C153.922 26.7174 154.21 26.6564 154.45 26.5343C154.694 26.4074 154.879 26.2316 155.006 26.007C155.138 25.7775 155.204 25.5114 155.204 25.2086C155.204 24.818 155.133 24.5055 154.992 24.2711C154.85 24.0319 154.647 23.8561 154.384 23.7438C154.12 23.6315 153.808 23.5753 153.446 23.5753H152.318Z" fill="#4B465C"/>
<path opacity="0.8" d="M61.9151 63.0254C57.0391 67.0408 53.1076 72.081 50.4001 77.7879L56.8325 80.8395C59.0917 76.0776 62.3722 71.8718 66.4409 68.5213L61.9151 63.0254Z" fill="#7367F0"/>
<path opacity="0.3" d="M49.5206 79.7693C47.3493 85.0135 46.2376 90.6357 46.2499 96.3117L53.3694 96.2963C53.3592 91.5602 54.2867 86.8688 56.0986 82.4929L49.5206 79.7693Z" fill="#7367F0"/>
<g opacity="0.7">
<mask id="path-6-inside-1_2_945" fill="white">
<path d="M132.25 99.2189C132.25 110.623 127.72 121.561 119.656 129.625C111.592 137.689 100.654 142.219 89.2499 142.219C77.8456 142.219 66.9083 137.689 58.8442 129.625C50.7801 121.561 46.2498 110.623 46.2498 99.2189L89.2499 99.2189H132.25Z"/>
</mask>
<path d="M132.25 99.2189C132.25 110.623 127.72 121.561 119.656 129.625C111.592 137.689 100.654 142.219 89.2499 142.219C77.8456 142.219 66.9083 137.689 58.8442 129.625C50.7801 121.561 46.2498 110.623 46.2498 99.2189L89.2499 99.2189H132.25Z" fill="#FFE600" stroke="#7367F0" stroke-width="2" mask="url(#path-6-inside-1_2_945)"/>
</g>
<path d="M79.1773 111.549C79.1773 111.408 79.1556 111.282 79.1121 111.169C79.0723 111.053 78.9962 110.948 78.8839 110.854C78.7717 110.756 78.6141 110.66 78.4113 110.566C78.2085 110.472 77.946 110.374 77.6237 110.273C77.2652 110.157 76.9247 110.027 76.6024 109.882C76.2838 109.737 76.0013 109.569 75.755 109.377C75.5124 109.181 75.3205 108.955 75.1792 108.698C75.0416 108.44 74.9728 108.142 74.9728 107.801C74.9728 107.472 75.0452 107.173 75.1901 106.905C75.3349 106.633 75.5377 106.402 75.7985 106.21C76.0592 106.014 76.367 105.864 76.7219 105.759C77.0805 105.654 77.4734 105.601 77.9007 105.601C78.4838 105.601 78.9926 105.706 79.4272 105.916C79.8617 106.126 80.1985 106.414 80.4375 106.78C80.6802 107.146 80.8015 107.564 80.8015 108.035H79.1827C79.1827 107.803 79.1338 107.6 79.036 107.426C78.9419 107.249 78.797 107.11 78.6015 107.008C78.4095 106.907 78.1669 106.856 77.8736 106.856C77.5911 106.856 77.3557 106.9 77.1674 106.986C76.9791 107.07 76.8378 107.184 76.7437 107.329C76.6495 107.47 76.6024 107.629 76.6024 107.807C76.6024 107.941 76.635 108.062 76.7002 108.171C76.769 108.279 76.8704 108.381 77.0044 108.475C77.1384 108.569 77.3032 108.658 77.4987 108.741C77.6943 108.824 77.9206 108.906 78.1778 108.986C78.6087 109.116 78.9872 109.263 79.3131 109.426C79.6426 109.588 79.9179 109.771 80.1388 109.974C80.3597 110.177 80.5263 110.407 80.6385 110.664C80.7508 110.921 80.8069 111.213 80.8069 111.539C80.8069 111.883 80.7399 112.19 80.6059 112.462C80.4719 112.734 80.2782 112.964 80.0247 113.152C79.7712 113.34 79.4688 113.483 79.1175 113.581C78.7662 113.679 78.3733 113.728 77.9388 113.728C77.5476 113.728 77.162 113.677 76.7817 113.576C76.4015 113.471 76.0556 113.313 75.7442 113.103C75.4363 112.893 75.1901 112.625 75.0054 112.299C74.8207 111.973 74.7283 111.588 74.7283 111.142H76.3634C76.3634 111.388 76.4015 111.597 76.4775 111.767C76.5536 111.937 76.6604 112.075 76.798 112.18C76.9392 112.285 77.1058 112.361 77.2978 112.408C77.4933 112.455 77.707 112.478 77.9388 112.478C78.2212 112.478 78.453 112.439 78.6341 112.359C78.8188 112.279 78.9546 112.169 79.0415 112.028C79.132 111.886 79.1773 111.727 79.1773 111.549ZM84.2455 112.506C84.4374 112.506 84.6076 112.469 84.7561 112.397C84.9046 112.321 85.0205 112.216 85.1038 112.082C85.1907 111.944 85.2359 111.783 85.2396 111.598H86.7117C86.7081 112.011 86.5976 112.379 86.3803 112.701C86.163 113.02 85.8715 113.271 85.5057 113.456C85.14 113.637 84.7308 113.728 84.2781 113.728C83.8218 113.728 83.4234 113.652 83.083 113.5C82.7462 113.348 82.4655 113.137 82.241 112.87C82.0165 112.598 81.8481 112.283 81.7358 111.924C81.6236 111.562 81.5674 111.175 81.5674 110.762V110.604C81.5674 110.188 81.6236 109.8 81.7358 109.442C81.8481 109.08 82.0165 108.765 82.241 108.497C82.4655 108.225 82.7462 108.013 83.083 107.861C83.4198 107.709 83.8145 107.633 84.2672 107.633C84.7489 107.633 85.1708 107.725 85.5329 107.91C85.8987 108.095 86.1848 108.359 86.3912 108.703C86.6012 109.043 86.7081 109.447 86.7117 109.914H85.2396C85.2359 109.719 85.1943 109.541 85.1146 109.382C85.0386 109.223 84.9263 109.096 84.7778 109.002C84.633 108.904 84.4537 108.855 84.24 108.855C84.0119 108.855 83.8254 108.904 83.6805 109.002C83.5357 109.096 83.4234 109.226 83.3437 109.393C83.2641 109.556 83.2079 109.742 83.1753 109.952C83.1464 110.159 83.1319 110.376 83.1319 110.604V110.762C83.1319 110.99 83.1464 111.209 83.1753 111.419C83.2043 111.629 83.2586 111.816 83.3383 111.979C83.4216 112.142 83.5357 112.27 83.6805 112.364C83.8254 112.458 84.0137 112.506 84.2455 112.506ZM87.369 110.74V110.626C87.369 110.195 87.4305 109.799 87.5537 109.436C87.6768 109.071 87.856 108.754 88.0914 108.486C88.3268 108.218 88.6165 108.01 88.9606 107.861C89.3046 107.709 89.6994 107.633 90.1448 107.633C90.5902 107.633 90.9868 107.709 91.3344 107.861C91.6821 108.01 91.9736 108.218 92.209 108.486C92.448 108.754 92.6291 109.071 92.7522 109.436C92.8754 109.799 92.9369 110.195 92.9369 110.626V110.74C92.9369 111.167 92.8754 111.564 92.7522 111.93C92.6291 112.292 92.448 112.609 92.209 112.88C91.9736 113.148 91.6839 113.357 91.3399 113.505C90.9958 113.654 90.6011 113.728 90.1557 113.728C89.7102 113.728 89.3137 113.654 88.966 113.505C88.622 113.357 88.3305 113.148 88.0914 112.88C87.856 112.609 87.6768 112.292 87.5537 111.93C87.4305 111.564 87.369 111.167 87.369 110.74ZM88.9334 110.626V110.74C88.9334 110.986 88.9552 111.216 88.9986 111.43C89.0421 111.644 89.1109 111.832 89.205 111.995C89.3028 112.154 89.4296 112.279 89.5853 112.37C89.741 112.46 89.9311 112.506 90.1557 112.506C90.3729 112.506 90.5594 112.46 90.7152 112.37C90.8709 112.279 90.9958 112.154 91.09 111.995C91.1841 111.832 91.253 111.644 91.2964 111.43C91.3435 111.216 91.367 110.986 91.367 110.74V110.626C91.367 110.387 91.3435 110.162 91.2964 109.952C91.253 109.739 91.1823 109.55 91.0846 109.387C90.9904 109.221 90.8655 109.091 90.7097 108.996C90.554 108.902 90.3657 108.855 90.1448 108.855C89.9239 108.855 89.7356 108.902 89.5799 108.996C89.4278 109.091 89.3028 109.221 89.205 109.387C89.1109 109.55 89.0421 109.739 88.9986 109.952C88.9552 110.162 88.9334 110.387 88.9334 110.626ZM95.4629 109.024V113.619H93.8984V107.742H95.3705L95.4629 109.024ZM97.2338 107.704L97.2066 109.154C97.1305 109.143 97.0382 109.134 96.9296 109.127C96.8245 109.116 96.7286 109.11 96.6416 109.11C96.4207 109.11 96.2288 109.139 96.0658 109.197C95.9065 109.252 95.7725 109.333 95.6639 109.442C95.5588 109.55 95.4792 109.683 95.4248 109.838C95.3741 109.994 95.3452 110.172 95.3379 110.371L95.0229 110.273C95.0229 109.893 95.0609 109.543 95.1369 109.225C95.213 108.902 95.3234 108.622 95.4683 108.383C95.6168 108.144 95.7979 107.959 96.0115 107.828C96.2252 107.698 96.4696 107.633 96.7449 107.633C96.8318 107.633 96.9205 107.64 97.011 107.655C97.1016 107.666 97.1758 107.682 97.2338 107.704ZM100.569 113.728C100.113 113.728 99.7036 113.655 99.3414 113.51C98.9793 113.362 98.6715 113.157 98.418 112.897C98.1681 112.636 97.9761 112.334 97.8422 111.989C97.7082 111.642 97.6412 111.272 97.6412 110.881V110.664C97.6412 110.219 97.7045 109.811 97.8313 109.442C97.958 109.072 98.1391 108.752 98.3745 108.48C98.6135 108.209 98.9032 108 99.2436 107.856C99.5841 107.707 99.9679 107.633 100.395 107.633C100.812 107.633 101.181 107.702 101.503 107.839C101.826 107.977 102.096 108.173 102.313 108.426C102.534 108.68 102.7 108.984 102.813 109.339C102.925 109.69 102.981 110.081 102.981 110.512V111.164H98.3093V110.121H101.444V110.001C101.444 109.784 101.404 109.59 101.324 109.42C101.248 109.246 101.132 109.109 100.977 109.007C100.821 108.906 100.622 108.855 100.379 108.855C100.173 108.855 99.9951 108.9 99.8466 108.991C99.6981 109.081 99.5768 109.208 99.4827 109.371C99.3921 109.534 99.3233 109.726 99.2762 109.947C99.2328 110.164 99.2111 110.403 99.2111 110.664V110.881C99.2111 111.117 99.2436 111.334 99.3088 111.533C99.3776 111.732 99.4736 111.904 99.5967 112.049C99.7235 112.194 99.8756 112.306 100.053 112.386C100.234 112.466 100.439 112.506 100.667 112.506C100.949 112.506 101.212 112.451 101.455 112.343C101.701 112.23 101.913 112.062 102.09 111.837L102.851 112.663C102.727 112.841 102.559 113.011 102.345 113.174C102.135 113.337 101.882 113.471 101.585 113.576C101.288 113.677 100.949 113.728 100.569 113.728ZM86.5487 121.694V129.619H84.9843V123.497L83.1047 124.095V122.862L86.3803 121.694H86.5487ZM89.2648 128.864C89.2648 128.632 89.3445 128.439 89.5038 128.283C89.6668 128.127 89.8822 128.049 90.1502 128.049C90.4182 128.049 90.6319 128.127 90.7912 128.283C90.9542 128.439 91.0357 128.632 91.0357 128.864C91.0357 129.096 90.9542 129.29 90.7912 129.445C90.6319 129.601 90.4182 129.679 90.1502 129.679C89.8822 129.679 89.6668 129.601 89.5038 129.445C89.3445 129.29 89.2648 129.096 89.2648 128.864ZM93.9527 124.986H94.7893C95.0573 124.986 95.2782 124.94 95.452 124.85C95.6258 124.756 95.7544 124.625 95.8377 124.459C95.9246 124.288 95.9681 124.091 95.9681 123.866C95.9681 123.664 95.9282 123.484 95.8486 123.329C95.7725 123.169 95.6548 123.046 95.4955 122.959C95.3361 122.869 95.1351 122.824 94.8925 122.824C94.7006 122.824 94.5231 122.862 94.3601 122.938C94.1972 123.014 94.0668 123.12 93.969 123.258C93.8713 123.396 93.8224 123.562 93.8224 123.758H92.2525C92.2525 123.323 92.3684 122.945 92.6001 122.623C92.8355 122.3 93.1506 122.049 93.5453 121.867C93.9401 121.686 94.3746 121.596 94.849 121.596C95.385 121.596 95.854 121.683 96.256 121.857C96.6579 122.027 96.9712 122.278 97.1957 122.612C97.4203 122.945 97.5325 123.358 97.5325 123.85C97.5325 124.1 97.4746 124.343 97.3587 124.578C97.2428 124.81 97.0762 125.02 96.8589 125.208C96.6453 125.393 96.3845 125.541 96.0767 125.654C95.7689 125.762 95.423 125.817 95.0392 125.817H93.9527V124.986ZM93.9527 126.175V125.366H95.0392C95.4701 125.366 95.8486 125.415 96.1745 125.512C96.5004 125.61 96.7738 125.751 96.9947 125.936C97.2156 126.117 97.3822 126.333 97.4945 126.583C97.6068 126.829 97.6629 127.102 97.6629 127.403C97.6629 127.772 97.5923 128.102 97.451 128.391C97.3098 128.678 97.1106 128.92 96.8535 129.119C96.6 129.319 96.303 129.471 95.9626 129.576C95.6222 129.677 95.251 129.728 94.849 129.728C94.5159 129.728 94.1881 129.683 93.8658 129.592C93.5471 129.498 93.2574 129.358 92.9967 129.174C92.7396 128.985 92.5331 128.75 92.3774 128.468C92.2253 128.181 92.1493 127.843 92.1493 127.452H93.7192C93.7192 127.655 93.7699 127.836 93.8713 127.995C93.9727 128.154 94.1121 128.279 94.2895 128.37C94.4706 128.46 94.6716 128.506 94.8925 128.506C95.1424 128.506 95.356 128.46 95.5335 128.37C95.7146 128.276 95.8522 128.145 95.9463 127.979C96.0441 127.808 96.093 127.611 96.093 127.387C96.093 127.097 96.0405 126.865 95.9355 126.691C95.8304 126.514 95.6802 126.383 95.4846 126.3C95.289 126.217 95.0573 126.175 94.7893 126.175H93.9527Z" fill="#4B465C"/>
<circle cx="89.2944" cy="91.4992" r="3.98647" transform="rotate(-59.7028 89.2944 91.4992)" fill="#DBDADE"/>
<circle cx="87.9166" cy="90.6954" r="1.59459" transform="rotate(-59.7028 87.9166 90.6954)" fill="#363740"/>
<path d="M73.4602 82.2489L88.097 89.2016L86.7036 91.5863L73.4602 82.2489Z" fill="#363740"/>
<mask id="path-11-inside-2_2_945" fill="white">
<path d="M19.75 163.781H158.75V191.781H19.75V163.781Z"/>
</mask>
<path d="M158.75 190.781H19.75V192.781H158.75V190.781Z" fill="#DBDADE" mask="url(#path-11-inside-2_2_945)"/>
<path d="M24.3555 171.746H25.1992C25.1553 172.151 25.0396 172.513 24.8521 172.832C24.6646 173.151 24.3994 173.405 24.0566 173.592C23.7139 173.777 23.2861 173.869 22.7734 173.869C22.3984 173.869 22.0571 173.799 21.7495 173.658C21.4448 173.517 21.1826 173.318 20.9629 173.06C20.7432 172.8 20.5732 172.488 20.4531 172.124C20.3359 171.758 20.2773 171.351 20.2773 170.903V170.266C20.2773 169.817 20.3359 169.411 20.4531 169.048C20.5732 168.682 20.7446 168.369 20.9673 168.108C21.1929 167.847 21.4639 167.646 21.7803 167.506C22.0967 167.365 22.4526 167.295 22.8481 167.295C23.3315 167.295 23.7402 167.386 24.0742 167.567C24.4082 167.749 24.6675 168.001 24.8521 168.323C25.0396 168.642 25.1553 169.013 25.1992 169.435H24.3555C24.3145 169.136 24.2383 168.88 24.127 168.666C24.0156 168.449 23.8574 168.282 23.6523 168.165C23.4473 168.048 23.1792 167.989 22.8481 167.989C22.564 167.989 22.3135 168.043 22.0967 168.152C21.8828 168.26 21.7026 168.414 21.5562 168.613C21.4126 168.812 21.3042 169.051 21.231 169.329C21.1577 169.608 21.1211 169.917 21.1211 170.257V170.903C21.1211 171.216 21.1533 171.511 21.2178 171.786C21.2852 172.061 21.3862 172.303 21.521 172.511C21.6558 172.719 21.8271 172.883 22.0352 173.003C22.2432 173.12 22.4893 173.179 22.7734 173.179C23.1338 173.179 23.4209 173.122 23.6348 173.008C23.8486 172.893 24.0098 172.729 24.1182 172.516C24.2295 172.302 24.3086 172.045 24.3555 171.746ZM29.0356 172.968V170.52C29.0356 170.333 28.9976 170.17 28.9214 170.033C28.8481 169.892 28.7368 169.784 28.5874 169.707C28.438 169.631 28.2534 169.593 28.0337 169.593C27.8286 169.593 27.6484 169.628 27.4932 169.699C27.3408 169.769 27.2207 169.861 27.1328 169.975C27.0479 170.09 27.0054 170.213 27.0054 170.345H26.1924C26.1924 170.175 26.2363 170.006 26.3242 169.839C26.4121 169.672 26.5381 169.521 26.7021 169.387C26.8691 169.249 27.0684 169.141 27.2998 169.061C27.5342 168.979 27.7949 168.938 28.082 168.938C28.4277 168.938 28.7324 168.997 28.9961 169.114C29.2627 169.231 29.4707 169.409 29.6201 169.646C29.7725 169.88 29.8486 170.175 29.8486 170.529V172.744C29.8486 172.902 29.8618 173.071 29.8882 173.249C29.9175 173.428 29.96 173.582 30.0156 173.711V173.781H29.1675C29.1265 173.687 29.0942 173.563 29.0708 173.408C29.0474 173.249 29.0356 173.103 29.0356 172.968ZM29.1763 170.898L29.1851 171.47H28.3633C28.1318 171.47 27.9253 171.489 27.7437 171.527C27.562 171.562 27.4097 171.616 27.2866 171.689C27.1636 171.763 27.0698 171.855 27.0054 171.966C26.9409 172.075 26.9087 172.202 26.9087 172.349C26.9087 172.498 26.9424 172.634 27.0098 172.757C27.0771 172.88 27.1782 172.978 27.313 173.052C27.4507 173.122 27.6191 173.157 27.8184 173.157C28.0674 173.157 28.2871 173.104 28.4775 172.999C28.668 172.893 28.8188 172.765 28.9302 172.612C29.0444 172.46 29.106 172.312 29.1147 172.168L29.4619 172.559C29.4414 172.682 29.3857 172.819 29.2949 172.968C29.2041 173.118 29.0825 173.261 28.9302 173.399C28.7808 173.534 28.6021 173.646 28.394 173.737C28.189 173.825 27.9575 173.869 27.6997 173.869C27.3774 173.869 27.0947 173.806 26.8516 173.68C26.6113 173.554 26.4238 173.386 26.2891 173.175C26.1572 172.961 26.0913 172.722 26.0913 172.458C26.0913 172.203 26.1411 171.979 26.2407 171.786C26.3403 171.59 26.4839 171.427 26.6714 171.298C26.8589 171.166 27.0845 171.067 27.3481 170.999C27.6118 170.932 27.9062 170.898 28.2314 170.898H29.1763ZM31.9404 170.041V173.781H31.1274V169.026H31.8965L31.9404 170.041ZM31.7471 171.224L31.4087 171.21C31.4116 170.885 31.46 170.585 31.5537 170.309C31.6475 170.031 31.7793 169.789 31.9492 169.584C32.1191 169.379 32.3213 169.221 32.5557 169.11C32.793 168.995 33.0552 168.938 33.3423 168.938C33.5767 168.938 33.7876 168.971 33.9751 169.035C34.1626 169.097 34.3223 169.196 34.4541 169.334C34.5889 169.472 34.6914 169.65 34.7617 169.87C34.832 170.087 34.8672 170.352 34.8672 170.665V173.781H34.0498V170.657C34.0498 170.408 34.0132 170.208 33.9399 170.059C33.8667 169.907 33.7598 169.797 33.6191 169.729C33.4785 169.659 33.3057 169.624 33.1006 169.624C32.8984 169.624 32.7139 169.666 32.5469 169.751C32.3828 169.836 32.2407 169.953 32.1206 170.103C32.0034 170.252 31.9111 170.424 31.8438 170.617C31.7793 170.807 31.7471 171.01 31.7471 171.224ZM38.0049 173.201C38.1982 173.201 38.377 173.161 38.541 173.082C38.7051 173.003 38.8398 172.895 38.9453 172.757C39.0508 172.617 39.1108 172.457 39.1255 172.278H39.8989C39.8843 172.559 39.7891 172.822 39.6133 173.065C39.4404 173.305 39.2134 173.5 38.9321 173.649C38.6509 173.796 38.3418 173.869 38.0049 173.869C37.6475 173.869 37.3354 173.806 37.0688 173.68C36.8052 173.554 36.5854 173.381 36.4097 173.161C36.2368 172.942 36.1064 172.69 36.0186 172.406C35.9336 172.119 35.8911 171.815 35.8911 171.496V171.311C35.8911 170.992 35.9336 170.69 36.0186 170.406C36.1064 170.119 36.2368 169.866 36.4097 169.646C36.5854 169.426 36.8052 169.253 37.0688 169.127C37.3354 169.001 37.6475 168.938 38.0049 168.938C38.377 168.938 38.7021 169.015 38.9805 169.167C39.2588 169.316 39.4771 169.521 39.6353 169.782C39.7964 170.04 39.8843 170.333 39.8989 170.661H39.1255C39.1108 170.465 39.0552 170.287 38.9585 170.129C38.8647 169.971 38.7358 169.845 38.5718 169.751C38.4106 169.655 38.2217 169.606 38.0049 169.606C37.7559 169.606 37.5464 169.656 37.3765 169.756C37.2095 169.852 37.0762 169.984 36.9766 170.151C36.8799 170.315 36.8096 170.498 36.7656 170.701C36.7246 170.9 36.7041 171.103 36.7041 171.311V171.496C36.7041 171.704 36.7246 171.909 36.7656 172.111C36.8066 172.313 36.8755 172.496 36.9722 172.661C37.0718 172.825 37.2051 172.956 37.3721 173.056C37.542 173.153 37.7529 173.201 38.0049 173.201ZM42.7861 173.869C42.4551 173.869 42.1548 173.813 41.8853 173.702C41.6187 173.588 41.3887 173.428 41.1953 173.223C41.0049 173.018 40.8584 172.775 40.7559 172.494C40.6533 172.212 40.6021 171.905 40.6021 171.571V171.386C40.6021 170.999 40.6592 170.655 40.7734 170.353C40.8877 170.049 41.043 169.791 41.2393 169.58C41.4355 169.369 41.6582 169.209 41.9072 169.101C42.1562 168.993 42.4141 168.938 42.6807 168.938C43.0205 168.938 43.3135 168.997 43.5596 169.114C43.8086 169.231 44.0122 169.395 44.1704 169.606C44.3286 169.814 44.4458 170.06 44.522 170.345C44.5981 170.626 44.6362 170.933 44.6362 171.267V171.632H41.0854V170.969H43.8232V170.907C43.8115 170.696 43.7676 170.491 43.6914 170.292C43.6182 170.093 43.501 169.929 43.3398 169.8C43.1787 169.671 42.959 169.606 42.6807 169.606C42.4961 169.606 42.3262 169.646 42.1709 169.725C42.0156 169.801 41.8823 169.915 41.771 170.068C41.6597 170.22 41.5732 170.406 41.5117 170.626C41.4502 170.846 41.4194 171.099 41.4194 171.386V171.571C41.4194 171.796 41.4502 172.009 41.5117 172.208C41.5762 172.404 41.6685 172.577 41.7886 172.726C41.9116 172.876 42.0596 172.993 42.2324 173.078C42.4082 173.163 42.6074 173.205 42.8301 173.205C43.1172 173.205 43.3604 173.147 43.5596 173.03C43.7588 172.912 43.9331 172.756 44.0825 172.559L44.5747 172.951C44.4722 173.106 44.3418 173.254 44.1836 173.394C44.0254 173.535 43.8306 173.649 43.5991 173.737C43.3706 173.825 43.0996 173.869 42.7861 173.869ZM46.4688 167.031V173.781H45.6514V167.031H46.4688ZM48.6572 169.026V173.781H47.8398V169.026H48.6572ZM47.7783 167.765C47.7783 167.633 47.8179 167.522 47.897 167.431C47.979 167.34 48.0991 167.295 48.2573 167.295C48.4126 167.295 48.5312 167.34 48.6133 167.431C48.6982 167.522 48.7407 167.633 48.7407 167.765C48.7407 167.891 48.6982 167.999 48.6133 168.09C48.5312 168.178 48.4126 168.222 48.2573 168.222C48.0991 168.222 47.979 168.178 47.897 168.09C47.8179 167.999 47.7783 167.891 47.7783 167.765ZM50.7754 170.041V173.781H49.9624V169.026H50.7314L50.7754 170.041ZM50.582 171.224L50.2437 171.21C50.2466 170.885 50.2949 170.585 50.3887 170.309C50.4824 170.031 50.6143 169.789 50.7842 169.584C50.9541 169.379 51.1562 169.221 51.3906 169.11C51.6279 168.995 51.8901 168.938 52.1772 168.938C52.4116 168.938 52.6226 168.971 52.8101 169.035C52.9976 169.097 53.1572 169.196 53.2891 169.334C53.4238 169.472 53.5264 169.65 53.5967 169.87C53.667 170.087 53.7021 170.352 53.7021 170.665V173.781H52.8848V170.657C52.8848 170.408 52.8481 170.208 52.7749 170.059C52.7017 169.907 52.5947 169.797 52.4541 169.729C52.3135 169.659 52.1406 169.624 51.9355 169.624C51.7334 169.624 51.5488 169.666 51.3818 169.751C51.2178 169.836 51.0757 169.953 50.9556 170.103C50.8384 170.252 50.7461 170.424 50.6787 170.617C50.6143 170.807 50.582 171.01 50.582 171.224ZM58.0176 169.026H58.7559V173.68C58.7559 174.099 58.6709 174.456 58.501 174.752C58.3311 175.048 58.0938 175.272 57.7891 175.425C57.4873 175.58 57.1387 175.658 56.7432 175.658C56.5791 175.658 56.3857 175.631 56.1631 175.578C55.9434 175.529 55.7266 175.442 55.5127 175.319C55.3018 175.199 55.1245 175.036 54.981 174.831L55.4072 174.348C55.6064 174.588 55.8145 174.755 56.0312 174.849C56.251 174.943 56.4678 174.99 56.6816 174.99C56.9395 174.99 57.1621 174.941 57.3496 174.845C57.5371 174.748 57.6821 174.604 57.7847 174.414C57.8901 174.226 57.9429 173.995 57.9429 173.72V170.072L58.0176 169.026ZM54.7437 171.456V171.364C54.7437 171.001 54.7861 170.671 54.8711 170.375C54.959 170.077 55.0835 169.82 55.2446 169.606C55.4087 169.392 55.6064 169.228 55.8379 169.114C56.0693 168.997 56.3301 168.938 56.6201 168.938C56.9189 168.938 57.1797 168.991 57.4023 169.097C57.6279 169.199 57.8184 169.35 57.9736 169.549C58.1318 169.745 58.2563 169.983 58.3472 170.261C58.438 170.539 58.501 170.854 58.5361 171.206V171.61C58.5039 171.959 58.4409 172.272 58.3472 172.551C58.2563 172.829 58.1318 173.066 57.9736 173.263C57.8184 173.459 57.6279 173.61 57.4023 173.715C57.1768 173.818 56.9131 173.869 56.6113 173.869C56.3271 173.869 56.0693 173.809 55.8379 173.689C55.6094 173.569 55.4131 173.4 55.249 173.183C55.085 172.967 54.959 172.712 54.8711 172.419C54.7861 172.123 54.7437 171.802 54.7437 171.456ZM55.5566 171.364V171.456C55.5566 171.694 55.5801 171.916 55.627 172.124C55.6768 172.332 55.7515 172.516 55.8511 172.674C55.9536 172.832 56.084 172.956 56.2422 173.047C56.4004 173.135 56.5894 173.179 56.8091 173.179C57.0786 173.179 57.3013 173.122 57.4771 173.008C57.6528 172.893 57.792 172.743 57.8945 172.555C58 172.368 58.082 172.164 58.1406 171.944V170.885C58.1084 170.724 58.0586 170.569 57.9912 170.419C57.9268 170.267 57.8418 170.132 57.7363 170.015C57.6338 169.895 57.5063 169.8 57.354 169.729C57.2017 169.659 57.0229 169.624 56.8179 169.624C56.5952 169.624 56.4033 169.671 56.2422 169.765C56.084 169.855 55.9536 169.981 55.8511 170.142C55.7515 170.301 55.6768 170.485 55.627 170.696C55.5801 170.904 55.5566 171.127 55.5566 171.364ZM61.6826 170.727V171.395H59.5381V170.727H61.6826ZM68.2437 172.164C68.2437 172.015 68.2202 171.883 68.1733 171.768C68.1294 171.651 68.0503 171.546 67.936 171.452C67.8247 171.358 67.6694 171.269 67.4702 171.184C67.2739 171.099 67.0249 171.013 66.7231 170.925C66.4067 170.831 66.1211 170.727 65.8662 170.613C65.6113 170.495 65.3931 170.362 65.2114 170.213C65.0298 170.063 64.8906 169.892 64.7939 169.699C64.6973 169.505 64.6489 169.284 64.6489 169.035C64.6489 168.786 64.7002 168.556 64.8027 168.345C64.9053 168.134 65.0518 167.951 65.2422 167.796C65.4355 167.638 65.6655 167.515 65.9321 167.427C66.1987 167.339 66.4961 167.295 66.8242 167.295C67.3047 167.295 67.7119 167.387 68.0459 167.572C68.3828 167.753 68.6392 167.992 68.8149 168.288C68.9907 168.581 69.0786 168.894 69.0786 169.228H68.2349C68.2349 168.988 68.1836 168.776 68.0811 168.591C67.9785 168.404 67.8232 168.257 67.6152 168.152C67.4072 168.043 67.1436 167.989 66.8242 167.989C66.5225 167.989 66.2734 168.035 66.0771 168.125C65.8809 168.216 65.7344 168.339 65.6377 168.495C65.5439 168.65 65.4971 168.827 65.4971 169.026C65.4971 169.161 65.5249 169.284 65.5806 169.395C65.6392 169.504 65.7285 169.605 65.8486 169.699C65.9717 169.792 66.127 169.879 66.3145 169.958C66.5049 170.037 66.7319 170.113 66.9956 170.186C67.3589 170.289 67.6724 170.403 67.936 170.529C68.1997 170.655 68.4165 170.797 68.5864 170.955C68.7593 171.111 68.8867 171.288 68.9688 171.487C69.0537 171.683 69.0962 171.906 69.0962 172.155C69.0962 172.416 69.0435 172.652 68.938 172.863C68.8325 173.074 68.6816 173.254 68.4854 173.403C68.2891 173.553 68.0532 173.668 67.7778 173.75C67.5054 173.829 67.2007 173.869 66.8638 173.869C66.5679 173.869 66.2764 173.828 65.9893 173.746C65.7051 173.664 65.4458 173.541 65.2114 173.377C64.98 173.213 64.7939 173.011 64.6533 172.77C64.5156 172.527 64.4468 172.246 64.4468 171.927H65.2905C65.2905 172.146 65.333 172.335 65.418 172.494C65.5029 172.649 65.6187 172.778 65.7651 172.88C65.9146 172.983 66.083 173.059 66.2705 173.109C66.4609 173.156 66.6587 173.179 66.8638 173.179C67.1597 173.179 67.4102 173.138 67.6152 173.056C67.8203 172.974 67.9756 172.857 68.0811 172.704C68.1895 172.552 68.2437 172.372 68.2437 172.164ZM72.0273 173.869C71.6963 173.869 71.396 173.813 71.1265 173.702C70.8599 173.588 70.6299 173.428 70.4365 173.223C70.2461 173.018 70.0996 172.775 69.9971 172.494C69.8945 172.212 69.8433 171.905 69.8433 171.571V171.386C69.8433 170.999 69.9004 170.655 70.0146 170.353C70.1289 170.049 70.2842 169.791 70.4805 169.58C70.6768 169.369 70.8994 169.209 71.1484 169.101C71.3975 168.993 71.6553 168.938 71.9219 168.938C72.2617 168.938 72.5547 168.997 72.8008 169.114C73.0498 169.231 73.2534 169.395 73.4116 169.606C73.5698 169.814 73.687 170.06 73.7632 170.345C73.8394 170.626 73.8774 170.933 73.8774 171.267V171.632H70.3267V170.969H73.0645V170.907C73.0527 170.696 73.0088 170.491 72.9326 170.292C72.8594 170.093 72.7422 169.929 72.5811 169.8C72.4199 169.671 72.2002 169.606 71.9219 169.606C71.7373 169.606 71.5674 169.646 71.4121 169.725C71.2568 169.801 71.1235 169.915 71.0122 170.068C70.9009 170.22 70.8145 170.406 70.7529 170.626C70.6914 170.846 70.6606 171.099 70.6606 171.386V171.571C70.6606 171.796 70.6914 172.009 70.7529 172.208C70.8174 172.404 70.9097 172.577 71.0298 172.726C71.1528 172.876 71.3008 172.993 71.4736 173.078C71.6494 173.163 71.8486 173.205 72.0713 173.205C72.3584 173.205 72.6016 173.147 72.8008 173.03C73 172.912 73.1743 172.756 73.3237 172.559L73.8159 172.951C73.7134 173.106 73.583 173.254 73.4248 173.394C73.2666 173.535 73.0718 173.649 72.8403 173.737C72.6118 173.825 72.3408 173.869 72.0273 173.869ZM75.71 167.031V173.781H74.8926V167.031H75.71ZM77.8984 167.031V173.781H77.0811V167.031H77.8984ZM81.1768 173.869C80.8457 173.869 80.5454 173.813 80.2759 173.702C80.0093 173.588 79.7793 173.428 79.5859 173.223C79.3955 173.018 79.249 172.775 79.1465 172.494C79.0439 172.212 78.9927 171.905 78.9927 171.571V171.386C78.9927 170.999 79.0498 170.655 79.1641 170.353C79.2783 170.049 79.4336 169.791 79.6299 169.58C79.8262 169.369 80.0488 169.209 80.2979 169.101C80.5469 168.993 80.8047 168.938 81.0713 168.938C81.4111 168.938 81.7041 168.997 81.9502 169.114C82.1992 169.231 82.4028 169.395 82.561 169.606C82.7192 169.814 82.8364 170.06 82.9126 170.345C82.9888 170.626 83.0269 170.933 83.0269 171.267V171.632H79.4761V170.969H82.2139V170.907C82.2021 170.696 82.1582 170.491 82.082 170.292C82.0088 170.093 81.8916 169.929 81.7305 169.8C81.5693 169.671 81.3496 169.606 81.0713 169.606C80.8867 169.606 80.7168 169.646 80.5615 169.725C80.4062 169.801 80.2729 169.915 80.1616 170.068C80.0503 170.22 79.9639 170.406 79.9023 170.626C79.8408 170.846 79.8101 171.099 79.8101 171.386V171.571C79.8101 171.796 79.8408 172.009 79.9023 172.208C79.9668 172.404 80.0591 172.577 80.1792 172.726C80.3022 172.876 80.4502 172.993 80.623 173.078C80.7988 173.163 80.998 173.205 81.2207 173.205C81.5078 173.205 81.751 173.147 81.9502 173.03C82.1494 172.912 82.3237 172.756 82.4731 172.559L82.9653 172.951C82.8628 173.106 82.7324 173.254 82.5742 173.394C82.416 173.535 82.2212 173.649 81.9897 173.737C81.7612 173.825 81.4902 173.869 81.1768 173.869ZM84.7891 169.773V173.781H83.9761V169.026H84.7671L84.7891 169.773ZM86.2744 169L86.27 169.756C86.2026 169.741 86.1382 169.732 86.0767 169.729C86.0181 169.724 85.9507 169.721 85.8745 169.721C85.687 169.721 85.5215 169.75 85.3779 169.808C85.2344 169.867 85.1128 169.949 85.0132 170.055C84.9136 170.16 84.8345 170.286 84.7759 170.432C84.7202 170.576 84.6836 170.734 84.666 170.907L84.4375 171.039C84.4375 170.752 84.4653 170.482 84.521 170.23C84.5796 169.978 84.6689 169.756 84.7891 169.562C84.9092 169.366 85.0615 169.214 85.2461 169.105C85.4336 168.994 85.6562 168.938 85.9141 168.938C85.9727 168.938 86.04 168.946 86.1162 168.96C86.1924 168.972 86.2451 168.985 86.2744 169ZM89.3813 167.383H91.4995C91.98 167.383 92.3857 167.456 92.7168 167.602C93.0508 167.749 93.3042 167.966 93.4771 168.253C93.6528 168.537 93.7407 168.887 93.7407 169.303C93.7407 169.596 93.6807 169.864 93.5605 170.107C93.4434 170.348 93.2734 170.553 93.0508 170.723C92.8311 170.89 92.5674 171.014 92.2598 171.096L92.0225 171.188H90.0317L90.0229 170.498H91.5259C91.8306 170.498 92.084 170.446 92.2861 170.34C92.4883 170.232 92.6406 170.087 92.7432 169.905C92.8457 169.724 92.897 169.523 92.897 169.303C92.897 169.057 92.8486 168.842 92.752 168.657C92.6553 168.473 92.5029 168.33 92.2949 168.231C92.0898 168.128 91.8247 168.077 91.4995 168.077H90.2295V173.781H89.3813V167.383ZM93.1211 173.781L91.5654 170.881L92.4487 170.876L94.0264 173.728V173.781H93.1211ZM96.7773 173.869C96.4463 173.869 96.146 173.813 95.8765 173.702C95.6099 173.588 95.3799 173.428 95.1865 173.223C94.9961 173.018 94.8496 172.775 94.7471 172.494C94.6445 172.212 94.5933 171.905 94.5933 171.571V171.386C94.5933 170.999 94.6504 170.655 94.7646 170.353C94.8789 170.049 95.0342 169.791 95.2305 169.58C95.4268 169.369 95.6494 169.209 95.8984 169.101C96.1475 168.993 96.4053 168.938 96.6719 168.938C97.0117 168.938 97.3047 168.997 97.5508 169.114C97.7998 169.231 98.0034 169.395 98.1616 169.606C98.3198 169.814 98.437 170.06 98.5132 170.345C98.5894 170.626 98.6274 170.933 98.6274 171.267V171.632H95.0767V170.969H97.8145V170.907C97.8027 170.696 97.7588 170.491 97.6826 170.292C97.6094 170.093 97.4922 169.929 97.3311 169.8C97.1699 169.671 96.9502 169.606 96.6719 169.606C96.4873 169.606 96.3174 169.646 96.1621 169.725C96.0068 169.801 95.8735 169.915 95.7622 170.068C95.6509 170.22 95.5645 170.406 95.5029 170.626C95.4414 170.846 95.4106 171.099 95.4106 171.386V171.571C95.4106 171.796 95.4414 172.009 95.5029 172.208C95.5674 172.404 95.6597 172.577 95.7798 172.726C95.9028 172.876 96.0508 172.993 96.2236 173.078C96.3994 173.163 96.5986 173.205 96.8213 173.205C97.1084 173.205 97.3516 173.147 97.5508 173.03C97.75 172.912 97.9243 172.756 98.0737 172.559L98.5659 172.951C98.4634 173.106 98.333 173.254 98.1748 173.394C98.0166 173.535 97.8218 173.649 97.5903 173.737C97.3618 173.825 97.0908 173.869 96.7773 173.869ZM100.46 167.031V173.781H99.6426V167.031H100.46ZM104.569 172.968V170.52C104.569 170.333 104.531 170.17 104.455 170.033C104.381 169.892 104.27 169.784 104.121 169.707C103.971 169.631 103.787 169.593 103.567 169.593C103.362 169.593 103.182 169.628 103.026 169.699C102.874 169.769 102.754 169.861 102.666 169.975C102.581 170.09 102.539 170.213 102.539 170.345H101.726C101.726 170.175 101.77 170.006 101.857 169.839C101.945 169.672 102.071 169.521 102.235 169.387C102.402 169.249 102.602 169.141 102.833 169.061C103.067 168.979 103.328 168.938 103.615 168.938C103.961 168.938 104.266 168.997 104.529 169.114C104.796 169.231 105.004 169.409 105.153 169.646C105.306 169.88 105.382 170.175 105.382 170.529V172.744C105.382 172.902 105.395 173.071 105.421 173.249C105.451 173.428 105.493 173.582 105.549 173.711V173.781H104.701C104.66 173.687 104.627 173.563 104.604 173.408C104.581 173.249 104.569 173.103 104.569 172.968ZM104.709 170.898L104.718 171.47H103.896C103.665 171.47 103.458 171.489 103.277 171.527C103.095 171.562 102.943 171.616 102.82 171.689C102.697 171.763 102.603 171.855 102.539 171.966C102.474 172.075 102.442 172.202 102.442 172.349C102.442 172.498 102.476 172.634 102.543 172.757C102.61 172.88 102.711 172.978 102.846 173.052C102.984 173.122 103.152 173.157 103.352 173.157C103.601 173.157 103.82 173.104 104.011 172.999C104.201 172.893 104.352 172.765 104.463 172.612C104.578 172.46 104.639 172.312 104.648 172.168L104.995 172.559C104.975 172.682 104.919 172.819 104.828 172.968C104.737 173.118 104.616 173.261 104.463 173.399C104.314 173.534 104.135 173.646 103.927 173.737C103.722 173.825 103.491 173.869 103.233 173.869C102.911 173.869 102.628 173.806 102.385 173.68C102.145 173.554 101.957 173.386 101.822 173.175C101.69 172.961 101.625 172.722 101.625 172.458C101.625 172.203 101.674 171.979 101.774 171.786C101.874 171.59 102.017 171.427 102.205 171.298C102.392 171.166 102.618 171.067 102.881 170.999C103.145 170.932 103.439 170.898 103.765 170.898H104.709ZM108.651 169.026V169.65H106.081V169.026H108.651ZM106.951 167.87H107.764V172.603C107.764 172.765 107.789 172.886 107.838 172.968C107.888 173.05 107.953 173.104 108.032 173.131C108.111 173.157 108.196 173.17 108.287 173.17C108.354 173.17 108.424 173.164 108.498 173.153C108.574 173.138 108.631 173.126 108.669 173.118L108.673 173.781C108.609 173.802 108.524 173.821 108.418 173.838C108.316 173.859 108.191 173.869 108.045 173.869C107.846 173.869 107.663 173.829 107.496 173.75C107.329 173.671 107.195 173.539 107.096 173.355C106.999 173.167 106.951 172.915 106.951 172.599V167.87ZM111.578 173.869C111.247 173.869 110.947 173.813 110.677 173.702C110.411 173.588 110.181 173.428 109.987 173.223C109.797 173.018 109.65 172.775 109.548 172.494C109.445 172.212 109.394 171.905 109.394 171.571V171.386C109.394 170.999 109.451 170.655 109.565 170.353C109.68 170.049 109.835 169.791 110.031 169.58C110.228 169.369 110.45 169.209 110.699 169.101C110.948 168.993 111.206 168.938 111.473 168.938C111.812 168.938 112.105 168.997 112.352 169.114C112.601 169.231 112.804 169.395 112.962 169.606C113.121 169.814 113.238 170.06 113.314 170.345C113.39 170.626 113.428 170.933 113.428 171.267V171.632H109.877V170.969H112.615V170.907C112.604 170.696 112.56 170.491 112.483 170.292C112.41 170.093 112.293 169.929 112.132 169.8C111.971 169.671 111.751 169.606 111.473 169.606C111.288 169.606 111.118 169.646 110.963 169.725C110.808 169.801 110.674 169.915 110.563 170.068C110.452 170.22 110.365 170.406 110.304 170.626C110.242 170.846 110.211 171.099 110.211 171.386V171.571C110.211 171.796 110.242 172.009 110.304 172.208C110.368 172.404 110.46 172.577 110.581 172.726C110.704 172.876 110.852 172.993 111.024 173.078C111.2 173.163 111.399 173.205 111.622 173.205C111.909 173.205 112.152 173.147 112.352 173.03C112.551 172.912 112.725 172.756 112.875 172.559L113.367 172.951C113.264 173.106 113.134 173.254 112.976 173.394C112.817 173.535 112.623 173.649 112.391 173.737C112.163 173.825 111.892 173.869 111.578 173.869ZM117.375 172.858V167.031H118.192V173.781H117.445L117.375 172.858ZM114.175 171.456V171.364C114.175 171.001 114.219 170.671 114.307 170.375C114.398 170.077 114.525 169.82 114.689 169.606C114.856 169.392 115.054 169.228 115.283 169.114C115.514 168.997 115.772 168.938 116.056 168.938C116.355 168.938 116.616 168.991 116.838 169.097C117.064 169.199 117.254 169.35 117.41 169.549C117.568 169.745 117.692 169.983 117.783 170.261C117.874 170.539 117.937 170.854 117.972 171.206V171.61C117.94 171.959 117.877 172.272 117.783 172.551C117.692 172.829 117.568 173.066 117.41 173.263C117.254 173.459 117.064 173.61 116.838 173.715C116.613 173.818 116.349 173.869 116.047 173.869C115.769 173.869 115.514 173.809 115.283 173.689C115.054 173.569 114.856 173.4 114.689 173.183C114.525 172.967 114.398 172.712 114.307 172.419C114.219 172.123 114.175 171.802 114.175 171.456ZM114.993 171.364V171.456C114.993 171.694 115.016 171.916 115.063 172.124C115.113 172.332 115.189 172.516 115.292 172.674C115.394 172.832 115.524 172.956 115.683 173.047C115.841 173.135 116.03 173.179 116.25 173.179C116.519 173.179 116.74 173.122 116.913 173.008C117.089 172.893 117.229 172.743 117.335 172.555C117.44 172.368 117.522 172.164 117.581 171.944V170.885C117.546 170.724 117.495 170.569 117.427 170.419C117.363 170.267 117.278 170.132 117.172 170.015C117.07 169.895 116.942 169.8 116.79 169.729C116.641 169.659 116.463 169.624 116.258 169.624C116.036 169.624 115.844 169.671 115.683 169.765C115.524 169.855 115.394 169.981 115.292 170.142C115.189 170.301 115.113 170.485 115.063 170.696C115.016 170.904 114.993 171.127 114.993 171.364Z" fill="#4B465C"/>
<path d="M143.866 166.599H144.071V167.722H143.988C143.617 167.722 143.287 167.777 142.997 167.888C142.707 167.998 142.462 168.156 142.26 168.361C142.061 168.563 141.908 168.807 141.801 169.094C141.697 169.38 141.645 169.701 141.645 170.056V171.237C141.645 171.491 141.669 171.716 141.718 171.911C141.77 172.103 141.843 172.264 141.938 172.394C142.035 172.521 142.149 172.617 142.279 172.682C142.41 172.744 142.556 172.775 142.719 172.775C142.872 172.775 143.01 172.743 143.134 172.678C143.261 172.613 143.368 172.521 143.456 172.404C143.547 172.284 143.616 172.144 143.661 171.984C143.71 171.821 143.734 171.644 143.734 171.452C143.734 171.26 143.71 171.083 143.661 170.92C143.616 170.757 143.547 170.617 143.456 170.5C143.365 170.379 143.254 170.287 143.124 170.222C142.994 170.156 142.847 170.124 142.685 170.124C142.463 170.124 142.268 170.176 142.099 170.28C141.933 170.381 141.802 170.511 141.708 170.671C141.614 170.83 141.563 170.998 141.557 171.174L141.132 170.9C141.142 170.65 141.194 170.412 141.288 170.187C141.386 169.963 141.519 169.764 141.688 169.592C141.861 169.416 142.068 169.279 142.309 169.182C142.549 169.081 142.821 169.03 143.124 169.03C143.456 169.03 143.747 169.094 143.998 169.221C144.252 169.348 144.464 169.522 144.633 169.743C144.802 169.964 144.929 170.22 145.014 170.51C145.098 170.799 145.141 171.109 145.141 171.437C145.141 171.782 145.084 172.103 144.97 172.399C144.859 172.696 144.698 172.954 144.486 173.176C144.278 173.397 144.027 173.57 143.734 173.693C143.441 173.817 143.113 173.879 142.748 173.879C142.37 173.879 142.027 173.81 141.718 173.674C141.412 173.534 141.148 173.338 140.927 173.088C140.705 172.837 140.535 172.539 140.414 172.194C140.297 171.849 140.238 171.472 140.238 171.061V170.515C140.238 169.942 140.321 169.418 140.487 168.942C140.657 168.464 140.899 168.05 141.215 167.702C141.531 167.35 141.911 167.079 142.357 166.887C142.803 166.695 143.306 166.599 143.866 166.599ZM145.961 168.415V168.039C145.961 167.769 146.02 167.523 146.137 167.302C146.254 167.08 146.426 166.903 146.654 166.769C146.882 166.636 147.162 166.569 147.494 166.569C147.836 166.569 148.121 166.636 148.349 166.769C148.58 166.903 148.752 167.08 148.866 167.302C148.983 167.523 149.042 167.769 149.042 168.039V168.415C149.042 168.679 148.983 168.921 148.866 169.142C148.752 169.364 148.581 169.541 148.354 169.675C148.126 169.808 147.844 169.875 147.509 169.875C147.17 169.875 146.885 169.808 146.654 169.675C146.426 169.541 146.254 169.364 146.137 169.142C146.02 168.921 145.961 168.679 145.961 168.415ZM146.894 168.039V168.415C146.894 168.529 146.915 168.638 146.957 168.742C147.003 168.843 147.071 168.926 147.162 168.991C147.257 169.053 147.37 169.084 147.504 169.084C147.644 169.084 147.758 169.053 147.846 168.991C147.934 168.926 147.999 168.843 148.041 168.742C148.083 168.638 148.104 168.529 148.104 168.415V168.039C148.104 167.918 148.082 167.808 148.036 167.707C147.994 167.603 147.927 167.52 147.836 167.458C147.748 167.393 147.634 167.36 147.494 167.36C147.364 167.36 147.253 167.393 147.162 167.458C147.071 167.52 147.003 167.603 146.957 167.707C146.915 167.808 146.894 167.918 146.894 168.039ZM149.359 172.414V172.038C149.359 171.771 149.418 171.527 149.535 171.306C149.656 171.084 149.83 170.907 150.058 170.773C150.289 170.64 150.572 170.573 150.907 170.573C151.246 170.573 151.529 170.64 151.757 170.773C151.985 170.907 152.157 171.084 152.274 171.306C152.392 171.527 152.45 171.771 152.45 172.038V172.414C152.45 172.681 152.392 172.925 152.274 173.146C152.16 173.368 151.99 173.545 151.762 173.679C151.534 173.812 151.252 173.879 150.917 173.879C150.578 173.879 150.294 173.812 150.062 173.679C149.831 173.545 149.656 173.368 149.535 173.146C149.418 172.925 149.359 172.681 149.359 172.414ZM150.297 172.038V172.414C150.297 172.531 150.323 172.642 150.375 172.746C150.427 172.85 150.499 172.933 150.59 172.995C150.684 173.057 150.793 173.088 150.917 173.088C151.073 173.088 151.195 173.057 151.283 172.995C151.371 172.933 151.431 172.85 151.464 172.746C151.5 172.642 151.518 172.531 151.518 172.414V172.038C151.518 171.921 151.495 171.812 151.449 171.711C151.404 171.607 151.335 171.524 151.244 171.462C151.156 171.397 151.044 171.364 150.907 171.364C150.771 171.364 150.657 171.397 150.565 171.462C150.478 171.524 150.411 171.607 150.365 171.711C150.32 171.812 150.297 171.921 150.297 172.038ZM151.254 167.687L147.782 173.244L147.099 172.883L150.57 167.326L151.254 167.687Z" fill="#4B465C"/>
<path d="M22.6284 186.445L24.1357 181.383H25.6035L23.3755 187.781H22.4087L22.6284 186.445ZM21.2397 181.383L22.7427 186.445L22.9712 187.781H21.9956L19.7808 181.383H21.2397ZM28.1172 187.869C27.748 187.869 27.417 187.81 27.124 187.693C26.8311 187.573 26.582 187.408 26.377 187.197C26.1748 186.986 26.0195 186.741 25.9111 186.463C25.8027 186.182 25.7485 185.883 25.7485 185.566V185.391C25.7485 185.03 25.7998 184.701 25.9023 184.402C26.0049 184.103 26.1514 183.844 26.3418 183.624C26.5352 183.404 26.7695 183.236 27.0449 183.119C27.3203 182.998 27.6309 182.938 27.9766 182.938C28.3135 182.938 28.6123 182.994 28.873 183.105C29.1338 183.217 29.3521 183.375 29.5278 183.58C29.7065 183.785 29.8413 184.031 29.9321 184.318C30.0229 184.602 30.0684 184.919 30.0684 185.267V185.795H26.2891V184.951H28.8247V184.854C28.8247 184.679 28.7925 184.522 28.728 184.384C28.6665 184.244 28.5728 184.132 28.4468 184.05C28.3208 183.968 28.1597 183.927 27.9634 183.927C27.7964 183.927 27.6528 183.964 27.5327 184.037C27.4126 184.11 27.3145 184.213 27.2383 184.345C27.165 184.476 27.1094 184.632 27.0713 184.81C27.0361 184.986 27.0186 185.18 27.0186 185.391V185.566C27.0186 185.757 27.0449 185.932 27.0977 186.094C27.1533 186.255 27.231 186.394 27.3306 186.511C27.4331 186.628 27.5562 186.719 27.6997 186.784C27.8462 186.848 28.0117 186.88 28.1963 186.88C28.4248 186.88 28.6372 186.836 28.8335 186.748C29.0327 186.658 29.2041 186.521 29.3477 186.34L29.9629 187.008C29.8633 187.151 29.7271 187.289 29.5542 187.421C29.3843 187.553 29.1792 187.661 28.939 187.746C28.6987 187.828 28.4248 187.869 28.1172 187.869ZM32.0547 184.063V187.781H30.7891V183.026H31.98L32.0547 184.063ZM33.4873 182.995L33.4653 184.169C33.4038 184.16 33.3291 184.153 33.2412 184.147C33.1562 184.138 33.0786 184.134 33.0083 184.134C32.8296 184.134 32.6743 184.157 32.5425 184.204C32.4136 184.248 32.3052 184.314 32.2173 184.402C32.1323 184.49 32.0679 184.597 32.0239 184.723C31.9829 184.849 31.9595 184.992 31.9536 185.153L31.6987 185.074C31.6987 184.766 31.7295 184.484 31.791 184.226C31.8525 183.965 31.9419 183.738 32.0591 183.545C32.1792 183.351 32.3257 183.202 32.4985 183.097C32.6714 182.991 32.8691 182.938 33.0918 182.938C33.1621 182.938 33.2339 182.944 33.3071 182.956C33.3804 182.965 33.4404 182.978 33.4873 182.995ZM35.5747 187.245L36.8359 183.026H38.1938L36.2822 188.497C36.2412 188.618 36.1855 188.746 36.1152 188.884C36.0479 189.022 35.9556 189.152 35.8384 189.275C35.7241 189.401 35.5791 189.504 35.4033 189.583C35.2305 189.662 35.0181 189.702 34.7661 189.702C34.646 189.702 34.5479 189.694 34.4717 189.68C34.3955 189.665 34.3047 189.644 34.1992 189.618V188.691C34.2314 188.691 34.2651 188.691 34.3003 188.691C34.3354 188.694 34.3691 188.695 34.4014 188.695C34.5684 188.695 34.7046 188.676 34.8101 188.638C34.9155 188.6 35.0005 188.541 35.0649 188.462C35.1294 188.386 35.1807 188.286 35.2188 188.163L35.5747 187.245ZM35.0474 183.026L36.0801 186.472L36.2603 187.812L35.3989 187.904L33.6895 183.026H35.0474ZM43.5112 185.5H41.8809V184.472H43.5112C43.7632 184.472 43.9683 184.431 44.1265 184.349C44.2847 184.264 44.4004 184.147 44.4736 183.997C44.5469 183.848 44.5835 183.68 44.5835 183.492C44.5835 183.302 44.5469 183.124 44.4736 182.96C44.4004 182.796 44.2847 182.664 44.1265 182.565C43.9683 182.465 43.7632 182.415 43.5112 182.415H42.3379V187.781H41.0195V181.383H43.5112C44.0122 181.383 44.4414 181.474 44.7988 181.655C45.1592 181.834 45.4346 182.081 45.625 182.398C45.8154 182.714 45.9106 183.076 45.9106 183.483C45.9106 183.896 45.8154 184.254 45.625 184.556C45.4346 184.857 45.1592 185.09 44.7988 185.254C44.4414 185.418 44.0122 185.5 43.5112 185.5ZM46.4775 185.452V185.36C46.4775 185.011 46.5273 184.69 46.627 184.397C46.7266 184.101 46.8716 183.845 47.062 183.628C47.2524 183.411 47.4868 183.243 47.7651 183.123C48.0435 183 48.3628 182.938 48.7231 182.938C49.0835 182.938 49.4043 183 49.6855 183.123C49.9668 183.243 50.2026 183.411 50.3931 183.628C50.5864 183.845 50.7329 184.101 50.8325 184.397C50.9321 184.69 50.9819 185.011 50.9819 185.36V185.452C50.9819 185.798 50.9321 186.119 50.8325 186.414C50.7329 186.707 50.5864 186.964 50.3931 187.183C50.2026 187.4 49.9683 187.569 49.6899 187.689C49.4116 187.809 49.0923 187.869 48.7319 187.869C48.3716 187.869 48.0508 187.809 47.7695 187.689C47.4912 187.569 47.2554 187.4 47.062 187.183C46.8716 186.964 46.7266 186.707 46.627 186.414C46.5273 186.119 46.4775 185.798 46.4775 185.452ZM47.7432 185.36V185.452C47.7432 185.651 47.7607 185.837 47.7959 186.01C47.8311 186.183 47.8867 186.335 47.9629 186.467C48.042 186.596 48.1445 186.697 48.2705 186.77C48.3965 186.844 48.5503 186.88 48.7319 186.88C48.9077 186.88 49.0586 186.844 49.1846 186.77C49.3105 186.697 49.4116 186.596 49.4878 186.467C49.564 186.335 49.6196 186.183 49.6548 186.01C49.6929 185.837 49.7119 185.651 49.7119 185.452V185.36C49.7119 185.166 49.6929 184.985 49.6548 184.815C49.6196 184.642 49.5625 184.49 49.4834 184.358C49.4072 184.223 49.3062 184.118 49.1802 184.041C49.0542 183.965 48.9019 183.927 48.7231 183.927C48.5444 183.927 48.3921 183.965 48.2661 184.041C48.1431 184.118 48.042 184.223 47.9629 184.358C47.8867 184.49 47.8311 184.642 47.7959 184.815C47.7607 184.985 47.7432 185.166 47.7432 185.36ZM51.5576 185.452V185.36C51.5576 185.011 51.6074 184.69 51.707 184.397C51.8066 184.101 51.9517 183.845 52.1421 183.628C52.3325 183.411 52.5669 183.243 52.8452 183.123C53.1235 183 53.4429 182.938 53.8032 182.938C54.1636 182.938 54.4844 183 54.7656 183.123C55.0469 183.243 55.2827 183.411 55.4731 183.628C55.6665 183.845 55.813 184.101 55.9126 184.397C56.0122 184.69 56.062 185.011 56.062 185.36V185.452C56.062 185.798 56.0122 186.119 55.9126 186.414C55.813 186.707 55.6665 186.964 55.4731 187.183C55.2827 187.4 55.0483 187.569 54.77 187.689C54.4917 187.809 54.1724 187.869 53.812 187.869C53.4517 187.869 53.1309 187.809 52.8496 187.689C52.5713 187.569 52.3354 187.4 52.1421 187.183C51.9517 186.964 51.8066 186.707 51.707 186.414C51.6074 186.119 51.5576 185.798 51.5576 185.452ZM52.8232 185.36V185.452C52.8232 185.651 52.8408 185.837 52.876 186.01C52.9111 186.183 52.9668 186.335 53.043 186.467C53.1221 186.596 53.2246 186.697 53.3506 186.77C53.4766 186.844 53.6304 186.88 53.812 186.88C53.9878 186.88 54.1387 186.844 54.2646 186.77C54.3906 186.697 54.4917 186.596 54.5679 186.467C54.644 186.335 54.6997 186.183 54.7349 186.01C54.7729 185.837 54.792 185.651 54.792 185.452V185.36C54.792 185.166 54.7729 184.985 54.7349 184.815C54.6997 184.642 54.6426 184.49 54.5635 184.358C54.4873 184.223 54.3862 184.118 54.2603 184.041C54.1343 183.965 53.9819 183.927 53.8032 183.927C53.6245 183.927 53.4722 183.965 53.3462 184.041C53.2231 184.118 53.1221 184.223 53.043 184.358C52.9668 184.49 52.9111 184.642 52.876 184.815C52.8408 184.985 52.8232 185.166 52.8232 185.36ZM58.1055 184.063V187.781H56.8398V183.026H58.0308L58.1055 184.063ZM59.5381 182.995L59.5161 184.169C59.4546 184.16 59.3799 184.153 59.292 184.147C59.207 184.138 59.1294 184.134 59.0591 184.134C58.8804 184.134 58.7251 184.157 58.5933 184.204C58.4644 184.248 58.356 184.314 58.2681 184.402C58.1831 184.49 58.1187 184.597 58.0747 184.723C58.0337 184.849 58.0103 184.992 58.0044 185.153L57.7495 185.074C57.7495 184.766 57.7803 184.484 57.8418 184.226C57.9033 183.965 57.9927 183.738 58.1099 183.545C58.23 183.351 58.3765 183.202 58.5493 183.097C58.7222 182.991 58.9199 182.938 59.1426 182.938C59.2129 182.938 59.2847 182.944 59.3579 182.956C59.4312 182.965 59.4912 182.978 59.5381 182.995Z" fill="#EA5455"/>
<path d="M24.6719 198.134V198.824H21.209V198.134H24.6719ZM21.3408 195.383V201.781H20.4927V195.383H21.3408ZM25.4102 195.383V201.781H24.5664V195.383H25.4102ZM29.5981 200.968V198.52C29.5981 198.333 29.5601 198.17 29.4839 198.033C29.4106 197.892 29.2993 197.784 29.1499 197.707C29.0005 197.631 28.8159 197.593 28.5962 197.593C28.3911 197.593 28.2109 197.628 28.0557 197.699C27.9033 197.769 27.7832 197.861 27.6953 197.975C27.6104 198.09 27.5679 198.213 27.5679 198.345H26.7549C26.7549 198.175 26.7988 198.006 26.8867 197.839C26.9746 197.672 27.1006 197.521 27.2646 197.387C27.4316 197.249 27.6309 197.141 27.8623 197.061C28.0967 196.979 28.3574 196.938 28.6445 196.938C28.9902 196.938 29.2949 196.997 29.5586 197.114C29.8252 197.231 30.0332 197.409 30.1826 197.646C30.335 197.88 30.4111 198.175 30.4111 198.529V200.744C30.4111 200.902 30.4243 201.071 30.4507 201.249C30.48 201.428 30.5225 201.582 30.5781 201.711V201.781H29.73C29.689 201.687 29.6567 201.563 29.6333 201.408C29.6099 201.249 29.5981 201.103 29.5981 200.968ZM29.7388 198.898L29.7476 199.47H28.9258C28.6943 199.47 28.4878 199.489 28.3062 199.527C28.1245 199.562 27.9722 199.616 27.8491 199.689C27.7261 199.763 27.6323 199.855 27.5679 199.966C27.5034 200.075 27.4712 200.202 27.4712 200.349C27.4712 200.498 27.5049 200.634 27.5723 200.757C27.6396 200.88 27.7407 200.978 27.8755 201.052C28.0132 201.122 28.1816 201.157 28.3809 201.157C28.6299 201.157 28.8496 201.104 29.04 200.999C29.2305 200.893 29.3813 200.765 29.4927 200.612C29.6069 200.46 29.6685 200.312 29.6772 200.168L30.0244 200.559C30.0039 200.682 29.9482 200.819 29.8574 200.968C29.7666 201.118 29.645 201.261 29.4927 201.399C29.3433 201.534 29.1646 201.646 28.9565 201.737C28.7515 201.825 28.52 201.869 28.2622 201.869C27.9399 201.869 27.6572 201.806 27.4141 201.68C27.1738 201.554 26.9863 201.386 26.8516 201.175C26.7197 200.961 26.6538 200.722 26.6538 200.458C26.6538 200.203 26.7036 199.979 26.8032 199.786C26.9028 199.59 27.0464 199.427 27.2339 199.298C27.4214 199.166 27.647 199.067 27.9106 198.999C28.1743 198.932 28.4688 198.898 28.7939 198.898H29.7388ZM32.5029 198.041V201.781H31.6899V197.026H32.459L32.5029 198.041ZM32.3096 199.224L31.9712 199.21C31.9741 198.885 32.0225 198.585 32.1162 198.309C32.21 198.031 32.3418 197.789 32.5117 197.584C32.6816 197.379 32.8838 197.221 33.1182 197.11C33.3555 196.995 33.6177 196.938 33.9048 196.938C34.1392 196.938 34.3501 196.971 34.5376 197.035C34.7251 197.097 34.8848 197.196 35.0166 197.334C35.1514 197.472 35.2539 197.65 35.3242 197.87C35.3945 198.087 35.4297 198.352 35.4297 198.665V201.781H34.6123V198.657C34.6123 198.408 34.5757 198.208 34.5024 198.059C34.4292 197.907 34.3223 197.797 34.1816 197.729C34.041 197.659 33.8682 197.624 33.6631 197.624C33.4609 197.624 33.2764 197.666 33.1094 197.751C32.9453 197.836 32.8032 197.953 32.6831 198.103C32.5659 198.252 32.4736 198.424 32.4062 198.617C32.3418 198.807 32.3096 199.01 32.3096 199.224ZM39.6616 200.858V195.031H40.479V201.781H39.7319L39.6616 200.858ZM36.4624 199.456V199.364C36.4624 199.001 36.5063 198.671 36.5942 198.375C36.6851 198.077 36.8125 197.82 36.9766 197.606C37.1436 197.392 37.3413 197.228 37.5698 197.114C37.8013 196.997 38.0591 196.938 38.3433 196.938C38.6421 196.938 38.9028 196.991 39.1255 197.097C39.3511 197.199 39.5415 197.35 39.6968 197.549C39.855 197.745 39.9795 197.983 40.0703 198.261C40.1611 198.539 40.2241 198.854 40.2593 199.206V199.61C40.2271 199.959 40.1641 200.272 40.0703 200.551C39.9795 200.829 39.855 201.066 39.6968 201.263C39.5415 201.459 39.3511 201.61 39.1255 201.715C38.8999 201.818 38.6362 201.869 38.3345 201.869C38.0562 201.869 37.8013 201.809 37.5698 201.689C37.3413 201.569 37.1436 201.4 36.9766 201.183C36.8125 200.967 36.6851 200.712 36.5942 200.419C36.5063 200.123 36.4624 199.802 36.4624 199.456ZM37.2798 199.364V199.456C37.2798 199.694 37.3032 199.916 37.3501 200.124C37.3999 200.332 37.4761 200.516 37.5786 200.674C37.6812 200.832 37.8115 200.956 37.9697 201.047C38.1279 201.135 38.3169 201.179 38.5366 201.179C38.8062 201.179 39.0273 201.122 39.2002 201.008C39.376 200.893 39.5166 200.743 39.6221 200.555C39.7275 200.368 39.8096 200.164 39.8682 199.944V198.885C39.833 198.724 39.7817 198.569 39.7144 198.419C39.6499 198.267 39.5649 198.132 39.4595 198.015C39.3569 197.895 39.2295 197.8 39.0771 197.729C38.9277 197.659 38.7505 197.624 38.5454 197.624C38.3228 197.624 38.1309 197.671 37.9697 197.765C37.8115 197.855 37.6812 197.981 37.5786 198.142C37.4761 198.301 37.3999 198.485 37.3501 198.696C37.3032 198.904 37.2798 199.127 37.2798 199.364ZM42.6279 195.031V201.781H41.8105V195.031H42.6279ZM44.8164 197.026V201.781H43.999V197.026H44.8164ZM43.9375 195.765C43.9375 195.633 43.9771 195.522 44.0562 195.431C44.1382 195.34 44.2583 195.295 44.4165 195.295C44.5718 195.295 44.6904 195.34 44.7725 195.431C44.8574 195.522 44.8999 195.633 44.8999 195.765C44.8999 195.891 44.8574 195.999 44.7725 196.09C44.6904 196.178 44.5718 196.222 44.4165 196.222C44.2583 196.222 44.1382 196.178 44.0562 196.09C43.9771 195.999 43.9375 195.891 43.9375 195.765ZM46.9346 198.041V201.781H46.1216V197.026H46.8906L46.9346 198.041ZM46.7412 199.224L46.4028 199.21C46.4058 198.885 46.4541 198.585 46.5479 198.309C46.6416 198.031 46.7734 197.789 46.9434 197.584C47.1133 197.379 47.3154 197.221 47.5498 197.11C47.7871 196.995 48.0493 196.938 48.3364 196.938C48.5708 196.938 48.7817 196.971 48.9692 197.035C49.1567 197.097 49.3164 197.196 49.4482 197.334C49.583 197.472 49.6855 197.65 49.7559 197.87C49.8262 198.087 49.8613 198.352 49.8613 198.665V201.781H49.0439V198.657C49.0439 198.408 49.0073 198.208 48.9341 198.059C48.8608 197.907 48.7539 197.797 48.6133 197.729C48.4727 197.659 48.2998 197.624 48.0947 197.624C47.8926 197.624 47.708 197.666 47.541 197.751C47.377 197.836 47.2349 197.953 47.1147 198.103C46.9976 198.252 46.9053 198.424 46.8379 198.617C46.7734 198.807 46.7412 199.01 46.7412 199.224ZM54.1768 197.026H54.915V201.68C54.915 202.099 54.8301 202.456 54.6602 202.752C54.4902 203.048 54.2529 203.272 53.9482 203.425C53.6465 203.58 53.2979 203.658 52.9023 203.658C52.7383 203.658 52.5449 203.631 52.3223 203.578C52.1025 203.529 51.8857 203.442 51.6719 203.319C51.4609 203.199 51.2837 203.036 51.1401 202.831L51.5664 202.348C51.7656 202.588 51.9736 202.755 52.1904 202.849C52.4102 202.943 52.627 202.99 52.8408 202.99C53.0986 202.99 53.3213 202.941 53.5088 202.845C53.6963 202.748 53.8413 202.604 53.9438 202.414C54.0493 202.226 54.1021 201.995 54.1021 201.72V198.072L54.1768 197.026ZM50.9028 199.456V199.364C50.9028 199.001 50.9453 198.671 51.0303 198.375C51.1182 198.077 51.2427 197.82 51.4038 197.606C51.5679 197.392 51.7656 197.228 51.9971 197.114C52.2285 196.997 52.4893 196.938 52.7793 196.938C53.0781 196.938 53.3389 196.991 53.5615 197.097C53.7871 197.199 53.9775 197.35 54.1328 197.549C54.291 197.745 54.4155 197.983 54.5063 198.261C54.5972 198.539 54.6602 198.854 54.6953 199.206V199.61C54.6631 199.959 54.6001 200.272 54.5063 200.551C54.4155 200.829 54.291 201.066 54.1328 201.263C53.9775 201.459 53.7871 201.61 53.5615 201.715C53.3359 201.818 53.0723 201.869 52.7705 201.869C52.4863 201.869 52.2285 201.809 51.9971 201.689C51.7686 201.569 51.5723 201.4 51.4082 201.183C51.2441 200.967 51.1182 200.712 51.0303 200.419C50.9453 200.123 50.9028 199.802 50.9028 199.456ZM51.7158 199.364V199.456C51.7158 199.694 51.7393 199.916 51.7861 200.124C51.8359 200.332 51.9106 200.516 52.0103 200.674C52.1128 200.832 52.2432 200.956 52.4014 201.047C52.5596 201.135 52.7485 201.179 52.9683 201.179C53.2378 201.179 53.4604 201.122 53.6362 201.008C53.812 200.893 53.9512 200.743 54.0537 200.555C54.1592 200.368 54.2412 200.164 54.2998 199.944V198.885C54.2676 198.724 54.2178 198.569 54.1504 198.419C54.0859 198.267 54.001 198.132 53.8955 198.015C53.793 197.895 53.6655 197.8 53.5132 197.729C53.3608 197.659 53.1821 197.624 52.9771 197.624C52.7544 197.624 52.5625 197.671 52.4014 197.765C52.2432 197.855 52.1128 197.981 52.0103 198.142C51.9106 198.301 51.8359 198.485 51.7861 198.696C51.7393 198.904 51.7158 199.127 51.7158 199.364ZM60.6938 195.383V201.781H59.8589V195.383H60.6938ZM62.7505 195.383V196.077H57.8066V195.383H62.7505ZM64.46 197.026V201.781H63.6426V197.026H64.46ZM63.5811 195.765C63.5811 195.633 63.6206 195.522 63.6997 195.431C63.7817 195.34 63.9019 195.295 64.0601 195.295C64.2153 195.295 64.334 195.34 64.416 195.431C64.501 195.522 64.5435 195.633 64.5435 195.765C64.5435 195.891 64.501 195.999 64.416 196.09C64.334 196.178 64.2153 196.222 64.0601 196.222C63.9019 196.222 63.7817 196.178 63.6997 196.09C63.6206 195.999 63.5811 195.891 63.5811 195.765ZM66.5737 197.971V201.781H65.7563V197.026H66.5298L66.5737 197.971ZM66.4067 199.224L66.0288 199.21C66.0317 198.885 66.0742 198.585 66.1562 198.309C66.2383 198.031 66.3599 197.789 66.521 197.584C66.6821 197.379 66.8828 197.221 67.123 197.11C67.3633 196.995 67.6416 196.938 67.958 196.938C68.1807 196.938 68.3857 196.971 68.5732 197.035C68.7607 197.097 68.9233 197.195 69.061 197.329C69.1987 197.464 69.3057 197.637 69.3818 197.848C69.458 198.059 69.4961 198.314 69.4961 198.613V201.781H68.6831V198.652C68.6831 198.403 68.6406 198.204 68.5557 198.055C68.4736 197.905 68.3564 197.797 68.2041 197.729C68.0518 197.659 67.873 197.624 67.668 197.624C67.4277 197.624 67.2271 197.666 67.0659 197.751C66.9048 197.836 66.7759 197.953 66.6792 198.103C66.5825 198.252 66.5122 198.424 66.4683 198.617C66.4272 198.807 66.4067 199.01 66.4067 199.224ZM69.4873 198.775L68.9424 198.942C68.9453 198.682 68.9878 198.431 69.0698 198.191C69.1548 197.951 69.2764 197.737 69.4346 197.549C69.5957 197.362 69.7935 197.214 70.0278 197.105C70.2622 196.994 70.5303 196.938 70.832 196.938C71.0869 196.938 71.3125 196.972 71.5088 197.039C71.708 197.107 71.875 197.211 72.0098 197.351C72.1475 197.489 72.2515 197.666 72.3218 197.883C72.3921 198.1 72.4272 198.358 72.4272 198.657V201.781H71.6099V198.648C71.6099 198.381 71.5674 198.175 71.4824 198.028C71.4004 197.879 71.2832 197.775 71.1309 197.716C70.9814 197.655 70.8027 197.624 70.5947 197.624C70.416 197.624 70.2578 197.655 70.1201 197.716C69.9824 197.778 69.8667 197.863 69.7729 197.971C69.6792 198.077 69.6074 198.198 69.5576 198.336C69.5107 198.474 69.4873 198.62 69.4873 198.775ZM75.6309 201.869C75.2998 201.869 74.9995 201.813 74.73 201.702C74.4634 201.588 74.2334 201.428 74.04 201.223C73.8496 201.018 73.7031 200.775 73.6006 200.494C73.498 200.212 73.4468 199.905 73.4468 199.571V199.386C73.4468 198.999 73.5039 198.655 73.6182 198.353C73.7324 198.049 73.8877 197.791 74.084 197.58C74.2803 197.369 74.5029 197.209 74.752 197.101C75.001 196.993 75.2588 196.938 75.5254 196.938C75.8652 196.938 76.1582 196.997 76.4043 197.114C76.6533 197.231 76.8569 197.395 77.0151 197.606C77.1733 197.814 77.2905 198.06 77.3667 198.345C77.4429 198.626 77.481 198.933 77.481 199.267V199.632H73.9302V198.969H76.668V198.907C76.6562 198.696 76.6123 198.491 76.5361 198.292C76.4629 198.093 76.3457 197.929 76.1846 197.8C76.0234 197.671 75.8037 197.606 75.5254 197.606C75.3408 197.606 75.1709 197.646 75.0156 197.725C74.8604 197.801 74.7271 197.915 74.6157 198.068C74.5044 198.22 74.418 198.406 74.3564 198.626C74.2949 198.846 74.2642 199.099 74.2642 199.386V199.571C74.2642 199.796 74.2949 200.009 74.3564 200.208C74.4209 200.404 74.5132 200.577 74.6333 200.726C74.7563 200.876 74.9043 200.993 75.0771 201.078C75.2529 201.163 75.4521 201.205 75.6748 201.205C75.9619 201.205 76.2051 201.147 76.4043 201.03C76.6035 200.912 76.7778 200.756 76.9272 200.559L77.4194 200.951C77.3169 201.106 77.1865 201.254 77.0283 201.394C76.8701 201.535 76.6753 201.649 76.4438 201.737C76.2153 201.825 75.9443 201.869 75.6309 201.869ZM82.4688 199.848L83.7388 195.383H84.354L83.998 197.119L82.6313 201.781H82.0205L82.4688 199.848ZM81.1548 195.383L82.1655 199.76L82.4688 201.781H81.8623L80.311 195.383H81.1548ZM85.9976 199.755L86.9863 195.383H87.8345L86.2876 201.781H85.6812L85.9976 199.755ZM84.4463 195.383L85.6812 199.848L86.1294 201.781H85.5186L84.2002 197.119L83.8398 195.383H84.4463ZM89.5352 197.026V201.781H88.7178V197.026H89.5352ZM88.6562 195.765C88.6562 195.633 88.6958 195.522 88.7749 195.431C88.8569 195.34 88.9771 195.295 89.1353 195.295C89.2905 195.295 89.4092 195.34 89.4912 195.431C89.5762 195.522 89.6187 195.633 89.6187 195.765C89.6187 195.891 89.5762 195.999 89.4912 196.09C89.4092 196.178 89.2905 196.222 89.1353 196.222C88.9771 196.222 88.8569 196.178 88.7749 196.09C88.6958 195.999 88.6562 195.891 88.6562 195.765ZM92.8311 197.026V197.65H90.2603V197.026H92.8311ZM91.1304 195.87H91.9434V200.603C91.9434 200.765 91.9683 200.886 92.0181 200.968C92.0679 201.05 92.1323 201.104 92.2114 201.131C92.2905 201.157 92.3755 201.17 92.4663 201.17C92.5337 201.17 92.604 201.164 92.6772 201.153C92.7534 201.138 92.8105 201.126 92.8486 201.118L92.853 201.781C92.7886 201.802 92.7036 201.821 92.5981 201.838C92.4956 201.859 92.3711 201.869 92.2246 201.869C92.0254 201.869 91.8423 201.829 91.6753 201.75C91.5083 201.671 91.375 201.539 91.2754 201.355C91.1787 201.167 91.1304 200.915 91.1304 200.599V195.87ZM94.5977 195.031V201.781H93.7847V195.031H94.5977ZM94.4043 199.224L94.0659 199.21C94.0688 198.885 94.1172 198.585 94.2109 198.309C94.3047 198.031 94.4365 197.789 94.6064 197.584C94.7764 197.379 94.9785 197.221 95.2129 197.11C95.4502 196.995 95.7124 196.938 95.9995 196.938C96.2339 196.938 96.4448 196.971 96.6323 197.035C96.8198 197.097 96.9795 197.196 97.1113 197.334C97.2461 197.472 97.3486 197.65 97.4189 197.87C97.4893 198.087 97.5244 198.352 97.5244 198.665V201.781H96.707V198.657C96.707 198.408 96.6704 198.208 96.5972 198.059C96.5239 197.907 96.417 197.797 96.2764 197.729C96.1357 197.659 95.9629 197.624 95.7578 197.624C95.5557 197.624 95.3711 197.666 95.2041 197.751C95.04 197.836 94.8979 197.953 94.7778 198.103C94.6606 198.252 94.5684 198.424 94.501 198.617C94.4365 198.807 94.4043 199.01 94.4043 199.224ZM104.507 200.164C104.507 200.015 104.484 199.883 104.437 199.768C104.393 199.651 104.314 199.546 104.2 199.452C104.088 199.358 103.933 199.269 103.734 199.184C103.538 199.099 103.289 199.013 102.987 198.925C102.67 198.831 102.385 198.727 102.13 198.613C101.875 198.495 101.657 198.362 101.475 198.213C101.293 198.063 101.154 197.892 101.058 197.699C100.961 197.505 100.913 197.284 100.913 197.035C100.913 196.786 100.964 196.556 101.066 196.345C101.169 196.134 101.315 195.951 101.506 195.796C101.699 195.638 101.929 195.515 102.196 195.427C102.462 195.339 102.76 195.295 103.088 195.295C103.568 195.295 103.976 195.387 104.31 195.572C104.646 195.753 104.903 195.992 105.079 196.288C105.254 196.581 105.342 196.894 105.342 197.228H104.499C104.499 196.988 104.447 196.776 104.345 196.591C104.242 196.404 104.087 196.257 103.879 196.152C103.671 196.043 103.407 195.989 103.088 195.989C102.786 195.989 102.537 196.035 102.341 196.125C102.145 196.216 101.998 196.339 101.901 196.495C101.808 196.65 101.761 196.827 101.761 197.026C101.761 197.161 101.789 197.284 101.844 197.395C101.903 197.504 101.992 197.605 102.112 197.699C102.235 197.792 102.391 197.879 102.578 197.958C102.769 198.037 102.996 198.113 103.259 198.186C103.623 198.289 103.936 198.403 104.2 198.529C104.463 198.655 104.68 198.797 104.85 198.955C105.023 199.111 105.15 199.288 105.232 199.487C105.317 199.683 105.36 199.906 105.36 200.155C105.36 200.416 105.307 200.652 105.202 200.863C105.096 201.074 104.945 201.254 104.749 201.403C104.553 201.553 104.317 201.668 104.042 201.75C103.769 201.829 103.464 201.869 103.127 201.869C102.832 201.869 102.54 201.828 102.253 201.746C101.969 201.664 101.709 201.541 101.475 201.377C101.244 201.213 101.058 201.011 100.917 200.77C100.779 200.527 100.71 200.246 100.71 199.927H101.554C101.554 200.146 101.597 200.335 101.682 200.494C101.767 200.649 101.882 200.778 102.029 200.88C102.178 200.983 102.347 201.059 102.534 201.109C102.725 201.156 102.922 201.179 103.127 201.179C103.423 201.179 103.674 201.138 103.879 201.056C104.084 200.974 104.239 200.857 104.345 200.704C104.453 200.552 104.507 200.372 104.507 200.164ZM110.321 201.091V201.781H107.122V201.091H110.321ZM107.289 195.383V201.781H106.441V195.383H107.289ZM113.749 195.95L111.631 201.781H110.765L113.204 195.383H113.762L113.749 195.95ZM115.524 201.781L113.402 195.95L113.389 195.383H113.947L116.395 201.781H115.524ZM115.415 199.412V200.107H111.82V199.412H115.415Z" fill="#4B465C"/>
<path d="M140.028 199.833C140.028 200.279 139.924 200.655 139.716 200.961C139.507 201.264 139.221 201.493 138.856 201.649C138.495 201.802 138.085 201.879 137.626 201.879C137.167 201.879 136.755 201.802 136.391 201.649C136.026 201.493 135.738 201.264 135.526 200.961C135.315 200.655 135.209 200.279 135.209 199.833C135.209 199.533 135.269 199.263 135.39 199.022C135.51 198.778 135.678 198.57 135.893 198.397C136.111 198.222 136.366 198.088 136.659 197.997C136.952 197.903 137.271 197.855 137.616 197.855C138.078 197.855 138.492 197.937 138.856 198.099C139.221 198.262 139.507 198.492 139.716 198.788C139.924 199.084 140.028 199.432 140.028 199.833ZM138.612 199.74C138.612 199.522 138.57 199.335 138.485 199.179C138.404 199.019 138.288 198.897 138.139 198.812C137.989 198.728 137.815 198.685 137.616 198.685C137.418 198.685 137.243 198.728 137.094 198.812C136.944 198.897 136.827 199.019 136.742 199.179C136.661 199.335 136.62 199.522 136.62 199.74C136.62 199.955 136.661 200.141 136.742 200.297C136.827 200.453 136.944 200.573 137.094 200.658C137.247 200.739 137.424 200.78 137.626 200.78C137.828 200.78 138.002 200.739 138.148 200.658C138.298 200.573 138.412 200.453 138.49 200.297C138.572 200.141 138.612 199.955 138.612 199.74ZM139.877 196.557C139.877 196.918 139.781 197.238 139.589 197.518C139.397 197.795 139.13 198.012 138.788 198.168C138.45 198.324 138.062 198.402 137.626 198.402C137.187 198.402 136.796 198.324 136.454 198.168C136.112 198.012 135.845 197.795 135.653 197.518C135.461 197.238 135.365 196.918 135.365 196.557C135.365 196.127 135.461 195.766 135.653 195.473C135.849 195.176 136.116 194.952 136.454 194.799C136.796 194.646 137.183 194.569 137.616 194.569C138.056 194.569 138.445 194.646 138.783 194.799C139.125 194.952 139.392 195.176 139.584 195.473C139.779 195.766 139.877 196.127 139.877 196.557ZM138.471 196.62C138.471 196.428 138.437 196.262 138.368 196.122C138.3 195.979 138.202 195.868 138.075 195.79C137.951 195.712 137.799 195.673 137.616 195.673C137.44 195.673 137.289 195.71 137.162 195.785C137.038 195.86 136.942 195.969 136.874 196.112C136.809 196.252 136.776 196.421 136.776 196.62C136.776 196.812 136.809 196.981 136.874 197.128C136.942 197.271 137.04 197.383 137.167 197.465C137.294 197.546 137.447 197.587 137.626 197.587C137.805 197.587 137.956 197.546 138.08 197.465C138.207 197.383 138.303 197.271 138.368 197.128C138.437 196.981 138.471 196.812 138.471 196.62ZM145.771 199.833C145.771 200.279 145.666 200.655 145.458 200.961C145.25 201.264 144.963 201.493 144.599 201.649C144.237 201.802 143.827 201.879 143.368 201.879C142.909 201.879 142.497 201.802 142.133 201.649C141.768 201.493 141.48 201.264 141.269 200.961C141.057 200.655 140.951 200.279 140.951 199.833C140.951 199.533 141.011 199.263 141.132 199.022C141.252 198.778 141.42 198.57 141.635 198.397C141.853 198.222 142.108 198.088 142.401 197.997C142.694 197.903 143.013 197.855 143.358 197.855C143.821 197.855 144.234 197.937 144.599 198.099C144.963 198.262 145.25 198.492 145.458 198.788C145.666 199.084 145.771 199.432 145.771 199.833ZM144.354 199.74C144.354 199.522 144.312 199.335 144.228 199.179C144.146 199.019 144.031 198.897 143.881 198.812C143.731 198.728 143.557 198.685 143.358 198.685C143.16 198.685 142.986 198.728 142.836 198.812C142.686 198.897 142.569 199.019 142.484 199.179C142.403 199.335 142.362 199.522 142.362 199.74C142.362 199.955 142.403 200.141 142.484 200.297C142.569 200.453 142.686 200.573 142.836 200.658C142.989 200.739 143.166 200.78 143.368 200.78C143.57 200.78 143.744 200.739 143.891 200.658C144.04 200.573 144.154 200.453 144.232 200.297C144.314 200.141 144.354 199.955 144.354 199.74ZM145.619 196.557C145.619 196.918 145.523 197.238 145.331 197.518C145.139 197.795 144.872 198.012 144.53 198.168C144.192 198.324 143.804 198.402 143.368 198.402C142.929 198.402 142.538 198.324 142.196 198.168C141.854 198.012 141.588 197.795 141.396 197.518C141.203 197.238 141.107 196.918 141.107 196.557C141.107 196.127 141.203 195.766 141.396 195.473C141.591 195.176 141.858 194.952 142.196 194.799C142.538 194.646 142.925 194.569 143.358 194.569C143.798 194.569 144.187 194.646 144.525 194.799C144.867 194.952 145.134 195.176 145.326 195.473C145.521 195.766 145.619 196.127 145.619 196.557ZM144.213 196.62C144.213 196.428 144.179 196.262 144.11 196.122C144.042 195.979 143.944 195.868 143.817 195.79C143.694 195.712 143.541 195.673 143.358 195.673C143.183 195.673 143.031 195.71 142.904 195.785C142.781 195.86 142.685 195.969 142.616 196.112C142.551 196.252 142.519 196.421 142.519 196.62C142.519 196.812 142.551 196.981 142.616 197.128C142.685 197.271 142.782 197.383 142.909 197.465C143.036 197.546 143.189 197.587 143.368 197.587C143.547 197.587 143.699 197.546 143.822 197.465C143.949 197.383 144.045 197.271 144.11 197.128C144.179 196.981 144.213 196.812 144.213 196.62ZM146.703 196.415V196.039C146.703 195.769 146.762 195.523 146.879 195.302C146.996 195.08 147.169 194.903 147.396 194.769C147.624 194.636 147.904 194.569 148.236 194.569C148.578 194.569 148.863 194.636 149.091 194.769C149.322 194.903 149.494 195.08 149.608 195.302C149.726 195.523 149.784 195.769 149.784 196.039V196.415C149.784 196.679 149.726 196.921 149.608 197.142C149.494 197.364 149.324 197.541 149.096 197.675C148.868 197.808 148.586 197.875 148.251 197.875C147.912 197.875 147.628 197.808 147.396 197.675C147.169 197.541 146.996 197.364 146.879 197.142C146.762 196.921 146.703 196.679 146.703 196.415ZM147.636 196.039V196.415C147.636 196.529 147.657 196.638 147.699 196.742C147.745 196.843 147.813 196.926 147.904 196.991C147.999 197.053 148.113 197.084 148.246 197.084C148.386 197.084 148.5 197.053 148.588 196.991C148.676 196.926 148.741 196.843 148.783 196.742C148.826 196.638 148.847 196.529 148.847 196.415V196.039C148.847 195.918 148.824 195.808 148.778 195.707C148.736 195.603 148.669 195.52 148.578 195.458C148.49 195.393 148.376 195.36 148.236 195.36C148.106 195.36 147.995 195.393 147.904 195.458C147.813 195.52 147.745 195.603 147.699 195.707C147.657 195.808 147.636 195.918 147.636 196.039ZM150.102 200.414V200.038C150.102 199.771 150.16 199.527 150.277 199.306C150.398 199.084 150.572 198.907 150.8 198.773C151.031 198.64 151.314 198.573 151.649 198.573C151.988 198.573 152.271 198.64 152.499 198.773C152.727 198.907 152.899 199.084 153.017 199.306C153.134 199.527 153.192 199.771 153.192 200.038V200.414C153.192 200.681 153.134 200.925 153.017 201.146C152.903 201.368 152.732 201.545 152.504 201.679C152.276 201.812 151.994 201.879 151.659 201.879C151.321 201.879 151.036 201.812 150.805 201.679C150.574 201.545 150.398 201.368 150.277 201.146C150.16 200.925 150.102 200.681 150.102 200.414ZM151.039 200.038V200.414C151.039 200.531 151.065 200.642 151.117 200.746C151.169 200.85 151.241 200.933 151.332 200.995C151.426 201.057 151.535 201.088 151.659 201.088C151.815 201.088 151.938 201.057 152.025 200.995C152.113 200.933 152.174 200.85 152.206 200.746C152.242 200.642 152.26 200.531 152.26 200.414V200.038C152.26 199.921 152.237 199.812 152.191 199.711C152.146 199.607 152.077 199.524 151.986 199.462C151.898 199.397 151.786 199.364 151.649 199.364C151.513 199.364 151.399 199.397 151.308 199.462C151.22 199.524 151.153 199.607 151.107 199.711C151.062 199.812 151.039 199.921 151.039 200.038ZM151.996 195.687L148.524 201.244L147.841 200.883L151.312 195.326L151.996 195.687Z" fill="#4B465C"/>
<path d="M22.6913 214.416L24.2315 209.243H25.7314L23.4547 215.781H22.4668L22.6913 214.416ZM21.2723 209.243L22.808 214.416L23.0416 215.781H22.0447L19.7814 209.243H21.2723ZM28.2999 215.871C27.9227 215.871 27.5845 215.811 27.2851 215.691C26.9857 215.569 26.7313 215.399 26.5217 215.184C26.3151 214.968 26.1565 214.718 26.0457 214.434C25.9349 214.147 25.8796 213.841 25.8796 213.518V213.338C25.8796 212.97 25.9319 212.633 26.0367 212.328C26.1415 212.023 26.2912 211.758 26.4858 211.533C26.6834 211.309 26.9229 211.136 27.2043 211.017C27.4857 210.894 27.803 210.833 28.1563 210.833C28.5005 210.833 28.8059 210.889 29.0723 211.003C29.3388 211.117 29.5618 211.279 29.7414 211.488C29.924 211.698 30.0617 211.949 30.1545 212.243C30.2473 212.533 30.2937 212.856 30.2937 213.213V213.751H26.4319V212.889H29.0229V212.79C29.0229 212.611 28.99 212.451 28.9241 212.31C28.8613 212.166 28.7655 212.053 28.6367 211.969C28.508 211.885 28.3434 211.843 28.1428 211.843C27.9721 211.843 27.8254 211.88 27.7027 211.955C27.58 212.03 27.4797 212.135 27.4018 212.27C27.327 212.404 27.2701 212.563 27.2312 212.746C27.1953 212.925 27.1773 213.123 27.1773 213.338V213.518C27.1773 213.712 27.2043 213.892 27.2581 214.057C27.315 214.221 27.3944 214.364 27.4961 214.483C27.6009 214.603 27.7267 214.696 27.8733 214.762C28.023 214.828 28.1922 214.861 28.3808 214.861C28.6143 214.861 28.8313 214.816 29.0319 214.726C29.2355 214.633 29.4106 214.494 29.5573 214.308L30.186 214.991C30.0842 215.137 29.945 215.278 29.7683 215.413C29.5947 215.548 29.3852 215.658 29.1397 215.745C28.8942 215.829 28.6143 215.871 28.2999 215.871ZM32.3235 211.982V215.781H31.0302V210.922H32.2471L32.3235 211.982ZM33.7874 210.891L33.7649 212.09C33.702 212.081 33.6257 212.073 33.5359 212.067C33.4491 212.058 33.3697 212.054 33.2979 212.054C33.1153 212.054 32.9566 212.078 32.8219 212.126C32.6902 212.171 32.5794 212.238 32.4896 212.328C32.4028 212.418 32.3369 212.527 32.292 212.656C32.2501 212.784 32.2262 212.931 32.2202 213.096L31.9597 213.015C31.9597 212.701 31.9912 212.412 32.054 212.148C32.1169 211.882 32.2082 211.65 32.3279 211.452C32.4507 211.255 32.6004 211.102 32.777 210.994C32.9536 210.886 33.1557 210.833 33.3832 210.833C33.4551 210.833 33.5284 210.839 33.6032 210.851C33.6781 210.86 33.7395 210.873 33.7874 210.891ZM35.9204 215.233L37.2091 210.922H38.5967L36.6433 216.513C36.6014 216.636 36.5445 216.768 36.4727 216.908C36.4038 217.049 36.3095 217.182 36.1898 217.308C36.073 217.437 35.9248 217.541 35.7452 217.622C35.5686 217.703 35.3516 217.743 35.0941 217.743C34.9714 217.743 34.8711 217.736 34.7932 217.721C34.7154 217.706 34.6226 217.685 34.5148 217.658V216.711C34.5478 216.711 34.5822 216.711 34.6181 216.711C34.654 216.714 34.6885 216.715 34.7214 216.715C34.892 216.715 35.0312 216.696 35.139 216.657C35.2468 216.618 35.3336 216.558 35.3995 216.477C35.4653 216.399 35.5177 216.298 35.5566 216.172L35.9204 215.233ZM35.3815 210.922L36.4368 214.443L36.6209 215.813L35.7407 215.907L33.9939 210.922H35.3815ZM44.0302 213.451H42.3643V212.4H44.0302C44.2877 212.4 44.4972 212.358 44.6589 212.274C44.8206 212.187 44.9388 212.067 45.0137 211.915C45.0885 211.762 45.1259 211.59 45.1259 211.398C45.1259 211.204 45.0885 211.023 45.0137 210.855C44.9388 210.687 44.8206 210.553 44.6589 210.451C44.4972 210.349 44.2877 210.298 44.0302 210.298H42.8313V215.781H41.4841V209.243H44.0302C44.5422 209.243 44.9807 209.336 45.346 209.521C45.7142 209.704 45.9956 209.957 46.1902 210.28C46.3848 210.604 46.4821 210.973 46.4821 211.389C46.4821 211.812 46.3848 212.177 46.1902 212.485C45.9956 212.793 45.7142 213.031 45.346 213.199C44.9807 213.367 44.5422 213.451 44.0302 213.451ZM47.0613 213.401V213.307C47.0613 212.951 47.1122 212.623 47.214 212.323C47.3158 212.021 47.464 211.759 47.6586 211.538C47.8532 211.316 48.0927 211.144 48.3771 211.021C48.6615 210.895 48.9878 210.833 49.356 210.833C49.7242 210.833 50.052 210.895 50.3394 211.021C50.6268 211.144 50.8678 211.316 51.0624 211.538C51.26 211.759 51.4097 212.021 51.5114 212.323C51.6132 212.623 51.6641 212.951 51.6641 213.307V213.401C51.6641 213.754 51.6132 214.082 51.5114 214.385C51.4097 214.684 51.26 214.946 51.0624 215.17C50.8678 215.392 50.6283 215.564 50.3439 215.687C50.0595 215.81 49.7332 215.871 49.365 215.871C48.9967 215.871 48.6689 215.81 48.3815 215.687C48.0971 215.564 47.8562 215.392 47.6586 215.17C47.464 214.946 47.3158 214.684 47.214 214.385C47.1122 214.082 47.0613 213.754 47.0613 213.401ZM48.3546 213.307V213.401C48.3546 213.605 48.3726 213.795 48.4085 213.971C48.4444 214.148 48.5013 214.304 48.5791 214.438C48.66 214.57 48.7647 214.673 48.8935 214.748C49.0222 214.823 49.1794 214.861 49.365 214.861C49.5446 214.861 49.6988 214.823 49.8275 214.748C49.9562 214.673 50.0595 214.57 50.1373 214.438C50.2152 214.304 50.2721 214.148 50.308 213.971C50.3469 213.795 50.3664 213.605 50.3664 213.401V213.307C50.3664 213.109 50.3469 212.924 50.308 212.75C50.2721 212.573 50.2137 212.418 50.1328 212.283C50.055 212.145 49.9517 212.038 49.823 211.96C49.6943 211.882 49.5386 211.843 49.356 211.843C49.1734 211.843 49.0177 211.882 48.889 211.96C48.7632 212.038 48.66 212.145 48.5791 212.283C48.5013 212.418 48.4444 212.573 48.4085 212.75C48.3726 212.924 48.3546 213.109 48.3546 213.307ZM52.2524 213.401V213.307C52.2524 212.951 52.3033 212.623 52.405 212.323C52.5068 212.021 52.655 211.759 52.8496 211.538C53.0442 211.316 53.2837 211.144 53.5681 211.021C53.8525 210.895 54.1788 210.833 54.547 210.833C54.9152 210.833 55.2431 210.895 55.5305 211.021C55.8178 211.144 56.0588 211.316 56.2534 211.538C56.451 211.759 56.6007 212.021 56.7025 212.323C56.8043 212.623 56.8552 212.951 56.8552 213.307V213.401C56.8552 213.754 56.8043 214.082 56.7025 214.385C56.6007 214.684 56.451 214.946 56.2534 215.17C56.0588 215.392 55.8193 215.564 55.5349 215.687C55.2505 215.81 54.9242 215.871 54.556 215.871C54.1878 215.871 53.86 215.81 53.5726 215.687C53.2882 215.564 53.0472 215.392 52.8496 215.17C52.655 214.946 52.5068 214.684 52.405 214.385C52.3033 214.082 52.2524 213.754 52.2524 213.401ZM53.5456 213.307V213.401C53.5456 213.605 53.5636 213.795 53.5995 213.971C53.6355 214.148 53.6923 214.304 53.7702 214.438C53.851 214.57 53.9558 214.673 54.0845 214.748C54.2132 214.823 54.3704 214.861 54.556 214.861C54.7356 214.861 54.8898 214.823 55.0185 214.748C55.1473 214.673 55.2505 214.57 55.3284 214.438C55.4062 214.304 55.4631 214.148 55.499 213.971C55.5379 213.795 55.5574 213.605 55.5574 213.401V213.307C55.5574 213.109 55.5379 212.924 55.499 212.75C55.4631 212.573 55.4047 212.418 55.3239 212.283C55.2461 212.145 55.1428 212.038 55.014 211.96C54.8853 211.882 54.7296 211.843 54.547 211.843C54.3644 211.843 54.2087 211.882 54.08 211.96C53.9543 212.038 53.851 212.145 53.7702 212.283C53.6923 212.418 53.6355 212.573 53.5995 212.75C53.5636 212.924 53.5456 213.109 53.5456 213.307ZM58.9432 211.982V215.781H57.65V210.922H58.8669L58.9432 211.982ZM60.4072 210.891L60.3847 212.09C60.3218 212.081 60.2455 212.073 60.1557 212.067C60.0689 212.058 59.9895 212.054 59.9177 212.054C59.7351 212.054 59.5764 212.078 59.4417 212.126C59.31 212.171 59.1992 212.238 59.1094 212.328C59.0226 212.418 58.9567 212.527 58.9118 212.656C58.8699 212.784 58.846 212.931 58.84 213.096L58.5795 213.015C58.5795 212.701 58.6109 212.412 58.6738 212.148C58.7367 211.882 58.828 211.65 58.9477 211.452C59.0705 211.255 59.2202 211.102 59.3968 210.994C59.5734 210.886 59.7755 210.833 60.003 210.833C60.0749 210.833 60.1482 210.839 60.223 210.851C60.2979 210.86 60.3593 210.873 60.4072 210.891Z" fill="#EA5455"/>
</svg>
