<svg width="170" height="248" viewBox="0 0 170 248" fill="none" xmlns="http://www.w3.org/2000/svg">
<rect x="0.125" width="169.75" height="248" rx="8" fill="white"/>
<path d="M13.896 19.3986L15.4268 22.879L16.9683 19.3986H18.8589L16.3184 24.3937V27.2189H14.5405V24.3937L11.9946 19.3986H13.896ZM18.8267 24.3722V24.2594C18.8267 23.8333 18.8875 23.4412 19.0093 23.0831C19.131 22.7215 19.3101 22.4082 19.5464 22.1432C19.7827 21.8782 20.0728 21.6723 20.4165 21.5255C20.7603 21.3751 21.1541 21.2999 21.5981 21.2999C22.0493 21.2999 22.4468 21.3751 22.7905 21.5255C23.1379 21.6723 23.4297 21.8782 23.666 22.1432C23.9023 22.4082 24.0814 22.7215 24.2031 23.0831C24.3249 23.4412 24.3857 23.8333 24.3857 24.2594V24.3722C24.3857 24.7947 24.3249 25.1868 24.2031 25.5485C24.0814 25.9066 23.9023 26.2199 23.666 26.4884C23.4297 26.7534 23.1396 26.9593 22.7959 27.1061C22.4521 27.2529 22.0565 27.3263 21.6089 27.3263C21.1649 27.3263 20.7692 27.2529 20.4219 27.1061C20.0745 26.9593 19.7827 26.7534 19.5464 26.4884C19.3101 26.2199 19.131 25.9066 19.0093 25.5485C18.8875 25.1868 18.8267 24.7947 18.8267 24.3722ZM20.5078 24.2594V24.3722C20.5078 24.6014 20.5257 24.8162 20.5615 25.0167C20.6009 25.2173 20.6636 25.3927 20.7495 25.5431C20.8354 25.6935 20.9482 25.8117 21.0879 25.8976C21.2311 25.98 21.4048 26.0211 21.6089 26.0211C21.813 26.0211 21.9849 25.98 22.1245 25.8976C22.2642 25.8117 22.377 25.6935 22.4629 25.5431C22.5488 25.3927 22.6097 25.2173 22.6455 25.0167C22.6849 24.8162 22.7046 24.6014 22.7046 24.3722V24.2594C22.7046 24.0338 22.6849 23.8226 22.6455 23.6256C22.6097 23.4251 22.5488 23.2479 22.4629 23.0939C22.377 22.9399 22.2624 22.82 22.1191 22.734C21.9795 22.6481 21.8058 22.6051 21.5981 22.6051C21.3976 22.6051 21.2275 22.6481 21.0879 22.734C20.9482 22.82 20.8354 22.9399 20.7495 23.0939C20.6636 23.2479 20.6009 23.4251 20.5615 23.6256C20.5257 23.8226 20.5078 24.0338 20.5078 24.2594ZM28.6772 25.817V21.4074H30.3638V27.2189H28.7847L28.6772 25.817ZM28.8545 24.63L29.3164 24.6193C29.3164 25.0096 29.2699 25.3694 29.1768 25.6989C29.0872 26.0283 28.9512 26.3148 28.7686 26.5582C28.5895 26.8017 28.3657 26.9915 28.0972 27.1276C27.8322 27.2601 27.5225 27.3263 27.168 27.3263C26.8815 27.3263 26.6183 27.2869 26.3784 27.2081C26.1421 27.1258 25.938 26.9987 25.7661 26.8268C25.5942 26.6513 25.4618 26.4275 25.3687 26.1554C25.2756 25.8797 25.229 25.5503 25.229 25.1671V21.4074H26.9048V25.1779C26.9048 25.3283 26.9227 25.4572 26.9585 25.5646C26.9979 25.6684 27.0498 25.7544 27.1143 25.8224C27.1823 25.8904 27.2646 25.9406 27.3613 25.9728C27.4616 26.005 27.5708 26.0211 27.689 26.0211C27.9862 26.0211 28.2189 25.9603 28.3872 25.8385C28.5591 25.7132 28.679 25.5467 28.7471 25.339C28.8187 25.1277 28.8545 24.8914 28.8545 24.63ZM33.1353 22.7609V27.2189H31.4595V21.4074H33.0332L33.1353 22.7609ZM34.8701 21.3644L34.8433 22.9274C34.7716 22.9166 34.6785 22.9077 34.564 22.9005C34.4494 22.8898 34.3509 22.8844 34.2686 22.8844C34.0537 22.8844 33.8675 22.9113 33.71 22.965C33.556 23.0151 33.4271 23.0903 33.3232 23.1906C33.223 23.2908 33.1478 23.4162 33.0977 23.5665C33.0475 23.7134 33.0225 23.8834 33.0225 24.0768L32.7056 23.921C32.7056 23.5379 32.7432 23.187 32.8184 22.8683C32.8936 22.5496 33.0028 22.2739 33.146 22.0412C33.2892 21.8048 33.4647 21.6222 33.6724 21.4933C33.88 21.3644 34.1164 21.2999 34.3813 21.2999C34.4673 21.2999 34.555 21.3053 34.6445 21.3161C34.734 21.3268 34.8092 21.3429 34.8701 21.3644ZM38.3828 19.3986H41.3853C41.9832 19.3986 42.5007 19.4881 42.9375 19.6671C43.3779 19.8462 43.7163 20.1111 43.9526 20.4621C44.189 20.813 44.3071 21.2462 44.3071 21.7619C44.3071 22.1915 44.2373 22.5568 44.0977 22.8576C43.958 23.1583 43.7611 23.4072 43.5068 23.6041C43.2562 23.8011 42.9626 23.9604 42.626 24.0822L42.0566 24.3937H39.5L39.4893 23.0348H41.3906C41.652 23.0348 41.8687 22.9883 42.0405 22.8952C42.2124 22.8021 42.3413 22.6714 42.4272 22.5031C42.5168 22.3312 42.5615 22.1307 42.5615 21.9015C42.5615 21.6652 42.5168 21.4611 42.4272 21.2892C42.3377 21.1173 42.2052 20.9866 42.0298 20.8971C41.8579 20.804 41.6431 20.7575 41.3853 20.7575H40.1338V27.2189H38.3828V19.3986ZM42.7119 27.2189L40.9556 23.7438L42.8032 23.7384L44.5864 27.1383V27.2189H42.7119ZM48.4858 25.8331V23.341C48.4858 23.1655 48.459 23.0151 48.4053 22.8898C48.3516 22.7645 48.2674 22.666 48.1528 22.5944C48.0382 22.5228 47.8896 22.487 47.707 22.487C47.5531 22.487 47.4188 22.5138 47.3042 22.5675C47.1932 22.6212 47.1073 22.6982 47.0464 22.7985C46.9891 22.8987 46.9604 23.0223 46.9604 23.1691H45.2847C45.2847 22.9077 45.3438 22.6642 45.4619 22.4386C45.5801 22.213 45.7484 22.0143 45.9668 21.8424C46.1888 21.6706 46.4538 21.5381 46.7617 21.445C47.0697 21.3483 47.4152 21.2999 47.7983 21.2999C48.2531 21.2999 48.6577 21.3769 49.0122 21.5309C49.3703 21.6813 49.6532 21.9087 49.8608 22.213C50.0685 22.5138 50.1724 22.8934 50.1724 23.3517V25.7848C50.1724 26.1357 50.1921 26.4114 50.2314 26.612C50.2744 26.8089 50.3353 26.9808 50.4141 27.1276V27.2189H48.7222C48.6434 27.0506 48.5843 26.8429 48.5449 26.5958C48.5055 26.3452 48.4858 26.091 48.4858 25.8331ZM48.6953 23.674L48.7061 24.5978H47.8735C47.6873 24.5978 47.5262 24.6211 47.3901 24.6676C47.2576 24.7142 47.1502 24.7786 47.0679 24.861C46.9855 24.9398 46.9246 25.0329 46.8853 25.1403C46.8494 25.2441 46.8315 25.3587 46.8315 25.484C46.8315 25.6022 46.8602 25.7096 46.9175 25.8063C46.9748 25.8994 47.0535 25.9728 47.1538 26.0265C47.2541 26.0802 47.3704 26.1071 47.5029 26.1071C47.7214 26.1071 47.9076 26.0641 48.0615 25.9782C48.2191 25.8922 48.3408 25.7884 48.4268 25.6666C48.5127 25.5413 48.5557 25.4249 48.5557 25.3175L48.9585 26.0158C48.894 26.159 48.8153 26.3076 48.7222 26.4616C48.6291 26.612 48.5109 26.7534 48.3677 26.8859C48.2244 27.0148 48.0508 27.1204 47.8467 27.2028C47.6462 27.2851 47.4045 27.3263 47.1216 27.3263C46.7563 27.3263 46.4251 27.2529 46.1279 27.1061C45.8307 26.9557 45.5926 26.7498 45.4136 26.4884C45.2381 26.227 45.1504 25.9262 45.1504 25.5861C45.1504 25.2817 45.2059 25.0114 45.3169 24.775C45.4279 24.5387 45.5944 24.3382 45.8164 24.1735C46.042 24.0088 46.3249 23.8852 46.665 23.8029C47.0052 23.7169 47.4027 23.674 47.8574 23.674H48.6953ZM54.2275 21.4074V22.5836H50.7793V21.4074H54.2275ZM51.5688 19.9679H53.25V25.3981C53.25 25.5592 53.2697 25.6828 53.3091 25.7687C53.3485 25.8546 53.4129 25.9155 53.5024 25.9513C53.592 25.9835 53.7065 25.9997 53.8462 25.9997C53.9465 25.9997 54.0324 25.9961 54.104 25.9889C54.1756 25.9817 54.2419 25.9728 54.3027 25.9621V27.1759C54.1595 27.2225 54.0073 27.2583 53.8462 27.2833C53.6851 27.312 53.5096 27.3263 53.3198 27.3263C52.9582 27.3263 52.6449 27.2672 52.3799 27.1491C52.1185 27.0309 51.918 26.8447 51.7783 26.5905C51.6387 26.3327 51.5688 25.9979 51.5688 25.5861V19.9679ZM56.8003 21.4074V27.2189H55.1191V21.4074H56.8003ZM55.0171 19.9035C55.0171 19.66 55.103 19.4612 55.2749 19.3073C55.4468 19.1497 55.6724 19.0709 55.9517 19.0709C56.231 19.0709 56.4565 19.1497 56.6284 19.3073C56.8039 19.4612 56.8916 19.66 56.8916 19.9035C56.8916 20.1434 56.8039 20.3421 56.6284 20.4997C56.4565 20.6536 56.231 20.7306 55.9517 20.7306C55.6724 20.7306 55.4468 20.6536 55.2749 20.4997C55.103 20.3421 55.0171 20.1434 55.0171 19.9035ZM59.6523 22.6481V27.2189H57.9712V21.4074H59.5503L59.6523 22.6481ZM59.4321 24.109L59.0132 24.1198C59.0132 23.6829 59.0669 23.2908 59.1743 22.9435C59.2817 22.5962 59.4339 22.3008 59.6309 22.0573C59.8314 21.8102 60.0695 21.6222 60.3452 21.4933C60.6245 21.3644 60.9325 21.2999 61.269 21.2999C61.5412 21.2999 61.79 21.3393 62.0156 21.4181C62.2412 21.4969 62.4346 21.624 62.5957 21.7995C62.7604 21.9713 62.8857 22.2005 62.9717 22.487C63.0576 22.7698 63.1006 23.119 63.1006 23.5343V27.2189H61.4141V23.5289C61.4141 23.2855 61.38 23.0975 61.312 22.965C61.244 22.8325 61.1437 22.7394 61.0112 22.6857C60.8823 22.632 60.7248 22.6051 60.5386 22.6051C60.3416 22.6051 60.1733 22.6445 60.0337 22.7233C59.894 22.7985 59.7795 22.9041 59.6899 23.0402C59.6004 23.1762 59.5342 23.3356 59.4912 23.5182C59.4518 23.7008 59.4321 23.8978 59.4321 24.109ZM67.8594 21.4074H69.3848V27.0094C69.3848 27.5429 69.263 27.9959 69.0195 28.3683C68.7796 28.7407 68.4448 29.0236 68.0151 29.2169C67.5854 29.4103 67.0824 29.507 66.5059 29.507C66.2552 29.507 65.9938 29.473 65.7217 29.4049C65.4495 29.3405 65.1935 29.242 64.9536 29.1095C64.7137 28.9806 64.5132 28.8159 64.3521 28.6154L65.0664 27.6271C65.2311 27.8133 65.4281 27.9637 65.6572 28.0783C65.8864 28.1964 66.1478 28.2555 66.4414 28.2555C66.71 28.2555 66.9373 28.2072 67.1235 28.1105C67.3097 28.0138 67.4512 27.8724 67.5479 27.6862C67.6481 27.5 67.6982 27.2744 67.6982 27.0094V22.7663L67.8594 21.4074ZM63.9761 24.383V24.2702C63.9761 23.8297 64.0298 23.4287 64.1372 23.067C64.2446 22.7018 64.4004 22.3885 64.6045 22.1271C64.8122 21.8621 65.061 21.658 65.3511 21.5148C65.6447 21.3716 65.9741 21.2999 66.3394 21.2999C66.7332 21.2999 67.0591 21.3751 67.3169 21.5255C67.5747 21.6723 67.7842 21.88 67.9453 22.1486C68.1064 22.4136 68.2336 22.7269 68.3267 23.0885C68.4198 23.4466 68.495 23.8351 68.5522 24.254V24.4474C68.495 24.8484 68.4126 25.2226 68.3052 25.57C68.1978 25.9173 68.0581 26.2234 67.8862 26.4884C67.7144 26.7498 67.4995 26.9557 67.2417 27.1061C66.9875 27.2529 66.6831 27.3263 66.3286 27.3263C65.967 27.3263 65.6411 27.2529 65.3511 27.1061C65.061 26.9593 64.8122 26.7534 64.6045 26.4884C64.4004 26.2234 64.2446 25.9119 64.1372 25.5539C64.0298 25.1958 63.9761 24.8055 63.9761 24.383ZM65.6519 24.2702V24.383C65.6519 24.6121 65.6733 24.8252 65.7163 25.0221C65.7629 25.2191 65.8309 25.3927 65.9204 25.5431C66.0135 25.6935 66.1281 25.8117 66.2642 25.8976C66.4038 25.98 66.5667 26.0211 66.7529 26.0211C67.0251 26.0211 67.2453 25.9638 67.4136 25.8493C67.5854 25.7311 67.7108 25.5682 67.7896 25.3605C67.8719 25.1528 67.9149 24.9111 67.9185 24.6354V24.0714C67.9185 23.8423 67.8952 23.6364 67.8486 23.4538C67.8021 23.2711 67.7323 23.1172 67.6392 22.9918C67.5496 22.8665 67.4315 22.7716 67.2847 22.7072C67.1414 22.6391 66.9678 22.6051 66.7637 22.6051C66.5811 22.6051 66.4199 22.6481 66.2803 22.734C66.1406 22.8164 66.0243 22.9328 65.9312 23.0831C65.8381 23.2335 65.7682 23.4108 65.7217 23.6149C65.6751 23.8154 65.6519 24.0338 65.6519 24.2702Z" fill="#4B465C"/>
<path d="M138.085 17.5329V28.2189H135.976V19.9645L133.442 20.7702V19.1076L137.858 17.5329H138.085ZM141.748 27.2008C141.748 26.8883 141.855 26.6271 142.07 26.4171C142.29 26.2072 142.58 26.1022 142.941 26.1022C143.303 26.1022 143.591 26.2072 143.806 26.4171C144.025 26.6271 144.135 26.8883 144.135 27.2008C144.135 27.5133 144.025 27.7746 143.806 27.9845C143.591 28.1945 143.303 28.2995 142.941 28.2995C142.58 28.2995 142.29 28.1945 142.07 27.9845C141.855 27.7746 141.748 27.5133 141.748 27.2008ZM148.068 21.9713H149.196C149.558 21.9713 149.855 21.9103 150.09 21.7882C150.324 21.6613 150.498 21.4855 150.61 21.2609C150.727 21.0314 150.786 20.7653 150.786 20.4625C150.786 20.1891 150.732 19.9474 150.625 19.7374C150.522 19.5226 150.363 19.3566 150.148 19.2394C149.934 19.1173 149.663 19.0563 149.335 19.0563C149.077 19.0563 148.837 19.1076 148.618 19.2101C148.398 19.3126 148.222 19.4567 148.09 19.6422C147.958 19.8278 147.893 20.0524 147.893 20.3161H145.776C145.776 19.7301 145.932 19.2199 146.245 18.7853C146.562 18.3507 146.987 18.0114 147.519 17.7672C148.051 17.5231 148.637 17.401 149.277 17.401C150 17.401 150.632 17.5182 151.174 17.7526C151.716 17.9821 152.138 18.3214 152.441 18.7706C152.744 19.2199 152.895 19.7765 152.895 20.4406C152.895 20.7775 152.817 21.1046 152.661 21.422C152.504 21.7345 152.28 22.0177 151.987 22.2716C151.699 22.5206 151.347 22.7208 150.932 22.8722C150.517 23.0187 150.051 23.0919 149.533 23.0919H148.068V21.9713ZM148.068 23.5753V22.484H149.533C150.114 22.484 150.625 22.5499 151.064 22.6818C151.503 22.8136 151.872 23.004 152.17 23.2531C152.468 23.4972 152.692 23.7877 152.844 24.1247C152.995 24.4567 153.071 24.8253 153.071 25.2306C153.071 25.7287 152.976 26.173 152.785 26.5636C152.595 26.9494 152.326 27.2765 151.979 27.5451C151.638 27.8136 151.237 28.0187 150.778 28.1603C150.319 28.297 149.819 28.3654 149.277 28.3654C148.828 28.3654 148.386 28.3043 147.951 28.1823C147.521 28.0553 147.131 27.8673 146.779 27.6183C146.433 27.3644 146.154 27.047 145.944 26.6662C145.739 26.2804 145.637 25.8239 145.637 25.2965H147.753C147.753 25.57 147.822 25.8141 147.958 26.0289C148.095 26.2438 148.283 26.4123 148.522 26.5343C148.767 26.6564 149.038 26.7174 149.335 26.7174C149.672 26.7174 149.96 26.6564 150.2 26.5343C150.444 26.4074 150.629 26.2316 150.756 26.007C150.888 25.7775 150.954 25.5114 150.954 25.2086C150.954 24.818 150.883 24.5055 150.742 24.2711C150.6 24.0319 150.397 23.8561 150.134 23.7438C149.87 23.6315 149.558 23.5753 149.196 23.5753H148.068Z" fill="#4B465C"/>
<path opacity="0.8" d="M57.6651 63.0254C52.7891 67.0407 48.8577 72.081 46.1502 77.7879L52.5826 80.8395C54.8417 76.0776 58.1223 71.8718 62.1909 68.5213L57.6651 63.0254Z" fill="#7367F0"/>
<path opacity="0.3" d="M45.2707 79.7693C43.0993 85.0135 41.9877 90.6357 41.9999 96.3117L49.1194 96.2963C49.1092 91.5601 50.0368 86.8688 51.8486 82.4929L45.2707 79.7693Z" fill="#7367F0"/>
<g opacity="0.7">
<mask id="path-6-inside-1_2_876" fill="white">
<path d="M128 99.2189C128 110.623 123.47 121.561 115.406 129.625C107.342 137.689 96.4044 142.219 85 142.219C73.5956 142.219 62.6584 137.689 54.5943 129.625C46.5302 121.561 41.9998 110.623 41.9998 99.2189L85 99.2189H128Z"/>
</mask>
<path d="M128 99.2189C128 110.623 123.47 121.561 115.406 129.625C107.342 137.689 96.4044 142.219 85 142.219C73.5956 142.219 62.6584 137.689 54.5943 129.625C46.5302 121.561 41.9998 110.623 41.9998 99.2189L85 99.2189H128Z" fill="#FFE600" stroke="#7367F0" stroke-width="2" mask="url(#path-6-inside-1_2_876)"/>
</g>
<path d="M74.9273 111.549C74.9273 111.408 74.9056 111.281 74.8622 111.169C74.8223 111.053 74.7463 110.948 74.634 110.854C74.5217 110.756 74.3642 110.66 74.1614 110.566C73.9586 110.472 73.6961 110.374 73.3737 110.273C73.0152 110.157 72.6748 110.027 72.3525 109.882C72.0338 109.737 71.7513 109.569 71.5051 109.377C71.2625 109.181 71.0705 108.955 70.9293 108.698C70.7917 108.44 70.7229 108.142 70.7229 107.801C70.7229 107.472 70.7953 107.173 70.9401 106.905C71.085 106.633 71.2878 106.402 71.5485 106.21C71.8093 106.014 72.1171 105.864 72.472 105.759C72.8305 105.654 73.2235 105.601 73.6508 105.601C74.2338 105.601 74.7426 105.706 75.1772 105.916C75.6118 106.126 75.9486 106.414 76.1876 106.78C76.4302 107.146 76.5516 107.564 76.5516 108.035H74.9328C74.9328 107.803 74.8839 107.6 74.7861 107.426C74.6919 107.249 74.5471 107.11 74.3515 107.008C74.1596 106.907 73.917 106.856 73.6236 106.856C73.3412 106.856 73.1058 106.9 72.9174 106.986C72.7291 107.07 72.5879 107.184 72.4937 107.329C72.3996 107.47 72.3525 107.629 72.3525 107.807C72.3525 107.941 72.3851 108.062 72.4503 108.171C72.5191 108.279 72.6205 108.381 72.7545 108.475C72.8885 108.569 73.0533 108.658 73.2488 108.741C73.4444 108.824 73.6707 108.906 73.9278 108.985C74.3588 109.116 74.7372 109.263 75.0631 109.425C75.3927 109.588 75.6679 109.771 75.8888 109.974C76.1097 110.177 76.2763 110.407 76.3886 110.664C76.5009 110.921 76.557 111.213 76.557 111.539C76.557 111.883 76.49 112.19 76.356 112.462C76.222 112.734 76.0283 112.964 75.7748 113.152C75.5213 113.34 75.2189 113.483 74.8676 113.581C74.5163 113.679 74.1234 113.728 73.6888 113.728C73.2977 113.728 72.912 113.677 72.5318 113.576C72.1515 113.471 71.8057 113.313 71.4942 113.103C71.1864 112.893 70.9401 112.625 70.7555 112.299C70.5708 111.973 70.4784 111.587 70.4784 111.142H72.1135C72.1135 111.388 72.1515 111.597 72.2276 111.767C72.3036 111.937 72.4104 112.075 72.5481 112.18C72.6893 112.285 72.8559 112.361 73.0478 112.408C73.2434 112.455 73.457 112.478 73.6888 112.478C73.9713 112.478 74.2031 112.439 74.3841 112.359C74.5688 112.279 74.7046 112.169 74.7915 112.027C74.8821 111.886 74.9273 111.727 74.9273 111.549ZM79.9955 112.506C80.1875 112.506 80.3577 112.469 80.5062 112.397C80.6546 112.321 80.7705 112.216 80.8538 112.082C80.9407 111.944 80.986 111.783 80.9896 111.598H82.4617C82.4581 112.011 82.3477 112.379 82.1304 112.701C81.9131 113.02 81.6216 113.271 81.2558 113.456C80.89 113.637 80.4808 113.728 80.0281 113.728C79.5718 113.728 79.1735 113.652 78.8331 113.5C78.4963 113.348 78.2156 113.137 77.9911 112.869C77.7665 112.598 77.5982 112.283 77.4859 111.924C77.3736 111.562 77.3175 111.175 77.3175 110.762V110.604C77.3175 110.188 77.3736 109.8 77.4859 109.442C77.5982 109.08 77.7665 108.765 77.9911 108.497C78.2156 108.225 78.4963 108.013 78.8331 107.861C79.1699 107.709 79.5646 107.633 80.0173 107.633C80.4989 107.633 80.9208 107.725 81.283 107.91C81.6487 108.095 81.9348 108.359 82.1412 108.703C82.3513 109.043 82.4581 109.447 82.4617 109.914H80.9896C80.986 109.719 80.9444 109.541 80.8647 109.382C80.7886 109.223 80.6764 109.096 80.5279 109.002C80.383 108.904 80.2038 108.855 79.9901 108.855C79.762 108.855 79.5755 108.904 79.4306 109.002C79.2857 109.096 79.1735 109.226 79.0938 109.393C79.0141 109.556 78.958 109.742 78.9254 109.952C78.8964 110.159 78.8819 110.376 78.8819 110.604V110.762C78.8819 110.99 78.8964 111.209 78.9254 111.419C78.9544 111.629 79.0087 111.816 79.0884 111.979C79.1717 112.142 79.2857 112.27 79.4306 112.364C79.5755 112.458 79.7638 112.506 79.9955 112.506ZM83.119 110.74V110.626C83.119 110.195 83.1806 109.798 83.3037 109.436C83.4268 109.071 83.6061 108.754 83.8415 108.486C84.0769 108.218 84.3666 108.01 84.7106 107.861C85.0547 107.709 85.4494 107.633 85.8949 107.633C86.3403 107.633 86.7368 107.709 87.0845 107.861C87.4322 108.01 87.7237 108.218 87.9591 108.486C88.1981 108.754 88.3792 109.071 88.5023 109.436C88.6254 109.798 88.687 110.195 88.687 110.626V110.74C88.687 111.167 88.6254 111.564 88.5023 111.93C88.3792 112.292 88.1981 112.609 87.9591 112.88C87.7237 113.148 87.434 113.357 87.0899 113.505C86.7459 113.654 86.3512 113.728 85.9057 113.728C85.4603 113.728 85.0637 113.654 84.7161 113.505C84.372 113.357 84.0805 113.148 83.8415 112.88C83.6061 112.609 83.4268 112.292 83.3037 111.93C83.1806 111.564 83.119 111.167 83.119 110.74ZM84.6835 110.626V110.74C84.6835 110.986 84.7052 111.216 84.7487 111.43C84.7921 111.644 84.8609 111.832 84.9551 111.995C85.0529 112.154 85.1796 112.279 85.3353 112.37C85.4911 112.46 85.6812 112.506 85.9057 112.506C86.123 112.506 86.3095 112.46 86.4652 112.37C86.621 112.279 86.7459 112.154 86.84 111.995C86.9342 111.832 87.003 111.644 87.0465 111.43C87.0935 111.216 87.1171 110.986 87.1171 110.74V110.626C87.1171 110.387 87.0935 110.162 87.0465 109.952C87.003 109.739 86.9324 109.55 86.8346 109.387C86.7405 109.221 86.6155 109.091 86.4598 108.996C86.3041 108.902 86.1158 108.855 85.8949 108.855C85.6739 108.855 85.4856 108.902 85.3299 108.996C85.1778 109.091 85.0529 109.221 84.9551 109.387C84.8609 109.55 84.7921 109.739 84.7487 109.952C84.7052 110.162 84.6835 110.387 84.6835 110.626ZM91.2129 109.024V113.619H89.6485V107.742H91.1206L91.2129 109.024ZM92.9838 107.703L92.9567 109.154C92.8806 109.143 92.7883 109.134 92.6796 109.127C92.5746 109.116 92.4786 109.11 92.3917 109.11C92.1708 109.11 91.9789 109.139 91.8159 109.197C91.6566 109.252 91.5226 109.333 91.4139 109.442C91.3089 109.55 91.2292 109.683 91.1749 109.838C91.1242 109.994 91.0952 110.172 91.088 110.371L90.7729 110.273C90.7729 109.893 90.811 109.543 90.887 109.224C90.9631 108.902 91.0735 108.622 91.2184 108.383C91.3668 108.144 91.5479 107.959 91.7616 107.828C91.9752 107.698 92.2197 107.633 92.4949 107.633C92.5818 107.633 92.6706 107.64 92.7611 107.655C92.8516 107.665 92.9259 107.682 92.9838 107.703ZM96.3192 113.728C95.8629 113.728 95.4536 113.655 95.0915 113.51C94.7293 113.362 94.4215 113.157 94.168 112.897C93.9181 112.636 93.7262 112.334 93.5922 111.989C93.4582 111.642 93.3912 111.272 93.3912 110.881V110.664C93.3912 110.219 93.4546 109.811 93.5813 109.442C93.7081 109.072 93.8892 108.752 94.1246 108.48C94.3636 108.209 94.6533 108 94.9937 107.856C95.3341 107.707 95.718 107.633 96.1453 107.633C96.5618 107.633 96.9312 107.702 97.2535 107.839C97.5758 107.977 97.8456 108.172 98.0629 108.426C98.2838 108.679 98.4504 108.984 98.5626 109.339C98.6749 109.69 98.731 110.081 98.731 110.512V111.164H94.0594V110.121H97.1937V110.001C97.1937 109.784 97.1539 109.59 97.0742 109.42C96.9982 109.246 96.8823 109.109 96.7266 109.007C96.5708 108.906 96.3717 108.855 96.129 108.855C95.9226 108.855 95.7452 108.9 95.5967 108.991C95.4482 109.081 95.3269 109.208 95.2327 109.371C95.1422 109.534 95.0734 109.726 95.0263 109.947C94.9828 110.164 94.9611 110.403 94.9611 110.664V110.881C94.9611 111.117 94.9937 111.334 95.0589 111.533C95.1277 111.732 95.2237 111.904 95.3468 112.049C95.4735 112.194 95.6256 112.306 95.8031 112.386C95.9842 112.466 96.1888 112.506 96.4169 112.506C96.6994 112.506 96.962 112.451 97.2046 112.343C97.4509 112.23 97.6627 112.062 97.8402 111.837L98.6007 112.663C98.4775 112.841 98.3091 113.011 98.0955 113.174C97.8854 113.337 97.6319 113.471 97.335 113.576C97.038 113.677 96.6994 113.728 96.3192 113.728ZM82.2988 121.694V129.619H80.7343V123.497L78.8548 124.095V122.862L82.1304 121.694H82.2988ZM85.0148 128.864C85.0148 128.632 85.0945 128.439 85.2539 128.283C85.4168 128.127 85.6323 128.049 85.9003 128.049C86.1683 128.049 86.3819 128.127 86.5413 128.283C86.7042 128.439 86.7857 128.632 86.7857 128.864C86.7857 129.096 86.7042 129.29 86.5413 129.445C86.3819 129.601 86.1683 129.679 85.9003 129.679C85.6323 129.679 85.4168 129.601 85.2539 129.445C85.0945 129.29 85.0148 129.096 85.0148 128.864ZM89.7028 124.985H90.5393C90.8073 124.985 91.0282 124.94 91.2021 124.85C91.3759 124.756 91.5045 124.625 91.5878 124.459C91.6747 124.288 91.7181 124.091 91.7181 123.866C91.7181 123.664 91.6783 123.484 91.5986 123.329C91.5226 123.169 91.4049 123.046 91.2455 122.959C91.0862 122.869 90.8852 122.823 90.6426 122.823C90.4506 122.823 90.2732 122.862 90.1102 122.938C89.9472 123.014 89.8169 123.12 89.7191 123.258C89.6213 123.396 89.5724 123.562 89.5724 123.758H88.0025C88.0025 123.323 88.1184 122.945 88.3502 122.622C88.5856 122.3 88.9006 122.049 89.2954 121.867C89.6901 121.686 90.1247 121.596 90.5991 121.596C91.1351 121.596 91.604 121.683 92.006 121.857C92.408 122.027 92.7213 122.278 92.9458 122.612C93.1703 122.945 93.2826 123.358 93.2826 123.85C93.2826 124.1 93.2246 124.343 93.1088 124.578C92.9929 124.81 92.8263 125.02 92.609 125.208C92.3953 125.393 92.1346 125.541 91.8268 125.654C91.5189 125.762 91.1731 125.817 90.7892 125.817H89.7028V124.985ZM89.7028 126.175V125.366H90.7892C91.2202 125.366 91.5986 125.415 91.9245 125.512C92.2505 125.61 92.5239 125.751 92.7448 125.936C92.9657 126.117 93.1323 126.333 93.2446 126.583C93.3568 126.829 93.413 127.102 93.413 127.403C93.413 127.772 93.3423 128.102 93.2011 128.391C93.0599 128.678 92.8607 128.92 92.6036 129.119C92.3501 129.319 92.0531 129.471 91.7127 129.576C91.3723 129.677 91.0011 129.728 90.5991 129.728C90.2659 129.728 89.9382 129.682 89.6159 129.592C89.2972 129.498 89.0075 129.358 88.7467 129.174C88.4896 128.985 88.2832 128.75 88.1275 128.467C87.9754 128.181 87.8993 127.843 87.8993 127.452H89.4692C89.4692 127.654 89.5199 127.836 89.6213 127.995C89.7227 128.154 89.8621 128.279 90.0396 128.37C90.2207 128.46 90.4216 128.506 90.6426 128.506C90.8924 128.506 91.1061 128.46 91.2836 128.37C91.4646 128.276 91.6022 128.145 91.6964 127.979C91.7942 127.808 91.8431 127.611 91.8431 127.386C91.8431 127.097 91.7906 126.865 91.6855 126.691C91.5805 126.514 91.4302 126.383 91.2347 126.3C91.0391 126.217 90.8073 126.175 90.5393 126.175H89.7028Z" fill="#4B465C"/>
<circle cx="85.0446" cy="91.4992" r="3.98647" transform="rotate(-59.7028 85.0446 91.4992)" fill="#DBDADE"/>
<circle cx="83.6665" cy="90.6953" r="1.59459" transform="rotate(-59.7028 83.6665 90.6953)" fill="#363740"/>
<path d="M69.2102 82.2489L83.847 89.2016L82.4536 91.5863L69.2102 82.2489Z" fill="#363740"/>
<mask id="path-11-inside-2_2_876" fill="white">
<path d="M15.5 163.781H154.5V191.781H15.5V163.781Z"/>
</mask>
<path d="M154.5 190.781H15.5V192.781H154.5V190.781Z" fill="#DBDADE" mask="url(#path-11-inside-2_2_876)"/>
<path d="M20.1055 171.746H20.9492C20.9053 172.151 20.7896 172.513 20.6021 172.832C20.4146 173.151 20.1494 173.405 19.8066 173.592C19.4639 173.777 19.0361 173.869 18.5234 173.869C18.1484 173.869 17.8071 173.799 17.4995 173.658C17.1948 173.517 16.9326 173.318 16.7129 173.06C16.4932 172.8 16.3232 172.488 16.2031 172.124C16.0859 171.758 16.0273 171.351 16.0273 170.903V170.265C16.0273 169.817 16.0859 169.411 16.2031 169.048C16.3232 168.682 16.4946 168.369 16.7173 168.108C16.9429 167.847 17.2139 167.646 17.5303 167.506C17.8467 167.365 18.2026 167.295 18.5981 167.295C19.0815 167.295 19.4902 167.386 19.8242 167.567C20.1582 167.749 20.4175 168.001 20.6021 168.323C20.7896 168.642 20.9053 169.013 20.9492 169.435H20.1055C20.0645 169.136 19.9883 168.88 19.877 168.666C19.7656 168.449 19.6074 168.282 19.4023 168.165C19.1973 168.048 18.9292 167.989 18.5981 167.989C18.314 167.989 18.0635 168.043 17.8467 168.152C17.6328 168.26 17.4526 168.414 17.3062 168.613C17.1626 168.812 17.0542 169.051 16.981 169.329C16.9077 169.608 16.8711 169.917 16.8711 170.257V170.903C16.8711 171.216 16.9033 171.511 16.9678 171.786C17.0352 172.061 17.1362 172.303 17.271 172.511C17.4058 172.719 17.5771 172.883 17.7852 173.003C17.9932 173.12 18.2393 173.179 18.5234 173.179C18.8838 173.179 19.1709 173.122 19.3848 173.008C19.5986 172.893 19.7598 172.729 19.8682 172.515C19.9795 172.302 20.0586 172.045 20.1055 171.746ZM24.7856 172.968V170.52C24.7856 170.333 24.7476 170.17 24.6714 170.033C24.5981 169.892 24.4868 169.784 24.3374 169.707C24.188 169.631 24.0034 169.593 23.7837 169.593C23.5786 169.593 23.3984 169.628 23.2432 169.699C23.0908 169.769 22.9707 169.861 22.8828 169.975C22.7979 170.09 22.7554 170.213 22.7554 170.345H21.9424C21.9424 170.175 21.9863 170.006 22.0742 169.839C22.1621 169.672 22.2881 169.521 22.4521 169.387C22.6191 169.249 22.8184 169.14 23.0498 169.061C23.2842 168.979 23.5449 168.938 23.832 168.938C24.1777 168.938 24.4824 168.997 24.7461 169.114C25.0127 169.231 25.2207 169.409 25.3701 169.646C25.5225 169.88 25.5986 170.175 25.5986 170.529V172.744C25.5986 172.902 25.6118 173.071 25.6382 173.249C25.6675 173.428 25.71 173.582 25.7656 173.711V173.781H24.9175C24.8765 173.687 24.8442 173.563 24.8208 173.408C24.7974 173.249 24.7856 173.103 24.7856 172.968ZM24.9263 170.898L24.9351 171.47H24.1133C23.8818 171.47 23.6753 171.489 23.4937 171.527C23.312 171.562 23.1597 171.616 23.0366 171.689C22.9136 171.763 22.8198 171.855 22.7554 171.966C22.6909 172.075 22.6587 172.202 22.6587 172.348C22.6587 172.498 22.6924 172.634 22.7598 172.757C22.8271 172.88 22.9282 172.978 23.063 173.052C23.2007 173.122 23.3691 173.157 23.5684 173.157C23.8174 173.157 24.0371 173.104 24.2275 172.999C24.418 172.893 24.5688 172.765 24.6802 172.612C24.7944 172.46 24.856 172.312 24.8647 172.168L25.2119 172.559C25.1914 172.682 25.1357 172.819 25.0449 172.968C24.9541 173.118 24.8325 173.261 24.6802 173.399C24.5308 173.534 24.3521 173.646 24.144 173.737C23.939 173.825 23.7075 173.869 23.4497 173.869C23.1274 173.869 22.8447 173.806 22.6016 173.68C22.3613 173.554 22.1738 173.386 22.0391 173.175C21.9072 172.961 21.8413 172.722 21.8413 172.458C21.8413 172.203 21.8911 171.979 21.9907 171.786C22.0903 171.59 22.2339 171.427 22.4214 171.298C22.6089 171.166 22.8345 171.067 23.0981 170.999C23.3618 170.932 23.6562 170.898 23.9814 170.898H24.9263ZM27.6904 170.041V173.781H26.8774V169.026H27.6465L27.6904 170.041ZM27.4971 171.223L27.1587 171.21C27.1616 170.885 27.21 170.585 27.3037 170.309C27.3975 170.031 27.5293 169.789 27.6992 169.584C27.8691 169.379 28.0713 169.221 28.3057 169.11C28.543 168.995 28.8052 168.938 29.0923 168.938C29.3267 168.938 29.5376 168.971 29.7251 169.035C29.9126 169.097 30.0723 169.196 30.2041 169.334C30.3389 169.472 30.4414 169.65 30.5117 169.87C30.582 170.087 30.6172 170.352 30.6172 170.665V173.781H29.7998V170.657C29.7998 170.408 29.7632 170.208 29.6899 170.059C29.6167 169.907 29.5098 169.797 29.3691 169.729C29.2285 169.659 29.0557 169.624 28.8506 169.624C28.6484 169.624 28.4639 169.666 28.2969 169.751C28.1328 169.836 27.9907 169.953 27.8706 170.103C27.7534 170.252 27.6611 170.424 27.5938 170.617C27.5293 170.807 27.4971 171.01 27.4971 171.223ZM33.7549 173.201C33.9482 173.201 34.127 173.161 34.291 173.082C34.4551 173.003 34.5898 172.895 34.6953 172.757C34.8008 172.617 34.8608 172.457 34.8755 172.278H35.6489C35.6343 172.559 35.5391 172.822 35.3633 173.065C35.1904 173.305 34.9634 173.5 34.6821 173.649C34.4009 173.796 34.0918 173.869 33.7549 173.869C33.3975 173.869 33.0854 173.806 32.8188 173.68C32.5552 173.554 32.3354 173.381 32.1597 173.161C31.9868 172.942 31.8564 172.69 31.7686 172.406C31.6836 172.119 31.6411 171.815 31.6411 171.496V171.311C31.6411 170.992 31.6836 170.69 31.7686 170.406C31.8564 170.119 31.9868 169.866 32.1597 169.646C32.3354 169.426 32.5552 169.253 32.8188 169.127C33.0854 169.001 33.3975 168.938 33.7549 168.938C34.127 168.938 34.4521 169.015 34.7305 169.167C35.0088 169.316 35.2271 169.521 35.3853 169.782C35.5464 170.04 35.6343 170.333 35.6489 170.661H34.8755C34.8608 170.465 34.8052 170.287 34.7085 170.129C34.6147 169.971 34.4858 169.845 34.3218 169.751C34.1606 169.655 33.9717 169.606 33.7549 169.606C33.5059 169.606 33.2964 169.656 33.1265 169.756C32.9595 169.852 32.8262 169.984 32.7266 170.151C32.6299 170.315 32.5596 170.498 32.5156 170.701C32.4746 170.9 32.4541 171.103 32.4541 171.311V171.496C32.4541 171.704 32.4746 171.909 32.5156 172.111C32.5566 172.313 32.6255 172.496 32.7222 172.661C32.8218 172.825 32.9551 172.956 33.1221 173.056C33.292 173.153 33.5029 173.201 33.7549 173.201ZM38.5361 173.869C38.2051 173.869 37.9048 173.813 37.6353 173.702C37.3687 173.588 37.1387 173.428 36.9453 173.223C36.7549 173.018 36.6084 172.775 36.5059 172.494C36.4033 172.212 36.3521 171.905 36.3521 171.571V171.386C36.3521 170.999 36.4092 170.655 36.5234 170.353C36.6377 170.049 36.793 169.791 36.9893 169.58C37.1855 169.369 37.4082 169.209 37.6572 169.101C37.9062 168.993 38.1641 168.938 38.4307 168.938C38.7705 168.938 39.0635 168.997 39.3096 169.114C39.5586 169.231 39.7622 169.395 39.9204 169.606C40.0786 169.814 40.1958 170.06 40.272 170.345C40.3481 170.626 40.3862 170.933 40.3862 171.267V171.632H36.8354V170.969H39.5732V170.907C39.5615 170.696 39.5176 170.491 39.4414 170.292C39.3682 170.093 39.251 169.929 39.0898 169.8C38.9287 169.671 38.709 169.606 38.4307 169.606C38.2461 169.606 38.0762 169.646 37.9209 169.725C37.7656 169.801 37.6323 169.915 37.521 170.068C37.4097 170.22 37.3232 170.406 37.2617 170.626C37.2002 170.846 37.1694 171.099 37.1694 171.386V171.571C37.1694 171.796 37.2002 172.009 37.2617 172.208C37.3262 172.404 37.4185 172.577 37.5386 172.726C37.6616 172.876 37.8096 172.993 37.9824 173.078C38.1582 173.163 38.3574 173.205 38.5801 173.205C38.8672 173.205 39.1104 173.147 39.3096 173.03C39.5088 172.912 39.6831 172.756 39.8325 172.559L40.3247 172.951C40.2222 173.106 40.0918 173.254 39.9336 173.394C39.7754 173.535 39.5806 173.649 39.3491 173.737C39.1206 173.825 38.8496 173.869 38.5361 173.869ZM42.2188 167.031V173.781H41.4014V167.031H42.2188ZM44.4072 169.026V173.781H43.5898V169.026H44.4072ZM43.5283 167.765C43.5283 167.633 43.5679 167.522 43.647 167.431C43.729 167.34 43.8491 167.295 44.0073 167.295C44.1626 167.295 44.2812 167.34 44.3633 167.431C44.4482 167.522 44.4907 167.633 44.4907 167.765C44.4907 167.891 44.4482 167.999 44.3633 168.09C44.2812 168.178 44.1626 168.222 44.0073 168.222C43.8491 168.222 43.729 168.178 43.647 168.09C43.5679 167.999 43.5283 167.891 43.5283 167.765ZM46.5254 170.041V173.781H45.7124V169.026H46.4814L46.5254 170.041ZM46.332 171.223L45.9937 171.21C45.9966 170.885 46.0449 170.585 46.1387 170.309C46.2324 170.031 46.3643 169.789 46.5342 169.584C46.7041 169.379 46.9062 169.221 47.1406 169.11C47.3779 168.995 47.6401 168.938 47.9272 168.938C48.1616 168.938 48.3726 168.971 48.5601 169.035C48.7476 169.097 48.9072 169.196 49.0391 169.334C49.1738 169.472 49.2764 169.65 49.3467 169.87C49.417 170.087 49.4521 170.352 49.4521 170.665V173.781H48.6348V170.657C48.6348 170.408 48.5981 170.208 48.5249 170.059C48.4517 169.907 48.3447 169.797 48.2041 169.729C48.0635 169.659 47.8906 169.624 47.6855 169.624C47.4834 169.624 47.2988 169.666 47.1318 169.751C46.9678 169.836 46.8257 169.953 46.7056 170.103C46.5884 170.252 46.4961 170.424 46.4287 170.617C46.3643 170.807 46.332 171.01 46.332 171.223ZM53.7676 169.026H54.5059V173.68C54.5059 174.099 54.4209 174.456 54.251 174.752C54.0811 175.048 53.8438 175.272 53.5391 175.425C53.2373 175.58 52.8887 175.658 52.4932 175.658C52.3291 175.658 52.1357 175.631 51.9131 175.578C51.6934 175.529 51.4766 175.442 51.2627 175.319C51.0518 175.199 50.8745 175.036 50.731 174.831L51.1572 174.348C51.3564 174.588 51.5645 174.755 51.7812 174.849C52.001 174.943 52.2178 174.99 52.4316 174.99C52.6895 174.99 52.9121 174.941 53.0996 174.845C53.2871 174.748 53.4321 174.604 53.5347 174.414C53.6401 174.226 53.6929 173.995 53.6929 173.72V170.072L53.7676 169.026ZM50.4937 171.456V171.364C50.4937 171.001 50.5361 170.671 50.6211 170.375C50.709 170.077 50.8335 169.82 50.9946 169.606C51.1587 169.392 51.3564 169.228 51.5879 169.114C51.8193 168.997 52.0801 168.938 52.3701 168.938C52.6689 168.938 52.9297 168.991 53.1523 169.097C53.3779 169.199 53.5684 169.35 53.7236 169.549C53.8818 169.745 54.0063 169.983 54.0972 170.261C54.188 170.539 54.251 170.854 54.2861 171.206V171.61C54.2539 171.959 54.1909 172.272 54.0972 172.551C54.0063 172.829 53.8818 173.066 53.7236 173.263C53.5684 173.459 53.3779 173.61 53.1523 173.715C52.9268 173.818 52.6631 173.869 52.3613 173.869C52.0771 173.869 51.8193 173.809 51.5879 173.689C51.3594 173.569 51.1631 173.4 50.999 173.183C50.835 172.967 50.709 172.712 50.6211 172.419C50.5361 172.123 50.4937 171.802 50.4937 171.456ZM51.3066 171.364V171.456C51.3066 171.694 51.3301 171.916 51.377 172.124C51.4268 172.332 51.5015 172.515 51.6011 172.674C51.7036 172.832 51.834 172.956 51.9922 173.047C52.1504 173.135 52.3394 173.179 52.5591 173.179C52.8286 173.179 53.0513 173.122 53.2271 173.008C53.4028 172.893 53.542 172.743 53.6445 172.555C53.75 172.368 53.832 172.164 53.8906 171.944V170.885C53.8584 170.724 53.8086 170.569 53.7412 170.419C53.6768 170.267 53.5918 170.132 53.4863 170.015C53.3838 169.895 53.2563 169.8 53.104 169.729C52.9517 169.659 52.7729 169.624 52.5679 169.624C52.3452 169.624 52.1533 169.671 51.9922 169.765C51.834 169.855 51.7036 169.981 51.6011 170.142C51.5015 170.301 51.4268 170.485 51.377 170.696C51.3301 170.904 51.3066 171.127 51.3066 171.364ZM57.4326 170.727V171.395H55.2881V170.727H57.4326ZM63.9937 172.164C63.9937 172.015 63.9702 171.883 63.9233 171.768C63.8794 171.651 63.8003 171.546 63.686 171.452C63.5747 171.358 63.4194 171.269 63.2202 171.184C63.0239 171.099 62.7749 171.013 62.4731 170.925C62.1567 170.831 61.8711 170.727 61.6162 170.613C61.3613 170.495 61.1431 170.362 60.9614 170.213C60.7798 170.063 60.6406 169.892 60.5439 169.699C60.4473 169.505 60.3989 169.284 60.3989 169.035C60.3989 168.786 60.4502 168.556 60.5527 168.345C60.6553 168.134 60.8018 167.951 60.9922 167.796C61.1855 167.638 61.4155 167.515 61.6821 167.427C61.9487 167.339 62.2461 167.295 62.5742 167.295C63.0547 167.295 63.4619 167.387 63.7959 167.572C64.1328 167.753 64.3892 167.992 64.5649 168.288C64.7407 168.581 64.8286 168.894 64.8286 169.228H63.9849C63.9849 168.988 63.9336 168.776 63.8311 168.591C63.7285 168.404 63.5732 168.257 63.3652 168.152C63.1572 168.043 62.8936 167.989 62.5742 167.989C62.2725 167.989 62.0234 168.035 61.8271 168.125C61.6309 168.216 61.4844 168.339 61.3877 168.494C61.2939 168.65 61.2471 168.827 61.2471 169.026C61.2471 169.161 61.2749 169.284 61.3306 169.395C61.3892 169.504 61.4785 169.605 61.5986 169.699C61.7217 169.792 61.877 169.879 62.0645 169.958C62.2549 170.037 62.4819 170.113 62.7456 170.186C63.1089 170.289 63.4224 170.403 63.686 170.529C63.9497 170.655 64.1665 170.797 64.3364 170.955C64.5093 171.111 64.6367 171.288 64.7188 171.487C64.8037 171.683 64.8462 171.906 64.8462 172.155C64.8462 172.416 64.7935 172.652 64.688 172.863C64.5825 173.074 64.4316 173.254 64.2354 173.403C64.0391 173.553 63.8032 173.668 63.5278 173.75C63.2554 173.829 62.9507 173.869 62.6138 173.869C62.3179 173.869 62.0264 173.828 61.7393 173.746C61.4551 173.664 61.1958 173.541 60.9614 173.377C60.73 173.213 60.5439 173.011 60.4033 172.77C60.2656 172.527 60.1968 172.246 60.1968 171.927H61.0405C61.0405 172.146 61.083 172.335 61.168 172.494C61.2529 172.649 61.3687 172.778 61.5151 172.88C61.6646 172.983 61.833 173.059 62.0205 173.109C62.2109 173.156 62.4087 173.179 62.6138 173.179C62.9097 173.179 63.1602 173.138 63.3652 173.056C63.5703 172.974 63.7256 172.857 63.8311 172.704C63.9395 172.552 63.9937 172.372 63.9937 172.164ZM67.7773 173.869C67.4463 173.869 67.146 173.813 66.8765 173.702C66.6099 173.588 66.3799 173.428 66.1865 173.223C65.9961 173.018 65.8496 172.775 65.7471 172.494C65.6445 172.212 65.5933 171.905 65.5933 171.571V171.386C65.5933 170.999 65.6504 170.655 65.7646 170.353C65.8789 170.049 66.0342 169.791 66.2305 169.58C66.4268 169.369 66.6494 169.209 66.8984 169.101C67.1475 168.993 67.4053 168.938 67.6719 168.938C68.0117 168.938 68.3047 168.997 68.5508 169.114C68.7998 169.231 69.0034 169.395 69.1616 169.606C69.3198 169.814 69.437 170.06 69.5132 170.345C69.5894 170.626 69.6274 170.933 69.6274 171.267V171.632H66.0767V170.969H68.8145V170.907C68.8027 170.696 68.7588 170.491 68.6826 170.292C68.6094 170.093 68.4922 169.929 68.3311 169.8C68.1699 169.671 67.9502 169.606 67.6719 169.606C67.4873 169.606 67.3174 169.646 67.1621 169.725C67.0068 169.801 66.8735 169.915 66.7622 170.068C66.6509 170.22 66.5645 170.406 66.5029 170.626C66.4414 170.846 66.4106 171.099 66.4106 171.386V171.571C66.4106 171.796 66.4414 172.009 66.5029 172.208C66.5674 172.404 66.6597 172.577 66.7798 172.726C66.9028 172.876 67.0508 172.993 67.2236 173.078C67.3994 173.163 67.5986 173.205 67.8213 173.205C68.1084 173.205 68.3516 173.147 68.5508 173.03C68.75 172.912 68.9243 172.756 69.0737 172.559L69.5659 172.951C69.4634 173.106 69.333 173.254 69.1748 173.394C69.0166 173.535 68.8218 173.649 68.5903 173.737C68.3618 173.825 68.0908 173.869 67.7773 173.869ZM71.46 167.031V173.781H70.6426V167.031H71.46ZM73.6484 167.031V173.781H72.8311V167.031H73.6484ZM76.9268 173.869C76.5957 173.869 76.2954 173.813 76.0259 173.702C75.7593 173.588 75.5293 173.428 75.3359 173.223C75.1455 173.018 74.999 172.775 74.8965 172.494C74.7939 172.212 74.7427 171.905 74.7427 171.571V171.386C74.7427 170.999 74.7998 170.655 74.9141 170.353C75.0283 170.049 75.1836 169.791 75.3799 169.58C75.5762 169.369 75.7988 169.209 76.0479 169.101C76.2969 168.993 76.5547 168.938 76.8213 168.938C77.1611 168.938 77.4541 168.997 77.7002 169.114C77.9492 169.231 78.1528 169.395 78.311 169.606C78.4692 169.814 78.5864 170.06 78.6626 170.345C78.7388 170.626 78.7769 170.933 78.7769 171.267V171.632H75.2261V170.969H77.9639V170.907C77.9521 170.696 77.9082 170.491 77.832 170.292C77.7588 170.093 77.6416 169.929 77.4805 169.8C77.3193 169.671 77.0996 169.606 76.8213 169.606C76.6367 169.606 76.4668 169.646 76.3115 169.725C76.1562 169.801 76.0229 169.915 75.9116 170.068C75.8003 170.22 75.7139 170.406 75.6523 170.626C75.5908 170.846 75.5601 171.099 75.5601 171.386V171.571C75.5601 171.796 75.5908 172.009 75.6523 172.208C75.7168 172.404 75.8091 172.577 75.9292 172.726C76.0522 172.876 76.2002 172.993 76.373 173.078C76.5488 173.163 76.748 173.205 76.9707 173.205C77.2578 173.205 77.501 173.147 77.7002 173.03C77.8994 172.912 78.0737 172.756 78.2231 172.559L78.7153 172.951C78.6128 173.106 78.4824 173.254 78.3242 173.394C78.166 173.535 77.9712 173.649 77.7397 173.737C77.5112 173.825 77.2402 173.869 76.9268 173.869ZM80.5391 169.773V173.781H79.7261V169.026H80.5171L80.5391 169.773ZM82.0244 169L82.02 169.756C81.9526 169.741 81.8882 169.732 81.8267 169.729C81.7681 169.723 81.7007 169.721 81.6245 169.721C81.437 169.721 81.2715 169.75 81.1279 169.808C80.9844 169.867 80.8628 169.949 80.7632 170.055C80.6636 170.16 80.5845 170.286 80.5259 170.432C80.4702 170.576 80.4336 170.734 80.416 170.907L80.1875 171.039C80.1875 170.752 80.2153 170.482 80.271 170.23C80.3296 169.978 80.4189 169.756 80.5391 169.562C80.6592 169.366 80.8115 169.214 80.9961 169.105C81.1836 168.994 81.4062 168.938 81.6641 168.938C81.7227 168.938 81.79 168.946 81.8662 168.96C81.9424 168.972 81.9951 168.985 82.0244 169ZM85.1313 167.383H87.2495C87.73 167.383 88.1357 167.456 88.4668 167.602C88.8008 167.749 89.0542 167.966 89.2271 168.253C89.4028 168.537 89.4907 168.887 89.4907 169.303C89.4907 169.596 89.4307 169.864 89.3105 170.107C89.1934 170.348 89.0234 170.553 88.8008 170.723C88.5811 170.89 88.3174 171.014 88.0098 171.096L87.7725 171.188H85.7817L85.7729 170.498H87.2759C87.5806 170.498 87.834 170.446 88.0361 170.34C88.2383 170.232 88.3906 170.087 88.4932 169.905C88.5957 169.723 88.647 169.523 88.647 169.303C88.647 169.057 88.5986 168.842 88.502 168.657C88.4053 168.473 88.2529 168.33 88.0449 168.231C87.8398 168.128 87.5747 168.077 87.2495 168.077H85.9795V173.781H85.1313V167.383ZM88.8711 173.781L87.3154 170.881L88.1987 170.876L89.7764 173.728V173.781H88.8711ZM92.5273 173.869C92.1963 173.869 91.896 173.813 91.6265 173.702C91.3599 173.588 91.1299 173.428 90.9365 173.223C90.7461 173.018 90.5996 172.775 90.4971 172.494C90.3945 172.212 90.3433 171.905 90.3433 171.571V171.386C90.3433 170.999 90.4004 170.655 90.5146 170.353C90.6289 170.049 90.7842 169.791 90.9805 169.58C91.1768 169.369 91.3994 169.209 91.6484 169.101C91.8975 168.993 92.1553 168.938 92.4219 168.938C92.7617 168.938 93.0547 168.997 93.3008 169.114C93.5498 169.231 93.7534 169.395 93.9116 169.606C94.0698 169.814 94.187 170.06 94.2632 170.345C94.3394 170.626 94.3774 170.933 94.3774 171.267V171.632H90.8267V170.969H93.5645V170.907C93.5527 170.696 93.5088 170.491 93.4326 170.292C93.3594 170.093 93.2422 169.929 93.0811 169.8C92.9199 169.671 92.7002 169.606 92.4219 169.606C92.2373 169.606 92.0674 169.646 91.9121 169.725C91.7568 169.801 91.6235 169.915 91.5122 170.068C91.4009 170.22 91.3145 170.406 91.2529 170.626C91.1914 170.846 91.1606 171.099 91.1606 171.386V171.571C91.1606 171.796 91.1914 172.009 91.2529 172.208C91.3174 172.404 91.4097 172.577 91.5298 172.726C91.6528 172.876 91.8008 172.993 91.9736 173.078C92.1494 173.163 92.3486 173.205 92.5713 173.205C92.8584 173.205 93.1016 173.147 93.3008 173.03C93.5 172.912 93.6743 172.756 93.8237 172.559L94.3159 172.951C94.2134 173.106 94.083 173.254 93.9248 173.394C93.7666 173.535 93.5718 173.649 93.3403 173.737C93.1118 173.825 92.8408 173.869 92.5273 173.869ZM96.21 167.031V173.781H95.3926V167.031H96.21ZM100.319 172.968V170.52C100.319 170.333 100.281 170.17 100.205 170.033C100.131 169.892 100.02 169.784 99.8706 169.707C99.7212 169.631 99.5366 169.593 99.3169 169.593C99.1118 169.593 98.9316 169.628 98.7764 169.699C98.624 169.769 98.5039 169.861 98.416 169.975C98.3311 170.09 98.2886 170.213 98.2886 170.345H97.4756C97.4756 170.175 97.5195 170.006 97.6074 169.839C97.6953 169.672 97.8213 169.521 97.9854 169.387C98.1523 169.249 98.3516 169.14 98.583 169.061C98.8174 168.979 99.0781 168.938 99.3652 168.938C99.7109 168.938 100.016 168.997 100.279 169.114C100.546 169.231 100.754 169.409 100.903 169.646C101.056 169.88 101.132 170.175 101.132 170.529V172.744C101.132 172.902 101.145 173.071 101.171 173.249C101.201 173.428 101.243 173.582 101.299 173.711V173.781H100.451C100.41 173.687 100.377 173.563 100.354 173.408C100.331 173.249 100.319 173.103 100.319 172.968ZM100.459 170.898L100.468 171.47H99.6465C99.415 171.47 99.2085 171.489 99.0269 171.527C98.8452 171.562 98.6929 171.616 98.5698 171.689C98.4468 171.763 98.353 171.855 98.2886 171.966C98.2241 172.075 98.1919 172.202 98.1919 172.348C98.1919 172.498 98.2256 172.634 98.293 172.757C98.3604 172.88 98.4614 172.978 98.5962 173.052C98.7339 173.122 98.9023 173.157 99.1016 173.157C99.3506 173.157 99.5703 173.104 99.7607 172.999C99.9512 172.893 100.102 172.765 100.213 172.612C100.328 172.46 100.389 172.312 100.398 172.168L100.745 172.559C100.725 172.682 100.669 172.819 100.578 172.968C100.487 173.118 100.366 173.261 100.213 173.399C100.064 173.534 99.8853 173.646 99.6772 173.737C99.4722 173.825 99.2407 173.869 98.9829 173.869C98.6606 173.869 98.3779 173.806 98.1348 173.68C97.8945 173.554 97.707 173.386 97.5723 173.175C97.4404 172.961 97.3745 172.722 97.3745 172.458C97.3745 172.203 97.4243 171.979 97.5239 171.786C97.6235 171.59 97.7671 171.427 97.9546 171.298C98.1421 171.166 98.3677 171.067 98.6313 170.999C98.895 170.932 99.1895 170.898 99.5146 170.898H100.459ZM104.401 169.026V169.65H101.831V169.026H104.401ZM102.701 167.87H103.514V172.603C103.514 172.765 103.539 172.886 103.588 172.968C103.638 173.05 103.703 173.104 103.782 173.131C103.861 173.157 103.946 173.17 104.037 173.17C104.104 173.17 104.174 173.164 104.248 173.153C104.324 173.138 104.381 173.126 104.419 173.118L104.423 173.781C104.359 173.802 104.274 173.821 104.168 173.838C104.066 173.859 103.941 173.869 103.795 173.869C103.596 173.869 103.413 173.829 103.246 173.75C103.079 173.671 102.945 173.539 102.846 173.355C102.749 173.167 102.701 172.915 102.701 172.599V167.87ZM107.328 173.869C106.997 173.869 106.697 173.813 106.427 173.702C106.161 173.588 105.931 173.428 105.737 173.223C105.547 173.018 105.4 172.775 105.298 172.494C105.195 172.212 105.144 171.905 105.144 171.571V171.386C105.144 170.999 105.201 170.655 105.315 170.353C105.43 170.049 105.585 169.791 105.781 169.58C105.978 169.369 106.2 169.209 106.449 169.101C106.698 168.993 106.956 168.938 107.223 168.938C107.562 168.938 107.855 168.997 108.102 169.114C108.351 169.231 108.554 169.395 108.712 169.606C108.871 169.814 108.988 170.06 109.064 170.345C109.14 170.626 109.178 170.933 109.178 171.267V171.632H105.627V170.969H108.365V170.907C108.354 170.696 108.31 170.491 108.233 170.292C108.16 170.093 108.043 169.929 107.882 169.8C107.721 169.671 107.501 169.606 107.223 169.606C107.038 169.606 106.868 169.646 106.713 169.725C106.558 169.801 106.424 169.915 106.313 170.068C106.202 170.22 106.115 170.406 106.054 170.626C105.992 170.846 105.961 171.099 105.961 171.386V171.571C105.961 171.796 105.992 172.009 106.054 172.208C106.118 172.404 106.21 172.577 106.331 172.726C106.454 172.876 106.602 172.993 106.774 173.078C106.95 173.163 107.149 173.205 107.372 173.205C107.659 173.205 107.902 173.147 108.102 173.03C108.301 172.912 108.475 172.756 108.625 172.559L109.117 172.951C109.014 173.106 108.884 173.254 108.726 173.394C108.567 173.535 108.373 173.649 108.141 173.737C107.913 173.825 107.642 173.869 107.328 173.869ZM113.125 172.858V167.031H113.942V173.781H113.195L113.125 172.858ZM109.925 171.456V171.364C109.925 171.001 109.969 170.671 110.057 170.375C110.148 170.077 110.275 169.82 110.439 169.606C110.606 169.392 110.804 169.228 111.033 169.114C111.264 168.997 111.522 168.938 111.806 168.938C112.105 168.938 112.366 168.991 112.588 169.097C112.814 169.199 113.004 169.35 113.16 169.549C113.318 169.745 113.442 169.983 113.533 170.261C113.624 170.539 113.687 170.854 113.722 171.206V171.61C113.69 171.959 113.627 172.272 113.533 172.551C113.442 172.829 113.318 173.066 113.16 173.263C113.004 173.459 112.814 173.61 112.588 173.715C112.363 173.818 112.099 173.869 111.797 173.869C111.519 173.869 111.264 173.809 111.033 173.689C110.804 173.569 110.606 173.4 110.439 173.183C110.275 172.967 110.148 172.712 110.057 172.419C109.969 172.123 109.925 171.802 109.925 171.456ZM110.743 171.364V171.456C110.743 171.694 110.766 171.916 110.813 172.124C110.863 172.332 110.939 172.515 111.042 172.674C111.144 172.832 111.274 172.956 111.433 173.047C111.591 173.135 111.78 173.179 112 173.179C112.269 173.179 112.49 173.122 112.663 173.008C112.839 172.893 112.979 172.743 113.085 172.555C113.19 172.368 113.272 172.164 113.331 171.944V170.885C113.296 170.724 113.245 170.569 113.177 170.419C113.113 170.267 113.028 170.132 112.922 170.015C112.82 169.895 112.692 169.8 112.54 169.729C112.391 169.659 112.213 169.624 112.008 169.624C111.786 169.624 111.594 169.671 111.433 169.765C111.274 169.855 111.144 169.981 111.042 170.142C110.939 170.301 110.863 170.485 110.813 170.696C110.766 170.904 110.743 171.127 110.743 171.364Z" fill="#4B465C"/>
<path d="M139.616 166.598H139.821V167.722H139.738C139.367 167.722 139.037 167.777 138.747 167.888C138.457 167.998 138.212 168.156 138.01 168.361C137.811 168.563 137.658 168.807 137.551 169.094C137.447 169.38 137.395 169.701 137.395 170.056V171.237C137.395 171.491 137.419 171.716 137.468 171.911C137.52 172.103 137.593 172.264 137.688 172.394C137.785 172.521 137.899 172.617 138.029 172.682C138.16 172.744 138.306 172.775 138.469 172.775C138.622 172.775 138.76 172.743 138.884 172.678C139.011 172.612 139.118 172.521 139.206 172.404C139.297 172.284 139.366 172.144 139.411 171.984C139.46 171.821 139.484 171.644 139.484 171.452C139.484 171.26 139.46 171.083 139.411 170.92C139.366 170.757 139.297 170.617 139.206 170.5C139.115 170.379 139.004 170.287 138.874 170.222C138.744 170.156 138.597 170.124 138.435 170.124C138.213 170.124 138.018 170.176 137.849 170.28C137.683 170.381 137.552 170.511 137.458 170.671C137.364 170.83 137.313 170.998 137.307 171.174L136.882 170.9C136.892 170.65 136.944 170.412 137.038 170.187C137.136 169.963 137.269 169.764 137.438 169.592C137.611 169.416 137.818 169.279 138.059 169.182C138.299 169.081 138.571 169.03 138.874 169.03C139.206 169.03 139.497 169.094 139.748 169.221C140.002 169.348 140.214 169.522 140.383 169.743C140.552 169.964 140.679 170.22 140.764 170.51C140.848 170.799 140.891 171.109 140.891 171.437C140.891 171.782 140.834 172.103 140.72 172.399C140.609 172.696 140.448 172.954 140.236 173.176C140.028 173.397 139.777 173.57 139.484 173.693C139.191 173.817 138.863 173.879 138.498 173.879C138.12 173.879 137.777 173.81 137.468 173.674C137.162 173.534 136.898 173.338 136.677 173.088C136.455 172.837 136.285 172.539 136.164 172.194C136.047 171.849 135.988 171.472 135.988 171.061V170.515C135.988 169.942 136.071 169.418 136.237 168.942C136.407 168.464 136.649 168.05 136.965 167.702C137.281 167.35 137.661 167.079 138.107 166.887C138.553 166.695 139.056 166.598 139.616 166.598ZM141.711 168.415V168.039C141.711 167.769 141.77 167.523 141.887 167.302C142.004 167.08 142.176 166.903 142.404 166.769C142.632 166.636 142.912 166.569 143.244 166.569C143.586 166.569 143.871 166.636 144.099 166.769C144.33 166.903 144.502 167.08 144.616 167.302C144.733 167.523 144.792 167.769 144.792 168.039V168.415C144.792 168.679 144.733 168.921 144.616 169.142C144.502 169.364 144.331 169.541 144.104 169.675C143.876 169.808 143.594 169.875 143.259 169.875C142.92 169.875 142.635 169.808 142.404 169.675C142.176 169.541 142.004 169.364 141.887 169.142C141.77 168.921 141.711 168.679 141.711 168.415ZM142.644 168.039V168.415C142.644 168.529 142.665 168.638 142.707 168.742C142.753 168.843 142.821 168.926 142.912 168.991C143.007 169.053 143.12 169.084 143.254 169.084C143.394 169.084 143.508 169.053 143.596 168.991C143.684 168.926 143.749 168.843 143.791 168.742C143.833 168.638 143.854 168.529 143.854 168.415V168.039C143.854 167.918 143.832 167.808 143.786 167.707C143.744 167.603 143.677 167.52 143.586 167.458C143.498 167.393 143.384 167.36 143.244 167.36C143.114 167.36 143.003 167.393 142.912 167.458C142.821 167.52 142.753 167.603 142.707 167.707C142.665 167.808 142.644 167.918 142.644 168.039ZM145.109 172.414V172.038C145.109 171.771 145.168 171.527 145.285 171.306C145.406 171.084 145.58 170.907 145.808 170.773C146.039 170.64 146.322 170.573 146.657 170.573C146.996 170.573 147.279 170.64 147.507 170.773C147.735 170.907 147.907 171.084 148.024 171.306C148.142 171.527 148.2 171.771 148.2 172.038V172.414C148.2 172.681 148.142 172.925 148.024 173.146C147.91 173.368 147.74 173.545 147.512 173.679C147.284 173.812 147.002 173.879 146.667 173.879C146.328 173.879 146.044 173.812 145.812 173.679C145.581 173.545 145.406 173.368 145.285 173.146C145.168 172.925 145.109 172.681 145.109 172.414ZM146.047 172.038V172.414C146.047 172.531 146.073 172.642 146.125 172.746C146.177 172.85 146.249 172.933 146.34 172.995C146.434 173.057 146.543 173.088 146.667 173.088C146.823 173.088 146.945 173.057 147.033 172.995C147.121 172.933 147.181 172.85 147.214 172.746C147.25 172.642 147.268 172.531 147.268 172.414V172.038C147.268 171.921 147.245 171.812 147.199 171.711C147.154 171.607 147.085 171.524 146.994 171.462C146.906 171.397 146.794 171.364 146.657 171.364C146.521 171.364 146.407 171.397 146.315 171.462C146.228 171.524 146.161 171.607 146.115 171.711C146.07 171.812 146.047 171.921 146.047 172.038ZM147.004 167.687L143.532 173.244L142.849 172.883L146.32 167.326L147.004 167.687Z" fill="#4B465C"/>
<path d="M18.3784 186.445L19.8857 181.383H21.3535L19.1255 187.781H18.1587L18.3784 186.445ZM16.9897 181.383L18.4927 186.445L18.7212 187.781H17.7456L15.5308 181.383H16.9897ZM23.8672 187.869C23.498 187.869 23.167 187.81 22.874 187.693C22.5811 187.573 22.332 187.408 22.127 187.197C21.9248 186.986 21.7695 186.741 21.6611 186.463C21.5527 186.182 21.4985 185.883 21.4985 185.566V185.39C21.4985 185.03 21.5498 184.701 21.6523 184.402C21.7549 184.103 21.9014 183.844 22.0918 183.624C22.2852 183.404 22.5195 183.236 22.7949 183.119C23.0703 182.998 23.3809 182.938 23.7266 182.938C24.0635 182.938 24.3623 182.994 24.623 183.105C24.8838 183.217 25.1021 183.375 25.2778 183.58C25.4565 183.785 25.5913 184.031 25.6821 184.318C25.7729 184.602 25.8184 184.919 25.8184 185.267V185.795H22.0391V184.951H24.5747V184.854C24.5747 184.679 24.5425 184.522 24.478 184.384C24.4165 184.244 24.3228 184.132 24.1968 184.05C24.0708 183.968 23.9097 183.927 23.7134 183.927C23.5464 183.927 23.4028 183.964 23.2827 184.037C23.1626 184.11 23.0645 184.213 22.9883 184.345C22.915 184.476 22.8594 184.632 22.8213 184.81C22.7861 184.986 22.7686 185.18 22.7686 185.39V185.566C22.7686 185.757 22.7949 185.932 22.8477 186.094C22.9033 186.255 22.981 186.394 23.0806 186.511C23.1831 186.628 23.3062 186.719 23.4497 186.784C23.5962 186.848 23.7617 186.88 23.9463 186.88C24.1748 186.88 24.3872 186.836 24.5835 186.748C24.7827 186.658 24.9541 186.521 25.0977 186.34L25.7129 187.008C25.6133 187.151 25.4771 187.289 25.3042 187.421C25.1343 187.553 24.9292 187.661 24.689 187.746C24.4487 187.828 24.1748 187.869 23.8672 187.869ZM27.8047 184.063V187.781H26.5391V183.026H27.73L27.8047 184.063ZM29.2373 182.995L29.2153 184.169C29.1538 184.16 29.0791 184.153 28.9912 184.147C28.9062 184.138 28.8286 184.134 28.7583 184.134C28.5796 184.134 28.4243 184.157 28.2925 184.204C28.1636 184.248 28.0552 184.314 27.9673 184.402C27.8823 184.49 27.8179 184.597 27.7739 184.723C27.7329 184.848 27.7095 184.992 27.7036 185.153L27.4487 185.074C27.4487 184.766 27.4795 184.484 27.541 184.226C27.6025 183.965 27.6919 183.738 27.8091 183.545C27.9292 183.351 28.0757 183.202 28.2485 183.097C28.4214 182.991 28.6191 182.938 28.8418 182.938C28.9121 182.938 28.9839 182.944 29.0571 182.956C29.1304 182.965 29.1904 182.978 29.2373 182.995ZM31.3247 187.245L32.5859 183.026H33.9438L32.0322 188.497C31.9912 188.618 31.9355 188.746 31.8652 188.884C31.7979 189.022 31.7056 189.152 31.5884 189.275C31.4741 189.401 31.3291 189.504 31.1533 189.583C30.9805 189.662 30.7681 189.702 30.5161 189.702C30.396 189.702 30.2979 189.694 30.2217 189.68C30.1455 189.665 30.0547 189.644 29.9492 189.618V188.691C29.9814 188.691 30.0151 188.691 30.0503 188.691C30.0854 188.694 30.1191 188.695 30.1514 188.695C30.3184 188.695 30.4546 188.676 30.5601 188.638C30.6655 188.6 30.7505 188.541 30.8149 188.462C30.8794 188.386 30.9307 188.286 30.9688 188.163L31.3247 187.245ZM30.7974 183.026L31.8301 186.472L32.0103 187.812L31.1489 187.904L29.4395 183.026H30.7974ZM39.2612 185.5H37.6309V184.472H39.2612C39.5132 184.472 39.7183 184.431 39.8765 184.349C40.0347 184.264 40.1504 184.147 40.2236 183.997C40.2969 183.848 40.3335 183.68 40.3335 183.492C40.3335 183.302 40.2969 183.124 40.2236 182.96C40.1504 182.796 40.0347 182.664 39.8765 182.565C39.7183 182.465 39.5132 182.415 39.2612 182.415H38.0879V187.781H36.7695V181.383H39.2612C39.7622 181.383 40.1914 181.473 40.5488 181.655C40.9092 181.834 41.1846 182.081 41.375 182.398C41.5654 182.714 41.6606 183.076 41.6606 183.483C41.6606 183.896 41.5654 184.254 41.375 184.556C41.1846 184.857 40.9092 185.09 40.5488 185.254C40.1914 185.418 39.7622 185.5 39.2612 185.5ZM42.2275 185.452V185.36C42.2275 185.011 42.2773 184.69 42.377 184.397C42.4766 184.101 42.6216 183.845 42.812 183.628C43.0024 183.411 43.2368 183.243 43.5151 183.123C43.7935 183 44.1128 182.938 44.4731 182.938C44.8335 182.938 45.1543 183 45.4355 183.123C45.7168 183.243 45.9526 183.411 46.1431 183.628C46.3364 183.845 46.4829 184.101 46.5825 184.397C46.6821 184.69 46.7319 185.011 46.7319 185.36V185.452C46.7319 185.798 46.6821 186.119 46.5825 186.414C46.4829 186.707 46.3364 186.964 46.1431 187.183C45.9526 187.4 45.7183 187.569 45.4399 187.689C45.1616 187.809 44.8423 187.869 44.4819 187.869C44.1216 187.869 43.8008 187.809 43.5195 187.689C43.2412 187.569 43.0054 187.4 42.812 187.183C42.6216 186.964 42.4766 186.707 42.377 186.414C42.2773 186.119 42.2275 185.798 42.2275 185.452ZM43.4932 185.36V185.452C43.4932 185.651 43.5107 185.837 43.5459 186.01C43.5811 186.183 43.6367 186.335 43.7129 186.467C43.792 186.596 43.8945 186.697 44.0205 186.77C44.1465 186.844 44.3003 186.88 44.4819 186.88C44.6577 186.88 44.8086 186.844 44.9346 186.77C45.0605 186.697 45.1616 186.596 45.2378 186.467C45.314 186.335 45.3696 186.183 45.4048 186.01C45.4429 185.837 45.4619 185.651 45.4619 185.452V185.36C45.4619 185.166 45.4429 184.985 45.4048 184.815C45.3696 184.642 45.3125 184.49 45.2334 184.358C45.1572 184.223 45.0562 184.118 44.9302 184.041C44.8042 183.965 44.6519 183.927 44.4731 183.927C44.2944 183.927 44.1421 183.965 44.0161 184.041C43.8931 184.118 43.792 184.223 43.7129 184.358C43.6367 184.49 43.5811 184.642 43.5459 184.815C43.5107 184.985 43.4932 185.166 43.4932 185.36ZM47.3076 185.452V185.36C47.3076 185.011 47.3574 184.69 47.457 184.397C47.5566 184.101 47.7017 183.845 47.8921 183.628C48.0825 183.411 48.3169 183.243 48.5952 183.123C48.8735 183 49.1929 182.938 49.5532 182.938C49.9136 182.938 50.2344 183 50.5156 183.123C50.7969 183.243 51.0327 183.411 51.2231 183.628C51.4165 183.845 51.563 184.101 51.6626 184.397C51.7622 184.69 51.812 185.011 51.812 185.36V185.452C51.812 185.798 51.7622 186.119 51.6626 186.414C51.563 186.707 51.4165 186.964 51.2231 187.183C51.0327 187.4 50.7983 187.569 50.52 187.689C50.2417 187.809 49.9224 187.869 49.562 187.869C49.2017 187.869 48.8809 187.809 48.5996 187.689C48.3213 187.569 48.0854 187.4 47.8921 187.183C47.7017 186.964 47.5566 186.707 47.457 186.414C47.3574 186.119 47.3076 185.798 47.3076 185.452ZM48.5732 185.36V185.452C48.5732 185.651 48.5908 185.837 48.626 186.01C48.6611 186.183 48.7168 186.335 48.793 186.467C48.8721 186.596 48.9746 186.697 49.1006 186.77C49.2266 186.844 49.3804 186.88 49.562 186.88C49.7378 186.88 49.8887 186.844 50.0146 186.77C50.1406 186.697 50.2417 186.596 50.3179 186.467C50.394 186.335 50.4497 186.183 50.4849 186.01C50.5229 185.837 50.542 185.651 50.542 185.452V185.36C50.542 185.166 50.5229 184.985 50.4849 184.815C50.4497 184.642 50.3926 184.49 50.3135 184.358C50.2373 184.223 50.1362 184.118 50.0103 184.041C49.8843 183.965 49.7319 183.927 49.5532 183.927C49.3745 183.927 49.2222 183.965 49.0962 184.041C48.9731 184.118 48.8721 184.223 48.793 184.358C48.7168 184.49 48.6611 184.642 48.626 184.815C48.5908 184.985 48.5732 185.166 48.5732 185.36ZM53.8555 184.063V187.781H52.5898V183.026H53.7808L53.8555 184.063ZM55.2881 182.995L55.2661 184.169C55.2046 184.16 55.1299 184.153 55.042 184.147C54.957 184.138 54.8794 184.134 54.8091 184.134C54.6304 184.134 54.4751 184.157 54.3433 184.204C54.2144 184.248 54.106 184.314 54.0181 184.402C53.9331 184.49 53.8687 184.597 53.8247 184.723C53.7837 184.848 53.7603 184.992 53.7544 185.153L53.4995 185.074C53.4995 184.766 53.5303 184.484 53.5918 184.226C53.6533 183.965 53.7427 183.738 53.8599 183.545C53.98 183.351 54.1265 183.202 54.2993 183.097C54.4722 182.991 54.6699 182.938 54.8926 182.938C54.9629 182.938 55.0347 182.944 55.1079 182.956C55.1812 182.965 55.2412 182.978 55.2881 182.995Z" fill="#EA5455"/>
<path d="M20.4219 198.134V198.824H16.959V198.134H20.4219ZM17.0908 195.383V201.781H16.2427V195.383H17.0908ZM21.1602 195.383V201.781H20.3164V195.383H21.1602ZM25.3481 200.968V198.52C25.3481 198.333 25.3101 198.17 25.2339 198.033C25.1606 197.892 25.0493 197.784 24.8999 197.707C24.7505 197.631 24.5659 197.593 24.3462 197.593C24.1411 197.593 23.9609 197.628 23.8057 197.699C23.6533 197.769 23.5332 197.861 23.4453 197.975C23.3604 198.09 23.3179 198.213 23.3179 198.345H22.5049C22.5049 198.175 22.5488 198.006 22.6367 197.839C22.7246 197.672 22.8506 197.521 23.0146 197.387C23.1816 197.249 23.3809 197.14 23.6123 197.061C23.8467 196.979 24.1074 196.938 24.3945 196.938C24.7402 196.938 25.0449 196.997 25.3086 197.114C25.5752 197.231 25.7832 197.409 25.9326 197.646C26.085 197.88 26.1611 198.175 26.1611 198.529V200.744C26.1611 200.902 26.1743 201.071 26.2007 201.249C26.23 201.428 26.2725 201.582 26.3281 201.711V201.781H25.48C25.439 201.687 25.4067 201.563 25.3833 201.408C25.3599 201.249 25.3481 201.103 25.3481 200.968ZM25.4888 198.898L25.4976 199.47H24.6758C24.4443 199.47 24.2378 199.489 24.0562 199.527C23.8745 199.562 23.7222 199.616 23.5991 199.689C23.4761 199.763 23.3823 199.855 23.3179 199.966C23.2534 200.075 23.2212 200.202 23.2212 200.348C23.2212 200.498 23.2549 200.634 23.3223 200.757C23.3896 200.88 23.4907 200.978 23.6255 201.052C23.7632 201.122 23.9316 201.157 24.1309 201.157C24.3799 201.157 24.5996 201.104 24.79 200.999C24.9805 200.893 25.1313 200.765 25.2427 200.612C25.3569 200.46 25.4185 200.312 25.4272 200.168L25.7744 200.559C25.7539 200.682 25.6982 200.819 25.6074 200.968C25.5166 201.118 25.395 201.261 25.2427 201.399C25.0933 201.534 24.9146 201.646 24.7065 201.737C24.5015 201.825 24.27 201.869 24.0122 201.869C23.6899 201.869 23.4072 201.806 23.1641 201.68C22.9238 201.554 22.7363 201.386 22.6016 201.175C22.4697 200.961 22.4038 200.722 22.4038 200.458C22.4038 200.203 22.4536 199.979 22.5532 199.786C22.6528 199.59 22.7964 199.427 22.9839 199.298C23.1714 199.166 23.397 199.067 23.6606 198.999C23.9243 198.932 24.2188 198.898 24.5439 198.898H25.4888ZM28.2529 198.041V201.781H27.4399V197.026H28.209L28.2529 198.041ZM28.0596 199.223L27.7212 199.21C27.7241 198.885 27.7725 198.585 27.8662 198.309C27.96 198.031 28.0918 197.789 28.2617 197.584C28.4316 197.379 28.6338 197.221 28.8682 197.11C29.1055 196.995 29.3677 196.938 29.6548 196.938C29.8892 196.938 30.1001 196.971 30.2876 197.035C30.4751 197.097 30.6348 197.196 30.7666 197.334C30.9014 197.472 31.0039 197.65 31.0742 197.87C31.1445 198.087 31.1797 198.352 31.1797 198.665V201.781H30.3623V198.657C30.3623 198.408 30.3257 198.208 30.2524 198.059C30.1792 197.907 30.0723 197.797 29.9316 197.729C29.791 197.659 29.6182 197.624 29.4131 197.624C29.2109 197.624 29.0264 197.666 28.8594 197.751C28.6953 197.836 28.5532 197.953 28.4331 198.103C28.3159 198.252 28.2236 198.424 28.1562 198.617C28.0918 198.807 28.0596 199.01 28.0596 199.223ZM35.4116 200.858V195.031H36.229V201.781H35.4819L35.4116 200.858ZM32.2124 199.456V199.364C32.2124 199.001 32.2563 198.671 32.3442 198.375C32.4351 198.077 32.5625 197.82 32.7266 197.606C32.8936 197.392 33.0913 197.228 33.3198 197.114C33.5513 196.997 33.8091 196.938 34.0933 196.938C34.3921 196.938 34.6528 196.991 34.8755 197.097C35.1011 197.199 35.2915 197.35 35.4468 197.549C35.605 197.745 35.7295 197.983 35.8203 198.261C35.9111 198.539 35.9741 198.854 36.0093 199.206V199.61C35.9771 199.959 35.9141 200.272 35.8203 200.551C35.7295 200.829 35.605 201.066 35.4468 201.263C35.2915 201.459 35.1011 201.61 34.8755 201.715C34.6499 201.818 34.3862 201.869 34.0845 201.869C33.8062 201.869 33.5513 201.809 33.3198 201.689C33.0913 201.569 32.8936 201.4 32.7266 201.183C32.5625 200.967 32.4351 200.712 32.3442 200.419C32.2563 200.123 32.2124 199.802 32.2124 199.456ZM33.0298 199.364V199.456C33.0298 199.694 33.0532 199.916 33.1001 200.124C33.1499 200.332 33.2261 200.515 33.3286 200.674C33.4312 200.832 33.5615 200.956 33.7197 201.047C33.8779 201.135 34.0669 201.179 34.2866 201.179C34.5562 201.179 34.7773 201.122 34.9502 201.008C35.126 200.893 35.2666 200.743 35.3721 200.555C35.4775 200.368 35.5596 200.164 35.6182 199.944V198.885C35.583 198.724 35.5317 198.569 35.4644 198.419C35.3999 198.267 35.3149 198.132 35.2095 198.015C35.1069 197.895 34.9795 197.8 34.8271 197.729C34.6777 197.659 34.5005 197.624 34.2954 197.624C34.0728 197.624 33.8809 197.671 33.7197 197.765C33.5615 197.855 33.4312 197.981 33.3286 198.142C33.2261 198.301 33.1499 198.485 33.1001 198.696C33.0532 198.904 33.0298 199.127 33.0298 199.364ZM38.3779 195.031V201.781H37.5605V195.031H38.3779ZM40.5664 197.026V201.781H39.749V197.026H40.5664ZM39.6875 195.765C39.6875 195.633 39.7271 195.522 39.8062 195.431C39.8882 195.34 40.0083 195.295 40.1665 195.295C40.3218 195.295 40.4404 195.34 40.5225 195.431C40.6074 195.522 40.6499 195.633 40.6499 195.765C40.6499 195.891 40.6074 195.999 40.5225 196.09C40.4404 196.178 40.3218 196.222 40.1665 196.222C40.0083 196.222 39.8882 196.178 39.8062 196.09C39.7271 195.999 39.6875 195.891 39.6875 195.765ZM42.6846 198.041V201.781H41.8716V197.026H42.6406L42.6846 198.041ZM42.4912 199.223L42.1528 199.21C42.1558 198.885 42.2041 198.585 42.2979 198.309C42.3916 198.031 42.5234 197.789 42.6934 197.584C42.8633 197.379 43.0654 197.221 43.2998 197.11C43.5371 196.995 43.7993 196.938 44.0864 196.938C44.3208 196.938 44.5317 196.971 44.7192 197.035C44.9067 197.097 45.0664 197.196 45.1982 197.334C45.333 197.472 45.4355 197.65 45.5059 197.87C45.5762 198.087 45.6113 198.352 45.6113 198.665V201.781H44.7939V198.657C44.7939 198.408 44.7573 198.208 44.6841 198.059C44.6108 197.907 44.5039 197.797 44.3633 197.729C44.2227 197.659 44.0498 197.624 43.8447 197.624C43.6426 197.624 43.458 197.666 43.291 197.751C43.127 197.836 42.9849 197.953 42.8647 198.103C42.7476 198.252 42.6553 198.424 42.5879 198.617C42.5234 198.807 42.4912 199.01 42.4912 199.223ZM49.9268 197.026H50.665V201.68C50.665 202.099 50.5801 202.456 50.4102 202.752C50.2402 203.048 50.0029 203.272 49.6982 203.425C49.3965 203.58 49.0479 203.658 48.6523 203.658C48.4883 203.658 48.2949 203.631 48.0723 203.578C47.8525 203.529 47.6357 203.442 47.4219 203.319C47.2109 203.199 47.0337 203.036 46.8901 202.831L47.3164 202.348C47.5156 202.588 47.7236 202.755 47.9404 202.849C48.1602 202.943 48.377 202.99 48.5908 202.99C48.8486 202.99 49.0713 202.941 49.2588 202.845C49.4463 202.748 49.5913 202.604 49.6938 202.414C49.7993 202.226 49.8521 201.995 49.8521 201.72V198.072L49.9268 197.026ZM46.6528 199.456V199.364C46.6528 199.001 46.6953 198.671 46.7803 198.375C46.8682 198.077 46.9927 197.82 47.1538 197.606C47.3179 197.392 47.5156 197.228 47.7471 197.114C47.9785 196.997 48.2393 196.938 48.5293 196.938C48.8281 196.938 49.0889 196.991 49.3115 197.097C49.5371 197.199 49.7275 197.35 49.8828 197.549C50.041 197.745 50.1655 197.983 50.2563 198.261C50.3472 198.539 50.4102 198.854 50.4453 199.206V199.61C50.4131 199.959 50.3501 200.272 50.2563 200.551C50.1655 200.829 50.041 201.066 49.8828 201.263C49.7275 201.459 49.5371 201.61 49.3115 201.715C49.0859 201.818 48.8223 201.869 48.5205 201.869C48.2363 201.869 47.9785 201.809 47.7471 201.689C47.5186 201.569 47.3223 201.4 47.1582 201.183C46.9941 200.967 46.8682 200.712 46.7803 200.419C46.6953 200.123 46.6528 199.802 46.6528 199.456ZM47.4658 199.364V199.456C47.4658 199.694 47.4893 199.916 47.5361 200.124C47.5859 200.332 47.6606 200.515 47.7603 200.674C47.8628 200.832 47.9932 200.956 48.1514 201.047C48.3096 201.135 48.4985 201.179 48.7183 201.179C48.9878 201.179 49.2104 201.122 49.3862 201.008C49.562 200.893 49.7012 200.743 49.8037 200.555C49.9092 200.368 49.9912 200.164 50.0498 199.944V198.885C50.0176 198.724 49.9678 198.569 49.9004 198.419C49.8359 198.267 49.751 198.132 49.6455 198.015C49.543 197.895 49.4155 197.8 49.2632 197.729C49.1108 197.659 48.9321 197.624 48.7271 197.624C48.5044 197.624 48.3125 197.671 48.1514 197.765C47.9932 197.855 47.8628 197.981 47.7603 198.142C47.6606 198.301 47.5859 198.485 47.5361 198.696C47.4893 198.904 47.4658 199.127 47.4658 199.364ZM56.4438 195.383V201.781H55.6089V195.383H56.4438ZM58.5005 195.383V196.077H53.5566V195.383H58.5005ZM60.21 197.026V201.781H59.3926V197.026H60.21ZM59.3311 195.765C59.3311 195.633 59.3706 195.522 59.4497 195.431C59.5317 195.34 59.6519 195.295 59.8101 195.295C59.9653 195.295 60.084 195.34 60.166 195.431C60.251 195.522 60.2935 195.633 60.2935 195.765C60.2935 195.891 60.251 195.999 60.166 196.09C60.084 196.178 59.9653 196.222 59.8101 196.222C59.6519 196.222 59.5317 196.178 59.4497 196.09C59.3706 195.999 59.3311 195.891 59.3311 195.765ZM62.3237 197.971V201.781H61.5063V197.026H62.2798L62.3237 197.971ZM62.1567 199.223L61.7788 199.21C61.7817 198.885 61.8242 198.585 61.9062 198.309C61.9883 198.031 62.1099 197.789 62.271 197.584C62.4321 197.379 62.6328 197.221 62.873 197.11C63.1133 196.995 63.3916 196.938 63.708 196.938C63.9307 196.938 64.1357 196.971 64.3232 197.035C64.5107 197.097 64.6733 197.195 64.811 197.329C64.9487 197.464 65.0557 197.637 65.1318 197.848C65.208 198.059 65.2461 198.314 65.2461 198.613V201.781H64.4331V198.652C64.4331 198.403 64.3906 198.204 64.3057 198.055C64.2236 197.905 64.1064 197.797 63.9541 197.729C63.8018 197.659 63.623 197.624 63.418 197.624C63.1777 197.624 62.9771 197.666 62.8159 197.751C62.6548 197.836 62.5259 197.953 62.4292 198.103C62.3325 198.252 62.2622 198.424 62.2183 198.617C62.1772 198.807 62.1567 199.01 62.1567 199.223ZM65.2373 198.775L64.6924 198.942C64.6953 198.682 64.7378 198.431 64.8198 198.191C64.9048 197.951 65.0264 197.737 65.1846 197.549C65.3457 197.362 65.5435 197.214 65.7778 197.105C66.0122 196.994 66.2803 196.938 66.582 196.938C66.8369 196.938 67.0625 196.972 67.2588 197.039C67.458 197.107 67.625 197.211 67.7598 197.351C67.8975 197.489 68.0015 197.666 68.0718 197.883C68.1421 198.1 68.1772 198.358 68.1772 198.657V201.781H67.3599V198.648C67.3599 198.381 67.3174 198.175 67.2324 198.028C67.1504 197.879 67.0332 197.775 66.8809 197.716C66.7314 197.655 66.5527 197.624 66.3447 197.624C66.166 197.624 66.0078 197.655 65.8701 197.716C65.7324 197.778 65.6167 197.863 65.5229 197.971C65.4292 198.077 65.3574 198.198 65.3076 198.336C65.2607 198.473 65.2373 198.62 65.2373 198.775ZM71.3809 201.869C71.0498 201.869 70.7495 201.813 70.48 201.702C70.2134 201.588 69.9834 201.428 69.79 201.223C69.5996 201.018 69.4531 200.775 69.3506 200.494C69.248 200.212 69.1968 199.905 69.1968 199.571V199.386C69.1968 198.999 69.2539 198.655 69.3682 198.353C69.4824 198.049 69.6377 197.791 69.834 197.58C70.0303 197.369 70.2529 197.209 70.502 197.101C70.751 196.993 71.0088 196.938 71.2754 196.938C71.6152 196.938 71.9082 196.997 72.1543 197.114C72.4033 197.231 72.6069 197.395 72.7651 197.606C72.9233 197.814 73.0405 198.06 73.1167 198.345C73.1929 198.626 73.231 198.933 73.231 199.267V199.632H69.6802V198.969H72.418V198.907C72.4062 198.696 72.3623 198.491 72.2861 198.292C72.2129 198.093 72.0957 197.929 71.9346 197.8C71.7734 197.671 71.5537 197.606 71.2754 197.606C71.0908 197.606 70.9209 197.646 70.7656 197.725C70.6104 197.801 70.4771 197.915 70.3657 198.068C70.2544 198.22 70.168 198.406 70.1064 198.626C70.0449 198.846 70.0142 199.099 70.0142 199.386V199.571C70.0142 199.796 70.0449 200.009 70.1064 200.208C70.1709 200.404 70.2632 200.577 70.3833 200.726C70.5063 200.876 70.6543 200.993 70.8271 201.078C71.0029 201.163 71.2021 201.205 71.4248 201.205C71.7119 201.205 71.9551 201.147 72.1543 201.03C72.3535 200.912 72.5278 200.756 72.6772 200.559L73.1694 200.951C73.0669 201.106 72.9365 201.254 72.7783 201.394C72.6201 201.535 72.4253 201.649 72.1938 201.737C71.9653 201.825 71.6943 201.869 71.3809 201.869ZM78.2188 199.848L79.4888 195.383H80.104L79.748 197.119L78.3813 201.781H77.7705L78.2188 199.848ZM76.9048 195.383L77.9155 199.76L78.2188 201.781H77.6123L76.061 195.383H76.9048ZM81.7476 199.755L82.7363 195.383H83.5845L82.0376 201.781H81.4312L81.7476 199.755ZM80.1963 195.383L81.4312 199.848L81.8794 201.781H81.2686L79.9502 197.119L79.5898 195.383H80.1963ZM85.2852 197.026V201.781H84.4678V197.026H85.2852ZM84.4062 195.765C84.4062 195.633 84.4458 195.522 84.5249 195.431C84.6069 195.34 84.7271 195.295 84.8853 195.295C85.0405 195.295 85.1592 195.34 85.2412 195.431C85.3262 195.522 85.3687 195.633 85.3687 195.765C85.3687 195.891 85.3262 195.999 85.2412 196.09C85.1592 196.178 85.0405 196.222 84.8853 196.222C84.7271 196.222 84.6069 196.178 84.5249 196.09C84.4458 195.999 84.4062 195.891 84.4062 195.765ZM88.5811 197.026V197.65H86.0103V197.026H88.5811ZM86.8804 195.87H87.6934V200.603C87.6934 200.765 87.7183 200.886 87.7681 200.968C87.8179 201.05 87.8823 201.104 87.9614 201.131C88.0405 201.157 88.1255 201.17 88.2163 201.17C88.2837 201.17 88.354 201.164 88.4272 201.153C88.5034 201.138 88.5605 201.126 88.5986 201.118L88.603 201.781C88.5386 201.802 88.4536 201.821 88.3481 201.838C88.2456 201.859 88.1211 201.869 87.9746 201.869C87.7754 201.869 87.5923 201.829 87.4253 201.75C87.2583 201.671 87.125 201.539 87.0254 201.355C86.9287 201.167 86.8804 200.915 86.8804 200.599V195.87ZM90.3477 195.031V201.781H89.5347V195.031H90.3477ZM90.1543 199.223L89.8159 199.21C89.8188 198.885 89.8672 198.585 89.9609 198.309C90.0547 198.031 90.1865 197.789 90.3564 197.584C90.5264 197.379 90.7285 197.221 90.9629 197.11C91.2002 196.995 91.4624 196.938 91.7495 196.938C91.9839 196.938 92.1948 196.971 92.3823 197.035C92.5698 197.097 92.7295 197.196 92.8613 197.334C92.9961 197.472 93.0986 197.65 93.1689 197.87C93.2393 198.087 93.2744 198.352 93.2744 198.665V201.781H92.457V198.657C92.457 198.408 92.4204 198.208 92.3472 198.059C92.2739 197.907 92.167 197.797 92.0264 197.729C91.8857 197.659 91.7129 197.624 91.5078 197.624C91.3057 197.624 91.1211 197.666 90.9541 197.751C90.79 197.836 90.6479 197.953 90.5278 198.103C90.4106 198.252 90.3184 198.424 90.251 198.617C90.1865 198.807 90.1543 199.01 90.1543 199.223ZM100.257 200.164C100.257 200.015 100.234 199.883 100.187 199.768C100.143 199.651 100.064 199.546 99.9497 199.452C99.8384 199.358 99.6831 199.269 99.4839 199.184C99.2876 199.099 99.0386 199.013 98.7368 198.925C98.4204 198.831 98.1348 198.727 97.8799 198.613C97.625 198.495 97.4067 198.362 97.2251 198.213C97.0435 198.063 96.9043 197.892 96.8076 197.699C96.7109 197.505 96.6626 197.284 96.6626 197.035C96.6626 196.786 96.7139 196.556 96.8164 196.345C96.9189 196.134 97.0654 195.951 97.2559 195.796C97.4492 195.638 97.6792 195.515 97.9458 195.427C98.2124 195.339 98.5098 195.295 98.8379 195.295C99.3184 195.295 99.7256 195.387 100.06 195.572C100.396 195.753 100.653 195.992 100.829 196.288C101.004 196.581 101.092 196.894 101.092 197.228H100.249C100.249 196.988 100.197 196.776 100.095 196.591C99.9922 196.404 99.8369 196.257 99.6289 196.152C99.4209 196.043 99.1572 195.989 98.8379 195.989C98.5361 195.989 98.2871 196.035 98.0908 196.125C97.8945 196.216 97.748 196.339 97.6514 196.494C97.5576 196.65 97.5107 196.827 97.5107 197.026C97.5107 197.161 97.5386 197.284 97.5942 197.395C97.6528 197.504 97.7422 197.605 97.8623 197.699C97.9854 197.792 98.1406 197.879 98.3281 197.958C98.5186 198.037 98.7456 198.113 99.0093 198.186C99.3726 198.289 99.686 198.403 99.9497 198.529C100.213 198.655 100.43 198.797 100.6 198.955C100.773 199.111 100.9 199.288 100.982 199.487C101.067 199.683 101.11 199.906 101.11 200.155C101.11 200.416 101.057 200.652 100.952 200.863C100.846 201.074 100.695 201.254 100.499 201.403C100.303 201.553 100.067 201.668 99.7915 201.75C99.519 201.829 99.2144 201.869 98.8774 201.869C98.5815 201.869 98.29 201.828 98.0029 201.746C97.7188 201.664 97.4595 201.541 97.2251 201.377C96.9937 201.213 96.8076 201.011 96.667 200.77C96.5293 200.527 96.4604 200.246 96.4604 199.927H97.3042C97.3042 200.146 97.3467 200.335 97.4316 200.494C97.5166 200.649 97.6323 200.778 97.7788 200.88C97.9282 200.983 98.0967 201.059 98.2842 201.109C98.4746 201.156 98.6724 201.179 98.8774 201.179C99.1733 201.179 99.4238 201.138 99.6289 201.056C99.834 200.974 99.9893 200.857 100.095 200.704C100.203 200.552 100.257 200.372 100.257 200.164ZM106.071 201.091V201.781H102.872V201.091H106.071ZM103.039 195.383V201.781H102.191V195.383H103.039ZM109.499 195.95L107.381 201.781H106.515L108.954 195.383H109.512L109.499 195.95ZM111.274 201.781L109.152 195.95L109.139 195.383H109.697L112.145 201.781H111.274ZM111.165 199.412V200.107H107.57V199.412H111.165Z" fill="#4B465C"/>
<path d="M135.778 199.833C135.778 200.279 135.674 200.655 135.466 200.961C135.257 201.264 134.971 201.493 134.606 201.649C134.245 201.802 133.835 201.879 133.376 201.879C132.917 201.879 132.505 201.802 132.141 201.649C131.776 201.493 131.488 201.264 131.276 200.961C131.065 200.655 130.959 200.279 130.959 199.833C130.959 199.533 131.019 199.263 131.14 199.022C131.26 198.778 131.428 198.57 131.643 198.397C131.861 198.222 132.116 198.088 132.409 197.997C132.702 197.903 133.021 197.855 133.366 197.855C133.828 197.855 134.242 197.937 134.606 198.099C134.971 198.262 135.257 198.492 135.466 198.788C135.674 199.084 135.778 199.432 135.778 199.833ZM134.362 199.74C134.362 199.522 134.32 199.335 134.235 199.179C134.154 199.019 134.038 198.897 133.889 198.812C133.739 198.728 133.565 198.685 133.366 198.685C133.168 198.685 132.993 198.728 132.844 198.812C132.694 198.897 132.577 199.019 132.492 199.179C132.411 199.335 132.37 199.522 132.37 199.74C132.37 199.955 132.411 200.14 132.492 200.297C132.577 200.453 132.694 200.573 132.844 200.658C132.997 200.739 133.174 200.78 133.376 200.78C133.578 200.78 133.752 200.739 133.898 200.658C134.048 200.573 134.162 200.453 134.24 200.297C134.322 200.14 134.362 199.955 134.362 199.74ZM135.627 196.557C135.627 196.918 135.531 197.238 135.339 197.518C135.147 197.795 134.88 198.012 134.538 198.168C134.2 198.324 133.812 198.402 133.376 198.402C132.937 198.402 132.546 198.324 132.204 198.168C131.862 198.012 131.595 197.795 131.403 197.518C131.211 197.238 131.115 196.918 131.115 196.557C131.115 196.127 131.211 195.765 131.403 195.473C131.599 195.176 131.866 194.952 132.204 194.799C132.546 194.646 132.933 194.569 133.366 194.569C133.806 194.569 134.195 194.646 134.533 194.799C134.875 194.952 135.142 195.176 135.334 195.473C135.529 195.765 135.627 196.127 135.627 196.557ZM134.221 196.62C134.221 196.428 134.187 196.262 134.118 196.122C134.05 195.979 133.952 195.868 133.825 195.79C133.701 195.712 133.549 195.673 133.366 195.673C133.19 195.673 133.039 195.71 132.912 195.785C132.788 195.86 132.692 195.969 132.624 196.112C132.559 196.252 132.526 196.421 132.526 196.62C132.526 196.812 132.559 196.981 132.624 197.128C132.692 197.271 132.79 197.383 132.917 197.465C133.044 197.546 133.197 197.587 133.376 197.587C133.555 197.587 133.706 197.546 133.83 197.465C133.957 197.383 134.053 197.271 134.118 197.128C134.187 196.981 134.221 196.812 134.221 196.62ZM141.521 199.833C141.521 200.279 141.416 200.655 141.208 200.961C141 201.264 140.713 201.493 140.349 201.649C139.987 201.802 139.577 201.879 139.118 201.879C138.659 201.879 138.247 201.802 137.883 201.649C137.518 201.493 137.23 201.264 137.019 200.961C136.807 200.655 136.701 200.279 136.701 199.833C136.701 199.533 136.761 199.263 136.882 199.022C137.002 198.778 137.17 198.57 137.385 198.397C137.603 198.222 137.858 198.088 138.151 197.997C138.444 197.903 138.763 197.855 139.108 197.855C139.571 197.855 139.984 197.937 140.349 198.099C140.713 198.262 141 198.492 141.208 198.788C141.416 199.084 141.521 199.432 141.521 199.833ZM140.104 199.74C140.104 199.522 140.062 199.335 139.978 199.179C139.896 199.019 139.781 198.897 139.631 198.812C139.481 198.728 139.307 198.685 139.108 198.685C138.91 198.685 138.736 198.728 138.586 198.812C138.436 198.897 138.319 199.019 138.234 199.179C138.153 199.335 138.112 199.522 138.112 199.74C138.112 199.955 138.153 200.14 138.234 200.297C138.319 200.453 138.436 200.573 138.586 200.658C138.739 200.739 138.916 200.78 139.118 200.78C139.32 200.78 139.494 200.739 139.641 200.658C139.79 200.573 139.904 200.453 139.982 200.297C140.064 200.14 140.104 199.955 140.104 199.74ZM141.369 196.557C141.369 196.918 141.273 197.238 141.081 197.518C140.889 197.795 140.622 198.012 140.28 198.168C139.942 198.324 139.554 198.402 139.118 198.402C138.679 198.402 138.288 198.324 137.946 198.168C137.604 198.012 137.338 197.795 137.146 197.518C136.953 197.238 136.857 196.918 136.857 196.557C136.857 196.127 136.953 195.765 137.146 195.473C137.341 195.176 137.608 194.952 137.946 194.799C138.288 194.646 138.675 194.569 139.108 194.569C139.548 194.569 139.937 194.646 140.275 194.799C140.617 194.952 140.884 195.176 141.076 195.473C141.271 195.765 141.369 196.127 141.369 196.557ZM139.963 196.62C139.963 196.428 139.929 196.262 139.86 196.122C139.792 195.979 139.694 195.868 139.567 195.79C139.444 195.712 139.291 195.673 139.108 195.673C138.933 195.673 138.781 195.71 138.654 195.785C138.531 195.86 138.435 195.969 138.366 196.112C138.301 196.252 138.269 196.421 138.269 196.62C138.269 196.812 138.301 196.981 138.366 197.128C138.435 197.271 138.532 197.383 138.659 197.465C138.786 197.546 138.939 197.587 139.118 197.587C139.297 197.587 139.449 197.546 139.572 197.465C139.699 197.383 139.795 197.271 139.86 197.128C139.929 196.981 139.963 196.812 139.963 196.62ZM142.453 196.415V196.039C142.453 195.769 142.512 195.523 142.629 195.302C142.746 195.08 142.919 194.903 143.146 194.769C143.374 194.636 143.654 194.569 143.986 194.569C144.328 194.569 144.613 194.636 144.841 194.769C145.072 194.903 145.244 195.08 145.358 195.302C145.476 195.523 145.534 195.769 145.534 196.039V196.415C145.534 196.679 145.476 196.921 145.358 197.142C145.244 197.364 145.074 197.541 144.846 197.675C144.618 197.808 144.336 197.875 144.001 197.875C143.662 197.875 143.378 197.808 143.146 197.675C142.919 197.541 142.746 197.364 142.629 197.142C142.512 196.921 142.453 196.679 142.453 196.415ZM143.386 196.039V196.415C143.386 196.529 143.407 196.638 143.449 196.742C143.495 196.843 143.563 196.926 143.654 196.991C143.749 197.053 143.863 197.084 143.996 197.084C144.136 197.084 144.25 197.053 144.338 196.991C144.426 196.926 144.491 196.843 144.533 196.742C144.576 196.638 144.597 196.529 144.597 196.415V196.039C144.597 195.918 144.574 195.808 144.528 195.707C144.486 195.603 144.419 195.52 144.328 195.458C144.24 195.393 144.126 195.36 143.986 195.36C143.856 195.36 143.745 195.393 143.654 195.458C143.563 195.52 143.495 195.603 143.449 195.707C143.407 195.808 143.386 195.918 143.386 196.039ZM145.852 200.414V200.038C145.852 199.771 145.91 199.527 146.027 199.306C146.148 199.084 146.322 198.907 146.55 198.773C146.781 198.64 147.064 198.573 147.399 198.573C147.738 198.573 148.021 198.64 148.249 198.773C148.477 198.907 148.649 199.084 148.767 199.306C148.884 199.527 148.942 199.771 148.942 200.038V200.414C148.942 200.681 148.884 200.925 148.767 201.146C148.653 201.368 148.482 201.545 148.254 201.679C148.026 201.812 147.744 201.879 147.409 201.879C147.071 201.879 146.786 201.812 146.555 201.679C146.324 201.545 146.148 201.368 146.027 201.146C145.91 200.925 145.852 200.681 145.852 200.414ZM146.789 200.038V200.414C146.789 200.531 146.815 200.642 146.867 200.746C146.919 200.85 146.991 200.933 147.082 200.995C147.176 201.057 147.285 201.088 147.409 201.088C147.565 201.088 147.688 201.057 147.775 200.995C147.863 200.933 147.924 200.85 147.956 200.746C147.992 200.642 148.01 200.531 148.01 200.414V200.038C148.01 199.921 147.987 199.812 147.941 199.711C147.896 199.607 147.827 199.524 147.736 199.462C147.648 199.397 147.536 199.364 147.399 199.364C147.263 199.364 147.149 199.397 147.058 199.462C146.97 199.524 146.903 199.607 146.857 199.711C146.812 199.812 146.789 199.921 146.789 200.038ZM147.746 195.687L144.274 201.244L143.591 200.883L147.062 195.326L147.746 195.687Z" fill="#4B465C"/>
<path d="M18.4413 214.416L19.9815 209.243H21.4814L19.2047 215.781H18.2168L18.4413 214.416ZM17.0223 209.243L18.558 214.416L18.7916 215.781H17.7947L15.5314 209.243H17.0223ZM24.0499 215.871C23.6727 215.871 23.3345 215.811 23.0351 215.691C22.7357 215.569 22.4813 215.399 22.2717 215.184C22.0651 214.968 21.9065 214.718 21.7957 214.434C21.6849 214.147 21.6296 213.841 21.6296 213.518V213.338C21.6296 212.97 21.6819 212.633 21.7867 212.328C21.8915 212.023 22.0412 211.758 22.2358 211.533C22.4334 211.309 22.6729 211.136 22.9543 211.017C23.2357 210.894 23.553 210.833 23.9063 210.833C24.2505 210.833 24.5559 210.889 24.8223 211.003C25.0888 211.117 25.3118 211.279 25.4914 211.488C25.674 211.698 25.8117 211.949 25.9045 212.243C25.9973 212.533 26.0437 212.856 26.0437 213.213V213.751H22.1819V212.889H24.7729V212.79C24.7729 212.611 24.74 212.451 24.6741 212.31C24.6113 212.166 24.5155 212.052 24.3867 211.969C24.258 211.885 24.0934 211.843 23.8928 211.843C23.7221 211.843 23.5754 211.88 23.4527 211.955C23.33 212.03 23.2297 212.135 23.1518 212.27C23.077 212.404 23.0201 212.563 22.9812 212.746C22.9453 212.925 22.9273 213.123 22.9273 213.338V213.518C22.9273 213.712 22.9543 213.892 23.0081 214.057C23.065 214.221 23.1444 214.364 23.2461 214.483C23.3509 214.603 23.4767 214.696 23.6233 214.762C23.773 214.828 23.9422 214.861 24.1308 214.861C24.3643 214.861 24.5813 214.816 24.7819 214.726C24.9855 214.633 25.1606 214.494 25.3073 214.308L25.936 214.991C25.8342 215.137 25.695 215.278 25.5183 215.413C25.3447 215.548 25.1352 215.658 24.8897 215.745C24.6442 215.829 24.3643 215.871 24.0499 215.871ZM28.0735 211.982V215.781H26.7802V210.922H27.9971L28.0735 211.982ZM29.5374 210.891L29.5149 212.09C29.452 212.081 29.3757 212.073 29.2859 212.067C29.1991 212.058 29.1197 212.054 29.0479 212.054C28.8653 212.054 28.7066 212.078 28.5719 212.126C28.4402 212.171 28.3294 212.238 28.2396 212.328C28.1528 212.418 28.0869 212.527 28.042 212.656C28.0001 212.784 27.9762 212.931 27.9702 213.096L27.7097 213.015C27.7097 212.701 27.7412 212.412 27.804 212.148C27.8669 211.882 27.9582 211.65 28.0779 211.452C28.2007 211.255 28.3504 211.102 28.527 210.994C28.7036 210.886 28.9057 210.833 29.1332 210.833C29.2051 210.833 29.2784 210.839 29.3532 210.851C29.4281 210.86 29.4895 210.873 29.5374 210.891ZM31.6704 215.233L32.9591 210.922H34.3467L32.3933 216.513C32.3514 216.636 32.2945 216.768 32.2227 216.908C32.1538 217.049 32.0595 217.182 31.9398 217.308C31.823 217.437 31.6748 217.541 31.4952 217.622C31.3186 217.703 31.1016 217.743 30.8441 217.743C30.7214 217.743 30.6211 217.736 30.5432 217.721C30.4654 217.706 30.3726 217.685 30.2648 217.658V216.711C30.2978 216.711 30.3322 216.711 30.3681 216.711C30.404 216.714 30.4385 216.715 30.4714 216.715C30.642 216.715 30.7812 216.696 30.889 216.657C30.9968 216.618 31.0836 216.558 31.1495 216.477C31.2153 216.399 31.2677 216.298 31.3066 216.172L31.6704 215.233ZM31.1315 210.922L32.1868 214.443L32.3709 215.813L31.4907 215.907L29.7439 210.922H31.1315ZM39.7802 213.451H38.1143V212.4H39.7802C40.0377 212.4 40.2472 212.358 40.4089 212.274C40.5706 212.187 40.6888 212.067 40.7637 211.915C40.8385 211.762 40.8759 211.59 40.8759 211.398C40.8759 211.204 40.8385 211.023 40.7637 210.855C40.6888 210.687 40.5706 210.553 40.4089 210.451C40.2472 210.349 40.0377 210.298 39.7802 210.298H38.5813V215.781H37.2341V209.243H39.7802C40.2922 209.243 40.7307 209.336 41.096 209.521C41.4642 209.704 41.7456 209.957 41.9402 210.28C42.1348 210.604 42.2321 210.973 42.2321 211.389C42.2321 211.811 42.1348 212.177 41.9402 212.485C41.7456 212.793 41.4642 213.031 41.096 213.199C40.7307 213.367 40.2922 213.451 39.7802 213.451ZM42.8113 213.401V213.307C42.8113 212.951 42.8622 212.623 42.964 212.323C43.0658 212.021 43.214 211.759 43.4086 211.538C43.6032 211.316 43.8427 211.144 44.1271 211.021C44.4115 210.895 44.7378 210.833 45.106 210.833C45.4742 210.833 45.802 210.895 46.0894 211.021C46.3768 211.144 46.6178 211.316 46.8124 211.538C47.01 211.759 47.1597 212.021 47.2614 212.323C47.3632 212.623 47.4141 212.951 47.4141 213.307V213.401C47.4141 213.754 47.3632 214.082 47.2614 214.385C47.1597 214.684 47.01 214.946 46.8124 215.17C46.6178 215.392 46.3783 215.564 46.0939 215.687C45.8095 215.81 45.4832 215.871 45.115 215.871C44.7467 215.871 44.4189 215.81 44.1315 215.687C43.8471 215.564 43.6062 215.392 43.4086 215.17C43.214 214.946 43.0658 214.684 42.964 214.385C42.8622 214.082 42.8113 213.754 42.8113 213.401ZM44.1046 213.307V213.401C44.1046 213.605 44.1226 213.795 44.1585 213.971C44.1944 214.148 44.2513 214.304 44.3291 214.438C44.41 214.57 44.5147 214.673 44.6435 214.748C44.7722 214.823 44.9294 214.861 45.115 214.861C45.2946 214.861 45.4488 214.823 45.5775 214.748C45.7062 214.673 45.8095 214.57 45.8873 214.438C45.9652 214.304 46.0221 214.148 46.058 213.971C46.0969 213.795 46.1164 213.605 46.1164 213.401V213.307C46.1164 213.109 46.0969 212.924 46.058 212.75C46.0221 212.573 45.9637 212.418 45.8828 212.283C45.805 212.145 45.7017 212.038 45.573 211.96C45.4443 211.882 45.2886 211.843 45.106 211.843C44.9234 211.843 44.7677 211.882 44.639 211.96C44.5132 212.038 44.41 212.145 44.3291 212.283C44.2513 212.418 44.1944 212.573 44.1585 212.75C44.1226 212.924 44.1046 213.109 44.1046 213.307ZM48.0024 213.401V213.307C48.0024 212.951 48.0533 212.623 48.155 212.323C48.2568 212.021 48.405 211.759 48.5996 211.538C48.7942 211.316 49.0337 211.144 49.3181 211.021C49.6025 210.895 49.9288 210.833 50.297 210.833C50.6652 210.833 50.9931 210.895 51.2805 211.021C51.5678 211.144 51.8088 211.316 52.0034 211.538C52.201 211.759 52.3507 212.021 52.4525 212.323C52.5543 212.623 52.6052 212.951 52.6052 213.307V213.401C52.6052 213.754 52.5543 214.082 52.4525 214.385C52.3507 214.684 52.201 214.946 52.0034 215.17C51.8088 215.392 51.5693 215.564 51.2849 215.687C51.0005 215.81 50.6742 215.871 50.306 215.871C49.9378 215.871 49.61 215.81 49.3226 215.687C49.0382 215.564 48.7972 215.392 48.5996 215.17C48.405 214.946 48.2568 214.684 48.155 214.385C48.0533 214.082 48.0024 213.754 48.0024 213.401ZM49.2956 213.307V213.401C49.2956 213.605 49.3136 213.795 49.3495 213.971C49.3855 214.148 49.4423 214.304 49.5202 214.438C49.601 214.57 49.7058 214.673 49.8345 214.748C49.9632 214.823 50.1204 214.861 50.306 214.861C50.4856 214.861 50.6398 214.823 50.7685 214.748C50.8973 214.673 51.0005 214.57 51.0784 214.438C51.1562 214.304 51.2131 214.148 51.249 213.971C51.2879 213.795 51.3074 213.605 51.3074 213.401V213.307C51.3074 213.109 51.2879 212.924 51.249 212.75C51.2131 212.573 51.1547 212.418 51.0739 212.283C50.9961 212.145 50.8928 212.038 50.764 211.96C50.6353 211.882 50.4796 211.843 50.297 211.843C50.1144 211.843 49.9587 211.882 49.83 211.96C49.7043 212.038 49.601 212.145 49.5202 212.283C49.4423 212.418 49.3855 212.573 49.3495 212.75C49.3136 212.924 49.2956 213.109 49.2956 213.307ZM54.6932 211.982V215.781H53.4V210.922H54.6169L54.6932 211.982ZM56.1572 210.891L56.1347 212.09C56.0718 212.081 55.9955 212.073 55.9057 212.067C55.8189 212.058 55.7395 212.054 55.6677 212.054C55.4851 212.054 55.3264 212.078 55.1917 212.126C55.06 212.171 54.9492 212.238 54.8594 212.328C54.7726 212.418 54.7067 212.527 54.6618 212.656C54.6199 212.784 54.596 212.931 54.59 213.096L54.3295 213.015C54.3295 212.701 54.3609 212.412 54.4238 212.148C54.4867 211.882 54.578 211.65 54.6977 211.452C54.8205 211.255 54.9702 211.102 55.1468 210.994C55.3234 210.886 55.5255 210.833 55.753 210.833C55.8249 210.833 55.8982 210.839 55.973 210.851C56.0479 210.86 56.1093 210.873 56.1572 210.891Z" fill="#EA5455"/>
</svg>
