<svg width="4" height="17" viewBox="0 0 4 17" fill="none" xmlns="http://www.w3.org/2000/svg">
<path d="M1.91667 15.6667C2.42293 15.6667 2.83333 15.2563 2.83333 14.75C2.83333 14.2437 2.42293 13.8333 1.91667 13.8333C1.41041 13.8333 1 14.2437 1 14.75C1 15.2563 1.41041 15.6667 1.91667 15.6667Z" stroke="#6F6B7D" stroke-width="2" stroke-linecap="round" stroke-linejoin="round"/>
<path d="M1.91667 9.25C2.42293 9.25 2.83333 8.83959 2.83333 8.33333C2.83333 7.82707 2.42293 7.41667 1.91667 7.41667C1.41041 7.41667 1 7.82707 1 8.33333C1 8.83959 1.41041 9.25 1.91667 9.25Z" stroke="#6F6B7D" stroke-width="2" stroke-linecap="round" stroke-linejoin="round"/>
<path d="M1.91667 2.83333C2.42293 2.83333 2.83333 2.42293 2.83333 1.91667C2.83333 1.41041 2.42293 1 1.91667 1C1.41041 1 1 1.41041 1 1.91667C1 2.42293 1.41041 2.83333 1.91667 2.83333Z" stroke="#6F6B7D" stroke-width="2" stroke-linecap="round" stroke-linejoin="round"/>
</svg>
